<?xml version="1.0" encoding="UTF-8" standalone="no"?>
<!-- Created with Inkscape (http://www.inkscape.org/) -->

<svg
   xmlns:dc="http://purl.org/dc/elements/1.1/"
   xmlns:cc="http://creativecommons.org/ns#"
   xmlns:rdf="http://www.w3.org/1999/02/22-rdf-syntax-ns#"
   xmlns:svg="http://www.w3.org/2000/svg"
   xmlns="http://www.w3.org/2000/svg"
   xmlns:sodipodi="http://sodipodi.sourceforge.net/DTD/sodipodi-0.dtd"
   xmlns:inkscape="http://www.inkscape.org/namespaces/inkscape"
   width="176.91075mm"
   height="19.148302mm"
   viewBox="0 0 176.91075 19.148302"
   version="1.1"
   id="svg8"
   inkscape:version="0.92.4 (5da689c313, 2019-01-14)"
   sodipodi:docname="16112019-v.svg"
   inkscape:export-filename="/var/www/html/clientes/ismcenter/d-1/vista/images/componentes/16112019.png"
   inkscape:export-xdpi="122.41"
   inkscape:export-ydpi="122.41">
  <defs
     id="defs2" />
  <sodipodi:namedview
     id="base"
     pagecolor="#ffffff"
     bordercolor="#666666"
     borderopacity="1.0"
     inkscape:pageopacity="0.0"
     inkscape:pageshadow="2"
     inkscape:zoom="0.77924529"
     inkscape:cx="598.49252"
     inkscape:cy="17.168305"
     inkscape:document-units="mm"
     inkscape:current-layer="layer1"
     showgrid="false"
     fit-margin-top="0"
     fit-margin-left="0"
     fit-margin-right="0"
     fit-margin-bottom="0"
     inkscape:window-width="1440"
     inkscape:window-height="786"
     inkscape:window-x="0"
     inkscape:window-y="27"
     inkscape:window-maximized="1" />
  <metadata
     id="metadata5">
    <rdf:RDF>
      <cc:Work
         rdf:about="">
        <dc:format>image/svg+xml</dc:format>
        <dc:type
           rdf:resource="http://purl.org/dc/dcmitype/StillImage" />
        <dc:title></dc:title>
      </cc:Work>
    </rdf:RDF>
  </metadata>
  <g
     inkscape:label="Capa 1"
     inkscape:groupmode="layer"
     id="layer1"
     transform="translate(33.174814,-107.54705)">
    <path
       style="font-style:normal;font-variant:normal;font-weight:normal;font-stretch:normal;font-size:20.4944973px;line-height:1.25;font-family:'valentine vibes';-inkscape-font-specification:'valentine vibes';letter-spacing:0px;word-spacing:0px;fill:#0d002f;fill-opacity:1;stroke:none;stroke-width:1.93648791"
       d="M 363.91602 0.009765625 C 361.48895 -0.093513731 359.21684 0.70604687 357.09961 2.4101562 C 355.03402 4.1142656 353.14942 6.4128655 351.44531 9.3046875 C 349.7412 12.196509 348.24412 15.500693 346.95312 19.21875 C 345.66213 22.936807 344.55256 26.758978 343.62305 30.683594 C 342.74517 34.55657 342.07413 38.376788 341.60938 42.146484 C 341.42026 43.659437 341.27818 45.091871 341.16602 46.476562 C 339.19853 48.229267 337.40909 49.584605 335.81445 50.511719 C 333.64559 51.751071 332.04451 52.114053 331.01172 51.597656 C 330.54696 51.132899 330.28992 50.382403 330.23828 49.349609 C 330.18664 48.316816 330.08265 47.284747 329.92773 46.251953 C 329.77282 45.16752 329.3853 44.212954 328.76562 43.386719 C 328.19759 42.560484 327.13903 42.146484 325.58984 42.146484 C 324.55705 42.146484 323.60248 42.405478 322.72461 42.921875 C 321.84673 43.438272 321.02069 44.082827 320.24609 44.857422 C 319.52314 45.632017 318.8521 46.458063 318.23242 47.335938 C 317.61275 48.213812 317.04374 48.98884 316.52734 49.660156 L 316.60547 49.505859 C 316.91531 48.369786 317.24985 47.103256 317.61133 45.708984 C 317.97281 44.263073 318.3093 42.765987 318.61914 41.216797 C 318.92898 39.667607 319.18602 38.144035 319.39258 36.646484 C 319.59914 35.148934 319.70312 33.755836 319.70312 32.464844 C 319.70313 30.399257 319.3421 28.694194 318.61914 27.351562 C 317.94782 26.008931 316.73426 25.388908 314.97852 25.492188 C 313.73916 25.492188 312.65412 26.138696 311.72461 27.429688 C 310.7951 28.66904 309.96905 30.115108 309.24609 31.767578 C 308.57478 33.420048 308.00773 35.07214 307.54297 36.724609 C 307.07821 38.325439 306.74171 39.512514 306.53516 40.287109 C 306.43188 39.047757 306.07085 38.093191 305.45117 37.421875 C 304.8315 36.750559 304.08295 36.414062 303.20508 36.414062 C 302.17228 36.414062 301.13826 36.87908 300.10547 37.808594 C 299.12431 38.738108 298.53078 40.133159 298.32422 41.992188 C 298.25452 42.619456 298.21415 43.304214 298.16797 43.978516 C 297.99879 44.114572 297.82458 44.2705 297.64258 44.470703 C 297.0229 45.142019 295.96435 46.174088 294.4668 47.568359 C 292.96925 48.962631 291.26614 50.357682 289.35547 51.751953 C 287.49644 53.146224 285.53434 54.38627 283.46875 55.470703 C 281.4548 56.503497 279.62122 57.019531 277.96875 57.019531 C 277.19415 57.019531 276.60062 56.787023 276.1875 56.322266 C 275.77438 55.857509 275.46437 55.314989 275.25781 54.695312 C 275.10289 54.023997 275.02539 53.352956 275.02539 52.681641 C 275.07703 52.010325 275.17907 51.44132 275.33398 50.976562 C 277.55449 51.33804 279.51659 51.236005 281.2207 50.667969 C 282.97645 50.099932 284.42252 49.273886 285.55859 48.189453 C 286.74631 47.10502 287.64986 45.89146 288.26953 44.548828 C 288.88921 43.154557 289.19922 41.837009 289.19922 40.597656 C 289.19922 39.255025 288.8117 38.092482 288.03711 37.111328 C 287.26251 36.078535 286.04895 35.536015 284.39648 35.484375 C 282.02106 35.329456 279.87942 35.769941 277.96875 36.802734 C 276.10972 37.835528 274.50865 39.204094 273.16602 40.908203 C 272.23469 42.137549 271.47016 43.477535 270.86133 44.921875 C 270.40125 45.422857 269.92012 45.94327 269.26562 46.638672 C 268.49103 47.516546 267.61397 48.44658 266.63281 49.427734 C 265.65166 50.408888 264.61959 51.416425 263.53516 52.449219 C 262.45072 53.430373 261.36568 54.333921 260.28125 55.160156 C 259.19682 55.934751 258.16279 56.579306 257.18164 57.095703 C 256.20049 57.56046 255.32342 57.768437 254.54883 57.716797 C 253.92915 57.716797 253.64563 57.329283 253.69727 56.554688 C 253.74891 55.780092 253.95493 54.876544 254.31641 53.84375 C 254.67788 52.759317 255.09188 51.725295 255.55664 50.744141 C 256.07304 49.711347 256.46055 48.962804 256.71875 48.498047 C 257.02859 47.93001 257.25914 47.362958 257.41406 46.794922 C 257.62062 46.175246 257.72461 45.659211 257.72461 45.246094 C 257.72461 44.2133 257.39007 43.438272 256.71875 42.921875 C 256.09907 42.405478 255.32405 42.146484 254.39453 42.146484 C 253.24752 42.146484 252.07603 42.61619 250.88086 43.53125 C 250.59028 43.621837 250.27487 43.798365 249.92578 44.083984 C 248.99627 44.80694 247.86021 45.373992 246.51758 45.787109 C 245.22659 46.148587 243.98654 46.330078 242.79883 46.330078 C 241.76603 46.330078 240.76045 46.175072 239.7793 45.865234 C 238.84978 45.555396 238.02178 45.141397 237.29883 44.625 C 236.73079 44.160243 236.24124 43.799214 235.82812 43.541016 C 235.41501 43.231178 235.00101 43.076172 234.58789 43.076172 C 234.07149 43.076172 233.60648 43.386183 233.19336 44.005859 C 232.83188 44.625536 232.52382 45.374079 232.26562 46.251953 L 232.26562 46.173828 C 232.11071 46.690225 231.80069 47.542756 231.33594 48.730469 C 230.92282 49.866542 230.40483 51.18409 229.78516 52.681641 C 229.16548 54.127552 228.49444 55.651123 227.77148 57.251953 C 227.10017 58.852783 226.4046 60.323384 225.68164 61.666016 C 224.95869 62.957008 224.23467 64.042047 223.51172 64.919922 C 222.8404 65.746157 222.24687 66.184688 221.73047 66.236328 C 221.36899 66.287968 221.16297 65.69443 221.11133 64.455078 C 221.11133 63.215726 221.21336 61.665669 221.41992 59.806641 C 221.62648 57.895973 221.91196 55.831834 222.27344 53.611328 C 222.63492 51.339182 222.96946 49.222073 223.2793 47.259766 C 223.64077 45.245818 223.9243 43.516223 224.13086 42.070312 C 224.38906 40.624402 224.51953 39.745385 224.51953 39.435547 C 224.57117 37.628158 224.26116 36.259592 223.58984 35.330078 C 222.91853 34.348924 222.09248 33.859375 221.11133 33.859375 C 220.23345 33.859375 219.35444 34.322439 218.47656 35.251953 C 217.59869 36.129828 216.97867 37.498393 216.61719 39.357422 C 216.51391 39.925458 216.38539 40.726972 216.23047 41.759766 C 216.13893 42.629341 216.04661 43.696097 215.95508 44.849609 C 214.98822 45.638475 214.04438 46.163795 213.12305 46.40625 C 212.14189 46.664448 211.16084 46.741951 210.17969 46.638672 C 209.19853 46.483753 208.191 46.200227 207.1582 45.787109 C 206.17705 45.322352 205.16951 44.857335 204.13672 44.392578 C 203.82688 44.289299 203.59437 44.187264 203.43945 44.083984 C 204.00749 43.825786 204.49899 43.462804 204.91211 42.998047 C 205.32523 42.48165 205.53125 41.965616 205.53125 41.449219 C 205.53125 40.622984 205.17022 39.874441 204.44727 39.203125 C 203.72431 38.531809 202.74326 38.144295 201.50391 38.041016 C 199.38668 37.886097 197.52661 38.247125 195.92578 39.125 C 194.37659 39.951235 193.061 41.113777 191.97656 42.611328 C 191.5933 43.147897 191.25746 43.718339 190.94531 44.304688 C 188.03145 47.160195 185.44492 49.258222 183.19141 50.589844 C 180.9709 51.880836 179.39631 52.217332 178.4668 51.597656 C 177.64056 51.081259 177.12453 50.330763 176.91797 49.349609 C 176.71141 48.316816 176.50539 47.311232 176.29883 46.330078 C 176.14391 45.297285 175.80741 44.393736 175.29102 43.619141 C 174.77462 42.792906 173.79357 42.327889 172.34766 42.224609 C 171.21158 42.224609 170.20405 42.508135 169.32617 43.076172 C 168.4483 43.644208 167.64874 44.341734 166.92578 45.167969 C 166.25447 45.994204 165.66093 46.846735 165.14453 47.724609 C 164.67977 48.550844 164.29226 49.272902 163.98242 49.892578 C 164.24062 49.066343 164.42016 48.395303 164.52344 47.878906 C 164.67836 47.31087 164.80883 46.76835 164.91211 46.251953 C 165.06703 45.735556 165.19555 45.193036 165.29883 44.625 C 165.40211 44.056964 165.55711 43.334906 165.76367 42.457031 C 165.97023 41.785715 166.07227 41.010687 166.07227 40.132812 C 166.07227 38.738541 165.73772 37.706472 165.06641 37.035156 C 164.44673 36.312201 163.6717 35.949219 162.74219 35.949219 C 161.65775 35.949219 160.54818 36.467206 159.41211 37.5 C 158.32768 38.532794 157.65664 40.080897 157.39844 42.146484 L 157.39844 42.300781 C 157.29516 44.05653 157.19117 46.071604 157.08789 48.34375 C 156.98461 50.564256 156.93359 52.65488 156.93359 54.617188 C 156.93359 56.166378 156.98461 57.561429 157.08789 58.800781 C 157.19117 59.988494 157.39719 60.788054 157.70703 61.201172 C 158.22343 61.924127 158.76595 62.311642 159.33398 62.363281 C 159.90202 62.414921 160.41806 62.312886 160.88281 62.054688 C 161.34757 61.796489 161.76157 61.433507 162.12305 60.96875 C 162.48452 60.503993 162.74157 60.091946 162.89648 59.730469 C 163.15468 59.162432 163.64619 58.205913 164.36914 56.863281 C 165.0921 55.46901 165.84064 54.049427 166.61523 52.603516 C 167.44147 51.157605 168.2165 49.893027 168.93945 48.808594 C 169.66241 47.672521 170.17844 47.052498 170.48828 46.949219 C 170.6432 47.878733 170.82469 48.859785 171.03125 49.892578 C 171.23781 50.925372 171.57235 51.906423 172.03711 52.835938 C 172.50187 53.765452 173.17291 54.566965 174.05078 55.238281 C 174.92866 55.857957 176.11768 56.218986 177.61523 56.322266 C 178.85459 56.373905 180.09268 56.167882 181.33203 55.703125 C 182.57138 55.186728 183.81143 54.489203 185.05078 53.611328 C 186.34177 52.681814 187.60635 51.647792 188.8457 50.511719 C 188.89427 50.467038 188.94174 50.419827 188.99023 50.375 C 188.86793 51.200812 188.80078 52.021244 188.80078 52.835938 C 188.80078 54.126929 188.95579 55.366975 189.26562 56.554688 C 189.57546 57.69076 190.01399 58.698297 190.58203 59.576172 C 191.15007 60.402407 191.87213 61.046962 192.75 61.511719 C 193.62787 61.976476 194.6619 62.157967 195.84961 62.054688 C 198.01848 61.796489 199.82557 60.607461 201.27148 58.490234 C 201.99444 57.302522 202.56149 55.986927 202.97461 54.541016 C 203.38773 53.043465 203.5957 51.648414 203.5957 50.357422 L 203.5957 49.427734 C 203.5957 49.169536 203.56922 48.912495 203.51758 48.654297 C 205.11841 49.222333 206.56448 49.660865 207.85547 49.970703 C 209.14646 50.228902 210.36002 50.306404 211.49609 50.203125 C 212.63217 50.099846 213.74174 49.763349 214.82617 49.195312 C 215.12435 49.039125 215.42839 48.857337 215.73438 48.658203 C 215.72205 48.956266 215.69778 49.197572 215.6875 49.505859 C 215.58422 51.00341 215.5332 52.551514 215.5332 54.152344 C 215.5332 56.217931 215.61071 58.257537 215.76562 60.271484 C 215.97218 62.285432 216.2822 64.094482 216.69531 65.695312 C 217.16007 67.244503 217.78009 68.50908 218.55469 69.490234 C 219.32928 70.419749 220.31033 70.85828 221.49805 70.806641 C 223.04724 70.755001 224.51979 69.95544 225.91406 68.40625 C 227.30833 66.80542 228.59744 64.92082 229.78516 62.751953 C 230.97287 60.583087 232.03338 58.335504 232.96289 56.011719 C 233.8924 53.687933 234.66548 51.699345 235.28516 50.046875 L 235.82812 48.576172 C 237.79043 49.557326 239.80355 50.046875 241.86914 50.046875 C 243.62489 50.046875 245.25245 49.789834 246.75 49.273438 C 247.15059 49.135304 247.54626 48.967418 247.93945 48.78125 C 247.83075 49.344953 247.73499 49.919998 247.6543 50.511719 C 247.49938 51.647792 247.42188 52.783849 247.42188 53.919922 C 247.42188 55.107634 247.52586 56.243692 247.73242 57.328125 C 247.93898 58.360919 248.30001 59.290953 248.81641 60.117188 C 249.28116 60.891783 249.90119 61.511805 250.67578 61.976562 C 251.50202 62.44132 252.53409 62.647343 253.77344 62.595703 C 255.42591 62.544063 257.10448 61.977011 258.80859 60.892578 C 260.56434 59.808145 262.29394 58.464111 263.99805 56.863281 C 265.70216 55.262451 267.3562 53.508324 268.95703 51.597656 C 269.0439 51.497212 269.11111 51.412374 269.19727 51.3125 C 269.16131 51.746292 269.13867 52.177428 269.13867 52.603516 C 269.13867 53.842868 269.29368 55.005411 269.60352 56.089844 C 269.91335 57.174277 270.37642 58.155329 270.99609 59.033203 C 271.61577 59.859438 272.3908 60.530478 273.32031 61.046875 C 274.24983 61.563272 275.33487 61.822266 276.57422 61.822266 C 278.53653 61.873905 280.60262 61.382403 282.77148 60.349609 C 284.94035 59.265176 287.03097 57.947628 289.04492 56.398438 C 291.11051 54.849247 293.02159 53.197155 294.77734 51.441406 C 296.0028 50.250962 297.04935 49.191932 298.01367 48.191406 C 298.01369 49.688272 298.04018 51.158244 298.0918 52.603516 C 298.19508 53.997787 298.27258 55.28885 298.32422 56.476562 C 298.4275 57.612635 298.53149 58.593687 298.63477 59.419922 C 298.73804 60.194517 298.84008 60.686019 298.94336 60.892578 C 299.35648 61.925372 300.054 62.441406 301.03516 62.441406 C 302.01631 62.389767 302.76485 61.898264 303.28125 60.96875 C 303.59109 60.452353 304.03157 59.316296 304.59961 57.560547 C 305.16765 55.753158 305.83869 53.611517 306.61328 51.132812 L 306.61328 51.208984 C 307.18132 49.453235 307.77486 47.619652 308.39453 45.708984 C 309.01421 43.798316 309.60774 41.966687 310.17578 40.210938 C 310.74382 38.455188 311.28634 36.878646 311.80273 35.484375 C 312.37077 34.038464 312.86032 32.928892 313.27344 32.154297 C 313.37672 32.619054 313.35218 33.522603 313.19727 34.865234 C 313.04235 36.207866 312.86086 37.782455 312.6543 39.589844 C 312.44774 41.345593 312.24171 43.205661 312.03516 45.167969 C 311.88024 47.130277 311.80273 48.937374 311.80273 50.589844 C 311.85437 52.190674 312.03391 53.532754 312.34375 54.617188 C 312.65359 55.701621 313.19611 56.270626 313.9707 56.322266 C 314.69366 56.373905 315.49517 55.882403 316.37305 54.849609 C 317.30256 53.816816 318.28361 52.656226 319.31641 51.365234 L 319.31641 51.441406 L 319.4707 51.208984 C 320.29694 50.176191 321.04548 49.24811 321.7168 48.421875 C 322.43975 47.544 322.90477 47.052498 323.11133 46.949219 C 323.00805 47.155777 323.08555 47.698297 323.34375 48.576172 C 323.49867 49.350767 323.68016 50.176813 323.88672 51.054688 C 324.14492 51.932562 324.50595 52.758608 324.9707 53.533203 C 325.4871 54.307798 326.13165 54.954306 326.90625 55.470703 C 327.73248 55.9871 328.81752 56.270626 330.16016 56.322266 C 331.39951 56.373905 332.63955 56.167882 333.87891 55.703125 C 335.11826 55.186728 336.35635 54.489203 337.5957 53.611328 C 338.72956 52.794953 339.84153 51.883913 340.93555 50.908203 C 340.92708 51.319567 340.91211 51.741417 340.91211 52.138672 C 340.91211 54.04934 341.04063 55.754402 341.29883 57.251953 C 341.50539 58.749504 341.84188 59.936579 342.30664 60.814453 L 342.22852 60.814453 C 342.84819 62.157085 343.59673 62.699605 344.47461 62.441406 C 345.40412 62.131568 346.46268 61.124031 347.65039 59.419922 C 348.16679 58.335489 348.91533 56.838402 349.89648 54.927734 C 350.87764 52.965427 351.98721 51.029809 353.22656 49.119141 C 354.46591 47.156833 355.75698 45.478256 357.09961 44.083984 C 358.49388 42.638073 359.86245 41.88953 361.20508 41.837891 C 362.03131 41.837891 362.57383 42.145949 362.83203 42.765625 C 363.14187 43.333661 363.29688 44.031187 363.29688 44.857422 C 363.34851 45.683657 363.27101 46.536188 363.06445 47.414062 C 362.90953 48.291937 362.78101 48.962977 362.67773 49.427734 C 359.83755 50.718726 357.35941 52.19128 355.24219 53.84375 C 353.12496 55.44458 351.3424 57.096672 349.89648 58.800781 C 348.50221 60.453251 347.44366 62.105343 346.7207 63.757812 C 346.04939 65.358643 345.71484 66.778226 345.71484 68.017578 C 345.71484 69.050372 345.9454 69.980406 346.41016 70.806641 C 346.92655 71.581236 347.70158 72.072738 348.73438 72.279297 C 351.05816 72.589135 353.22824 72.124118 355.24219 70.884766 C 357.30777 69.645413 359.1394 67.993322 360.74023 65.927734 C 362.34106 63.810508 363.6851 61.434405 364.76953 58.800781 C 365.85396 56.115518 366.62704 53.506907 367.0918 50.976562 C 370.0869 49.78885 372.463 48.860769 374.21875 48.189453 C 375.38727 47.742667 376.28869 47.42005 377.06836 47.15625 C 377.27528 47.238243 377.49709 47.303836 377.75391 47.335938 C 378.32194 47.439217 378.94197 47.56969 379.61328 47.724609 C 380.33624 47.827889 380.69727 47.982894 380.69727 48.189453 C 380.80054 48.964048 380.59452 50.124638 380.07812 51.673828 C 379.56173 53.223018 378.96819 54.901596 378.29688 56.708984 C 377.57392 58.619652 376.92741 60.504253 376.35938 62.363281 C 375.79134 64.17067 375.55883 65.745259 375.66211 67.087891 C 375.81703 68.585441 376.35955 69.619464 377.28906 70.1875 C 378.21858 70.755536 379.27713 71.039062 380.46484 71.039062 C 381.1878 71.039062 381.85884 70.988045 382.47852 70.884766 C 383.14983 70.729847 383.76985 70.548356 384.33789 70.341797 C 385.5256 69.87704 386.76565 69.077479 388.05664 67.941406 C 389.39927 66.753694 390.69034 65.385128 391.92969 63.835938 C 393.22068 62.286747 394.43424 60.634655 395.57031 58.878906 C 396.75803 57.123157 397.84306 55.44458 398.82422 53.84375 C 398.88008 53.754366 398.92356 53.67817 398.97852 53.589844 C 399.03956 54.464245 399.18197 55.298035 399.4082 56.089844 C 399.71804 57.174277 400.18306 58.155329 400.80273 59.033203 C 401.42241 59.859438 402.19549 60.530478 403.125 61.046875 C 404.05451 61.563272 405.13955 61.822266 406.37891 61.822266 C 408.34121 61.873905 410.40731 61.382403 412.57617 60.349609 C 414.74504 59.265176 416.83566 57.947628 418.84961 56.398438 C 420.9152 54.849247 422.82628 53.197155 424.58203 51.441406 C 426.38942 49.685657 427.91299 48.137554 429.15234 46.794922 C 429.66874 46.175246 429.97875 45.606241 430.08203 45.089844 C 430.18531 44.573447 430.10781 44.185933 429.84961 43.927734 C 429.64305 43.617896 429.30655 43.489376 428.8418 43.541016 C 428.42868 43.592655 427.96562 43.902667 427.44922 44.470703 C 426.82954 45.142019 425.76904 46.174088 424.27148 47.568359 C 422.77393 48.962631 421.07082 50.357682 419.16016 51.751953 C 417.30113 53.146224 415.33902 54.38627 413.27344 55.470703 C 411.25949 56.503497 409.42591 57.019531 407.77344 57.019531 C 406.99884 57.019531 406.4053 56.787023 405.99219 56.322266 C 405.57907 55.857509 405.26906 55.314989 405.0625 54.695312 C 404.90758 54.023997 404.83008 53.352956 404.83008 52.681641 C 404.88172 52.010325 404.98571 51.44132 405.14062 50.976562 C 407.36113 51.33804 409.32323 51.236005 411.02734 50.667969 C 412.78309 50.099932 414.22916 49.273886 415.36523 48.189453 C 416.55295 47.10502 417.4565 45.89146 418.07617 44.548828 C 418.69585 43.154557 419.00586 41.837009 419.00586 40.597656 C 419.00586 39.255025 418.61835 38.092482 417.84375 37.111328 C 417.06915 36.078535 415.85559 35.536015 414.20312 35.484375 C 411.8277 35.329456 409.68411 35.769941 407.77344 36.802734 C 405.91441 37.835528 404.31333 39.204094 402.9707 40.908203 C 401.82662 42.418389 400.94062 44.098964 400.2832 45.933594 C 399.93461 46.468729 399.62568 46.947225 399.05664 47.800781 C 398.28205 49.040134 397.37654 50.435185 396.34375 51.984375 C 395.31096 53.481926 394.20138 55.030029 393.01367 56.630859 C 391.82596 58.18005 390.66342 59.601586 389.52734 60.892578 C 388.44291 62.18357 387.41084 63.215639 386.42969 63.990234 C 385.50017 64.71319 384.75163 64.996716 384.18359 64.841797 C 383.77048 64.686878 383.61547 64.144358 383.71875 63.214844 C 383.82203 62.23369 384.02805 61.0731 384.33789 59.730469 C 384.64773 58.336197 384.95774 56.890129 385.26758 55.392578 C 385.62906 53.895027 385.81055 52.526462 385.81055 51.287109 C 385.81055 49.479721 385.44952 47.929664 384.72656 46.638672 C 384.00361 45.34768 382.71254 44.574605 380.85352 44.316406 C 381.31827 43.490171 381.83431 42.533652 382.40234 41.449219 C 383.02202 40.313146 383.51157 39.230059 383.87305 38.197266 C 384.28616 37.164472 384.51867 36.234438 384.57031 35.408203 C 384.62195 34.581968 384.36491 34.039448 383.79688 33.78125 C 382.76408 33.419772 381.73006 33.548293 380.69727 34.167969 C 379.71611 34.736005 378.83905 35.562051 378.06445 36.646484 C 377.28986 37.730918 376.66984 38.944478 376.20508 40.287109 C 375.74032 41.629741 375.50781 42.843301 375.50781 43.927734 C 375.50781 44.261801 375.53925 44.569236 375.58594 44.863281 C 375.07991 44.997768 374.57868 45.131258 373.91016 45.322266 C 372.10277 45.838662 370.03668 46.536188 367.71289 47.414062 C 367.76453 46.071431 367.68703 44.780368 367.48047 43.541016 C 367.27391 42.250024 366.91288 41.140452 366.39648 40.210938 C 365.88009 39.281423 365.18256 38.557412 364.30469 38.041016 C 363.42681 37.524619 362.36826 37.345081 361.12891 37.5 C 359.78627 37.654919 358.41771 38.325959 357.02344 39.513672 C 355.68081 40.649745 354.36326 42.042843 353.07227 43.695312 C 351.78127 45.296143 350.56771 47.02769 349.43164 48.886719 C 348.29557 50.694107 347.31452 52.370732 346.48828 53.919922 L 346.48828 53.6875 C 346.53992 53.584221 346.61742 53.274209 346.7207 52.757812 L 347.18555 50.435547 C 347.39211 49.402753 347.67563 47.903714 348.03711 45.941406 C 349.43138 44.495495 350.98144 42.663866 352.68555 40.443359 C 354.4413 38.222853 356.17089 35.820265 357.875 33.238281 C 359.63075 30.656297 361.28284 27.996669 362.83203 25.259766 C 364.38122 22.471223 365.69877 19.83808 366.7832 17.359375 C 367.2996 16.120023 367.84212 14.494416 368.41016 12.480469 C 369.02983 10.414882 369.33984 8.3998078 369.33984 6.4375 C 369.33984 4.6301113 368.95233 3.1330251 368.17773 1.9453125 C 367.40314 0.7575999 365.9816 0.11304498 363.91602 0.009765625 z M 104.4707 0.0859375 C 102.35348 0.0859375 100.13433 0.83448058 97.810547 2.3320312 C 95.538401 3.8295819 93.368322 6.0771643 91.302734 9.0722656 C 89.237147 12.015727 87.352547 15.68094 85.648438 20.070312 C 83.944328 24.459685 82.602248 29.546434 81.621094 35.330078 C 81.466175 36.207953 81.335701 37.189004 81.232422 38.273438 C 81.180782 39.357871 81.129765 40.338922 81.078125 41.216797 L 80.304688 40.751953 L 80.148438 40.751953 C 78.857446 40.493755 77.566383 40.571258 76.275391 40.984375 C 75.036038 41.345853 73.822478 41.965875 72.634766 42.84375 C 71.498693 43.669985 70.466624 44.702054 69.537109 45.941406 C 68.555955 47.129119 67.703424 48.39565 66.980469 49.738281 C 66.257513 51.029273 65.714993 52.344868 65.353516 53.6875 C 64.940398 54.978492 64.734375 56.192052 64.734375 57.328125 C 64.734375 58.567477 64.993369 59.679002 65.509766 60.660156 C 65.974523 61.58967 66.774083 62.183208 67.910156 62.441406 C 68.89131 62.699605 69.97635 62.544599 71.164062 61.976562 C 72.403415 61.356886 73.641507 60.53084 74.880859 59.498047 C 76.171851 58.465253 77.438382 57.302711 78.677734 56.011719 C 79.917087 54.720727 81.053144 53.482634 82.085938 52.294922 C 82.860533 55.393303 84.098625 57.922458 85.802734 59.884766 C 87.558483 61.795434 89.65106 62.698982 92.078125 62.595703 C 94.040433 62.544063 95.976051 61.924041 97.886719 60.736328 C 99.849027 59.496976 101.70909 58.050907 103.46484 56.398438 C 104.89018 55.056946 106.20659 53.662339 107.42773 52.21875 C 107.42454 52.346416 107.41016 52.476534 107.41016 52.603516 C 107.41016 53.842868 107.56516 55.005411 107.875 56.089844 C 108.18484 57.174277 108.64986 58.155329 109.26953 59.033203 C 109.88921 59.859438 110.66424 60.530478 111.59375 61.046875 C 112.52326 61.563272 113.6083 61.822266 114.84766 61.822266 C 116.80996 61.873905 118.8741 61.382403 121.04297 60.349609 C 123.21184 59.265176 125.30441 57.947628 127.31836 56.398438 C 129.38395 54.849247 131.29503 53.197155 133.05078 51.441406 C 134.85817 49.685657 136.38174 48.137554 137.62109 46.794922 C 138.13749 46.175246 138.44555 45.606241 138.54883 45.089844 C 138.65211 44.573447 138.5746 44.185933 138.31641 43.927734 C 138.10985 43.617896 137.7753 43.489376 137.31055 43.541016 C 136.89743 43.592655 136.43241 43.902667 135.91602 44.470703 C 135.29634 45.142019 134.23779 46.174088 132.74023 47.568359 C 131.24268 48.962631 129.53762 50.357682 127.62695 51.751953 C 125.76792 53.146224 123.80582 54.38627 121.74023 55.470703 C 119.72629 56.503497 117.89466 57.019531 116.24219 57.019531 C 115.46759 57.019531 114.8721 56.787023 114.45898 56.322266 C 114.04587 55.857509 113.73586 55.314989 113.5293 54.695312 C 113.37438 54.023997 113.29883 53.352956 113.29883 52.681641 C 113.35047 52.010325 113.4525 51.44132 113.60742 50.976562 C 115.82793 51.33804 117.79003 51.236005 119.49414 50.667969 C 121.24989 50.099932 122.69596 49.273886 123.83203 48.189453 C 125.01974 47.10502 125.92329 45.89146 126.54297 44.548828 C 127.16264 43.154557 127.47266 41.837009 127.47266 40.597656 C 127.47266 39.255025 127.08514 38.092482 126.31055 37.111328 C 125.53595 36.078535 124.32239 35.536015 122.66992 35.484375 C 120.2945 35.329456 118.15286 35.769941 116.24219 36.802734 C 114.38316 37.835528 112.78208 39.204094 111.43945 40.908203 C 110.63493 41.970167 109.96426 43.121351 109.40039 44.34375 C 109.33223 44.410594 109.26347 44.4731 109.19531 44.548828 C 108.42072 45.375063 107.36216 46.535652 106.01953 48.033203 C 104.72854 49.530754 103.30896 51.003308 101.75977 52.449219 C 100.21058 53.89513 98.662472 55.159707 97.113281 56.244141 C 95.564091 57.276934 94.195525 57.768437 93.007812 57.716797 C 92.078298 57.665157 91.30327 57.173655 90.683594 56.244141 C 90.063918 55.262987 89.572415 54.153415 89.210938 52.914062 C 88.901099 51.67471 88.695076 50.434665 88.591797 49.195312 C 88.540157 47.95596 88.566643 47.025926 88.669922 46.40625 C 89.960914 45.011979 91.406982 43.282384 93.007812 41.216797 C 94.608643 39.09957 96.209717 36.827456 97.810547 34.400391 C 99.463017 31.921686 101.03761 29.33956 102.53516 26.654297 C 104.08435 23.969034 105.42643 21.362375 106.5625 18.832031 C 107.75021 16.250047 108.68025 13.822927 109.35156 11.550781 C 110.02288 9.2269957 110.3064 7.2384072 110.20312 5.5859375 L 110.20312 5.0429688 C 110.20313 4.7331307 110.17664 4.5006222 110.125 4.3457031 L 110.04883 4.0371094 C 109.63571 2.5911984 108.88717 1.5571761 107.80273 0.9375 C 106.76994 0.31782386 105.65842 0.034297822 104.4707 0.0859375 z M 482.23828 0.0859375 C 480.12105 0.0859375 477.89996 0.83448058 475.57617 2.3320312 C 473.30403 3.8295819 471.1359 6.0771643 469.07031 9.0722656 C 467.00473 12.015727 465.11817 15.68094 463.41406 20.070312 C 461.70995 24.459685 460.36787 29.546434 459.38672 35.330078 C 459.2318 36.207953 459.10328 37.189004 459 38.273438 C 458.94836 39.357871 458.89734 40.338922 458.8457 41.216797 L 458.07031 40.751953 L 457.91602 40.751953 C 456.62502 40.493755 455.33396 40.571258 454.04297 40.984375 C 452.80362 41.345853 451.59006 41.965875 450.40234 42.84375 C 449.26627 43.669985 448.23225 44.702054 447.30273 45.941406 C 446.32158 47.129119 445.471 48.39565 444.74805 49.738281 C 444.02509 51.029273 443.48257 52.344868 443.12109 53.6875 C 442.70798 54.978492 442.5 56.192052 442.5 57.328125 C 442.5 58.567477 442.75899 59.679002 443.27539 60.660156 C 443.74015 61.58967 444.53971 62.183208 445.67578 62.441406 C 446.65694 62.699605 447.74197 62.544599 448.92969 61.976562 C 450.16904 61.356886 451.40909 60.53084 452.64844 59.498047 C 453.93943 58.465253 455.20401 57.302711 456.44336 56.011719 C 457.68271 54.720727 458.81877 53.482634 459.85156 52.294922 C 460.62616 55.393303 461.8662 57.922458 463.57031 59.884766 C 465.32606 61.795434 467.41669 62.698982 469.84375 62.595703 C 471.80606 62.544063 473.74363 61.924041 475.6543 60.736328 C 477.6166 59.496976 479.47472 58.050907 481.23047 56.398438 C 482.65588 55.056872 483.97412 53.662423 485.19531 52.21875 C 485.19212 52.346416 485.17773 52.476534 485.17773 52.603516 C 485.17773 53.842868 485.33274 55.005411 485.64258 56.089844 C 485.95242 57.174277 486.41743 58.155329 487.03711 59.033203 C 487.65679 59.859438 488.42986 60.530478 489.35938 61.046875 C 490.28889 61.563272 491.37393 61.822266 492.61328 61.822266 C 494.57559 61.873905 496.64168 61.382403 498.81055 60.349609 C 500.97941 59.265176 503.07004 57.947628 505.08398 56.398438 C 507.14957 54.849247 509.06066 53.197155 510.81641 51.441406 C 512.62379 49.685657 514.14737 48.137554 515.38672 46.794922 C 515.90312 46.175246 516.21313 45.606241 516.31641 45.089844 C 516.41969 44.573447 516.34218 44.185933 516.08398 43.927734 C 515.87743 43.617896 515.54093 43.489376 515.07617 43.541016 C 514.66305 43.592655 514.19804 43.902667 513.68164 44.470703 C 513.06196 45.142019 512.00341 46.174088 510.50586 47.568359 C 509.00831 48.962631 507.3052 50.357682 505.39453 51.751953 C 503.5355 53.146224 501.5734 54.38627 499.50781 55.470703 C 497.49387 56.503497 495.66028 57.019531 494.00781 57.019531 C 493.23322 57.019531 492.63968 56.787023 492.22656 56.322266 C 491.81345 55.857509 491.50343 55.314989 491.29688 54.695312 C 491.14196 54.023997 491.06445 53.352956 491.06445 52.681641 C 491.11609 52.010325 491.22008 51.44132 491.375 50.976562 C 493.59551 51.33804 495.55761 51.236005 497.26172 50.667969 C 499.01747 50.099932 500.46354 49.273886 501.59961 48.189453 C 502.78732 47.10502 503.69087 45.89146 504.31055 44.548828 C 504.93022 43.154557 505.24023 41.837009 505.24023 40.597656 C 505.24023 39.255025 504.85272 38.092482 504.07812 37.111328 C 503.30353 36.078535 502.08997 35.536015 500.4375 35.484375 C 498.06207 35.329456 495.91848 35.769941 494.00781 36.802734 C 492.14878 37.835528 490.54771 39.204094 489.20508 40.908203 C 488.40108 41.969485 487.73358 43.120286 487.16992 44.341797 C 487.10092 44.409355 487.03189 44.472165 486.96289 44.548828 C 486.1883 45.375063 485.12974 46.535652 483.78711 48.033203 C 482.49612 49.530754 481.07653 51.003308 479.52734 52.449219 C 477.97815 53.89513 476.4281 55.159707 474.87891 56.244141 C 473.32972 57.276934 471.96115 57.768437 470.77344 57.716797 C 469.84392 57.665157 469.06889 57.173655 468.44922 56.244141 C 467.82954 55.262987 467.33999 54.153415 466.97852 52.914062 C 466.66868 51.67471 466.4607 50.434665 466.35742 49.195312 C 466.30578 47.95596 466.33227 47.025926 466.43555 46.40625 C 467.72654 45.011979 469.17261 43.282384 470.77344 41.216797 C 472.37427 39.09957 473.97534 36.827456 475.57617 34.400391 C 477.22864 31.921686 478.80323 29.33956 480.30078 26.654297 C 481.84997 23.969034 483.19205 21.362375 484.32812 18.832031 C 485.51584 16.250047 486.44587 13.822927 487.11719 11.550781 C 487.7885 9.2269957 488.07203 7.2384072 487.96875 5.5859375 L 487.96875 5.0429688 C 487.96875 4.7331307 487.94422 4.5006222 487.89258 4.3457031 L 487.81445 4.0371094 C 487.40134 2.5911984 486.65279 1.5571761 485.56836 0.9375 C 484.53557 0.31782386 483.42599 0.034297822 482.23828 0.0859375 z M 363.08203 4.4160156 C 363.18047 4.4079469 363.27818 4.4109182 363.375 4.4238281 C 363.99468 4.5271075 364.40672 4.8106335 364.61328 5.2753906 C 364.87148 5.6885081 365.00195 6.2575133 365.00195 6.9804688 C 365.00195 9.8722907 364.40842 12.892948 363.2207 16.042969 C 362.08463 19.141349 360.68958 22.162007 359.03711 25.105469 C 357.38464 27.997291 355.65504 30.683405 353.84766 33.162109 C 352.09191 35.589174 350.61935 37.524792 349.43164 38.970703 C 349.79312 37.318233 350.28462 35.305113 350.9043 32.929688 C 351.57561 30.554262 352.29767 28.074171 353.07227 25.492188 C 353.84686 22.910204 354.67291 20.354563 355.55078 17.824219 C 356.42866 15.242235 357.30767 12.97012 358.18555 11.007812 C 359.11506 8.993865 360.01861 7.3682585 360.89648 6.1289062 C 361.66462 5.044473 362.39296 4.4724965 363.08203 4.4160156 z M 104.08398 4.4238281 C 104.4971 4.4238281 104.85813 4.5788338 105.16797 4.8886719 C 105.47781 5.1985099 105.68383 5.6370417 105.78711 6.2050781 C 105.89039 6.5149162 105.89039 6.8003954 105.78711 7.0585938 C 105.68383 9.0209015 105.09029 11.446069 104.00586 14.337891 C 102.97307 17.178073 101.65747 20.174198 100.05664 23.324219 C 98.455811 26.422599 96.673245 29.494275 94.710938 32.541016 C 92.800269 35.587757 90.942154 38.247385 89.134766 40.519531 C 89.806081 35.665401 90.787133 30.837646 92.078125 26.035156 C 93.420757 21.181026 95.176837 16.559295 97.345703 12.169922 L 97.421875 12.169922 C 98.14483 10.672371 98.919859 9.2773201 99.746094 7.9863281 C 100.57233 6.6953362 101.37189 5.7407699 102.14648 5.1210938 C 102.40468 4.9661747 102.71469 4.811169 103.07617 4.65625 C 103.48929 4.501331 103.82579 4.4238281 104.08398 4.4238281 z M 481.84961 4.4238281 C 482.26273 4.4238281 482.62571 4.5788338 482.93555 4.8886719 C 483.24538 5.1985099 483.45141 5.6370417 483.55469 6.2050781 C 483.65797 6.5149162 483.65797 6.8003954 483.55469 7.0585938 C 483.45141 9.0209015 482.85787 11.446069 481.77344 14.337891 C 480.74064 17.178073 479.4231 20.174198 477.82227 23.324219 C 476.22144 26.422599 474.44082 29.494275 472.47852 32.541016 C 470.56785 35.587757 468.70778 38.247385 466.90039 40.519531 C 467.57171 35.665401 468.55276 30.837646 469.84375 26.035156 C 471.18638 21.181026 472.94246 16.559295 475.11133 12.169922 L 475.18945 12.169922 C 475.91241 10.672371 476.68548 9.2773201 477.51172 7.9863281 C 478.33795 6.6953362 479.13947 5.7407699 479.91406 5.1210938 C 480.17226 4.9661747 480.48227 4.811169 480.84375 4.65625 C 481.25687 4.501331 481.59141 4.4238281 481.84961 4.4238281 z M 16.886719 14.958984 C 16.112124 15.010624 14.794575 15.553144 12.935547 16.585938 C 11.076518 17.567091 9.1919181 18.831669 7.28125 20.380859 C 5.3705819 21.87841 3.6655194 23.479484 2.1679688 25.183594 C 0.72205776 26.887703 0 28.462292 0 29.908203 C 0 30.786078 0.33649668 31.638609 1.0078125 32.464844 L 0.9296875 32.541016 C 1.3428049 32.954133 1.9628276 33.109139 2.7890625 33.005859 C 3.2538196 33.005859 3.6923513 32.748819 4.1054688 32.232422 C 4.5185862 31.819304 4.7000772 31.354287 4.6484375 30.837891 C 4.6484375 30.269854 4.4669465 29.778352 4.1054688 29.365234 C 3.8472704 29.107036 3.8472704 28.772492 4.1054688 28.359375 C 4.4153068 27.894618 4.8538385 27.429601 5.421875 26.964844 C 6.0415511 26.448447 6.7125914 25.956945 7.4355469 25.492188 C 8.1585024 24.975791 8.8560279 24.512727 9.5273438 24.099609 L 1.859375 69.800781 C 1.704456 70.523737 1.7819588 71.090789 2.0917969 71.503906 C 2.4532746 71.917024 2.9182917 72.123047 3.4863281 72.123047 C 3.9510852 72.123047 4.4161023 71.968041 4.8808594 71.658203 C 5.3972562 71.348365 5.758285 70.883348 5.9648438 70.263672 C 7.1525563 66.235777 8.417134 61.924056 9.7597656 57.328125 C 11.102397 52.680554 12.366975 48.03429 13.554688 43.386719 C 14.79404 38.687508 15.852594 34.116794 16.730469 29.675781 C 17.659983 25.234769 18.280006 21.155557 18.589844 17.4375 C 18.693123 15.991589 18.126071 15.165543 16.886719 14.958984 z M 636.86523 14.958984 C 636.09064 15.010624 634.77309 15.553144 632.91406 16.585938 C 631.05503 17.567091 629.17043 18.831669 627.25977 20.380859 C 625.3491 21.87841 623.64599 23.479484 622.14844 25.183594 C 620.70253 26.887703 619.97852 28.462292 619.97852 29.908203 C 619.97852 30.786078 620.31501 31.638609 620.98633 32.464844 L 620.9082 32.541016 C 621.32132 32.954133 621.94134 33.109139 622.76758 33.005859 C 623.23234 33.005859 623.67087 32.748819 624.08398 32.232422 C 624.4971 31.819304 624.67859 31.354287 624.62695 30.837891 C 624.62695 30.269854 624.44546 29.778352 624.08398 29.365234 C 623.82579 29.107036 623.82579 28.772492 624.08398 28.359375 C 624.39382 27.894618 624.83235 27.429601 625.40039 26.964844 C 626.02007 26.448447 626.69111 25.956945 627.41406 25.492188 C 628.13702 24.975791 628.83454 24.512727 629.50586 24.099609 L 621.83789 69.800781 C 621.68297 70.523737 621.76047 71.090789 622.07031 71.503906 C 622.43179 71.917024 622.89681 72.123047 623.46484 72.123047 C 623.9296 72.123047 624.39462 71.968041 624.85938 71.658203 C 625.37577 71.348365 625.7368 70.883348 625.94336 70.263672 C 627.13107 66.235777 628.39565 61.924056 629.73828 57.328125 C 631.08091 52.680554 632.34549 48.03429 633.5332 43.386719 C 634.77256 38.687508 635.83306 34.116794 636.71094 29.675781 C 637.64045 25.234769 638.25852 21.155557 638.56836 17.4375 C 638.67164 15.991589 638.10459 15.165543 636.86523 14.958984 z M 565.80859 16.173828 C 564.89844 16.125416 563.90084 16.236704 562.81641 16.507812 C 561.3705 16.817651 559.89989 17.3072 558.40234 17.978516 C 556.95643 18.649831 555.53685 19.47783 554.14258 20.458984 C 552.74831 21.388499 551.53475 22.36955 550.50195 23.402344 C 549.2626 24.693336 548.28155 26.139404 547.55859 27.740234 C 546.88728 29.289425 546.55078 30.811043 546.55078 32.308594 C 546.55078 33.599586 546.70579 34.711111 547.01562 35.640625 C 547.32546 36.36358 547.73751 36.9061 548.25391 37.267578 C 548.7703 37.577416 549.31282 37.732422 549.88086 37.732422 C 550.86201 37.732422 551.66353 37.318422 552.2832 36.492188 C 552.90288 35.614313 552.84991 34.504741 552.12695 33.162109 L 552.20508 33.238281 C 551.94688 32.050569 551.81836 31.044985 551.81836 30.21875 C 551.81836 29.237596 551.97337 28.35858 552.2832 27.583984 C 552.59304 26.809389 553.13556 26.087331 553.91016 25.416016 C 554.94295 24.486501 556.13002 23.762491 557.47266 23.246094 C 558.86693 22.678057 560.18448 22.445549 561.42383 22.548828 C 562.66318 22.600468 563.69525 23.040953 564.52148 23.867188 C 565.39936 24.693422 565.83789 25.984485 565.83789 27.740234 C 565.83789 29.186145 565.60538 30.785267 565.14062 32.541016 C 564.72751 34.296765 564.16046 36.130348 563.4375 38.041016 C 562.71454 39.951684 561.86201 41.862769 560.88086 43.773438 C 559.95135 45.684106 558.97029 47.517688 557.9375 49.273438 C 556.90471 51.029187 555.87264 52.654793 554.83984 54.152344 C 553.80705 55.598255 552.85053 56.811815 551.97266 57.792969 C 551.81774 57.999527 551.6382 58.181018 551.43164 58.335938 L 550.88867 58.878906 C 549.54604 58.414149 548.25498 58.181641 547.01562 58.181641 C 545.56971 58.181641 544.25217 58.516184 543.06445 59.1875 C 541.87674 59.858816 540.87116 60.684862 540.04492 61.666016 C 539.21869 62.64717 538.57218 63.732209 538.10742 64.919922 C 537.64266 66.107634 537.41016 67.192674 537.41016 68.173828 C 537.41016 69.051703 537.59165 69.851263 537.95312 70.574219 C 538.36624 71.297174 538.98627 71.788677 539.8125 72.046875 C 541.05185 72.459992 542.70394 71.917473 544.76953 70.419922 C 546.88676 68.922371 549.10786 66.907297 551.43164 64.376953 L 553.67773 66.236328 C 554.50397 66.959284 555.35455 67.683295 556.23242 68.40625 C 557.16194 69.077566 558.09197 69.695635 559.02148 70.263672 C 560.00264 70.831708 561.01018 71.296725 562.04297 71.658203 C 563.1274 72.019681 564.23697 72.201172 565.37305 72.201172 C 566.71568 72.201172 567.85174 71.968663 568.78125 71.503906 C 569.7624 71.090789 570.56392 70.523737 571.18359 69.800781 C 571.80327 69.026186 572.2418 68.173655 572.5 67.244141 C 572.80984 66.314626 572.96484 65.333575 572.96484 64.300781 C 572.96484 63.681105 572.91187 63.1121 572.80859 62.595703 C 572.70531 62.027667 572.57679 61.485147 572.42188 60.96875 C 572.16368 60.194155 571.77616 59.600617 571.25977 59.1875 C 570.79501 58.774383 570.27897 58.568359 569.71094 58.568359 C 569.24618 58.568359 568.80765 58.69688 568.39453 58.955078 C 567.98141 59.161637 567.64492 59.471648 567.38672 59.884766 C 567.18016 60.246243 567.05164 60.71126 567 61.279297 C 567 61.795694 567.18149 62.364699 567.54297 62.984375 L 567.46484 62.984375 C 567.9296 64.120448 567.9296 65.1015 567.46484 65.927734 C 567.05173 66.70233 566.48272 67.269382 565.75977 67.630859 C 565.14009 67.837418 564.41803 67.810933 563.5918 67.552734 C 562.8172 67.294536 561.99116 66.908975 561.11328 66.392578 C 560.28705 65.876181 559.43452 65.280691 558.55664 64.609375 C 557.73041 63.88642 556.93085 63.215379 556.15625 62.595703 L 555.22656 61.822266 L 554.29688 61.046875 C 555.27803 59.910802 556.44057 58.491219 557.7832 56.787109 C 559.17747 55.083 560.59706 53.1984 562.04297 51.132812 C 563.54052 49.067225 565.01112 46.872614 566.45703 44.548828 C 567.90294 42.225043 569.19401 39.926443 570.33008 37.654297 C 571.51779 35.330511 572.47431 33.084882 573.19727 30.916016 C 573.92022 28.747149 574.28125 26.732075 574.28125 24.873047 C 574.28125 22.652541 573.71224 20.794426 572.57617 19.296875 C 571.4401 17.747685 569.478 16.740148 566.68945 16.275391 C 566.40543 16.223751 566.11198 16.189966 565.80859 16.173828 z M 42.462891 16.429688 C 42.049773 16.429688 41.637727 16.456173 41.224609 16.507812 C 40.811492 16.507812 40.423978 16.55883 40.0625 16.662109 C 38.048553 17.075227 36.086449 17.978776 34.175781 19.373047 C 32.265113 20.767318 30.43153 22.523398 28.675781 24.640625 C 26.920032 26.706212 25.292473 29.05583 23.794922 31.689453 C 22.349011 34.271437 21.084433 36.957551 20 39.746094 C 18.967206 42.534636 18.141161 45.349271 17.521484 48.189453 C 16.901808 51.029635 16.591797 53.740282 16.591797 56.322266 C 16.591797 58.542772 16.875323 60.633395 17.443359 62.595703 C 18.011396 64.506371 18.837442 66.184948 19.921875 67.630859 C 21.057948 69.025131 22.479484 70.134703 24.183594 70.960938 C 25.887703 71.787172 27.900824 72.201172 30.224609 72.201172 C 32.393476 71.994613 34.382064 71.168567 36.189453 69.722656 C 38.048482 68.276745 39.649556 66.49418 40.992188 64.376953 C 42.334819 62.208087 43.393374 59.858469 44.167969 57.328125 C 44.942564 54.746141 45.330078 52.294489 45.330078 49.970703 C 45.330078 48.369873 45.09757 46.872787 44.632812 45.478516 C 44.219695 44.084244 43.599672 42.870684 42.773438 41.837891 C 41.947203 40.753457 40.915134 39.900926 39.675781 39.28125 C 38.488069 38.661574 37.144035 38.351562 35.646484 38.351562 C 34.097294 38.558121 32.755214 39.100641 31.619141 39.978516 C 30.483068 40.80475 29.502016 41.810334 28.675781 42.998047 C 27.849546 44.13412 27.204991 45.374165 26.740234 46.716797 C 26.275477 48.059429 25.965466 49.324006 25.810547 50.511719 L 25.810547 50.667969 C 25.758907 51.339285 25.913913 51.855319 26.275391 52.216797 C 26.688508 52.578275 27.178057 52.757812 27.746094 52.757812 C 28.262491 52.757812 28.727508 52.60476 29.140625 52.294922 C 29.605382 51.933444 29.888908 51.441942 29.992188 50.822266 C 30.250386 49.118156 30.843923 47.543567 31.773438 46.097656 C 32.702952 44.651745 33.969482 43.721711 35.570312 43.308594 C 37.326062 43.411873 38.617125 44.211434 39.443359 45.708984 C 40.321234 47.206535 40.759766 48.9891 40.759766 51.054688 C 40.759766 52.862076 40.500772 54.773162 39.984375 56.787109 C 39.467978 58.749417 38.74592 60.556515 37.816406 62.208984 C 36.886892 63.861454 35.775367 65.23002 34.484375 66.314453 C 33.245023 67.398886 31.876457 67.965938 30.378906 68.017578 C 29.449392 68.069218 28.649831 67.785692 27.978516 67.166016 C 27.3072 66.4947 26.740148 65.591151 26.275391 64.455078 C 25.862273 63.267366 25.552262 61.8988 25.345703 60.349609 C 25.139144 58.748779 25.035156 57.04567 25.035156 55.238281 C 25.035156 53.017775 25.190162 50.69269 25.5 48.265625 C 25.861478 45.78692 26.351027 43.3598 26.970703 40.984375 C 27.590379 38.55731 28.340875 36.207693 29.21875 33.935547 C 30.148264 31.663401 31.180333 29.623795 32.316406 27.816406 C 33.452479 26.009018 34.692525 24.485446 36.035156 23.246094 C 37.429428 22.006741 38.875496 21.180696 40.373047 20.767578 C 42.696832 20.4061 44.477445 20.871117 45.716797 22.162109 C 46.956149 23.453101 47.394681 25.260199 47.033203 27.583984 C 47.033203 27.893822 47.059688 28.230319 47.111328 28.591797 C 47.214607 28.953275 47.396098 29.236801 47.654297 29.443359 C 47.860856 29.753197 48.246417 29.908203 48.814453 29.908203 C 50.002166 30.011482 50.777194 29.417945 51.138672 28.126953 C 51.293591 27.300718 51.371094 26.421702 51.371094 25.492188 C 51.371094 22.703645 50.571533 20.509033 48.970703 18.908203 C 47.421513 17.255733 45.251433 16.429688 42.462891 16.429688 z M 658.80078 16.507812 C 656.477 16.559452 654.30887 17.256978 652.29492 18.599609 C 650.28097 19.890601 648.52489 21.569178 647.02734 23.634766 C 645.58143 25.700353 644.44538 28.023485 643.61914 30.605469 C 642.79291 33.135813 642.38086 35.666921 642.38086 38.197266 C 642.38086 40.67597 642.74189 42.972617 643.46484 45.089844 C 644.1878 47.207071 645.21987 48.963151 646.5625 50.357422 C 647.95677 51.700054 649.63535 52.577117 651.59766 52.990234 C 653.55996 53.351712 655.78106 53.068186 658.25977 52.138672 C 657.79501 54.10098 657.226 56.063083 656.55469 58.025391 C 655.88337 59.987698 655.05733 61.743778 654.07617 63.292969 C 653.14666 64.842159 652.03709 66.055719 650.74609 66.933594 C 649.50674 67.811468 648.06067 68.12148 646.4082 67.863281 C 644.4459 67.605083 643.15483 66.85654 642.53516 65.617188 C 641.96712 64.326196 641.81211 62.802624 642.07031 61.046875 L 642.07031 61.125 C 642.12195 60.970081 642.12195 60.762105 642.07031 60.503906 C 642.07031 60.194068 641.96632 59.88601 641.75977 59.576172 C 641.24337 59.059775 640.80484 58.774296 640.44336 58.722656 C 639.82368 58.671017 639.28116 58.826022 638.81641 59.1875 C 638.40329 59.548978 638.09328 60.013995 637.88672 60.582031 C 637.52524 63.473853 637.91276 65.978476 639.04883 68.095703 C 640.1849 70.21293 642.27748 71.530478 645.32422 72.046875 C 647.28653 72.201794 649.14464 71.891783 650.90039 71.117188 C 652.65614 70.290953 654.2837 69.154895 655.78125 67.708984 C 657.2788 66.263073 658.64737 64.610982 659.88672 62.751953 C 661.12607 60.892925 662.20916 58.981839 663.13867 57.019531 C 664.11983 55.005584 664.94587 53.068013 665.61719 51.208984 C 666.2885 49.298316 666.80649 47.595207 667.16797 46.097656 C 667.52945 44.445187 667.86399 42.507616 668.17383 40.287109 C 668.48367 38.014964 668.63867 35.640814 668.63867 33.162109 C 668.63867 31.199802 668.45913 29.262231 668.09766 27.351562 C 667.73618 25.440894 667.16717 23.737785 666.39258 22.240234 C 665.61798 20.691044 664.61045 19.424513 663.37109 18.443359 C 662.13174 17.410566 660.60817 16.766011 658.80078 16.507812 z M 600.86133 16.740234 C 599.31214 16.701505 597.81972 17.011516 596.38672 17.669922 C 594.47605 18.496157 592.69544 19.78722 591.04297 21.542969 C 589.44214 23.247078 587.96958 25.337702 586.62695 27.816406 C 585.28432 30.243471 584.14826 32.852082 583.21875 35.640625 C 582.28924 38.429168 581.56718 41.321305 581.05078 44.316406 C 580.58602 47.259868 580.35352 50.12552 580.35352 52.914062 C 580.35352 55.547686 580.61251 58.052309 581.12891 60.427734 C 581.6453 62.75152 582.41838 64.791126 583.45117 66.546875 C 584.53561 68.250984 585.87964 69.61955 587.48047 70.652344 C 589.0813 71.633498 590.93941 72.123047 593.05664 72.123047 C 595.01895 71.968128 596.85253 71.297088 598.55664 70.109375 C 600.31239 68.870023 601.91346 67.295434 603.35938 65.384766 C 604.80529 63.474098 606.09635 61.279486 607.23242 58.800781 C 608.36849 56.322077 609.32306 53.713465 610.09766 50.976562 C 610.87225 48.23966 611.46579 45.477996 611.87891 42.689453 C 612.29202 39.849271 612.5 37.138625 612.5 34.556641 C 612.5 30.993503 612.11249 27.842372 611.33789 25.105469 C 610.5633 22.316926 609.42724 20.226303 607.92969 18.832031 C 607.00017 18.005796 606.09662 17.463277 605.21875 17.205078 C 604.34088 16.89524 603.41084 16.791252 602.42969 16.894531 C 601.90038 16.804162 601.37772 16.753144 600.86133 16.740234 z M 658.18164 20.691406 C 658.80132 20.691406 659.31735 20.974932 659.73047 21.542969 C 660.14359 22.059366 660.48008 22.781423 660.73828 23.710938 C 660.99648 24.588812 661.17797 25.622834 661.28125 26.810547 C 661.38453 27.998259 661.43555 29.236352 661.43555 30.527344 C 661.43555 33.625724 661.17655 36.672867 660.66016 39.667969 C 660.1954 42.61143 659.73038 45.142539 659.26562 47.259766 C 657.56152 48.447478 655.96239 48.989998 654.46484 48.886719 C 653.01893 48.783439 651.72787 48.265452 650.5918 47.335938 C 649.50736 46.406423 648.65483 45.141846 648.03516 43.541016 C 647.41548 41.888546 647.10547 40.132466 647.10547 38.273438 C 647.10547 36.25949 647.33798 34.219884 647.80273 32.154297 C 648.31913 30.03707 649.04119 28.15247 649.9707 26.5 C 650.90022 24.795891 652.03627 23.400839 653.37891 22.316406 C 654.77318 21.231973 656.37425 20.691406 658.18164 20.691406 z M 598.24609 21.232422 C 598.86577 21.852098 599.58978 21.980618 600.41602 21.619141 L 600.25977 21.619141 L 600.72461 21.464844 C 600.82789 21.413204 600.93188 21.386719 601.03516 21.386719 C 601.29335 21.386719 601.49938 21.362187 601.6543 21.310547 C 602.32561 21.620385 602.68664 22.240408 602.73828 23.169922 C 602.84156 24.047796 602.81703 24.951345 602.66211 25.880859 L 602.42969 27.740234 C 602.37805 28.308271 602.50657 28.824305 602.81641 29.289062 C 603.17788 29.70218 603.6429 29.934688 604.21094 29.986328 C 605.50193 29.986328 606.30149 29.366305 606.61133 28.126953 C 606.66297 28.540071 606.68945 28.823597 606.68945 28.978516 C 606.74109 29.081795 606.76758 29.210315 606.76758 29.365234 C 606.76758 29.520153 606.74109 29.752662 606.68945 30.0625 L 606.68945 31.689453 C 606.68945 33.85832 606.58546 36.234422 606.37891 38.816406 C 606.22399 41.34675 605.94046 43.928876 605.52734 46.5625 C 605.11423 49.144484 604.54717 51.673639 603.82422 54.152344 C 603.1529 56.631048 602.32686 58.852145 601.3457 60.814453 C 600.36455 62.776761 599.20201 64.404321 597.85938 65.695312 C 596.56838 66.986304 595.0713 67.734848 593.36719 67.941406 C 592.43767 68.044686 591.63616 67.812177 590.96484 67.244141 C 590.34517 66.624464 589.80265 65.745448 589.33789 64.609375 C 588.92477 63.473302 588.61476 62.104736 588.4082 60.503906 C 588.25328 58.903076 588.17773 57.173482 588.17773 55.314453 C 588.17773 52.061153 588.43478 48.601964 588.95117 44.935547 C 589.51921 41.26913 590.24322 37.80994 591.12109 34.556641 C 592.05061 31.251701 593.10916 28.384096 594.29688 25.957031 C 595.53623 23.529966 596.85182 21.955377 598.24609 21.232422 z M 256.71875 24.794922 C 255.94415 24.898201 255.29765 25.234698 254.78125 25.802734 C 254.26485 26.319131 253.79984 26.965639 253.38672 27.740234 C 253.02524 28.51483 252.6907 29.365408 252.38086 30.294922 C 252.12266 31.224436 251.89015 32.103453 251.68359 32.929688 C 251.27048 34.014121 251.29501 34.864699 251.75977 35.484375 C 252.27616 36.052411 252.97369 36.337891 253.85156 36.337891 C 254.6778 36.337891 255.50384 36.129914 256.33008 35.716797 C 257.15631 35.303679 257.72532 34.787645 258.03516 34.167969 C 258.39663 33.599932 258.70665 32.773886 258.96484 31.689453 C 259.22304 30.60502 259.35156 29.546465 259.35156 28.513672 C 259.35156 27.584158 259.14554 26.758112 258.73242 26.035156 C 258.3193 25.260561 257.64826 24.846562 256.71875 24.794922 z M 120.89062 42.908203 C 121.04393 42.904169 121.1986 42.908965 121.35352 42.921875 C 122.02483 42.973515 122.36133 43.230555 122.36133 43.695312 C 122.36133 44.16007 122.17984 44.678057 121.81836 45.246094 C 121.45688 45.762491 120.96733 46.25204 120.34766 46.716797 C 119.72798 47.129914 118.95295 47.439926 118.02344 47.646484 C 117.14556 47.853043 116.16451 47.853043 115.08008 47.646484 C 115.80303 46.355492 116.70658 45.219435 117.79102 44.238281 C 118.78508 43.379772 119.81749 42.936444 120.89062 42.908203 z M 282.61914 42.908203 C 282.77245 42.904169 282.92516 42.908965 283.08008 42.921875 C 283.75139 42.973515 284.08789 43.230555 284.08789 43.695312 C 284.08789 44.16007 283.9064 44.678057 283.54492 45.246094 C 283.18344 45.762491 282.69389 46.25204 282.07422 46.716797 C 281.45454 47.129914 280.67951 47.439926 279.75 47.646484 C 278.87213 47.853043 277.89107 47.853043 276.80664 47.646484 C 277.5296 46.355492 278.43314 45.219435 279.51758 44.238281 C 280.51164 43.379772 281.546 42.936444 282.61914 42.908203 z M 412.42383 42.908203 C 412.57713 42.904169 412.7318 42.908965 412.88672 42.921875 C 413.55803 42.973515 413.89258 43.230555 413.89258 43.695312 C 413.89258 44.16007 413.71304 44.678057 413.35156 45.246094 C 412.99008 45.762491 412.49858 46.25204 411.87891 46.716797 C 411.25923 47.129914 410.4842 47.439926 409.55469 47.646484 C 408.67681 47.853043 407.69576 47.853043 406.61133 47.646484 C 407.33428 46.355492 408.23783 45.219435 409.32227 44.238281 C 410.31633 43.379772 411.35069 42.936444 412.42383 42.908203 z M 498.6582 42.908203 C 498.81151 42.904169 498.96422 42.908965 499.11914 42.921875 C 499.79046 42.973515 500.12695 43.230555 500.12695 43.695312 C 500.12695 44.16007 499.94546 44.678057 499.58398 45.246094 C 499.22251 45.762491 498.73296 46.25204 498.11328 46.716797 C 497.49361 47.129914 496.71858 47.439926 495.78906 47.646484 C 494.91119 47.853043 493.93014 47.853043 492.8457 47.646484 C 493.56866 46.355492 494.47221 45.219435 495.55664 44.238281 C 496.5507 43.379772 497.58507 42.936444 498.6582 42.908203 z M 81.078125 44.857422 L 81.078125 46.716797 C 81.129765 47.336473 81.207268 47.878993 81.310547 48.34375 C 80.329393 49.376544 79.244353 50.486116 78.056641 51.673828 C 76.920568 52.861541 75.810996 53.973066 74.726562 55.005859 C 73.642129 55.987013 72.687563 56.813059 71.861328 57.484375 C 71.035093 58.104051 70.466088 58.361092 70.15625 58.257812 C 69.743133 58.154533 69.588127 57.793504 69.691406 57.173828 C 69.743046 56.554152 69.949069 55.805609 70.310547 54.927734 C 70.723664 53.99822 71.266184 53.017169 71.9375 51.984375 C 72.660455 50.951581 73.435484 49.97053 74.261719 49.041016 C 75.139593 48.111501 76.01861 47.309988 76.896484 46.638672 C 77.825999 45.915716 78.729547 45.452652 79.607422 45.246094 C 80.278738 45.142814 80.768287 45.012341 81.078125 44.857422 z M 458.8457 44.857422 L 458.8457 46.716797 C 458.89734 47.336473 458.97485 47.878993 459.07812 48.34375 C 458.09697 49.376544 457.01193 50.486116 455.82422 51.673828 C 454.68815 52.861541 453.57662 53.973066 452.49219 55.005859 C 451.40775 55.987013 450.45319 56.813059 449.62695 57.484375 C 448.80072 58.104051 448.23367 58.361092 447.92383 58.257812 C 447.51071 58.154533 447.35571 57.793504 447.45898 57.173828 C 447.51062 56.554152 447.71665 55.805609 448.07812 54.927734 C 448.49124 53.99822 449.03376 53.017169 449.70508 51.984375 C 450.42803 50.951581 451.20306 49.97053 452.0293 49.041016 C 452.90717 48.111501 453.78423 47.309988 454.66211 46.638672 C 455.59162 45.915716 456.49517 45.452652 457.37305 45.246094 C 458.04436 45.142814 458.53587 45.012341 458.8457 44.857422 z M 198.48242 45.400391 C 198.94718 46.174986 199.25719 47.23354 199.41211 48.576172 C 199.56703 49.918804 199.54054 51.260884 199.33398 52.603516 C 199.12743 53.894508 198.7664 55.030565 198.25 56.011719 C 197.7336 56.992873 197.03608 57.508907 196.1582 57.560547 C 195.43525 57.612187 194.91921 57.355146 194.60938 56.787109 C 194.35118 56.219073 194.22266 55.495062 194.22266 54.617188 C 194.22266 53.842592 194.32664 53.016546 194.5332 52.138672 C 194.73976 51.260797 195.02329 50.408266 195.38477 49.582031 C 195.74624 48.704157 196.18478 47.904596 196.70117 47.181641 C 197.21757 46.458685 197.81111 45.865148 198.48242 45.400391 z M 362.36719 52.603516 C 361.28275 55.753536 360.17318 58.386679 359.03711 60.503906 C 357.90104 62.569493 356.816 64.197053 355.7832 65.384766 C 354.75041 66.520839 353.82233 67.269382 352.99609 67.630859 C 352.16986 67.940697 351.52335 67.940697 351.05859 67.630859 C 350.5422 67.269382 350.2832 66.598341 350.2832 65.617188 C 350.2832 64.584394 350.67072 63.370834 351.44531 61.976562 C 352.27155 60.582291 353.56261 59.085205 355.31836 57.484375 C 357.07411 55.831905 359.42373 54.204346 362.36719 52.603516 z M 546.55078 62.287109 C 546.7057 62.287109 546.88719 62.311642 547.09375 62.363281 C 547.30031 62.414921 547.47985 62.467892 547.63477 62.519531 C 546.55033 63.707244 545.41428 64.816816 544.22656 65.849609 C 543.09049 66.830763 542.13592 67.501804 541.36133 67.863281 C 541.46461 67.450164 541.64415 66.934129 541.90234 66.314453 C 542.16054 65.694777 542.36852 65.280777 542.52344 65.074219 C 543.14311 64.041425 543.78767 63.319367 544.45898 62.90625 C 545.18194 62.493133 545.87947 62.287109 546.55078 62.287109 z "
       transform="matrix(0.26458333,0,0,0.26458333,-33.174814,107.54705)"
       id="text3719" />
  </g>
</svg>
