<?xml version="1.0" encoding="UTF-8" standalone="no"?>
<svg
   xmlns:dc="http://purl.org/dc/elements/1.1/"
   xmlns:cc="http://creativecommons.org/ns#"
   xmlns:rdf="http://www.w3.org/1999/02/22-rdf-syntax-ns#"
   xmlns:svg="http://www.w3.org/2000/svg"
   xmlns="http://www.w3.org/2000/svg"
   id="svg8"
   version="1.1"
   viewBox="0 0 106.65188 30.89489"
   height="30.89489mm"
   width="106.65189mm">
  <defs
     id="defs2" />
  <metadata
     id="metadata5">
    <rdf:RDF>
      <cc:Work
         rdf:about="">
        <dc:format>image/svg+xml</dc:format>
        <dc:type
           rdf:resource="http://purl.org/dc/dcmitype/StillImage" />
        <dc:title></dc:title>
      </cc:Work>
    </rdf:RDF>
  </metadata>
  <g
     transform="translate(35.840207,-108.04758)"
     id="layer1">
    <path
       id="text3719"
       transform="matrix(0.26458333,0,0,0.26458333,-35.840207,108.04758)"
       d="M 49.357422 0.021484375 C 48.420672 0.051222462 47.492193 0.11195761 46.570312 0.20117188 C 41.752742 0.73645744 37.260988 2.2235862 33.097656 4.6621094 C 28.934324 7.0411563 25.129306 10.074196 21.679688 13.761719 C 18.230069 17.389765 15.166662 21.553335 12.490234 26.251953 C 9.8138065 30.891095 7.5243313 35.767862 5.6210938 40.882812 C 3.7773324 45.938287 2.3793532 51.082503 1.4277344 56.316406 C 0.47611559 61.55031 0 66.576961 0 71.394531 C 0 75.91472 0.44574801 80.137073 1.3378906 84.0625 C 2.2300332 87.987927 3.5692304 91.377566 5.3535156 94.232422 C 7.197277 97.087278 9.4867522 99.287604 12.222656 100.83398 C 15.018036 102.43984 18.318525 103.18341 22.125 103.06445 C 25.217761 102.9455 28.459467 102.02364 31.849609 100.29883 C 35.239751 98.633495 38.600975 96.463537 41.931641 93.787109 C 45.321783 91.110682 48.622271 88.047274 51.833984 84.597656 C 55.105174 81.207514 58.138214 77.728727 60.933594 74.160156 C 63.78845 70.591586 66.345374 67.082431 68.605469 63.632812 C 68.796163 63.344327 68.967278 63.072724 69.152344 62.789062 C 69.236182 63.687074 69.379333 64.564134 69.601562 65.416016 C 69.95842 66.724491 70.464903 67.885389 71.119141 68.896484 C 71.773379 69.848103 72.606093 70.591668 73.617188 71.126953 C 74.628282 71.662239 75.817595 71.868952 77.185547 71.75 C 79.683546 71.452619 81.766308 70.085008 83.431641 67.646484 C 84.264307 66.278532 84.916769 64.762989 85.392578 63.097656 C 85.868388 61.372847 86.107422 59.766201 86.107422 58.279297 L 86.107422 57.208984 C 86.107422 56.911604 86.077054 56.613787 86.017578 56.316406 C 87.86134 56.970644 89.526768 57.477127 91.013672 57.833984 C 92.500576 58.131365 93.898555 58.220515 95.207031 58.101562 C 96.515507 57.98261 97.793969 57.595644 99.042969 56.941406 C 99.772001 56.559532 100.52341 56.052036 101.29297 55.447266 C 101.2925 55.562978 101.28516 55.664593 101.28516 55.78125 C 101.28516 57.506059 101.31357 59.201855 101.37305 60.867188 C 101.492 62.473044 101.58115 63.95822 101.64062 65.326172 C 101.75958 66.634648 101.87909 67.765178 101.99805 68.716797 C 102.117 69.608939 102.23652 70.174205 102.35547 70.412109 C 102.83128 71.601633 103.63362 72.197266 104.76367 72.197266 C 105.89372 72.137789 106.7568 71.572524 107.35156 70.501953 C 107.70842 69.907191 108.21295 68.598362 108.86719 66.576172 C 109.52143 64.494506 110.29536 62.026731 111.1875 59.171875 L 111.1875 59.259766 C 111.84174 57.237576 112.52652 55.1264 113.24023 52.925781 C 113.95395 50.725163 114.63678 48.613987 115.29102 46.591797 C 115.94525 44.569607 116.5693 42.756247 117.16406 41.150391 C 117.8183 39.485058 118.38357 38.206596 118.85938 37.314453 C 118.97833 37.849739 118.94991 38.889166 118.77148 40.435547 C 118.59306 41.981927 118.38439 43.79724 118.14648 45.878906 C 117.90858 47.901096 117.66955 50.04264 117.43164 52.302734 C 117.25321 54.562829 117.16406 56.643637 117.16406 58.546875 C 117.22354 60.390636 117.43221 61.936547 117.78906 63.185547 C 118.14592 64.434547 118.76997 65.088961 119.66211 65.148438 C 120.49478 65.207914 121.41664 64.642648 122.42773 63.453125 C 123.49831 62.263602 124.62884 60.926357 125.81836 59.439453 L 125.81836 59.527344 L 125.99609 59.259766 C 126.94771 58.070242 127.81079 57.000447 128.58398 56.048828 C 129.41665 55.037733 129.95155 54.472468 130.18945 54.353516 C 130.0705 54.59142 130.15965 55.215468 130.45703 56.226562 C 130.63546 57.118705 130.84413 58.070936 131.08203 59.082031 C 131.37941 60.093126 131.79675 61.045357 132.33203 61.9375 C 132.92679 62.829643 133.67036 63.573207 134.5625 64.167969 C 135.51412 64.76273 136.76221 65.088961 138.30859 65.148438 C 139.73602 65.207914 141.16437 64.970832 142.5918 64.435547 C 144.01923 63.840785 145.44562 63.036486 146.87305 62.025391 C 148.35995 60.954819 149.81671 59.765507 151.24414 58.457031 C 151.27956 58.424444 151.31422 58.390076 151.34961 58.357422 C 151.21449 59.288717 151.13672 60.215755 151.13672 61.134766 C 151.13672 62.62167 151.31502 64.048064 151.67188 65.416016 C 152.02873 66.724491 152.53522 67.885389 153.18945 68.896484 C 153.84369 69.848103 154.67641 70.591668 155.6875 71.126953 C 156.69859 71.662239 157.88791 71.868952 159.25586 71.75 C 161.75386 71.452619 163.83467 70.085008 165.5 67.646484 C 166.33267 66.278532 166.98708 64.762989 167.46289 63.097656 C 167.9387 61.372847 168.17773 59.766201 168.17773 58.279297 L 168.17773 57.208984 C 168.17773 56.911604 168.14737 56.613787 168.08789 56.316406 C 169.93165 56.970644 171.59708 57.477127 173.08398 57.833984 C 174.57089 58.131365 175.96887 58.220515 177.27734 58.101562 C 178.58582 57.98261 179.86428 57.595644 181.11328 56.941406 C 182.36228 56.287168 183.67111 55.30457 185.03906 53.996094 C 185.81225 53.28238 186.258 52.629918 186.37695 52.035156 C 186.55538 51.440395 186.4966 51.023061 186.19922 50.785156 C 185.90184 50.487775 185.42572 50.398626 184.77148 50.517578 C 184.11725 50.63653 183.40405 51.051911 182.63086 51.765625 C 181.44134 52.77672 180.28044 53.431135 179.15039 53.728516 C 178.02034 54.025896 176.88981 54.115046 175.75977 53.996094 C 174.62972 53.817665 173.47077 53.491434 172.28125 53.015625 C 171.1512 52.480339 169.9903 51.945442 168.80078 51.410156 C 168.44392 51.291204 168.17648 51.171687 167.99805 51.052734 C 168.65228 50.755354 169.21755 50.339973 169.69336 49.804688 C 170.16917 49.209926 170.4082 48.614293 170.4082 48.019531 C 170.4082 47.067912 169.99087 46.204831 169.1582 45.431641 C 168.32554 44.65845 167.19501 44.212702 165.76758 44.09375 C 163.32905 43.915321 161.18946 44.332655 159.3457 45.34375 C 157.56142 46.295369 156.04392 47.632613 154.79492 49.357422 C 154.33195 50.00558 153.92756 50.695025 153.55469 51.40625 C 150.2443 54.639481 147.3293 56.998316 144.82031 58.457031 C 142.32231 59.884459 140.47859 60.301793 139.28906 59.707031 C 138.75378 59.171746 138.45791 58.308664 138.39844 57.119141 C 138.33896 55.929617 138.21944 54.740305 138.04102 53.550781 C 137.86259 52.301782 137.41684 51.201619 136.70312 50.25 C 136.04889 49.298381 134.82921 48.822266 133.04492 48.822266 C 131.8554 48.822266 130.75524 49.120082 129.74414 49.714844 C 128.73305 50.309605 127.78081 51.05317 126.88867 51.945312 C 126.05601 52.837455 125.28403 53.789686 124.57031 54.800781 C 123.8566 55.811876 123.20218 56.703372 122.60742 57.476562 L 122.69531 57.296875 C 123.05217 55.988399 123.43914 54.531638 123.85547 52.925781 C 124.2718 51.260448 124.65877 49.536238 125.01562 47.751953 C 125.37248 45.967668 125.6703 44.21309 125.9082 42.488281 C 126.14611 40.763472 126.26562 39.156826 126.26562 37.669922 C 126.26562 35.290875 125.84829 33.329584 125.01562 31.783203 C 124.24243 30.236823 122.84446 29.521673 120.82227 29.640625 C 119.39484 29.640625 118.14674 30.384189 117.07617 31.871094 C 116.0056 33.298522 115.05337 34.96395 114.2207 36.867188 C 113.44751 38.770425 112.7931 40.674887 112.25781 42.578125 C 111.72253 44.421886 111.33556 45.789498 111.09766 46.681641 C 110.9787 45.254212 110.56332 44.15405 109.84961 43.380859 C 109.1359 42.607669 108.27281 42.220703 107.26172 42.220703 C 106.0722 42.220703 104.88288 42.755601 103.69336 43.826172 C 102.56331 44.896743 101.87853 46.503389 101.64062 48.644531 C 101.55425 49.421918 101.49056 50.241923 101.43555 51.082031 C 101.15209 51.269918 100.8621 51.487271 100.56055 51.765625 C 99.371023 52.77672 98.210125 53.431135 97.080078 53.728516 C 95.950031 54.025896 94.8195 54.115046 93.689453 53.996094 C 92.559406 53.817665 91.400461 53.491434 90.210938 53.015625 C 89.08089 52.480339 87.921945 51.945442 86.732422 51.410156 C 86.375565 51.291204 86.106163 51.171687 85.927734 51.052734 C 86.581972 50.755354 87.147237 50.339973 87.623047 49.804688 C 88.098856 49.209926 88.337891 48.614293 88.337891 48.019531 C 88.337891 47.067912 87.920557 46.204831 87.087891 45.431641 C 86.255224 44.65845 85.126647 44.212702 83.699219 44.09375 C 81.260696 43.915321 79.119152 44.332655 77.275391 45.34375 C 75.491105 46.295369 73.973609 47.632613 72.724609 49.357422 C 71.826735 50.614446 71.100024 51.992097 70.541016 53.486328 C 69.567162 54.993046 68.36373 56.754965 66.732422 58.992188 C 64.710232 61.847044 62.331607 64.910451 59.595703 68.181641 C 56.919275 71.45283 53.975385 74.783686 50.763672 78.173828 C 47.551958 81.56397 44.279885 84.627377 40.949219 87.363281 C 37.678029 90.158661 34.46669 92.448137 31.314453 94.232422 C 28.162216 96.016707 25.277108 96.968938 22.660156 97.087891 C 20.994823 97.147367 19.56843 96.671251 18.378906 95.660156 C 17.189383 94.649061 16.17837 93.1923 15.345703 91.289062 C 14.572513 89.385825 13.97688 87.065982 13.560547 84.330078 C 13.20369 81.594174 13.025391 78.561135 13.025391 75.230469 C 13.025391 70.948184 13.381989 66.367281 14.095703 61.490234 C 14.809417 56.613188 15.850798 51.736421 17.21875 46.859375 C 18.586702 41.922853 20.25213 37.165603 22.214844 32.585938 C 24.177557 27.946796 26.408251 23.752858 28.90625 20.005859 C 31.404249 16.199384 34.139473 12.988045 37.113281 10.371094 C 40.146566 7.6946659 43.357905 5.8813063 46.748047 4.9296875 C 47.759142 4.751259 48.92004 4.6317418 50.228516 4.5722656 C 51.536991 4.5127895 52.754718 4.6019391 53.884766 4.8398438 C 55.074289 5.0777484 56.056888 5.5842316 56.830078 6.3574219 C 57.662745 7.071136 58.078125 8.1409312 58.078125 9.5683594 C 58.078125 11.471597 57.454078 13.613141 56.205078 15.992188 C 54.956078 18.371234 53.616881 20.749859 52.189453 23.128906 C 51.356787 24.496858 50.584808 25.805688 49.871094 27.054688 C 49.15738 28.303687 48.533332 29.523367 47.998047 30.712891 C 47.522237 31.842938 47.194054 32.912733 47.015625 33.923828 C 46.837196 34.875447 46.926346 35.708161 47.283203 36.421875 C 47.818489 37.611398 48.562053 38.176664 49.513672 38.117188 C 50.524767 37.998235 51.44663 37.374188 52.279297 36.244141 C 53.230916 34.816712 54.302664 33.031767 55.492188 30.890625 C 56.741187 28.749483 57.900132 26.488422 58.970703 24.109375 C 60.10075 21.670852 61.052982 19.203077 61.826172 16.705078 C 62.599362 14.207079 62.984375 11.887236 62.984375 9.7460938 C 62.984375 7.3075706 62.479845 5.4050614 61.46875 4.0371094 C 60.457655 2.6691574 59.148825 1.6885117 57.542969 1.09375 C 55.937112 0.43951208 54.152167 0.080960549 52.189453 0.021484375 C 51.237834 -0.0082537121 50.294172 -0.0082537121 49.357422 0.021484375 z M 229.52539 0.37890625 C 227.02739 0.37890625 224.4401 1.2116202 221.76367 2.8769531 C 219.14672 4.542286 216.64858 7.0707956 214.26953 10.460938 C 211.89048 13.791603 209.72053 18.013955 207.75781 23.128906 C 205.85457 28.184381 204.36745 34.130943 203.29688 40.970703 C 203.05897 42.398131 202.91104 43.826478 202.85156 45.253906 C 202.73261 46.621858 202.67188 48.019837 202.67188 49.447266 C 202.67187 52.658979 202.96969 55.692019 203.56445 58.546875 C 204.15921 61.342255 204.99193 63.781615 206.0625 65.863281 C 207.13307 67.885471 208.4419 69.490164 209.98828 70.679688 C 211.53466 71.869211 213.28924 72.434476 215.25195 72.375 C 217.631 72.077619 219.95084 71.275273 222.21094 69.966797 C 224.47103 68.598845 226.58221 66.992199 228.54492 65.148438 C 229.95006 63.867278 231.249 62.524934 232.45312 61.128906 C 232.95987 62.865631 233.56613 64.453774 234.29102 65.863281 C 235.36159 67.885471 236.67042 69.490164 238.2168 70.679688 C 239.76318 71.869211 241.51776 72.434476 243.48047 72.375 C 245.85952 72.077619 248.17741 71.275273 250.4375 69.966797 C 252.69759 68.598845 254.81072 66.992199 256.77344 65.148438 C 258.344 63.716453 259.78409 62.210256 261.10352 60.634766 C 261.1025 60.711656 261.0918 60.790514 261.0918 60.867188 C 261.0918 62.294616 261.2701 63.63186 261.62695 64.880859 C 261.98381 66.129859 262.51871 67.260389 263.23242 68.271484 C 263.94614 69.223103 264.83763 69.995082 265.9082 70.589844 C 266.97877 71.184605 268.22882 71.482422 269.65625 71.482422 C 271.91634 71.541898 274.29497 70.976633 276.79297 69.787109 C 279.29097 68.53811 281.69996 67.022566 284.01953 65.238281 C 284.57919 64.818541 285.12611 64.389937 285.66602 63.957031 C 285.17957 65.043904 284.72846 66.127123 284.35742 67.201172 C 283.1679 70.472361 282.57422 73.296734 282.57422 75.675781 C 282.57422 76.924781 282.72215 77.996529 283.01953 78.888672 C 283.49534 80.197148 284.20854 81.119011 285.16016 81.654297 C 286.0523 82.130106 287.06331 82.24767 288.19336 82.009766 L 288.10547 82.009766 C 289.5329 81.890813 290.98966 81.297134 292.47656 80.226562 C 293.90399 79.155991 295.2716 77.877529 296.58008 76.390625 C 297.94803 74.844244 299.19808 73.237599 300.32812 71.572266 C 301.51765 69.906933 302.52866 68.450172 303.36133 67.201172 L 307.55273 60.867188 L 309.7832 57.744141 C 309.66425 59.825807 309.45754 62.084914 309.16016 64.523438 C 308.86278 66.902484 308.50618 69.430994 308.08984 72.107422 C 305.9487 74.010659 303.77679 76.063053 301.57617 78.263672 C 299.43503 80.46429 297.26507 82.753766 295.06445 85.132812 C 293.4586 86.917098 291.85195 88.760825 290.24609 90.664062 C 288.64024 92.626776 287.18348 94.529285 285.875 96.373047 C 284.56652 98.216808 283.43599 99.971386 282.48438 101.63672 C 281.53276 103.36153 280.90871 104.90939 280.61133 106.27734 C 280.4329 107.16949 280.34375 108.06098 280.34375 108.95312 C 280.34375 110.20212 280.52205 111.33266 280.87891 112.34375 C 281.23576 113.35484 281.77066 114.21597 282.48438 114.92969 C 283.19809 115.6434 284.11995 116.14988 285.25 116.44727 C 286.32057 116.80412 287.6294 116.8629 289.17578 116.625 C 291.19797 116.20867 293.18963 115.16729 295.15234 113.50195 C 297.17453 111.8961 299.10741 109.87407 300.95117 107.43555 C 302.85441 104.99702 304.66972 102.20302 306.39453 99.050781 C 308.11934 95.95802 309.66525 92.716314 311.0332 89.326172 C 312.46063 85.995506 313.70873 82.605868 314.7793 79.15625 C 315.90934 75.706632 316.80279 72.40419 317.45703 69.251953 C 320.43084 66.575525 323.25521 64.077383 325.93164 61.757812 C 326.46714 61.292158 327.00909 60.80094 327.54688 60.326172 C 327.03488 61.566782 326.62387 62.789476 326.3418 63.988281 C 325.86599 65.950995 325.86599 67.646791 326.3418 69.074219 C 326.75813 70.085314 327.38218 70.859246 328.21484 71.394531 C 328.98803 71.929817 329.85112 72.197266 330.80273 72.197266 C 331.27854 72.197266 331.87222 72.077748 332.58594 71.839844 C 333.35913 71.601939 334.07428 71.304123 334.72852 70.947266 C 335.79909 70.352504 336.95803 69.491375 338.20703 68.361328 C 339.51551 67.231281 340.82434 66.011601 342.13281 64.703125 C 343.50076 63.335173 344.80959 61.937194 346.05859 60.509766 C 347.30759 59.022861 348.43617 57.65525 349.44727 56.40625 C 349.62569 57.417345 349.86473 58.428358 350.16211 59.439453 C 350.51897 60.450548 350.99508 61.372412 351.58984 62.205078 C 352.18461 62.978268 352.92817 63.661098 353.82031 64.255859 C 354.71246 64.791145 355.81262 65.088961 357.12109 65.148438 C 358.54852 65.207914 359.97492 64.970832 361.40234 64.435547 C 362.82977 63.840785 364.25812 63.036486 365.68555 62.025391 C 367.17245 60.954819 368.62921 59.765507 370.05664 58.457031 C 371.30085 57.312361 372.51814 56.116632 373.7207 54.888672 C 374.26431 54.993519 374.81738 55.102988 375.4375 55.246094 C 376.27017 55.365046 376.68555 55.543345 376.68555 55.78125 C 376.8045 56.673393 376.56742 58.010637 375.97266 59.794922 C 375.37789 61.579207 374.69311 63.514037 373.91992 65.595703 C 373.08726 67.796322 372.34369 69.96628 371.68945 72.107422 C 371.03522 74.189088 370.76777 76.002448 370.88672 77.548828 C 371.06515 79.273637 371.69115 80.46295 372.76172 81.117188 C 373.83229 81.771425 375.05002 82.099609 376.41797 82.099609 C 377.25064 82.099609 378.02457 82.040827 378.73828 81.921875 C 379.51147 81.743446 380.22467 81.53478 380.87891 81.296875 C 382.24686 80.761589 383.67521 79.839726 385.16211 78.53125 C 386.70849 77.163298 388.19562 75.58702 389.62305 73.802734 C 391.10995 72.018449 392.50793 70.11594 393.81641 68.09375 C 395.18436 66.07156 396.43245 64.13673 397.5625 62.292969 C 398.75202 60.389731 399.76304 58.695889 400.5957 57.208984 C 401.48785 55.662604 402.14226 54.532073 402.55859 53.818359 C 402.91545 53.223598 403.09375 52.629918 403.09375 52.035156 C 403.09375 51.380918 402.94582 50.904803 402.64844 50.607422 C 402.41053 50.310041 402.02357 50.249306 401.48828 50.427734 C 401.01247 50.606163 400.47757 51.201796 399.88281 52.212891 C 399.46648 52.867129 398.7817 53.908509 397.83008 55.335938 C 396.93794 56.763366 395.89655 58.368059 394.70703 60.152344 C 393.51751 61.877153 392.23905 63.662098 390.87109 65.505859 C 389.50314 67.290145 388.1659 68.925205 386.85742 70.412109 C 385.60842 71.899014 384.41911 73.088326 383.28906 73.980469 C 382.21849 74.813135 381.35541 75.141319 380.70117 74.962891 C 380.22536 74.784462 380.04706 74.158462 380.16602 73.087891 C 380.28497 71.957843 380.52205 70.620599 380.87891 69.074219 C 381.23576 67.468362 381.59236 65.802934 381.94922 64.078125 C 382.36555 62.353316 382.57422 60.777038 382.57422 59.349609 C 382.57422 57.267943 382.15884 55.482998 381.32617 53.996094 C 380.49351 52.509189 379.00638 51.617693 376.86523 51.320312 C 377.40052 50.368694 377.9942 49.268531 378.64844 48.019531 C 379.36215 46.711055 379.92742 45.462961 380.34375 44.273438 C 380.81956 43.083914 381.08701 42.012166 381.14648 41.060547 C 381.20596 40.108928 380.9101 39.484881 380.25586 39.1875 C 379.06634 38.771167 377.87507 38.919098 376.68555 39.632812 C 375.5555 40.28705 374.54449 41.239282 373.65234 42.488281 C 372.7602 43.737281 372.047 45.13526 371.51172 46.681641 C 370.97643 48.228021 370.70898 49.626 370.70898 50.875 C 370.70898 51.566209 370.80496 52.174347 370.97852 52.716797 C 368.24194 55.267643 365.78159 57.207743 363.63281 58.457031 C 361.13481 59.884459 359.29109 60.301793 358.10156 59.707031 C 357.32837 59.350174 356.91299 58.695759 356.85352 57.744141 C 356.85352 56.733046 356.88193 55.691665 356.94141 54.621094 C 357.06036 53.491046 357.09073 52.421251 357.03125 51.410156 C 356.97177 50.399061 356.55639 49.685864 355.7832 49.269531 C 357.50801 48.317912 358.36914 46.919933 358.36914 45.076172 C 358.36914 44.065077 358.04291 43.112846 357.38867 42.220703 C 356.73443 41.328561 355.66269 40.704513 354.17578 40.347656 C 353.28364 40.169228 352.36178 40.080078 351.41016 40.080078 C 349.26901 40.080078 347.09906 40.614976 344.89844 41.685547 C 342.69782 42.696642 340.58664 44.033886 338.56445 45.699219 C 336.78012 47.168667 335.1192 48.835874 333.56641 50.675781 C 333.27873 50.824229 332.96549 51.034947 332.62305 51.320312 C 332.14724 51.736646 331.61234 52.212761 331.01758 52.748047 C 330.42282 53.283332 329.5901 53.996529 328.51953 54.888672 C 327.44896 55.721338 326.10976 56.793087 324.50391 58.101562 C 322.89805 59.350562 320.90639 60.955255 318.52734 62.917969 C 318.6463 61.728445 318.73545 60.5695 318.79492 59.439453 C 318.8544 58.309406 318.82403 57.237657 318.70508 56.226562 C 318.58613 54.918087 318.31868 53.639625 317.90234 52.390625 C 317.48601 51.082149 316.77281 50.160286 315.76172 49.625 C 317.07019 49.327619 318.05084 48.733939 318.70508 47.841797 C 319.41879 46.890178 319.77539 45.907579 319.77539 44.896484 C 319.77539 43.944866 319.41879 43.05337 318.70508 42.220703 C 318.05084 41.328561 316.95068 40.704513 315.4043 40.347656 C 313.02525 40.050275 310.61626 40.317724 308.17773 41.150391 C 305.79869 41.983057 303.45043 43.202737 301.13086 44.808594 C 298.87076 46.41445 296.72922 48.31696 294.70703 50.517578 C 294.17458 51.098435 293.65658 51.687261 293.15039 52.28125 C 292.42912 53.011329 291.52961 53.889728 290.26367 55.068359 C 288.53886 56.674216 286.57757 58.278909 284.37695 59.884766 C 282.23581 61.490622 279.97475 62.918969 277.5957 64.167969 C 275.27613 65.357492 273.16496 65.951172 271.26172 65.951172 C 270.36958 65.951172 269.68479 65.683723 269.20898 65.148438 C 268.73317 64.613152 268.37658 63.989105 268.13867 63.275391 C 267.96024 62.5022 267.87109 61.728268 267.87109 60.955078 C 267.93057 60.181888 268.05009 59.527473 268.22852 58.992188 C 270.78599 59.408521 273.0451 59.290957 275.00781 58.636719 C 277.03 57.982481 278.69543 57.03025 280.00391 55.78125 C 281.37186 54.53225 282.41324 53.134271 283.12695 51.587891 C 283.84067 49.982034 284.19727 48.466491 284.19727 47.039062 C 284.19727 45.492682 283.75152 44.153485 282.85938 43.023438 C 281.96723 41.833914 280.56925 41.209867 278.66602 41.150391 C 275.93011 40.971962 273.46234 41.476492 271.26172 42.666016 C 269.12058 43.855539 267.27685 45.431818 265.73047 47.394531 C 264.59168 48.897733 263.66546 50.543874 262.94531 52.326172 C 262.12733 53.303353 261.04569 54.520957 259.62695 56.048828 C 258.14005 57.714161 256.50499 59.349221 254.7207 60.955078 C 252.99589 62.560935 251.21095 63.958914 249.36719 65.148438 C 247.5829 66.278485 246.00662 66.813382 244.63867 66.753906 C 243.44915 66.69443 242.49887 66.129165 241.78516 65.058594 C 241.07144 63.988023 240.50618 62.770296 240.08984 61.402344 C 239.73299 59.974916 239.52432 58.546569 239.46484 57.119141 C 239.40537 55.691712 239.43574 54.561182 239.55469 53.728516 C 241.04159 52.122659 242.70702 50.131 244.55078 47.751953 C 246.39454 45.31343 248.23827 42.695771 250.08203 39.900391 C 251.98527 37.045534 253.79863 34.07323 255.52344 30.980469 C 257.30772 27.887708 258.85363 24.883083 260.16211 21.96875 C 261.53006 18.994941 262.60181 16.198983 263.375 13.582031 C 264.14819 10.905603 264.47442 8.6161282 264.35547 6.7128906 L 264.35547 6.0878906 C 264.35547 5.7310336 264.3251 5.4635848 264.26562 5.2851562 L 264.17773 4.9296875 C 263.70192 3.2643546 262.83884 2.0750422 261.58984 1.3613281 C 260.40032 0.64761403 259.12186 0.31943008 257.75391 0.37890625 C 255.25591 0.37890625 252.66862 1.2116202 249.99219 2.8769531 C 247.37524 4.542286 244.87709 7.0707956 242.49805 10.460938 C 240.119 13.791603 237.94904 18.013955 235.98633 23.128906 C 234.08309 28.184381 232.59596 34.130943 231.52539 40.970703 C 231.28749 42.398131 231.1376 43.826478 231.07812 45.253906 C 230.95917 46.621858 230.90039 48.019837 230.90039 49.447266 C 230.90039 51.752575 231.06076 53.962532 231.36719 56.083984 C 229.88874 57.737085 228.26382 59.360613 226.49219 60.955078 C 224.76738 62.560935 222.98439 63.958914 221.14062 65.148438 C 219.35634 66.278485 217.78006 66.813382 216.41211 66.753906 C 215.22259 66.69443 214.27035 66.129165 213.55664 65.058594 C 212.84293 63.988023 212.27766 62.770296 211.86133 61.402344 C 211.50447 59.974916 211.2958 58.546569 211.23633 57.119141 C 211.17685 55.691712 211.20722 54.561182 211.32617 53.728516 C 212.81308 52.122659 214.4785 50.131 216.32227 47.751953 C 218.16603 45.31343 220.00975 42.695771 221.85352 39.900391 C 223.75675 37.045534 225.57011 34.07323 227.29492 30.980469 C 229.07921 27.887708 230.62707 24.883083 231.93555 21.96875 C 233.3035 18.994941 234.37329 16.198983 235.14648 13.582031 C 235.91967 10.905603 236.24591 8.6161282 236.12695 6.7128906 L 236.12695 6.0878906 C 236.12695 5.7310336 236.09854 5.4635848 236.03906 5.2851562 L 235.94922 4.9296875 C 235.47341 3.2643546 234.61033 2.0750422 233.36133 1.3613281 C 232.1718 0.64761403 230.89334 0.31943008 229.52539 0.37890625 z M 229.08008 5.375 C 230.32908 5.375 230.92276 6.2968636 230.86328 8.140625 C 230.86328 9.9843864 230.38912 12.334597 229.4375 15.189453 C 228.54536 17.984833 227.32568 21.076655 225.7793 24.466797 C 224.29239 27.856939 222.68575 31.098645 220.96094 34.191406 C 219.23613 37.224691 217.5707 39.9315 215.96484 42.310547 C 214.35899 44.630118 212.99138 46.176028 211.86133 46.949219 C 212.63452 41.358458 213.76505 35.796909 215.25195 30.265625 C 216.79833 24.674865 218.82036 19.35235 221.31836 14.296875 C 221.67522 13.583161 222.0906 12.720079 222.56641 11.708984 C 223.10169 10.638413 223.66696 9.6577676 224.26172 8.765625 C 224.91596 7.8140062 225.63111 7.0116598 226.4043 6.3574219 C 227.23696 5.703184 228.12846 5.375 229.08008 5.375 z M 257.30859 5.375 C 258.55759 5.375 259.15127 6.2968636 259.0918 8.140625 C 259.0918 9.9843864 258.61568 12.334597 257.66406 15.189453 C 256.77192 17.984833 255.55419 21.076655 254.00781 24.466797 C 252.52091 27.856939 250.91426 31.098645 249.18945 34.191406 C 247.46464 37.224691 245.79922 39.9315 244.19336 42.310547 C 242.5875 44.630118 241.21989 46.176028 240.08984 46.949219 C 240.86303 41.358458 241.99356 35.796909 243.48047 30.265625 C 245.02685 24.674865 247.04888 19.35235 249.54688 14.296875 C 249.90373 13.583161 250.31911 12.720079 250.79492 11.708984 C 251.33021 10.638413 251.89547 9.6577676 252.49023 8.765625 C 253.14447 7.8140062 253.85767 7.0116598 254.63086 6.3574219 C 255.46353 5.703184 256.35697 5.375 257.30859 5.375 z M 86.669922 20.802734 C 86.487776 20.791583 86.300719 20.793725 86.107422 20.808594 C 85.393708 20.808594 84.680511 21.076043 83.966797 21.611328 C 83.669416 21.849233 83.221715 22.236199 82.626953 22.771484 C 82.091668 23.30677 81.587138 23.872035 81.111328 24.466797 C 80.635519 25.002082 80.218185 25.44783 79.861328 25.804688 C 79.563947 26.161545 79.357234 26.370211 79.238281 26.429688 C 78.584043 27.024449 78.316595 27.857163 78.435547 28.927734 C 78.613975 29.938829 78.970574 30.891061 79.505859 31.783203 C 80.100621 32.675346 80.813818 33.329761 81.646484 33.746094 C 82.479151 34.162427 83.253083 34.04291 83.966797 33.388672 L 84.054688 33.478516 C 84.17364 33.359563 84.412674 33.090161 84.769531 32.673828 C 85.185864 32.198019 85.631612 31.693489 86.107422 31.158203 C 86.642707 30.563441 87.147237 29.998176 87.623047 29.462891 C 88.098856 28.927605 88.455455 28.481857 88.693359 28.125 C 89.169169 27.649191 89.52772 27.114293 89.765625 26.519531 C 90.063006 25.92477 90.210938 25.359504 90.210938 24.824219 C 90.210937 24.051028 90.002271 23.337832 89.585938 22.683594 C 89.22908 22.029356 88.752965 21.55324 88.158203 21.255859 C 87.712132 20.988217 87.216359 20.83619 86.669922 20.802734 z M 348.44141 49.193359 C 349.17185 49.198935 349.89371 49.314074 350.60742 49.537109 L 350.69727 49.537109 C 350.75674 49.596586 350.84589 49.625 350.96484 49.625 C 350.60799 49.981857 349.80564 50.875306 348.55664 52.302734 C 347.36712 53.670686 345.93877 55.245012 344.27344 57.029297 C 342.6081 58.813582 340.79474 60.628895 338.83203 62.472656 C 336.92879 64.256941 335.11348 65.683335 333.38867 66.753906 C 332.37758 67.408144 331.81426 67.497294 331.69531 67.021484 C 331.57636 66.545675 331.63514 65.921628 331.87305 65.148438 L 331.87305 65.238281 C 332.40833 63.691901 333.3302 61.906956 334.63867 59.884766 C 335.94715 57.8031 337.46269 55.90059 339.1875 54.175781 C 340.91231 52.391496 342.75604 51.023884 344.71875 50.072266 C 345.98262 49.477504 347.224 49.184066 348.44141 49.193359 z M 311.06055 49.423828 C 311.38395 49.438697 311.70142 49.477633 312.01367 49.537109 C 312.07315 49.537109 312.10352 49.565524 312.10352 49.625 L 312.28125 49.625 C 311.38911 50.041333 310.52798 50.66538 309.69531 51.498047 C 308.92212 52.271237 308.11782 53.164686 307.28516 54.175781 C 306.63092 54.948972 305.97846 55.840468 305.32422 56.851562 C 304.66998 57.803181 303.9852 58.844562 303.27148 59.974609 L 299.88086 64.970703 L 298.7207 66.666016 C 298.06647 67.558158 297.29449 68.627953 296.40234 69.876953 C 295.5102 71.066477 294.58834 72.225421 293.63672 73.355469 C 292.6851 74.42604 291.73287 75.347903 290.78125 76.121094 C 289.82963 76.894284 288.96655 77.311618 288.19336 77.371094 C 288.13388 77.252141 288.13388 76.984693 288.19336 76.568359 C 288.25284 76.09255 288.37235 75.616434 288.55078 75.140625 L 288.9082 74.248047 C 289.20558 73.41538 289.59255 72.434735 290.06836 71.304688 C 290.54417 70.115164 291.07907 68.865116 291.67383 67.556641 C 292.26859 66.248165 292.923 64.941288 293.63672 63.632812 C 294.40991 62.324337 295.24262 61.074289 296.13477 59.884766 C 297.20534 58.338385 298.39465 56.881624 299.70312 55.513672 C 301.07108 54.14572 302.43869 52.986775 303.80664 52.035156 C 305.17459 51.024061 306.57257 50.308911 308 49.892578 C 309.07057 49.535721 310.09034 49.379221 311.06055 49.423828 z M 276.61719 49.699219 C 276.79376 49.694572 276.97196 49.699975 277.15039 49.714844 C 277.92358 49.77432 278.30859 50.072136 278.30859 50.607422 C 278.30859 51.142707 278.10188 51.736387 277.68555 52.390625 C 277.26921 52.985387 276.70395 53.550652 275.99023 54.085938 C 275.27652 54.561747 274.38307 54.918345 273.3125 55.15625 C 272.30141 55.394155 271.17283 55.394155 269.92383 55.15625 C 270.75649 53.669346 271.79592 52.360516 273.04492 51.230469 C 274.18984 50.241677 275.3812 49.731745 276.61719 49.699219 z M 80.21875 52.570312 C 80.754036 53.462455 81.110634 54.680182 81.289062 56.226562 C 81.467491 57.772943 81.439077 59.320807 81.201172 60.867188 C 80.963267 62.354092 80.545934 63.660968 79.951172 64.791016 C 79.35641 65.921063 78.554064 66.516696 77.542969 66.576172 C 76.710302 66.635648 76.11467 66.337832 75.757812 65.683594 C 75.460432 65.029356 75.3125 64.196642 75.3125 63.185547 C 75.3125 62.293404 75.432017 61.343126 75.669922 60.332031 C 75.907827 59.320936 76.234057 58.338338 76.650391 57.386719 C 77.066724 56.375624 77.573207 55.45376 78.167969 54.621094 C 78.76273 53.788427 79.44556 53.105598 80.21875 52.570312 z M 162.28906 52.570312 C 162.82435 53.462455 163.18095 54.680182 163.35938 56.226562 C 163.5378 57.772943 163.50744 59.320807 163.26953 60.867188 C 163.03163 62.354092 162.61625 63.660968 162.02148 64.791016 C 161.42672 65.921063 160.62438 66.516696 159.61328 66.576172 C 158.78061 66.635648 158.18498 66.337832 157.82812 65.683594 C 157.53074 65.029356 157.38281 64.196642 157.38281 63.185547 C 157.38281 62.293404 157.50038 61.343126 157.73828 60.332031 C 157.97619 59.320936 158.30437 58.338338 158.7207 57.386719 C 159.13704 56.375624 159.64157 55.45376 160.23633 54.621094 C 160.83109 53.788427 161.51587 53.105598 162.28906 52.570312 z M 306.66211 79.244141 C 305.82944 82.693759 304.84684 86.144132 303.7168 89.59375 C 302.64623 93.043368 301.36776 96.224339 299.88086 99.138672 C 298.45343 102.053 296.788 104.61188 294.88477 106.8125 C 292.98153 109.01312 290.83998 110.5894 288.46094 111.54102 L 288.55078 111.54102 C 287.42073 111.71944 286.6468 111.51078 286.23047 110.91602 C 285.81414 110.32125 285.60742 109.57769 285.60742 108.68555 C 285.60742 107.91236 285.72499 107.13842 285.96289 106.36523 C 286.14132 105.59204 286.38035 104.87885 286.67773 104.22461 C 287.68883 101.96451 289.23474 99.436005 291.31641 96.640625 C 293.39807 93.845245 295.86585 90.901355 298.7207 87.808594 C 299.9697 86.381166 301.25012 84.924404 302.55859 83.4375 C 303.92655 81.950596 305.29416 80.552616 306.66211 79.244141 z "
       style="font-style:normal;font-variant:normal;font-weight:normal;font-stretch:normal;font-size:23.60460663px;line-height:1.25;font-family:'valentine vibes';-inkscape-font-specification:'valentine vibes';letter-spacing:0px;word-spacing:0px;fill:#0d002f;fill-opacity:1;stroke:none;stroke-width:2.23035645" />
  </g>
</svg>
