<?xml version="1.0" encoding="UTF-8" standalone="no"?>
<svg
   xmlns:dc="http://purl.org/dc/elements/1.1/"
   xmlns:cc="http://creativecommons.org/ns#"
   xmlns:rdf="http://www.w3.org/1999/02/22-rdf-syntax-ns#"
   xmlns:svg="http://www.w3.org/2000/svg"
   xmlns="http://www.w3.org/2000/svg"
   xmlns:sodipodi="http://sodipodi.sourceforge.net/DTD/sodipodi-0.dtd"
   xmlns:inkscape="http://www.inkscape.org/namespaces/inkscape"
   class="timer__svg"
   id="cronometro"
   version="1.1"
   viewBox="0 0 380.99792 74.306168"
   height="74.306168mm"
   width="380.99792mm"
   sodipodi:docname="cronometro-plano.svg"
   inkscape:version="0.92.4 (5da689c313, 2019-01-14)">
  <sodipodi:namedview
     pagecolor="#ffffff"
     bordercolor="#666666"
     borderopacity="1"
     objecttolerance="10"
     gridtolerance="10"
     guidetolerance="10"
     inkscape:pageopacity="0"
     inkscape:pageshadow="2"
     inkscape:window-width="1440"
     inkscape:window-height="786"
     id="namedview51"
     showgrid="false"
     fit-margin-top="0"
     fit-margin-left="0"
     fit-margin-right="0"
     fit-margin-bottom="0"
     inkscape:zoom="0.70789816"
     inkscape:cx="742.28567"
     inkscape:cy="4.1874287"
     inkscape:window-x="0"
     inkscape:window-y="27"
     inkscape:window-maximized="1"
     inkscape:current-layer="g1008"
     showguides="true"
     inkscape:guide-bbox="true"
     inkscape:snap-bbox="true"
     inkscape:bbox-paths="true"
     inkscape:snap-bbox-edge-midpoints="true" />
  <defs
     id="defs2" />
  <metadata
     id="metadata5">
    <rdf:RDF>
      <cc:Work
         rdf:about="">
        <dc:format>image/svg+xml</dc:format>
        <dc:type
           rdf:resource="http://purl.org/dc/dcmitype/StillImage" />
        <dc:title />
      </cc:Work>
    </rdf:RDF>
  </metadata>
  <g
     transform="translate(103.58338,-100.83234)"
     id="layer1">
    <rect
       y="100.83234"
       x="-103.58338"
       height="74.306168"
       width="380.99792"
       id="rect31"
       style="fill:#091a39;fill-opacity:1;stroke:none;stroke-width:1;stroke-miterlimit:4;stroke-dasharray:none;stroke-opacity:1" />
    <flowRoot
       transform="scale(0.26458333)"
       style="font-style:normal;font-weight:normal;font-size:40px;line-height:1.25;font-family:sans-serif;letter-spacing:0px;word-spacing:0px;fill:#000000;fill-opacity:1;stroke:none"
       id="flowRoot927"
       xml:space="preserve"><flowRegion
         id="flowRegion929"><rect
           y="927.35822"
           x="-149.90663"
           height="161.22035"
           width="186.67619"
           id="rect931" /></flowRegion><flowPara
         id="flowPara933" /></flowRoot>    <g
       transform="matrix(1.0462662,0,0,1.0462662,-19.450645,-6.3840808)"
       id="g82">
      <path
         style="font-style:normal;font-weight:normal;font-size:28.27942657px;line-height:1.25;font-family:sans-serif;letter-spacing:0px;word-spacing:0px;fill:#ffffff;fill-opacity:1;stroke:none;stroke-width:0.70698559"
         d="m 177.25252,132.81599 c -1.08625,0 -1.62936,0.62174 -1.62936,1.86449 0,0.6628 0.152,1.14151 0.45579,1.43609 0.31299,0.28537 0.70409,0.42788 1.17357,0.42788 0.52471,0 0.93903,-0.16098 1.24282,-0.48318 0.30378,-0.32219 0.45578,-0.78243 0.45578,-1.38079 0,-1.24275 -0.56632,-1.86449 -1.6986,-1.86449 z m 0,6.59702 c -0.52472,0 -0.92954,0.16098 -1.21491,0.48317 -0.27617,0.31299 -0.41445,0.77797 -0.41445,1.39475 0,0.66281 0.152,1.14151 0.45579,1.43608 0.31299,0.28538 0.70409,0.42788 1.17357,0.42788 0.52471,0 0.93903,-0.16097 1.24282,-0.48317 0.30378,-0.32219 0.45578,-0.78242 0.45578,-1.38079 0,-0.61678 -0.152,-1.08176 -0.45578,-1.39475 -0.29458,-0.32219 -0.7089,-0.48317 -1.24282,-0.48317 z"
         id="path874"
         inkscape:connector-curvature="0" />
      <path
         style="font-style:normal;font-weight:normal;font-size:28.27942657px;line-height:1.25;font-family:sans-serif;letter-spacing:0px;word-spacing:0px;fill:#ffffff;fill-opacity:1;stroke:none;stroke-width:0.70698559"
         d="m 26.003609,132.81599 c -1.08625,0 -1.62936,0.62174 -1.62936,1.86449 0,0.6628 0.152,1.14151 0.45579,1.43608 0.31299,0.28538 0.70409,0.42789 1.17357,0.42789 0.52471,0 0.93903,-0.16098 1.24282,-0.48318 0.30378,-0.32219 0.45578,-0.78243 0.45578,-1.38079 0,-1.24275 -0.56632,-1.86449 -1.6986,-1.86449 z m 0,6.59701 c -0.52472,0 -0.92954,0.16099 -1.21491,0.48318 -0.27617,0.31299 -0.41445,0.77797 -0.41445,1.39475 0,0.66281 0.152,1.14151 0.45579,1.43608 0.31299,0.28538 0.70409,0.42788 1.17357,0.42788 0.52471,0 0.93903,-0.16097 1.24282,-0.48317 0.30378,-0.32219 0.45578,-0.78242 0.45578,-1.38079 0,-0.61678 -0.152,-1.08176 -0.45578,-1.39475 -0.29458,-0.32219 -0.7089,-0.48317 -1.24282,-0.48318 z"
         id="path879"
         inkscape:connector-curvature="0" />
      <path
         id="path881"
         d="m 101.62806,132.81599 c -1.08625,0 -1.629357,0.62174 -1.629357,1.86449 0,0.6628 0.151997,1.14151 0.455787,1.43609 0.31299,0.28537 0.70409,0.42788 1.17357,0.42788 0.52471,0 0.93903,-0.16098 1.24282,-0.48318 0.30378,-0.32219 0.45578,-0.78243 0.45578,-1.38079 0,-1.24275 -0.56632,-1.86449 -1.6986,-1.86449 z m 0,6.59702 c -0.52472,0 -0.92954,0.16098 -1.21491,0.48317 -0.27617,0.31299 -0.414447,0.77797 -0.414447,1.39474 0,0.66281 0.151997,1.14152 0.455787,1.43609 0.31299,0.28538 0.70409,0.42788 1.17357,0.42788 0.52471,0 0.93903,-0.16097 1.24282,-0.48317 0.30378,-0.32219 0.45578,-0.78243 0.45578,-1.3808 0,-0.61677 -0.152,-1.08175 -0.45578,-1.39474 -0.29458,-0.32219 -0.7089,-0.48317 -1.24282,-0.48317 z"
         style="font-style:normal;font-weight:normal;font-size:28.27942657px;line-height:1.25;font-family:sans-serif;letter-spacing:0px;word-spacing:0px;fill:#ffffff;fill-opacity:1;stroke:none;stroke-width:0.70698559"
         inkscape:connector-curvature="0" />
      <g
         id="g1016"
         transform="translate(13.052769)">
        <rect
           style="fill:#f2f2f2;fill-opacity:0.23529412;stroke:none;stroke-width:1.12172711;stroke-miterlimit:4;stroke-dasharray:none;stroke-opacity:1"
           id="rect863"
           width="47.625"
           height="50.966007"
           x="102.60964"
           y="112.50243"
           ry="5.2464986"
           rx="4.9025717" />
        <g
           id="g960"
           transform="matrix(0.85764236,0,0,0.85764236,137.17325,17.851491)">
          <text
             id="text954"
             y="160.97902"
             x="-34.273346"
             style="font-style:normal;font-variant:normal;font-weight:600;font-stretch:normal;font-size:9.23530579px;line-height:1.25;font-family:'Open Sans';-inkscape-font-specification:'Open Sans Semi-Bold';letter-spacing:0px;word-spacing:0px;fill:#ffffff;fill-opacity:1;stroke:none;stroke-width:0.23088264"
             xml:space="preserve"><tspan
               style="font-style:normal;font-variant:normal;font-weight:600;font-stretch:normal;font-family:'Open Sans';-inkscape-font-specification:'Open Sans Semi-Bold';fill:#ffffff;stroke-width:0.23088264"
               y="160.97902"
               x="-34.273346"
               id="minutos-s">MINUTOS</tspan></text>
          <text
             id="text958"
             y="145.52832"
             x="-30.178211"
             style="font-style:normal;font-weight:normal;font-size:30.92165756px;line-height:1.25;font-family:sans-serif;letter-spacing:0px;word-spacing:0px;fill:#ffffff;fill-opacity:1;stroke:none;stroke-width:0.77304143"
             xml:space="preserve"><tspan
               style="font-style:normal;font-variant:normal;font-weight:600;font-stretch:normal;font-family:'Open Sans';-inkscape-font-specification:'Open Sans Semi-Bold';fill:#ffffff;stroke-width:0.77304143"
               y="145.52832"
               x="-30.178211"
               id="minutos-n">00</tspan></text>
        </g>
      </g>
      <g
         id="g1024"
         transform="translate(6.5263831)">
        <rect
           rx="4.9025717"
           ry="5.2464986"
           y="112.50243"
           x="33.511574"
           height="50.966007"
           width="47.625"
           id="rect896"
           style="fill:#f2f2f2;fill-opacity:0.23529412;stroke:none;stroke-width:1.12172711;stroke-miterlimit:4;stroke-dasharray:none;stroke-opacity:1" />
        <g
           transform="matrix(0.85764236,0,0,0.85764236,18.634618,-97.900181)"
           id="g1000">
          <text
             xml:space="preserve"
             style="font-style:normal;font-variant:normal;font-weight:600;font-stretch:normal;font-size:9.23530579px;line-height:1.25;font-family:'Open Sans';-inkscape-font-specification:'Open Sans Semi-Bold';letter-spacing:0px;word-spacing:0px;fill:#ffffff;fill-opacity:1;stroke:none;stroke-width:0.23088264"
             x="29.226955"
             y="295.944"
             id="text964"><tspan
               id="horas-s"
               x="29.226955"
               y="295.944"
               style="font-style:normal;font-variant:normal;font-weight:600;font-stretch:normal;font-family:'Open Sans';-inkscape-font-specification:'Open Sans Semi-Bold';fill:#ffffff;stroke-width:0.23088264">HORAS</tspan></text>
          <text
             xml:space="preserve"
             style="font-style:normal;font-weight:normal;font-size:30.92165756px;line-height:1.25;font-family:sans-serif;letter-spacing:0px;word-spacing:0px;fill:#ffffff;fill-opacity:1;stroke:none;stroke-width:0.77304143"
             x="27.468853"
             y="280.49329"
             id="text968"><tspan
               id="horas-n"
               x="27.468853"
               y="280.49329"
               style="font-style:normal;font-variant:normal;font-weight:600;font-stretch:normal;font-family:'Open Sans';-inkscape-font-specification:'Open Sans Semi-Bold';fill:#ffffff;stroke-width:0.77304143">00</tspan></text>
        </g>
      </g>
      <g
         id="g1032">
        <rect
           style="fill:#f2f2f2;fill-opacity:0.23529412;stroke:none;stroke-width:1.12172711;stroke-miterlimit:4;stroke-dasharray:none;stroke-opacity:1"
           id="rect898"
           width="47.625"
           height="50.966007"
           x="-35.586506"
           y="112.50243"
           ry="5.2464986"
           rx="4.9025717" />
        <g
           id="g980"
           transform="matrix(0.85764236,0,0,0.85764236,-1.0228979,17.851491)">
          <text
             id="text974"
             y="160.97902"
             x="-23.162117"
             style="font-style:normal;font-variant:normal;font-weight:600;font-stretch:normal;font-size:9.23530579px;line-height:1.25;font-family:'Open Sans';-inkscape-font-specification:'Open Sans Semi-Bold';letter-spacing:0px;word-spacing:0px;fill:#ffffff;fill-opacity:1;stroke:none;stroke-width:0.23088264"
             xml:space="preserve"><tspan
               style="font-style:normal;font-variant:normal;font-weight:600;font-stretch:normal;font-family:'Open Sans';-inkscape-font-specification:'Open Sans Semi-Bold';fill:#ffffff;stroke-width:0.23088264"
               y="160.97902"
               x="-23.162117"
               id="dias-s">DÍAS</tspan></text>
          <text
             id="text978"
             y="145.52832"
             x="-30.178211"
             style="font-style:normal;font-weight:normal;font-size:30.92165756px;line-height:1.25;font-family:sans-serif;letter-spacing:0px;word-spacing:0px;fill:#ffffff;fill-opacity:1;stroke:none;stroke-width:0.77304143"
             xml:space="preserve"><tspan
               style="font-style:normal;font-variant:normal;font-weight:600;font-stretch:normal;font-family:'Open Sans';-inkscape-font-specification:'Open Sans Semi-Bold';fill:#ffffff;stroke-width:0.77304143"
               y="145.52832"
               x="-30.178211"
               id="dias-n">00</tspan></text>
        </g>
      </g>
      <g
         id="g1008"
         transform="translate(19.579146)">
        <rect
           rx="4.9025717"
           ry="5.2464986"
           y="112.50243"
           x="171.70772"
           height="50.966007"
           width="47.625"
           id="rect900"
           style="fill:#f2f2f2;fill-opacity:0.23529412;stroke:none;stroke-width:1.12172711;stroke-miterlimit:4;stroke-dasharray:none;stroke-opacity:1" />
        <g
           transform="matrix(0.85764236,0,0,0.85764236,206.27133,17.851491)"
           id="g990">
          <text
             xml:space="preserve"
             style="font-style:normal;font-variant:normal;font-weight:600;font-stretch:normal;font-size:9.23530579px;line-height:1.25;font-family:'Open Sans';-inkscape-font-specification:'Open Sans Semi-Bold';letter-spacing:0px;word-spacing:0px;fill:#ffffff;fill-opacity:1;stroke:none;stroke-width:0.23088264"
             x="-37.644142"
             y="160.97902"
             id="text984"><tspan
               id="segundos-s"
               x="-37.644142"
               y="160.97902"
               style="font-style:normal;font-variant:normal;font-weight:600;font-stretch:normal;font-family:'Open Sans';-inkscape-font-specification:'Open Sans Semi-Bold';fill:#ffffff;stroke-width:0.23088264">SEGUNDOS</tspan></text>
          <text
             xml:space="preserve"
             style="font-style:normal;font-weight:normal;font-size:30.92165756px;line-height:1.25;font-family:sans-serif;letter-spacing:0px;word-spacing:0px;fill:#ffffff;fill-opacity:1;stroke:none;stroke-width:0.77304143"
             x="-30.178211"
             y="145.52832"
             id="text988"><tspan
               id="segundos-n"
               x="-30.178211"
               y="145.52832"
               style="font-style:normal;font-variant:normal;font-weight:600;font-stretch:normal;font-family:'Open Sans';-inkscape-font-specification:'Open Sans Semi-Bold';fill:#ffffff;stroke-width:0.77304143">00</tspan></text>
        </g>
      </g>
    </g>
  </g>
</svg>
