<?xml version="1.0" encoding="UTF-8" standalone="no"?>
<!-- Created with Inkscape (http://www.inkscape.org/) -->

<svg
   xmlns:dc="http://purl.org/dc/elements/1.1/"
   xmlns:cc="http://creativecommons.org/ns#"
   xmlns:rdf="http://www.w3.org/1999/02/22-rdf-syntax-ns#"
   xmlns:svg="http://www.w3.org/2000/svg"
   xmlns="http://www.w3.org/2000/svg"
   xmlns:sodipodi="http://sodipodi.sourceforge.net/DTD/sodipodi-0.dtd"
   xmlns:inkscape="http://www.inkscape.org/namespaces/inkscape"
   width="380.99792mm"
   height="74.306168mm"
   viewBox="0 0 380.99792 74.306168"
   version="1.1"
   id="svg8"
   sodipodi:docname="cronometro.svg"
   inkscape:version="0.92.4 (5da689c313, 2019-01-14)">
  <defs
     id="defs2" />
  <sodipodi:namedview
     id="base"
     pagecolor="#ffffff"
     bordercolor="#666666"
     borderopacity="1.0"
     inkscape:pageopacity="0.0"
     inkscape:pageshadow="2"
     inkscape:zoom="0.5"
     inkscape:cx="805.82637"
     inkscape:cy="188.3103"
     inkscape:document-units="mm"
     inkscape:current-layer="layer1"
     showgrid="false"
     showguides="true"
     inkscape:guide-bbox="true"
     inkscape:snap-bbox="true"
     inkscape:bbox-nodes="true"
     inkscape:window-width="1440"
     inkscape:window-height="786"
     inkscape:window-x="0"
     inkscape:window-y="27"
     inkscape:window-maximized="1"
     inkscape:snap-global="false"
     fit-margin-top="0"
     fit-margin-left="0"
     fit-margin-right="0"
     fit-margin-bottom="0" />
  <metadata
     id="metadata5">
    <rdf:RDF>
      <cc:Work
         rdf:about="">
        <dc:format>image/svg+xml</dc:format>
        <dc:type
           rdf:resource="http://purl.org/dc/dcmitype/StillImage" />
        <dc:title />
      </cc:Work>
    </rdf:RDF>
  </metadata>
  <g
     inkscape:label="Capa 1"
     inkscape:groupmode="layer"
     id="layer1"
     transform="translate(103.58338,-100.83234)">
    <rect
       style="fill:#091a39;fill-opacity:1;stroke:none;stroke-width:1;stroke-miterlimit:4;stroke-dasharray:none;stroke-opacity:1"
       id="rect31"
       width="380.99792"
       height="74.306168"
       x="-103.58338"
       y="100.83234" />
    <flowRoot
       xml:space="preserve"
       id="flowRoot927"
       style="font-style:normal;font-weight:normal;font-size:40px;line-height:1.25;font-family:sans-serif;letter-spacing:0px;word-spacing:0px;fill:#000000;fill-opacity:1;stroke:none"
       transform="scale(0.26458333)"><flowRegion
         id="flowRegion929"><rect
           id="rect931"
           width="186.67619"
           height="161.22035"
           x="-149.90663"
           y="927.35822" /></flowRegion><flowPara
         id="flowPara933" /></flowRoot>    <g
       id="g82"
       transform="matrix(1.0462662,0,0,1.0462662,-19.450645,-6.3840808)">
      <path
         inkscape:connector-curvature="0"
         id="path874"
         d="m 177.25252,132.81599 c -1.08625,0 -1.62936,0.62174 -1.62936,1.86449 0,0.6628 0.152,1.14151 0.45579,1.43609 0.31299,0.28537 0.70409,0.42788 1.17357,0.42788 0.52471,0 0.93903,-0.16098 1.24282,-0.48318 0.30378,-0.32219 0.45578,-0.78243 0.45578,-1.38079 0,-1.24275 -0.56632,-1.86449 -1.6986,-1.86449 z m 0,6.59702 c -0.52472,0 -0.92954,0.16098 -1.21491,0.48317 -0.27617,0.31299 -0.41445,0.77797 -0.41445,1.39475 0,0.66281 0.152,1.14151 0.45579,1.43608 0.31299,0.28538 0.70409,0.42788 1.17357,0.42788 0.52471,0 0.93903,-0.16097 1.24282,-0.48317 0.30378,-0.32219 0.45578,-0.78242 0.45578,-1.38079 0,-0.61678 -0.152,-1.08176 -0.45578,-1.39475 -0.29458,-0.32219 -0.7089,-0.48317 -1.24282,-0.48317 z"
         style="font-style:normal;font-weight:normal;font-size:28.27942657px;line-height:1.25;font-family:sans-serif;letter-spacing:0px;word-spacing:0px;fill:#ffffff;fill-opacity:1;stroke:none;stroke-width:0.70698559" />
      <path
         inkscape:connector-curvature="0"
         id="path879"
         d="m 26.003609,132.81599 c -1.08625,0 -1.62936,0.62174 -1.62936,1.86449 0,0.6628 0.152,1.14151 0.45579,1.43608 0.31299,0.28538 0.70409,0.42789 1.17357,0.42789 0.52471,0 0.93903,-0.16098 1.24282,-0.48318 0.30378,-0.32219 0.45578,-0.78243 0.45578,-1.38079 0,-1.24275 -0.56632,-1.86449 -1.6986,-1.86449 z m 0,6.59701 c -0.52472,0 -0.92954,0.16099 -1.21491,0.48318 -0.27617,0.31299 -0.41445,0.77797 -0.41445,1.39475 0,0.66281 0.152,1.14151 0.45579,1.43608 0.31299,0.28538 0.70409,0.42788 1.17357,0.42788 0.52471,0 0.93903,-0.16097 1.24282,-0.48317 0.30378,-0.32219 0.45578,-0.78242 0.45578,-1.38079 0,-0.61678 -0.152,-1.08176 -0.45578,-1.39475 -0.29458,-0.32219 -0.7089,-0.48317 -1.24282,-0.48318 z"
         style="font-style:normal;font-weight:normal;font-size:28.27942657px;line-height:1.25;font-family:sans-serif;letter-spacing:0px;word-spacing:0px;fill:#ffffff;fill-opacity:1;stroke:none;stroke-width:0.70698559" />
      <path
         inkscape:connector-curvature="0"
         style="font-style:normal;font-weight:normal;font-size:28.27942657px;line-height:1.25;font-family:sans-serif;letter-spacing:0px;word-spacing:0px;fill:#ffffff;fill-opacity:1;stroke:none;stroke-width:0.70698559"
         d="m 101.62806,132.81599 c -1.08625,0 -1.629357,0.62174 -1.629357,1.86449 0,0.6628 0.151997,1.14151 0.455787,1.43609 0.31299,0.28537 0.70409,0.42788 1.17357,0.42788 0.52471,0 0.93903,-0.16098 1.24282,-0.48318 0.30378,-0.32219 0.45578,-0.78243 0.45578,-1.38079 0,-1.24275 -0.56632,-1.86449 -1.6986,-1.86449 z m 0,6.59702 c -0.52472,0 -0.92954,0.16098 -1.21491,0.48317 -0.27617,0.31299 -0.414447,0.77797 -0.414447,1.39474 0,0.66281 0.151997,1.14152 0.455787,1.43609 0.31299,0.28538 0.70409,0.42788 1.17357,0.42788 0.52471,0 0.93903,-0.16097 1.24282,-0.48317 0.30378,-0.32219 0.45578,-0.78243 0.45578,-1.3808 0,-0.61677 -0.152,-1.08175 -0.45578,-1.39474 -0.29458,-0.32219 -0.7089,-0.48317 -1.24282,-0.48317 z"
         id="path881" />
      <g
         transform="translate(13.052769)"
         id="g1016">
        <rect
           rx="4.9025717"
           ry="5.2464986"
           y="112.50243"
           x="102.60964"
           height="50.966007"
           width="47.625"
           id="rect863"
           style="fill:#f2f2f2;fill-opacity:0.23529412;stroke:none;stroke-width:1.12172711;stroke-miterlimit:4;stroke-dasharray:none;stroke-opacity:1" />
        <g
           transform="matrix(0.85764236,0,0,0.85764236,137.17325,17.851491)"
           id="g960">
          <text
             xml:space="preserve"
             style="font-style:normal;font-variant:normal;font-weight:600;font-stretch:normal;font-size:9.23530579px;line-height:1.25;font-family:'Open Sans';-inkscape-font-specification:'Open Sans Semi-Bold';letter-spacing:0px;word-spacing:0px;fill:#ffffff;fill-opacity:1;stroke:none;stroke-width:0.23088264"
             x="-34.273346"
             y="156.952"
             id="text954"><tspan
               sodipodi:role="line"
               id="tspan952"
               x="-34.273346"
               y="156.952"
               style="font-style:normal;font-variant:normal;font-weight:600;font-stretch:normal;font-family:'Open Sans';-inkscape-font-specification:'Open Sans Semi-Bold';fill:#ffffff;stroke-width:0.23088264">MINUTOS</tspan></text>
          <text
             xml:space="preserve"
             style="font-style:normal;font-weight:normal;font-size:30.92165756px;line-height:1.25;font-family:sans-serif;letter-spacing:0px;word-spacing:0px;fill:#ffffff;fill-opacity:1;stroke:none;stroke-width:0.77304143"
             x="-30.178211"
             y="145.52832"
             id="text958"><tspan
               sodipodi:role="line"
               id="tspan956"
               x="-30.178211"
               y="145.52832"
               style="font-style:normal;font-variant:normal;font-weight:600;font-stretch:normal;font-family:'Open Sans';-inkscape-font-specification:'Open Sans Semi-Bold';fill:#ffffff;stroke-width:0.77304143">00</tspan></text>
        </g>
      </g>
      <g
         transform="translate(6.5263831)"
         id="g1024">
        <rect
           style="fill:#f2f2f2;fill-opacity:0.23529412;stroke:none;stroke-width:1.12172711;stroke-miterlimit:4;stroke-dasharray:none;stroke-opacity:1"
           id="rect896"
           width="47.625"
           height="50.966007"
           x="33.511574"
           y="112.50243"
           ry="5.2464986"
           rx="4.9025717" />
        <g
           id="g1000"
           transform="matrix(0.85764236,0,0,0.85764236,18.634618,-97.900181)">
          <text
             id="text964"
             y="291.91696"
             x="29.226955"
             style="font-style:normal;font-variant:normal;font-weight:600;font-stretch:normal;font-size:9.23530579px;line-height:1.25;font-family:'Open Sans';-inkscape-font-specification:'Open Sans Semi-Bold';letter-spacing:0px;word-spacing:0px;fill:#ffffff;fill-opacity:1;stroke:none;stroke-width:0.23088264"
             xml:space="preserve"><tspan
               style="font-style:normal;font-variant:normal;font-weight:600;font-stretch:normal;font-family:'Open Sans';-inkscape-font-specification:'Open Sans Semi-Bold';fill:#ffffff;stroke-width:0.23088264"
               y="291.91696"
               x="29.226955"
               id="tspan962"
               sodipodi:role="line">HORAS</tspan></text>
          <text
             id="text968"
             y="280.49329"
             x="27.468853"
             style="font-style:normal;font-weight:normal;font-size:30.92165756px;line-height:1.25;font-family:sans-serif;letter-spacing:0px;word-spacing:0px;fill:#ffffff;fill-opacity:1;stroke:none;stroke-width:0.77304143"
             xml:space="preserve"><tspan
               style="font-style:normal;font-variant:normal;font-weight:600;font-stretch:normal;font-family:'Open Sans';-inkscape-font-specification:'Open Sans Semi-Bold';fill:#ffffff;stroke-width:0.77304143"
               y="280.49329"
               x="27.468853"
               id="tspan966"
               sodipodi:role="line">00</tspan></text>
        </g>
      </g>
      <g
         id="g1032">
        <rect
           rx="4.9025717"
           ry="5.2464986"
           y="112.50243"
           x="-35.586506"
           height="50.966007"
           width="47.625"
           id="rect898"
           style="fill:#f2f2f2;fill-opacity:0.23529412;stroke:none;stroke-width:1.12172711;stroke-miterlimit:4;stroke-dasharray:none;stroke-opacity:1" />
        <g
           transform="matrix(0.85764236,0,0,0.85764236,-1.0228979,17.851491)"
           id="g980">
          <text
             xml:space="preserve"
             style="font-style:normal;font-variant:normal;font-weight:600;font-stretch:normal;font-size:9.23530579px;line-height:1.25;font-family:'Open Sans';-inkscape-font-specification:'Open Sans Semi-Bold';letter-spacing:0px;word-spacing:0px;fill:#ffffff;fill-opacity:1;stroke:none;stroke-width:0.23088264"
             x="-23.162117"
             y="156.952"
             id="text974"><tspan
               sodipodi:role="line"
               id="tspan972"
               x="-23.162117"
               y="156.952"
               style="font-style:normal;font-variant:normal;font-weight:600;font-stretch:normal;font-family:'Open Sans';-inkscape-font-specification:'Open Sans Semi-Bold';fill:#ffffff;stroke-width:0.23088264">DÍAS</tspan></text>
          <text
             xml:space="preserve"
             style="font-style:normal;font-weight:normal;font-size:30.92165756px;line-height:1.25;font-family:sans-serif;letter-spacing:0px;word-spacing:0px;fill:#ffffff;fill-opacity:1;stroke:none;stroke-width:0.77304143"
             x="-30.178211"
             y="145.52832"
             id="text978"><tspan
               sodipodi:role="line"
               id="tspan976"
               x="-30.178211"
               y="145.52832"
               style="font-style:normal;font-variant:normal;font-weight:600;font-stretch:normal;font-family:'Open Sans';-inkscape-font-specification:'Open Sans Semi-Bold';fill:#ffffff;stroke-width:0.77304143">00</tspan></text>
        </g>
      </g>
      <g
         transform="translate(19.579146)"
         id="g1008">
        <rect
           style="fill:#f2f2f2;fill-opacity:0.23529412;stroke:none;stroke-width:1.12172711;stroke-miterlimit:4;stroke-dasharray:none;stroke-opacity:1"
           id="rect900"
           width="47.625"
           height="50.966007"
           x="171.70772"
           y="112.50243"
           ry="5.2464986"
           rx="4.9025717" />
        <g
           id="g990"
           transform="matrix(0.85764236,0,0,0.85764236,206.27133,17.851491)">
          <text
             id="text984"
             y="156.952"
             x="-37.644142"
             style="font-style:normal;font-variant:normal;font-weight:600;font-stretch:normal;font-size:9.23530579px;line-height:1.25;font-family:'Open Sans';-inkscape-font-specification:'Open Sans Semi-Bold';letter-spacing:0px;word-spacing:0px;fill:#ffffff;fill-opacity:1;stroke:none;stroke-width:0.23088264"
             xml:space="preserve"><tspan
               style="font-style:normal;font-variant:normal;font-weight:600;font-stretch:normal;font-family:'Open Sans';-inkscape-font-specification:'Open Sans Semi-Bold';fill:#ffffff;stroke-width:0.23088264"
               y="156.952"
               x="-37.644142"
               id="tspan982"
               sodipodi:role="line">SEGUNDOS</tspan></text>
          <text
             id="text988"
             y="145.52832"
             x="-30.178211"
             style="font-style:normal;font-weight:normal;font-size:30.92165756px;line-height:1.25;font-family:sans-serif;letter-spacing:0px;word-spacing:0px;fill:#ffffff;fill-opacity:1;stroke:none;stroke-width:0.77304143"
             xml:space="preserve"><tspan
               style="font-style:normal;font-variant:normal;font-weight:600;font-stretch:normal;font-family:'Open Sans';-inkscape-font-specification:'Open Sans Semi-Bold';fill:#ffffff;stroke-width:0.77304143"
               y="145.52832"
               x="-30.178211"
               id="tspan986"
               sodipodi:role="line">00</tspan></text>
        </g>
      </g>
    </g>
  </g>
</svg>
