<?xml version="1.0" encoding="UTF-8" standalone="no"?>
<svg
   xmlns:dc="http://purl.org/dc/elements/1.1/"
   xmlns:cc="http://creativecommons.org/ns#"
   xmlns:rdf="http://www.w3.org/1999/02/22-rdf-syntax-ns#"
   xmlns:svg="http://www.w3.org/2000/svg"
   xmlns="http://www.w3.org/2000/svg"
   width="145.13574mm"
   height="35mm"
   viewBox="0 0 145.13574 35"
   version="1.1"
   id="svg8">
  <defs
     id="defs2" />
  <metadata
     id="metadata5">
    <rdf:RDF>
      <cc:Work
         rdf:about="">
        <dc:format>image/svg+xml</dc:format>
        <dc:type
           rdf:resource="http://purl.org/dc/dcmitype/StillImage" />
        <dc:title></dc:title>
      </cc:Work>
    </rdf:RDF>
  </metadata>
  <g
     id="layer1"
     transform="translate(-13.117446,-92.613685)">
    <path
       id="text3719"
       transform="matrix(0.26458333,0,0,0.26458333,13.117446,92.613685)"
       d="M 65.345703 13.40625 C 63.502954 13.40625 61.608206 13.85495 59.660156 14.75 C 57.764757 15.5924 55.920959 16.75041 54.130859 18.224609 C 52.34076 19.646159 50.655672 21.303819 49.076172 23.199219 C 47.549322 25.041968 46.234556 26.964144 45.128906 28.964844 C 44.023256 30.912893 43.206187 32.860544 42.679688 34.808594 C 42.153188 36.756643 41.996431 38.52011 42.207031 40.099609 C 42.470281 41.310559 42.864125 42.233435 43.390625 42.865234 C 43.969775 43.444384 44.549756 43.732422 45.128906 43.732422 C 45.550106 43.732422 45.94395 43.575666 46.3125 43.259766 C 46.7337 42.943866 47.049166 42.548069 47.259766 42.074219 C 47.470366 41.547719 47.550697 40.96969 47.498047 40.337891 C 47.498047 39.706091 47.313862 39.073206 46.945312 38.441406 L 46.945312 38.521484 C 46.734713 37.994984 46.628906 37.389528 46.628906 36.705078 C 46.628906 34.967628 47.18146 32.99255 48.287109 30.78125 C 49.445409 28.5173 50.867935 26.385465 52.552734 24.384766 C 54.290184 22.331416 56.159457 20.6189 58.160156 19.25 C 60.160856 17.82845 62.028175 17.119141 63.765625 17.119141 C 64.555375 17.119141 65.135356 17.303325 65.503906 17.671875 C 65.872456 17.987775 66.109544 18.409047 66.214844 18.935547 C 66.372794 19.409397 66.398269 19.96195 66.292969 20.59375 C 66.240319 21.22555 66.161941 21.803578 66.056641 22.330078 C 65.740741 23.856928 65.293994 25.832007 64.714844 28.253906 C 64.135694 30.623156 63.397003 33.519157 62.501953 36.941406 C 61.448953 41.048105 60.318372 45.548864 59.107422 50.445312 C 57.949122 55.289111 56.842062 60.213095 55.789062 65.214844 C 54.788713 70.163943 53.948122 75.007595 53.263672 79.746094 C 52.631872 84.484593 52.314453 88.748263 52.314453 92.539062 C 52.314453 94.855662 52.473163 96.98945 52.789062 98.9375 C 53.104962 100.9382 53.579138 102.70167 54.210938 104.22852 C 54.895387 105.75537 55.737931 107.04466 56.738281 108.09766 C 57.738631 109.15066 58.922116 109.91482 60.291016 110.38867 L 60.212891 110.30859 C 60.581441 110.57184 60.975284 110.54637 61.396484 110.23047 C 61.870334 109.96722 62.238703 109.57142 62.501953 109.04492 C 62.817853 108.57107 63.003991 108.07142 63.056641 107.54492 C 63.109291 107.01842 62.923153 106.62262 62.501953 106.35938 C 61.080403 106.41202 60.371094 104.88565 60.371094 101.7793 C 60.371094 100.1998 60.52785 98.30505 60.84375 96.09375 C 61.15965 93.88245 61.580922 91.460624 62.107422 88.828125 C 62.633922 86.142976 63.239378 83.299877 63.923828 80.298828 C 64.660928 77.297779 65.397666 74.217593 66.134766 71.058594 C 66.713916 68.689344 67.268422 66.345896 67.794922 64.029297 C 68.321422 61.712697 68.846547 59.371203 69.373047 57.001953 L 69.373047 57.080078 L 70.083984 54.869141 C 70.663134 52.921091 71.374397 50.683449 72.216797 48.15625 C 73.059197 45.629051 73.980119 43.048515 74.980469 40.416016 C 75.980819 37.783516 77.034975 35.202981 78.140625 32.675781 C 79.298925 30.095932 80.48241 27.779912 81.693359 25.726562 C 82.956959 23.673213 84.248203 21.988125 85.564453 20.671875 C 86.880703 19.302975 88.222897 18.487859 89.591797 18.224609 C 91.118647 18.329909 92.460841 18.907938 93.619141 19.960938 C 94.83009 20.961287 95.829391 22.356385 96.619141 24.146484 C 97.40889 25.883934 97.988872 27.964819 98.357422 30.386719 C 98.778622 32.755968 98.990234 35.334551 98.990234 38.125 C 98.990234 42.284349 98.619912 46.759632 97.882812 51.550781 C 97.198363 56.28928 96.224537 61.054554 94.960938 65.845703 C 93.697338 70.636852 92.198387 75.270845 90.460938 79.746094 C 88.723488 84.221343 86.826787 88.222451 84.773438 91.75 C 82.772738 95.277549 80.640903 98.17355 78.376953 100.4375 C 76.165654 102.7541 73.928012 104.09629 71.664062 104.46484 C 70.031913 104.30689 68.793572 103.62306 67.951172 102.41211 C 67.161422 101.20116 66.767578 99.858965 66.767578 98.384766 C 66.767578 96.699966 67.161422 95.146159 67.951172 93.724609 C 68.793572 92.30306 69.926107 91.435041 71.347656 91.119141 C 72.190056 90.908541 72.822941 90.512744 73.244141 89.933594 C 73.665341 89.354444 73.849525 88.774462 73.796875 88.195312 C 73.744225 87.616163 73.454234 87.143941 72.927734 86.775391 C 72.453884 86.406841 71.717147 86.353938 70.716797 86.617188 C 69.400547 86.933087 68.242537 87.511116 67.242188 88.353516 C 66.294488 89.195915 65.477419 90.169741 64.792969 91.275391 C 64.161169 92.38104 63.686994 93.566478 63.371094 94.830078 C 63.055194 96.146328 62.898437 97.435619 62.898438 98.699219 C 62.898437 99.962818 63.055194 101.17373 63.371094 102.33203 C 63.739644 103.49033 64.266722 104.51706 64.951172 105.41211 C 65.688272 106.30716 66.583719 107.01842 67.636719 107.54492 C 68.742369 108.12407 70.03166 108.43954 71.505859 108.49219 C 74.822809 108.49219 78.008801 107.43998 81.0625 105.33398 C 84.116199 103.28063 86.959297 100.49044 89.591797 96.962891 C 92.224296 93.435341 94.618694 89.38133 96.777344 84.800781 C 98.988643 80.167582 100.85792 75.32393 102.38477 70.269531 C 103.96427 65.215132 105.17518 60.08149 106.01758 54.869141 C 106.85998 49.656792 107.28125 44.732808 107.28125 40.099609 C 107.28125 36.30881 106.99126 32.807352 106.41211 29.595703 C 105.83296 26.331404 104.91204 23.515734 103.64844 21.146484 C 102.38484 18.777235 100.75265 16.933437 98.751953 15.617188 C 96.803904 14.248288 94.434981 13.564453 91.644531 13.564453 C 91.223331 13.564453 90.802059 13.591881 90.380859 13.644531 C 90.012309 13.644531 89.618466 13.670006 89.197266 13.722656 C 87.670416 13.880606 86.194987 14.486063 84.773438 15.539062 C 83.404538 16.539412 82.087818 17.856132 80.824219 19.488281 C 79.560619 21.067781 78.349706 22.909625 77.191406 25.015625 C 76.085756 27.068975 75.033553 29.253713 74.033203 31.570312 C 74.191153 29.674913 74.269531 27.833068 74.269531 26.042969 C 74.269531 25.147919 74.244056 24.33085 74.191406 23.59375 C 74.138756 22.85665 74.060378 22.14734 73.955078 21.462891 C 73.639178 19.198941 72.980819 17.46095 71.980469 16.25 C 70.980119 14.9864 69.635972 14.143856 67.951172 13.722656 C 67.529972 13.617356 67.110653 13.538978 66.689453 13.486328 C 66.268253 13.433678 65.819553 13.40625 65.345703 13.40625 z M 209.4082 16.328125 C 207.24955 16.328125 204.98448 17.092291 202.61523 18.619141 C 200.29863 20.14599 198.08842 22.436535 195.98242 25.490234 C 193.87642 28.491284 191.95425 32.229829 190.2168 36.705078 C 188.47935 41.180327 187.10972 46.36492 186.10938 52.261719 C 185.95143 53.156769 185.82014 54.158022 185.71484 55.263672 C 185.66219 56.369322 185.60929 57.368622 185.55664 58.263672 L 184.76758 57.791016 L 184.60938 57.791016 C 183.29313 57.527766 181.97641 57.606144 180.66016 58.027344 C 179.39656 58.395894 178.16017 59.028778 176.94922 59.923828 C 176.64005 60.148679 176.33909 60.389672 176.04492 60.644531 C 175.68546 60.688576 175.29284 60.91419 174.86328 61.34375 C 171.86223 64.292149 169.20332 66.451413 166.88672 67.820312 C 164.62277 69.136562 163.01606 69.479456 162.06836 68.847656 C 161.22596 68.321156 160.70083 67.55699 160.49023 66.556641 C 160.27963 65.503641 160.06802 64.476912 159.85742 63.476562 C 159.69947 62.423563 159.35853 61.50264 158.83203 60.712891 C 158.30553 59.870491 157.30428 59.396316 155.83008 59.291016 C 154.67178 59.291016 153.64505 59.581006 152.75 60.160156 C 151.85495 60.739306 151.03983 61.450569 150.30273 62.292969 C 149.61828 63.135369 149.01283 64.003388 148.48633 64.898438 C 148.01248 65.740837 147.61668 66.477575 147.30078 67.109375 C 147.56403 66.266975 147.74822 65.583141 147.85352 65.056641 C 148.01147 64.477491 148.14275 63.924937 148.24805 63.398438 C 148.406 62.871938 148.53923 62.319384 148.64453 61.740234 C 148.74983 61.161084 148.90659 60.422394 149.11719 59.527344 C 149.32779 58.842894 149.43359 58.053253 149.43359 57.158203 C 149.43359 55.736653 149.0907 54.68445 148.40625 54 C 147.77445 53.2629 146.98481 52.894531 146.03711 52.894531 C 144.93146 52.894531 143.79892 53.42161 142.64062 54.474609 C 141.53498 55.527609 140.85114 57.106891 140.58789 59.212891 L 140.58789 59.371094 C 140.55654 59.90403 140.52549 60.625476 140.49414 61.205078 C 140.24011 61.37253 139.97946 61.568687 139.70898 61.818359 C 138.65598 62.713409 137.62926 63.293391 136.62891 63.556641 C 135.62856 63.819891 134.62926 63.898269 133.62891 63.792969 C 132.62856 63.635019 131.60183 63.345028 130.54883 62.923828 C 129.54848 62.449978 128.52175 61.975803 127.46875 61.501953 C 127.15285 61.396653 126.91576 61.2928 126.75781 61.1875 C 127.33696 60.92425 127.83661 60.553928 128.25781 60.080078 C 128.67901 59.553578 128.89062 59.028453 128.89062 58.501953 C 128.89062 57.659553 128.52226 56.895387 127.78516 56.210938 C 127.04806 55.526488 126.0468 55.132644 124.7832 55.027344 C 122.62455 54.869394 120.72981 55.237763 119.09766 56.132812 C 117.51816 56.975212 116.17401 58.158697 115.06836 59.685547 C 114.01536 61.159747 113.22572 62.81936 112.69922 64.662109 C 112.12007 66.504859 111.83203 68.321229 111.83203 70.111328 C 111.83203 71.427578 111.98879 72.691394 112.30469 73.902344 C 112.62059 75.060644 113.06929 76.087372 113.64844 76.982422 C 114.22759 77.824822 114.96433 78.481228 115.85938 78.955078 C 116.75442 79.428928 117.80663 79.615066 119.01758 79.509766 C 121.22888 79.246516 123.07268 78.035603 124.54688 75.876953 C 125.28397 74.666003 125.862 73.321856 126.2832 71.847656 C 126.7044 70.320807 126.91602 68.900234 126.91602 67.583984 L 126.91602 66.636719 C 126.91602 66.373469 126.88859 66.108953 126.83594 65.845703 C 128.46809 66.424853 129.94352 66.873553 131.25977 67.189453 C 132.57602 67.452703 133.8124 67.531081 134.9707 67.425781 C 136.129 67.320481 137.26154 66.977587 138.36719 66.398438 C 138.99192 66.071196 139.63462 65.641052 140.29297 65.128906 C 140.28609 65.277982 140.27836 65.379928 140.27148 65.53125 C 140.16618 67.7952 140.11523 69.927035 140.11523 71.927734 C 140.11523 73.507234 140.16618 74.927807 140.27148 76.191406 C 140.37678 77.402356 140.5884 78.219425 140.9043 78.640625 C 141.4308 79.377725 141.98335 79.771569 142.5625 79.824219 C 143.14165 79.876869 143.66873 79.773016 144.14258 79.509766 C 144.61643 79.246516 145.0377 78.876194 145.40625 78.402344 C 145.7748 77.928494 146.03736 77.507222 146.19531 77.138672 C 146.45856 76.559522 146.95821 75.585697 147.69531 74.216797 C 148.43241 72.795247 149.19658 71.347247 149.98633 69.873047 C 150.82873 68.398847 151.61837 67.109556 152.35547 66.003906 C 153.09257 64.845606 153.61965 64.214675 153.93555 64.109375 C 154.0935 65.057075 154.27768 66.056375 154.48828 67.109375 C 154.69888 68.162375 155.03982 69.163628 155.51367 70.111328 C 155.98752 71.059028 156.67331 71.874144 157.56836 72.558594 C 158.46341 73.190394 159.67432 73.558763 161.20117 73.664062 C 162.46477 73.716712 163.72859 73.507053 164.99219 73.033203 C 166.25579 72.506703 167.51765 71.79544 168.78125 70.900391 C 169.11834 70.657683 169.44956 70.389332 169.7832 70.132812 C 169.69107 70.414056 169.60172 70.696967 169.52539 70.980469 C 169.10419 72.296718 168.89258 73.533106 168.89258 74.691406 C 168.89258 75.955006 169.15709 77.087541 169.68359 78.087891 C 170.15744 79.03559 170.97256 79.641047 172.13086 79.904297 C 173.13121 80.167547 174.23632 80.008837 175.44727 79.429688 C 176.71087 78.797888 177.97468 77.955344 179.23828 76.902344 C 180.55453 75.849344 181.84578 74.665859 183.10938 73.349609 C 184.37297 72.03336 185.53098 70.769543 186.58398 69.558594 C 187.37373 72.717593 188.63755 75.296175 190.375 77.296875 C 192.1651 79.244925 194.29693 80.1678 196.77148 80.0625 C 198.77218 80.00985 200.74726 79.376965 202.69531 78.166016 C 204.69601 76.902416 206.59076 75.42894 208.38086 73.744141 C 209.83417 72.376323 211.17874 70.954346 212.42383 69.482422 C 212.42059 69.612139 212.4043 69.744023 212.4043 69.873047 C 212.4043 71.136647 212.56301 72.322085 212.87891 73.427734 C 213.19481 74.533384 213.66898 75.534638 214.30078 76.429688 C 214.93258 77.272087 215.72222 77.955922 216.66992 78.482422 C 217.61762 79.008922 218.72273 79.271484 219.98633 79.271484 C 221.98703 79.324134 224.09339 78.824484 226.30469 77.771484 C 228.51599 76.665835 230.64782 75.32364 232.70117 73.744141 C 234.80717 72.164641 236.75482 70.479553 238.54492 68.689453 C 240.38767 66.899354 241.94148 65.320072 243.20508 63.951172 C 243.73158 63.319372 244.04704 62.739391 244.15234 62.212891 C 244.25764 61.686391 244.17927 61.292547 243.91602 61.029297 C 243.70542 60.713397 243.36252 60.582116 242.88867 60.634766 C 242.46747 60.687416 241.9933 61.002881 241.4668 61.582031 C 240.835 62.266481 239.75732 63.318685 238.23047 64.740234 C 236.70362 66.161784 234.96563 67.58431 233.01758 69.005859 C 231.12218 70.427409 229.12162 71.691225 227.01562 72.796875 C 224.96228 73.849875 223.093 74.375 221.4082 74.375 C 220.61845 74.375 220.013 74.137912 219.5918 73.664062 C 219.1706 73.190213 218.85513 72.637659 218.64453 72.005859 C 218.48658 71.32141 218.40625 70.637575 218.40625 69.953125 C 218.4589 69.268675 218.56471 68.688694 218.72266 68.214844 C 220.98661 68.583394 222.98716 68.479541 224.72461 67.900391 C 226.51471 67.321241 227.99014 66.478697 229.14844 65.373047 C 230.35939 64.267397 231.28031 63.029056 231.91211 61.660156 C 232.54391 60.238607 232.85937 58.896412 232.85938 57.632812 C 232.85938 56.263913 232.46358 55.078475 231.67383 54.078125 C 230.88408 53.025125 229.64769 52.472572 227.96289 52.419922 C 225.54099 52.261972 223.35625 52.710672 221.4082 53.763672 C 219.5128 54.816672 217.88062 56.211769 216.51172 57.949219 C 215.69167 59.031681 215.00841 60.20522 214.43359 61.451172 C 214.36395 61.519457 214.29425 61.582772 214.22461 61.660156 C 213.43486 62.502556 212.35523 63.687994 210.98633 65.214844 C 209.67008 66.741693 208.22208 68.242597 206.64258 69.716797 C 205.06308 71.190997 203.4838 72.480288 201.9043 73.585938 C 200.3248 74.638937 198.9297 75.138587 197.71875 75.085938 C 196.77105 75.033288 195.98141 74.533637 195.34961 73.585938 C 194.71781 72.585588 194.21816 71.453053 193.84961 70.189453 C 193.53371 68.925853 193.3221 67.662037 193.2168 66.398438 C 193.16415 65.134838 193.19158 64.18844 193.29688 63.556641 C 194.61312 62.135091 196.0866 60.369671 197.71875 58.263672 C 199.3509 56.105022 200.98308 53.789003 202.61523 51.314453 C 204.30003 48.787254 205.90674 46.155768 207.43359 43.417969 C 209.01309 40.680169 210.38076 38.021256 211.53906 35.441406 C 212.75001 32.808907 213.69836 30.334178 214.38281 28.017578 C 215.06726 25.648329 215.35725 23.620347 215.25195 21.935547 L 215.25195 21.382812 C 215.25195 21.066913 215.22452 20.829825 215.17188 20.671875 L 215.09375 20.357422 C 214.67255 18.883222 213.90838 17.829065 212.80273 17.197266 C 211.74973 16.565466 210.61915 16.275475 209.4082 16.328125 z M 391.41992 16.328125 C 389.26127 16.328125 386.99816 17.092291 384.62891 18.619141 C 382.31231 20.14599 380.10014 22.436535 377.99414 25.490234 C 375.88814 28.491284 373.96597 32.229829 372.22852 36.705078 C 370.49107 41.180327 369.1234 46.36492 368.12305 52.261719 C 367.9651 53.156769 367.83382 54.158022 367.72852 55.263672 C 367.67587 56.369322 367.62296 57.368622 367.57031 58.263672 L 366.7793 57.791016 L 366.62109 57.791016 C 365.30484 57.527766 363.99008 57.606144 362.67383 58.027344 C 361.41023 58.395894 360.17189 59.028778 358.96094 59.923828 C 358.62643 60.167104 358.30522 60.432534 357.98828 60.710938 C 357.6396 60.840941 357.2594 61.126963 356.8457 61.582031 C 356.2139 62.266481 355.13427 63.318685 353.60742 64.740234 C 352.08057 66.161784 350.34258 67.58431 348.39453 69.005859 C 346.49913 70.427409 344.49858 71.691225 342.39258 72.796875 C 340.33923 73.849875 338.46996 74.375 336.78516 74.375 C 335.99541 74.375 335.38995 74.137912 334.96875 73.664062 C 334.54755 73.190213 334.23208 72.637659 334.02148 72.005859 C 333.86353 71.32141 333.78516 70.637575 333.78516 69.953125 C 333.83781 69.268675 333.94166 68.688694 334.09961 68.214844 C 336.36356 68.583394 338.36411 68.479541 340.10156 67.900391 C 341.89166 67.321241 343.36709 66.478697 344.52539 65.373047 C 345.73634 64.267397 346.65726 63.029056 347.28906 61.660156 C 347.92086 60.238607 348.23633 58.896412 348.23633 57.632812 C 348.23633 56.263913 347.84248 55.078475 347.05273 54.078125 C 346.26298 53.025125 345.02464 52.472572 343.33984 52.419922 C 340.91794 52.261972 338.73321 52.710672 336.78516 53.763672 C 334.88976 54.816672 333.25757 56.211769 331.88867 57.949219 C 331.03729 59.073044 330.33314 60.293703 329.74609 61.59375 C 326.85992 64.400852 324.33526 66.409967 322.19141 67.583984 C 319.98011 68.742284 318.32245 69.163556 317.2168 68.847656 C 316.3744 68.584406 315.87475 68.004425 315.7168 67.109375 C 315.6115 66.161675 315.53117 65.18785 315.47852 64.1875 C 315.42587 63.18715 315.24168 62.291703 314.92578 61.501953 C 314.60988 60.712203 313.84767 60.318359 312.63672 60.318359 C 311.89962 60.318359 311.21383 60.6593 310.58203 61.34375 C 310.00288 61.97555 309.58356 62.581006 309.32031 63.160156 C 308.89911 64.055206 308.24075 65.240644 307.3457 66.714844 C 306.45065 68.136393 305.5023 69.531491 304.50195 70.900391 C 303.5016 72.26929 302.55325 73.4273 301.6582 74.375 C 300.8158 75.27005 300.21035 75.638419 299.8418 75.480469 C 299.57855 75.375169 299.60598 74.744237 299.92188 73.585938 C 300.23777 72.427638 300.73743 70.979637 301.42188 69.242188 C 302.15897 67.452088 303.00152 65.477009 303.94922 63.318359 L 306.79297 56.685547 C 307.26682 55.211347 307.13358 54.053337 306.39648 53.210938 C 305.71203 52.315888 304.76564 51.867188 303.55469 51.867188 C 302.50169 51.867187 301.42206 52.235556 300.31641 52.972656 C 299.26341 53.709756 298.44634 54.736485 297.86719 56.052734 C 297.65659 56.631884 297.39402 57.527332 297.07812 58.738281 C 296.89279 59.448738 296.70682 60.242763 296.52148 61.080078 C 296.42322 61.159346 296.3233 61.243106 296.22266 61.34375 C 292.95836 64.608049 289.77432 67.925323 286.66797 71.294922 C 283.56162 74.664521 280.53434 77.981794 277.58594 81.246094 L 277.26953 81.5625 L 278.05859 78.087891 C 278.69039 75.192141 279.19004 72.823218 279.55859 70.980469 C 279.92714 69.137719 280.21713 67.636815 280.42773 66.478516 C 280.69098 65.320216 280.84969 64.424769 280.90234 63.792969 C 281.00764 63.161169 281.06055 62.608616 281.06055 62.134766 C 281.06055 61.187066 280.90184 60.501278 280.58594 60.080078 C 282.21809 60.027428 283.45643 59.555206 284.29883 58.660156 C 285.19388 57.765106 285.64062 56.791281 285.64062 55.738281 C 285.64063 54.895881 285.32516 54.104287 284.69336 53.367188 C 284.11421 52.577438 283.14038 52.024884 281.77148 51.708984 C 279.66548 51.445734 277.5317 51.682822 275.37305 52.419922 C 273.26705 53.157022 271.18812 54.236653 269.13477 55.658203 C 267.13407 57.079753 265.23932 58.764841 263.44922 60.712891 C 261.71177 62.60829 260.13249 64.583369 258.71094 66.636719 C 256.76289 69.637768 255.28746 72.584719 254.28711 75.480469 C 253.23411 78.376218 252.70703 80.878375 252.70703 82.984375 C 252.70703 84.090025 252.84027 85.036422 253.10352 85.826172 C 253.52472 86.984472 254.15565 87.801541 254.99805 88.275391 C 255.7878 88.696591 256.68324 88.802397 257.68359 88.591797 L 257.60352 88.591797 C 258.86712 88.486497 260.18383 87.93199 261.55273 86.931641 C 262.86898 85.931291 264.23861 84.589097 265.66016 82.904297 C 267.08171 81.219497 268.52971 79.271846 270.00391 77.060547 C 271.53076 74.796597 273.13551 72.400246 274.82031 69.873047 L 275.45312 68.767578 C 274.45278 72.189827 273.42605 75.691285 272.37305 79.271484 C 271.3727 82.851684 270.45177 86.353141 269.60938 89.775391 C 268.76698 93.25029 268.08119 96.542088 267.55469 99.648438 C 267.02819 102.75479 266.76562 105.51755 266.76562 107.93945 C 266.76563 110.88785 267.2398 113.33711 268.1875 115.28516 C 269.1352 117.23321 270.66158 118.41669 272.76758 118.83789 C 274.55768 119.04849 276.21534 118.39013 277.74219 116.86328 C 279.32169 115.33643 280.69131 113.33588 281.84961 110.86133 C 283.06056 108.43943 284.00891 105.72761 284.69336 102.72656 C 285.37781 99.725513 285.71875 96.882415 285.71875 94.197266 C 285.71875 91.512116 285.35038 89.09029 284.61328 86.931641 C 283.92883 84.772991 282.79825 83.326944 281.21875 82.589844 C 284.1145 79.272894 286.93017 76.059474 289.66797 72.953125 C 291.56463 70.805966 293.52949 68.694215 295.52344 66.595703 C 295.46258 67.030387 295.39574 67.455344 295.3418 67.900391 C 295.1312 69.58519 295.02539 71.164472 295.02539 72.638672 C 295.02539 73.691672 295.10377 74.690972 295.26172 75.638672 C 295.36702 76.533722 295.57863 77.323363 295.89453 78.007812 C 296.21043 78.692262 296.6317 79.219341 297.1582 79.587891 C 297.6847 79.956441 298.34111 80.11515 299.13086 80.0625 C 300.07856 80.0625 301.05238 79.692178 302.05273 78.955078 C 303.05308 78.165328 304.02886 77.218931 304.97656 76.113281 C 305.92426 74.954981 306.81776 73.71664 307.66016 72.400391 C 308.55521 71.084141 309.34485 69.847753 310.0293 68.689453 C 310.4505 70.058353 311.13628 71.216363 312.08398 72.164062 C 313.08433 73.059112 314.50491 73.558763 316.34766 73.664062 C 317.61126 73.716712 318.87507 73.507053 320.13867 73.033203 C 321.40227 72.506703 322.66609 71.79544 323.92969 70.900391 C 325.24594 69.952691 326.53523 68.900487 327.79883 67.742188 C 327.85412 67.691319 327.90769 67.636992 327.96289 67.585938 C 327.8537 68.359103 327.7832 69.123279 327.7832 69.873047 C 327.7832 71.136647 327.93996 72.322085 328.25586 73.427734 C 328.57176 74.533384 329.04593 75.534638 329.67773 76.429688 C 330.30953 77.272087 331.09918 77.955922 332.04688 78.482422 C 332.99457 79.008922 334.09968 79.271484 335.36328 79.271484 C 337.36398 79.324134 339.47034 78.824484 341.68164 77.771484 C 343.89294 76.665835 346.02478 75.32364 348.07812 73.744141 C 349.29401 72.832228 350.45191 71.880549 351.5625 70.898438 C 351.55496 70.925879 351.5445 70.953006 351.53711 70.980469 C 351.11591 72.296718 350.90625 73.533106 350.90625 74.691406 C 350.90625 75.955006 351.16881 77.087541 351.69531 78.087891 C 352.16916 79.03559 352.98623 79.641047 354.14453 79.904297 C 355.14488 80.167547 356.24999 80.008837 357.46094 79.429688 C 358.72454 78.797888 359.98835 77.955344 361.25195 76.902344 C 362.5682 75.849344 363.85749 74.665859 365.12109 73.349609 C 366.38469 72.03336 367.5427 70.769543 368.5957 69.558594 C 369.38545 72.717593 370.64927 75.296175 372.38672 77.296875 C 374.17682 79.244925 376.30865 80.1678 378.7832 80.0625 C 380.7839 80.00985 382.75898 79.376965 384.70703 78.166016 C 386.70773 76.902416 388.60248 75.42894 390.39258 73.744141 C 390.53512 73.609981 390.67001 73.471098 390.81055 73.335938 C 390.54831 74.775976 390.58054 76.050224 390.94336 77.138672 C 391.31191 78.033722 391.86446 78.719509 392.60156 79.193359 C 393.28601 79.667209 394.04823 79.904297 394.89062 79.904297 C 395.31182 79.904297 395.8389 79.798491 396.4707 79.587891 C 397.15515 79.377291 397.78608 79.114728 398.36523 78.798828 C 399.31293 78.272328 400.33966 77.508162 401.44531 76.507812 C 402.60361 75.507463 403.76358 74.427831 404.92188 73.269531 C 406.13282 72.058582 407.29083 70.822193 408.39648 69.558594 C 409.50213 68.242344 410.50143 67.031431 411.39648 65.925781 C 411.55443 66.820831 411.76605 67.714325 412.0293 68.609375 C 412.3452 69.504425 412.76647 70.321494 413.29297 71.058594 C 413.81947 71.743044 414.47783 72.3485 415.26758 72.875 C 416.05733 73.34885 417.03115 73.611413 418.18945 73.664062 C 419.45305 73.716712 420.71687 73.507053 421.98047 73.033203 C 423.24407 72.506703 424.50593 71.79544 425.76953 70.900391 C 427.08578 69.952691 428.37703 68.900487 429.64062 67.742188 C 430.74207 66.728862 431.82019 65.669092 432.88477 64.582031 C 433.36559 64.674789 433.85587 64.771877 434.4043 64.898438 C 435.1414 65.003737 435.50977 65.162447 435.50977 65.373047 C 435.61507 66.162797 435.40345 67.346282 434.87695 68.925781 C 434.35045 70.505281 433.745 72.217797 433.06055 74.060547 C 432.32345 76.008596 431.66509 77.928819 431.08594 79.824219 C 430.50679 81.666968 430.2697 83.273678 430.375 84.642578 C 430.53295 86.169428 431.08746 87.221631 432.03516 87.800781 C 432.98286 88.379931 434.06053 88.669922 435.27148 88.669922 C 436.00858 88.669922 436.69437 88.617019 437.32617 88.511719 C 438.01062 88.353769 438.64155 88.169584 439.2207 87.958984 C 440.43165 87.485134 441.69547 86.670019 443.01172 85.511719 C 444.38062 84.300769 445.69734 82.905672 446.96094 81.326172 C 448.27719 79.746672 449.51358 78.061584 450.67188 76.271484 C 451.88282 74.481385 452.98793 72.768868 453.98828 71.136719 C 454.45711 70.386598 454.88481 69.686829 455.29102 69.009766 C 455.43373 69.256273 455.58832 69.495314 455.76953 69.716797 C 456.76988 70.875097 457.87499 71.952775 459.08594 72.953125 C 460.03364 73.584925 460.87618 74.349091 461.61328 75.244141 C 460.03378 76.29714 458.4545 77.376772 456.875 78.482422 C 455.2955 79.588072 453.98073 80.667703 452.92773 81.720703 C 451.19028 83.458153 450.32031 85.247094 450.32031 87.089844 C 450.32031 88.142844 450.66321 88.985388 451.34766 89.617188 C 451.97946 90.248987 453.08456 90.564453 454.66406 90.564453 C 456.19091 90.564453 457.71729 90.064803 459.24414 89.064453 C 460.82364 88.064103 462.21874 86.85319 463.42969 85.431641 C 464.69329 83.957441 465.66711 82.378159 466.35156 80.693359 C 467.03601 78.95591 467.24762 77.376628 466.98438 75.955078 C 470.14337 73.954379 473.53903 71.926396 477.17188 69.873047 C 479.661 68.450689 482.00241 67.061826 484.27539 65.6875 C 483.91807 67.1204 483.72656 68.516716 483.72656 69.873047 C 483.72656 71.136647 483.88527 72.322085 484.20117 73.427734 C 484.51707 74.533384 484.99125 75.534638 485.62305 76.429688 C 486.25485 77.272087 487.04449 77.955922 487.99219 78.482422 C 488.93989 79.008922 490.04499 79.271484 491.30859 79.271484 C 493.30929 79.324134 495.41565 78.824484 497.62695 77.771484 C 499.83825 76.665835 501.97009 75.32364 504.02344 73.744141 C 506.12944 72.164641 508.07709 70.479553 509.86719 68.689453 C 511.70994 66.899354 513.26374 65.320072 514.52734 63.951172 C 515.05384 63.319372 515.36931 62.739391 515.47461 62.212891 C 515.57991 61.686391 515.50153 61.292547 515.23828 61.029297 C 515.02768 60.713397 514.68479 60.582116 514.21094 60.634766 C 513.78974 60.687416 513.31556 61.002881 512.78906 61.582031 C 512.15726 62.266481 511.07958 63.318685 509.55273 64.740234 C 508.02588 66.161784 506.28789 67.58431 504.33984 69.005859 C 502.44444 70.427409 500.44389 71.691225 498.33789 72.796875 C 496.28454 73.849875 494.41527 74.375 492.73047 74.375 C 491.94072 74.375 491.33526 74.137912 490.91406 73.664062 C 490.49286 73.190213 490.1774 72.637659 489.9668 72.005859 C 489.80885 71.32141 489.72852 70.637575 489.72852 69.953125 C 489.78117 69.268675 489.88697 68.688694 490.04492 68.214844 C 492.30887 68.583394 494.30943 68.479541 496.04688 67.900391 C 497.83697 67.321241 499.31045 66.478697 500.46875 65.373047 C 501.6797 64.267397 502.60258 63.029056 503.23438 61.660156 C 503.86617 60.238607 504.18164 58.896412 504.18164 57.632812 C 504.18164 56.263913 503.78584 55.078475 502.99609 54.078125 C 502.20634 53.025125 500.96996 52.472572 499.28516 52.419922 C 496.86326 52.261972 494.67852 52.710672 492.73047 53.763672 C 490.83507 54.816672 489.20288 56.211769 487.83398 57.949219 C 487.05851 58.972848 486.40579 60.078218 485.84961 61.248047 C 483.5892 62.552499 481.52159 63.727808 479.69922 64.740234 C 477.80382 65.793234 476.04035 66.76706 474.4082 67.662109 C 472.8287 68.557159 471.3278 69.427131 469.90625 70.269531 C 468.4847 71.059281 467.06413 71.874397 465.64258 72.716797 C 465.37933 72.190297 465.03643 71.716122 464.61523 71.294922 C 464.19403 70.873722 463.77276 70.479878 463.35156 70.111328 C 462.77241 69.532178 462.19243 68.79544 461.61328 67.900391 C 461.03413 67.005341 460.69319 66.162797 460.58789 65.373047 C 460.74584 64.688597 461.08678 64.055712 461.61328 63.476562 C 462.19243 62.844763 462.82532 62.317684 463.50977 61.896484 C 464.24687 61.422634 464.9836 61.054266 465.7207 60.791016 C 466.51045 60.527766 467.22172 60.396484 467.85352 60.396484 C 468.74857 60.396484 469.24822 60.661 469.35352 61.1875 C 469.45882 61.97725 469.88009 62.398522 470.61719 62.451172 C 471.40694 62.451172 472.22205 62.186656 473.06445 61.660156 C 473.90685 61.133656 474.64554 60.449822 475.27734 59.607422 C 475.90914 58.712372 476.1188 57.738547 475.9082 56.685547 C 475.64495 55.421947 475.0395 54.5265 474.0918 54 C 473.1441 53.42085 471.98609 53.130859 470.61719 53.130859 C 469.09034 53.130859 467.40525 53.446325 465.5625 54.078125 C 463.7724 54.709925 462.06184 55.579897 460.42969 56.685547 C 458.85019 57.791197 457.48057 59.080488 456.32227 60.554688 C 455.41083 61.769936 454.85861 63.042652 454.62695 64.365234 C 454.46395 64.611031 454.41271 64.697346 454.22656 64.976562 C 453.43681 66.240162 452.51589 67.662688 451.46289 69.242188 C 450.40989 70.769037 449.27736 72.348319 448.06641 73.980469 C 446.85546 75.559968 445.67002 77.007969 444.51172 78.324219 C 443.40607 79.640468 442.35387 80.692672 441.35352 81.482422 C 440.40582 82.219522 439.64165 82.509512 439.0625 82.351562 C 438.6413 82.193613 438.48454 81.641059 438.58984 80.693359 C 438.69514 79.69301 438.9048 78.507572 439.2207 77.138672 C 439.5366 75.717122 439.85207 74.243647 440.16797 72.716797 C 440.53652 71.189947 440.7207 69.79485 440.7207 68.53125 C 440.7207 66.6885 440.35233 65.109218 439.61523 63.792969 C 438.87813 62.476719 437.56337 61.687078 435.66797 61.423828 C 436.14182 60.581428 436.66694 59.607603 437.24609 58.501953 C 437.87789 57.343653 438.37754 56.236594 438.74609 55.183594 C 439.16729 54.130594 439.40438 53.184197 439.45703 52.341797 C 439.50968 51.499397 439.24712 50.946844 438.66797 50.683594 C 437.61497 50.315044 436.56277 50.446325 435.50977 51.078125 C 434.50942 51.657275 433.61397 52.499819 432.82422 53.605469 C 432.03447 54.711119 431.40158 55.947507 430.92773 57.316406 C 430.45388 58.685306 430.2168 59.923647 430.2168 61.029297 C 430.2168 61.641372 430.3033 62.179851 430.45703 62.660156 C 428.03463 64.918128 425.85522 66.636318 423.95312 67.742188 C 421.74183 69.005787 420.11159 69.374156 419.05859 68.847656 C 418.37414 68.531756 418.00382 67.951775 417.95117 67.109375 C 417.95117 66.214325 417.9786 65.293403 418.03125 64.345703 C 418.13655 63.345353 418.16202 62.397003 418.10938 61.501953 C 418.05673 60.606903 417.68836 59.975972 417.00391 59.607422 C 418.53076 58.765022 419.29492 57.526681 419.29492 55.894531 C 419.29492 54.999481 419.00493 54.156937 418.42578 53.367188 C 417.84663 52.577438 416.89828 52.024884 415.58203 51.708984 C 414.79228 51.551034 413.97717 51.472656 413.13477 51.472656 C 411.23937 51.472656 409.31719 51.946831 407.36914 52.894531 C 405.42109 53.789581 403.55182 54.973066 401.76172 56.447266 C 400.1964 57.73635 398.73903 59.197449 397.375 60.808594 C 396.99561 60.960129 396.61767 61.23861 396.23828 61.660156 C 395.44853 62.502556 394.3689 63.687994 393 65.214844 C 391.68375 66.741693 390.23575 68.242597 388.65625 69.716797 C 387.07675 71.190997 385.49747 72.480288 383.91797 73.585938 C 382.33847 74.638937 380.94337 75.138587 379.73242 75.085938 C 378.78472 75.033288 377.99508 74.533637 377.36328 73.585938 C 376.73148 72.585588 376.22988 71.453053 375.86133 70.189453 C 375.54543 68.925853 375.33577 67.662037 375.23047 66.398438 C 375.17782 65.134838 375.20329 64.18844 375.30859 63.556641 C 376.62484 62.135091 378.10027 60.369671 379.73242 58.263672 C 381.36457 56.105022 382.99676 53.789003 384.62891 51.314453 C 386.31371 48.787254 387.91846 46.155768 389.44531 43.417969 C 391.02481 40.680169 392.39443 38.021256 393.55273 35.441406 C 394.76368 32.808907 395.71008 30.334178 396.39453 28.017578 C 397.07898 25.648329 397.36897 23.620347 397.26367 21.935547 L 397.26367 21.382812 C 397.26367 21.066913 397.2382 20.829825 397.18555 20.671875 L 397.10547 20.357422 C 396.68427 18.883222 395.92206 17.829065 394.81641 17.197266 C 393.76341 16.565466 392.63087 16.275475 391.41992 16.328125 z M 209.01172 20.751953 C 209.43292 20.751953 209.80324 20.908709 210.11914 21.224609 C 210.43504 21.540509 210.6447 21.989209 210.75 22.568359 C 210.8553 22.884259 210.8553 23.17425 210.75 23.4375 C 210.6447 25.4382 210.03924 27.910976 208.93359 30.859375 C 207.88059 33.755124 206.5384 36.809835 204.90625 40.021484 C 203.2741 43.180484 201.45773 46.313573 199.45703 49.419922 C 197.50898 52.526271 195.61228 55.238088 193.76953 57.554688 C 194.45398 52.605589 195.45523 47.681605 196.77148 42.785156 C 198.14038 37.836057 199.93128 33.123687 202.14258 28.648438 L 202.2207 28.648438 C 202.9578 27.121588 203.74744 25.701015 204.58984 24.384766 C 205.43224 23.068516 206.24931 22.09469 207.03906 21.462891 C 207.30231 21.304941 207.61778 21.146231 207.98633 20.988281 C 208.40753 20.830331 208.74847 20.751953 209.01172 20.751953 z M 391.02539 20.751953 C 391.44659 20.751953 391.81496 20.908709 392.13086 21.224609 C 392.44676 21.540509 392.65642 21.989209 392.76172 22.568359 C 392.86702 22.884259 392.86702 23.17425 392.76172 23.4375 C 392.65642 25.4382 392.05096 27.910976 390.94531 30.859375 C 389.89231 33.755124 388.55012 36.809835 386.91797 40.021484 C 385.28582 43.180484 383.46945 46.313573 381.46875 49.419922 C 379.5207 52.526271 377.62595 55.238088 375.7832 57.554688 C 376.46765 52.605589 377.46695 47.681605 378.7832 42.785156 C 380.1521 37.836057 381.943 33.123687 384.1543 28.648438 L 384.23242 28.648438 C 384.96952 27.121588 385.76112 25.701015 386.60352 24.384766 C 387.44592 23.068516 388.26103 22.09469 389.05078 21.462891 C 389.31403 21.304941 389.6295 21.146231 389.99805 20.988281 C 390.41925 20.830331 390.76214 20.751953 391.02539 20.751953 z M 532.84961 30.292969 C 530.20169 30.292969 527.63039 30.653223 525.13672 31.373047 C 522.66875 32.092871 520.2271 33.185034 517.81055 34.650391 L 517.81055 41.900391 C 520.30422 40.177954 522.69441 38.866577 524.98242 37.966797 C 527.29614 37.067017 529.46907 36.617188 531.5 36.617188 C 534.27646 36.617188 536.50085 37.324341 538.17188 38.738281 C 539.8686 40.152221 540.7168 42.003003 540.7168 44.291016 C 540.7168 45.550708 540.3813 46.783911 539.71289 47.992188 C 539.07019 49.200464 538.01614 50.487085 536.55078 51.849609 L 533.08203 55.28125 C 530.76831 57.492138 529.25107 59.432495 528.53125 61.103516 C 527.81143 62.774536 527.45117 64.909351 527.45117 67.505859 L 527.45117 73.443359 L 534.81641 73.443359 L 534.81641 68.701172 C 534.81641 67.364356 534.85452 66.310303 534.93164 65.539062 C 535.00876 64.767822 535.12505 64.112134 535.2793 63.572266 C 535.48496 62.929566 535.83186 62.273877 536.32031 61.605469 C 536.83447 60.911353 537.69602 59.960229 538.9043 58.751953 L 542.29688 55.435547 C 544.6106 53.224659 546.23076 51.244238 547.15625 49.496094 C 548.08174 47.722242 548.54492 45.858105 548.54492 43.904297 C 548.54492 39.816725 547.10391 36.526879 544.22461 34.033203 C 541.37102 31.539527 537.57988 30.292969 532.84961 30.292969 z M 127.41406 34.410156 C 127.25282 34.400284 127.08713 34.4009 126.91602 34.414062 C 126.28422 34.414062 125.65133 34.65115 125.01953 35.125 C 124.75628 35.3356 124.36244 35.678494 123.83594 36.152344 C 123.36209 36.626194 122.91339 37.125844 122.49219 37.652344 C 122.07099 38.126194 121.70262 38.520038 121.38672 38.835938 C 121.12347 39.151837 120.93928 39.336022 120.83398 39.388672 C 120.25483 39.915172 120.01775 40.653863 120.12305 41.601562 C 120.281 42.496612 120.59842 43.339156 121.07227 44.128906 C 121.59877 44.918656 122.2297 45.496684 122.9668 45.865234 C 123.7039 46.233784 124.38773 46.127978 125.01953 45.548828 L 125.09961 45.628906 C 125.20491 45.523606 125.41457 45.286519 125.73047 44.917969 C 126.09902 44.496769 126.49482 44.050022 126.91602 43.576172 C 127.38987 43.049672 127.83661 42.548069 128.25781 42.074219 C 128.67901 41.600369 128.99448 41.206525 129.20508 40.890625 C 129.62628 40.469425 129.9437 39.99525 130.1543 39.46875 C 130.41755 38.94225 130.54883 38.4426 130.54883 37.96875 C 130.54883 37.2843 130.36464 36.651416 129.99609 36.072266 C 129.68019 35.493116 129.25892 35.071844 128.73242 34.808594 C 128.33755 34.571669 127.89778 34.439772 127.41406 34.410156 z M 13.535156 45.716797 L 13.535156 55.511719 L 21.324219 55.511719 L 21.324219 45.716797 L 13.535156 45.716797 z M 410.50586 59.541016 C 411.15247 59.545952 411.79203 59.646313 412.42383 59.84375 L 412.50195 59.84375 C 412.5546 59.8964 412.63493 59.923828 412.74023 59.923828 C 412.42433 60.239728 411.71307 61.029369 410.60742 62.292969 C 409.55442 63.503918 408.29061 64.899016 406.81641 66.478516 C 405.34221 68.058015 403.73745 69.662772 402 71.294922 C 400.3152 72.874422 398.70849 74.138238 397.18164 75.085938 C 396.28659 75.665087 395.78694 75.743466 395.68164 75.322266 C 395.57634 74.901066 395.62924 74.348512 395.83984 73.664062 L 395.83984 73.744141 C 396.31369 72.375241 397.12881 70.795959 398.28711 69.005859 C 399.44541 67.16311 400.7876 65.478022 402.31445 63.951172 C 403.8413 62.371672 405.47349 61.160759 407.21094 60.318359 C 408.32975 59.791859 409.42818 59.532789 410.50586 59.541016 z M 277.76758 59.779297 C 278.05386 59.782587 278.33492 59.804263 278.61133 59.84375 C 277.55833 60.5282 276.21613 61.897822 274.58398 63.951172 C 273.79423 65.056822 272.87331 66.373541 271.82031 67.900391 C 270.81996 69.37459 269.76581 70.900969 268.66016 72.480469 C 267.55451 74.059968 266.42392 75.63925 265.26562 77.21875 C 264.15998 78.7456 263.10582 80.087794 262.10547 81.246094 C 261.15777 82.404394 260.28975 83.299841 259.5 83.931641 C 258.71025 84.510791 258.10479 84.694975 257.68359 84.484375 C 257.47299 84.115825 257.5788 83.351659 258 82.193359 C 258.36855 80.98241 258.9211 79.61474 259.6582 78.087891 C 260.34265 76.561041 261.15777 74.981759 262.10547 73.349609 C 263.00052 71.71746 263.87049 70.269459 264.71289 69.005859 C 265.66059 67.63696 266.68732 66.373144 267.79297 65.214844 C 268.95127 64.003894 270.13475 62.977165 271.3457 62.134766 C 272.6093 61.292366 273.84764 60.659481 275.05859 60.238281 C 276.00629 59.922381 276.90873 59.769425 277.76758 59.779297 z M 226.14844 59.988281 C 226.30474 59.984168 226.46314 59.988791 226.62109 60.001953 C 227.30554 60.054603 227.64648 60.317166 227.64648 60.791016 C 227.64648 61.264866 227.4623 61.791944 227.09375 62.371094 C 226.7252 62.897594 226.22555 63.397244 225.59375 63.871094 C 224.96195 64.292294 224.17231 64.609713 223.22461 64.820312 C 222.32956 65.030912 221.32831 65.030912 220.22266 64.820312 C 220.95976 63.504063 221.88263 62.3441 222.98828 61.34375 C 224.00179 60.468444 225.0543 60.017074 226.14844 59.988281 z M 341.52734 59.988281 C 341.68365 59.984168 341.8401 59.988791 341.99805 60.001953 C 342.6825 60.054603 343.02539 60.317166 343.02539 60.791016 C 343.02539 61.264866 342.83925 61.791944 342.4707 62.371094 C 342.10215 62.897594 341.6025 63.397244 340.9707 63.871094 C 340.3389 64.292294 339.54926 64.609713 338.60156 64.820312 C 337.70651 65.030912 336.70721 65.030912 335.60156 64.820312 C 336.33866 63.504063 337.25958 62.3441 338.36523 61.34375 C 339.37875 60.468444 340.43321 60.017074 341.52734 59.988281 z M 497.4707 59.988281 C 497.62701 59.984168 497.78541 59.988791 497.94336 60.001953 C 498.62781 60.054603 498.96875 60.317166 498.96875 60.791016 C 498.96875 61.264866 498.78457 61.791944 498.41602 62.371094 C 498.04747 62.897594 497.54782 63.397244 496.91602 63.871094 C 496.28422 64.292294 495.49457 64.609713 494.54688 64.820312 C 493.65183 65.030912 492.65057 65.030912 491.54492 64.820312 C 492.28202 63.504063 493.2049 62.3441 494.31055 61.34375 C 495.32406 60.468444 496.37657 60.017074 497.4707 59.988281 z M 13.767578 61.181641 L 13.767578 65.923828 C 13.767578 67.31206 13.727515 68.392822 13.650391 69.164062 C 13.573267 69.935303 13.445581 70.589038 13.265625 71.128906 C 13.059961 71.771606 12.713061 72.44065 12.224609 73.134766 C 11.736157 73.803174 10.874609 74.740943 9.640625 75.949219 L 6.2460938 79.265625 C 3.9580815 81.476513 2.339868 83.470288 1.3886719 85.244141 C 0.46318379 86.992285 0 88.843067 0 90.796875 C 0 94.884447 1.4390631 98.174293 4.3183594 100.66797 C 7.1976556 103.16164 11.002149 104.4082 15.732422 104.4082 C 18.380346 104.4082 20.938282 104.04795 23.40625 103.32812 C 25.874218 102.6083 28.317823 101.51614 30.734375 100.05078 L 30.734375 92.800781 C 28.266407 94.523217 25.874267 95.834595 23.560547 96.734375 C 21.246827 97.634155 19.087255 98.083984 17.082031 98.083984 C 14.279859 98.083984 12.030713 97.376831 10.333984 95.962891 C 8.6629642 94.54895 7.828125 92.698168 7.828125 90.410156 C 7.828125 89.150464 8.1502687 87.91726 8.7929688 86.708984 C 9.4613768 85.500708 10.540186 84.21604 12.03125 82.853516 L 15.501953 79.458984 C 17.815673 77.222388 19.319556 75.268676 20.013672 73.597656 C 20.733496 71.926636 21.09375 69.793774 21.09375 67.197266 L 21.09375 61.181641 L 13.767578 61.181641 z M 185.55664 61.976562 L 185.55664 63.871094 C 185.60929 64.502894 185.68767 65.0574 185.79297 65.53125 C 184.79262 66.58425 183.68751 67.714832 182.47656 68.925781 C 181.31826 70.136731 180.18573 71.269266 179.08008 72.322266 C 177.97443 73.322615 177.0006 74.16516 176.1582 74.849609 C 175.3158 75.481409 174.73777 75.743972 174.42188 75.638672 C 174.00068 75.533372 173.84197 75.165003 173.94727 74.533203 C 173.99992 73.901403 174.21153 73.137237 174.58008 72.242188 C 175.00128 71.294488 175.55383 70.295187 176.23828 69.242188 C 176.97538 68.189188 177.76502 67.187934 178.60742 66.240234 C 179.50247 65.292535 180.39792 64.477419 181.29297 63.792969 C 182.24067 63.055869 183.16159 62.581694 184.05664 62.371094 C 184.74109 62.265794 185.24074 62.134512 185.55664 61.976562 z M 367.57031 61.976562 L 367.57031 63.871094 C 367.62296 64.502894 367.70134 65.0574 367.80664 65.53125 C 366.80629 66.58425 365.70118 67.714832 364.49023 68.925781 C 363.33193 70.136731 362.1994 71.269266 361.09375 72.322266 C 359.9881 73.322615 359.01427 74.16516 358.17188 74.849609 C 357.32948 75.481409 356.74949 75.743972 356.43359 75.638672 C 356.01239 75.533372 355.85564 75.165003 355.96094 74.533203 C 356.01359 73.901403 356.22325 73.137237 356.5918 72.242188 C 357.013 71.294488 357.56555 70.295187 358.25 69.242188 C 358.9871 68.189188 359.77674 67.187934 360.61914 66.240234 C 361.51419 65.292535 362.40964 64.477419 363.30469 63.792969 C 364.25239 63.055869 365.17331 62.581694 366.06836 62.371094 C 366.75281 62.265794 367.25441 62.134512 367.57031 61.976562 z M 121.70312 62.529297 C 122.17697 63.319047 122.49244 64.398678 122.65039 65.767578 C 122.80834 67.136478 122.78287 68.504147 122.57227 69.873047 C 122.36167 71.189297 121.9933 72.34926 121.4668 73.349609 C 120.9403 74.349959 120.22903 74.875084 119.33398 74.927734 C 118.59688 74.980384 118.06981 74.717822 117.75391 74.138672 C 117.49066 73.559522 117.35937 72.822784 117.35938 71.927734 C 117.35937 71.137985 117.46518 70.29544 117.67578 69.400391 C 117.88638 68.505341 118.17637 67.635369 118.54492 66.792969 C 118.91347 65.897919 119.36022 65.082803 119.88672 64.345703 C 120.41322 63.608603 121.01868 63.003147 121.70312 62.529297 z M 527.2207 79.111328 L 527.2207 88.90625 L 535.04688 88.90625 L 535.04688 79.111328 L 527.2207 79.111328 z M 461.77148 79.746094 C 461.40293 80.483194 460.98166 81.378641 460.50781 82.431641 C 460.03396 83.43199 459.42851 84.221631 458.69141 84.800781 C 457.84901 85.537881 457.00646 86.063006 456.16406 86.378906 C 455.32166 86.694806 454.90039 86.722234 454.90039 86.458984 C 454.90039 86.143084 455.13748 85.694384 455.61133 85.115234 C 456.08518 84.536084 456.66516 83.930628 457.34961 83.298828 C 458.03406 82.667028 458.7708 82.036097 459.56055 81.404297 C 460.3503 80.772497 461.08703 80.219944 461.77148 79.746094 z M 276.32227 85.589844 C 277.26997 85.800444 278.08508 86.063006 278.76953 86.378906 C 279.45398 86.642156 280.03396 87.063428 280.50781 87.642578 C 280.98166 88.169078 281.3226 88.854866 281.5332 89.697266 C 281.7438 90.592315 281.84961 91.750325 281.84961 93.171875 C 281.84961 95.330525 281.58705 97.673972 281.06055 100.20117 C 280.5867 102.72837 279.95381 105.06987 279.16406 107.22852 C 278.42696 109.38717 277.63732 111.15063 276.79492 112.51953 C 275.95252 113.88843 275.21578 114.49389 274.58398 114.33594 C 274.11013 113.80944 273.74177 112.96885 273.47852 111.81055 C 273.21527 110.7049 273.08398 109.44108 273.08398 108.01953 C 273.08398 106.59798 273.16236 104.99127 273.32031 103.20117 C 273.53091 101.41107 273.768 99.5418 274.03125 97.59375 C 274.34715 95.69835 274.69004 93.725225 275.05859 91.671875 C 275.47979 89.618525 275.90107 87.590543 276.32227 85.589844 z "
       style="font-style:normal;font-variant:normal;font-weight:normal;font-stretch:normal;font-size:20.89546394px;line-height:1.25;font-family:'valentine vibes';-inkscape-font-specification:'valentine vibes';letter-spacing:0px;word-spacing:0px;fill:#0d002f;fill-opacity:1;stroke:none;stroke-width:1.97437465" />
  </g>
</svg>
