<?xml version="1.0" encoding="UTF-8" standalone="no"?>
<!-- Created with Inkscape (http://www.inkscape.org/) -->

<svg
   xmlns:dc="http://purl.org/dc/elements/1.1/"
   xmlns:cc="http://creativecommons.org/ns#"
   xmlns:rdf="http://www.w3.org/1999/02/22-rdf-syntax-ns#"
   xmlns:svg="http://www.w3.org/2000/svg"
   xmlns="http://www.w3.org/2000/svg"
   xmlns:sodipodi="http://sodipodi.sourceforge.net/DTD/sodipodi-0.dtd"
   xmlns:inkscape="http://www.inkscape.org/namespaces/inkscape"
   width="223.41866mm"
   height="37.041668mm"
   viewBox="0 0 223.41865 37.041669"
   version="1.1"
   id="svg8"
   inkscape:version="0.92.4 (5da689c313, 2019-01-14)"
   sodipodi:docname="make-up-v.svg"
   inkscape:export-filename="/var/www/html/clientes/ismcenter/d-1/vista/images/componentes/make-up.png"
   inkscape:export-xdpi="130.64"
   inkscape:export-ydpi="130.64">
  <defs
     id="defs2" />
  <sodipodi:namedview
     id="base"
     pagecolor="#ffffff"
     bordercolor="#666666"
     borderopacity="1.0"
     inkscape:pageopacity="0.0"
     inkscape:pageshadow="2"
     inkscape:zoom="0.55309679"
     inkscape:cx="535.45157"
     inkscape:cy="120.07101"
     inkscape:document-units="mm"
     inkscape:current-layer="layer1"
     showgrid="false"
     fit-margin-top="0"
     fit-margin-left="0"
     fit-margin-right="0"
     fit-margin-bottom="0"
     inkscape:window-width="1440"
     inkscape:window-height="786"
     inkscape:window-x="0"
     inkscape:window-y="27"
     inkscape:window-maximized="1" />
  <metadata
     id="metadata5">
    <rdf:RDF>
      <cc:Work
         rdf:about="">
        <dc:format>image/svg+xml</dc:format>
        <dc:type
           rdf:resource="http://purl.org/dc/dcmitype/StillImage" />
        <dc:title></dc:title>
      </cc:Work>
    </rdf:RDF>
  </metadata>
  <g
     inkscape:label="Capa 1"
     inkscape:groupmode="layer"
     id="layer1"
     transform="translate(34.460532,-109.12047)">
    <path
       style="font-style:normal;font-variant:normal;font-weight:normal;font-stretch:normal;font-size:27.62242126px;line-height:1.25;font-family:'valentine vibes';-inkscape-font-specification:'valentine vibes';letter-spacing:0px;word-spacing:0px;fill:#0d002f;fill-opacity:1;stroke:none;stroke-width:2.60999227"
       d="M 30.708984 0 C 28.272991 0 25.766599 0.592194 23.191406 1.7753906 C 20.685813 2.8889875 18.249206 4.4203462 15.882812 6.3691406 C 13.516419 8.2483353 11.289166 10.43972 9.2011719 12.945312 C 7.1827776 15.381306 5.4440177 17.921614 3.9824219 20.566406 C 2.520826 23.141599 1.4420918 25.717776 0.74609375 28.292969 C 0.050095734 30.798562 -0.15925858 33.129516 0.11914062 35.287109 C 0.46713963 36.887905 0.98954886 38.106209 1.6855469 38.941406 C 2.4511447 39.707004 3.2168241 40.089844 3.9824219 40.089844 C 4.5392203 40.089844 5.0616295 39.880489 5.5488281 39.462891 C 6.1056265 39.045292 6.522382 38.522883 6.8007812 37.896484 C 7.0791805 37.200486 7.1828811 36.434807 7.1132812 35.599609 C 7.1132813 34.764412 6.8700111 33.928948 6.3828125 33.09375 L 6.3828125 33.199219 C 6.1044133 32.503221 5.9648438 31.703626 5.9648438 30.798828 C 5.9648438 28.502035 6.6966073 25.891942 8.1582031 22.96875 C 9.6893988 19.975959 11.567728 17.156511 13.794922 14.511719 C 16.091715 11.797326 18.528323 9.5342042 21.103516 7.7246094 C 23.748308 5.8454147 26.218832 4.90625 28.515625 4.90625 C 29.559622 4.90625 30.36117 5.1156043 30.917969 5.5332031 C 31.474767 5.9508019 31.821738 6.507127 31.960938 7.203125 C 32.100137 7.899123 32.136006 8.6648024 32.066406 9.5 C 31.996806 10.265598 31.857237 11.031277 31.648438 11.796875 C 31.230839 13.815269 30.638645 16.321662 29.873047 19.314453 C 29.177049 22.237645 28.411369 25.368194 27.576172 28.708984 L 26.949219 31.111328 C 25.557223 36.540113 24.061733 42.456193 22.460938 48.859375 C 20.929742 55.262557 19.468168 61.768878 18.076172 68.380859 C 16.753776 74.923241 15.639172 81.327815 14.734375 87.591797 C 13.899177 93.855779 13.482422 99.528589 13.482422 104.60938 C 13.482422 110.73416 14.282017 115.88456 15.882812 120.06055 C 17.553208 124.30613 20.233086 127.01993 23.921875 128.20312 L 23.921875 128.09766 C 24.548273 128.44566 25.174383 128.44566 25.800781 128.09766 C 26.427179 127.74966 26.949589 127.26312 27.367188 126.63672 C 27.784786 126.01032 27.994141 125.31443 27.994141 124.54883 C 28.06374 123.85283 27.784601 123.29651 27.158203 122.87891 C 26.114206 122.87891 25.348527 122.28671 24.861328 121.10352 C 26.670923 116.57953 28.515337 111.39521 30.394531 105.54883 C 32.343326 99.702445 34.432963 93.403525 36.660156 86.652344 C 38.81775 80.109962 41.078919 73.288633 43.445312 66.189453 C 45.881306 59.090273 48.351829 52.235028 50.857422 45.623047 C 53.432615 39.011066 56.008792 32.885631 58.583984 27.248047 C 61.159177 21.540863 63.663616 16.809171 66.099609 13.050781 C 67.282806 11.449986 68.467194 10.056244 69.650391 8.8730469 C 70.833587 7.6202504 71.702967 6.9602248 72.259766 6.890625 C 72.886164 7.6562228 73.372704 9.6741218 73.720703 12.945312 C 74.138302 16.216503 74.347656 20.148601 74.347656 24.742188 C 74.347656 28.778976 74.243956 33.163698 74.035156 37.896484 C 73.895957 42.629271 73.650733 47.466617 73.302734 52.408203 C 73.024335 57.280189 72.71128 62.08362 72.363281 66.816406 C 72.015282 71.479593 71.668312 75.79453 71.320312 79.761719 C 70.972313 83.659308 70.62339 87.03508 70.275391 89.888672 C 69.996991 92.742264 69.78959 94.760163 69.650391 95.943359 C 69.093592 100.11935 69.893187 102.20703 72.050781 102.20703 C 72.885979 102.20703 73.861013 101.75441 74.974609 100.84961 C 76.157806 100.01441 77.306325 99.041331 78.419922 97.927734 C 79.603119 96.744538 80.681853 95.596019 81.65625 94.482422 C 82.630647 93.299225 83.326542 92.393976 83.744141 91.767578 C 85.136137 89.888383 86.735327 87.8007 88.544922 85.503906 C 90.424117 83.207113 92.374184 80.874206 94.392578 78.507812 C 96.410972 76.071819 98.428871 73.70695 100.44727 71.410156 C 102.53526 69.113363 104.48337 67.059595 106.29297 65.25 C 108.10256 63.440405 109.73958 61.978831 111.20117 60.865234 C 112.73237 59.751638 113.9148 59.125528 114.75 58.986328 C 115.2372 59.264727 115.58612 59.960622 115.79492 61.074219 C 116.07332 62.118216 116.21094 63.44022 116.21094 65.041016 C 116.21094 66.433012 116.14311 68.068071 116.00391 69.947266 C 115.86471 71.82646 115.72514 73.670874 115.58594 75.480469 C 115.37714 77.707662 115.16778 80.108401 114.95898 82.683594 C 114.81978 85.258786 114.75 87.731263 114.75 90.097656 C 114.75 93.229647 115.02914 96.256496 115.58594 99.179688 C 116.21234 102.10288 117.18542 104.64319 118.50781 106.80078 C 119.89981 109.02797 121.67444 110.6989 123.83203 111.8125 C 125.98963 112.9261 128.6695 113.20328 131.87109 112.64648 C 132.70629 112.50728 133.40219 112.09053 133.95898 111.39453 C 134.51578 110.76813 134.86471 110.07224 135.00391 109.30664 C 135.14311 108.61064 135.03941 107.98453 134.69141 107.42773 C 134.41301 106.87094 133.82081 106.62767 132.91602 106.69727 C 132.22002 106.76687 131.59391 106.83665 131.03711 106.90625 C 130.48031 107.04545 129.92203 107.11328 129.36523 107.11328 C 127.13804 107.11328 125.60864 106.3476 124.77344 104.81641 C 124.00784 103.35481 123.625 101.4067 123.625 98.970703 C 123.625 96.256311 123.8324 93.576433 124.25 90.931641 C 124.6676 88.217248 125.12022 85.537371 125.60742 82.892578 C 126.16422 80.247786 126.65271 77.603777 127.07031 74.958984 C 127.48791 72.314192 127.69531 69.670183 127.69531 67.025391 C 127.69531 64.937397 127.48791 63.057114 127.07031 61.386719 C 126.72231 59.646724 126.09425 58.151234 125.18945 56.898438 C 124.28466 55.645641 123.06831 54.670607 121.53711 53.974609 C 120.00591 53.278611 118.05585 52.965556 115.68945 53.035156 C 113.81026 52.965556 111.4793 53.904721 108.69531 55.853516 C 105.91132 57.80231 102.91839 60.342618 99.716797 63.474609 C 96.584806 66.6066 93.382519 70.121942 90.111328 74.019531 C 86.840137 77.84752 83.743504 81.640048 80.820312 85.398438 L 80.820312 84.773438 C 80.889912 84.564638 80.923828 84.355284 80.923828 84.146484 C 80.993428 83.937685 81.063213 83.658546 81.132812 83.310547 C 81.272012 82.892948 81.411582 82.336623 81.550781 81.640625 L 81.96875 79.34375 C 82.10795 78.508552 82.247519 77.708957 82.386719 76.943359 C 82.943517 73.811368 83.533758 70.260157 84.160156 66.292969 C 84.856154 62.32578 85.484217 58.220197 86.041016 53.974609 C 86.667414 49.659422 87.153954 45.344485 87.501953 41.029297 C 87.919552 36.714109 88.128906 32.572657 88.128906 28.605469 C 88.128906 24.56868 87.885636 20.810068 87.398438 17.330078 C 86.911239 13.780488 86.075775 10.75364 84.892578 8.2480469 C 83.709381 5.742454 82.108238 3.8282556 80.089844 2.5058594 C 78.141049 1.1138633 75.704442 0.52166935 72.78125 0.73046875 C 71.806853 0.80006855 70.831819 1.1131235 69.857422 1.6699219 C 68.952624 2.1571205 68.01346 2.7832303 67.039062 3.5488281 C 66.134265 4.3144259 65.264885 5.185759 64.429688 6.1601562 C 63.59449 7.0649537 62.828811 7.9343336 62.132812 8.7695312 C 60.253618 11.275124 58.305504 14.547196 56.287109 18.583984 C 54.338315 22.551173 52.318463 27.039596 50.230469 32.050781 C 48.212075 36.992367 46.16026 42.282338 44.072266 47.919922 C 42.053871 53.557506 40.069888 59.264232 38.121094 65.041016 C 36.172299 70.748199 34.292017 76.385141 32.482422 81.953125 C 30.742427 87.451509 29.143236 92.601911 27.681641 97.404297 L 27.681641 97.300781 C 27.333642 98.344778 26.984718 99.423513 26.636719 100.53711 L 25.59375 103.87695 C 25.802549 102.06736 26.04582 100.25881 26.324219 98.449219 C 26.672218 96.639624 27.055057 94.79521 27.472656 92.916016 C 27.959855 91.036821 28.446395 89.052838 28.933594 86.964844 C 29.490392 84.80725 30.082586 82.510212 30.708984 80.074219 L 32.378906 73.289062 C 33.562103 68.277877 34.744538 63.19726 35.927734 58.046875 C 37.180531 52.82689 38.295134 47.780189 39.269531 42.908203 C 40.243928 37.966617 41.009608 33.26884 41.566406 28.814453 C 42.192804 24.360066 42.505859 20.358184 42.505859 16.808594 C 42.505859 15.694997 42.46999 14.616263 42.400391 13.572266 C 42.330791 12.458669 42.22709 11.483635 42.087891 10.648438 C 41.531092 7.9340452 40.591927 5.7067919 39.269531 3.9667969 C 38.016735 2.157202 36.311891 0.97476716 34.154297 0.41796875 C 33.597498 0.27876915 33.03922 0.17311543 32.482422 0.10351562 C 31.925623 0.033915823 31.335383 0 30.708984 0 z M 225.41211 3.6542969 C 222.14092 3.5150973 219.0782 4.5938315 216.22461 6.890625 C 213.44062 9.1874185 210.90031 12.284052 208.60352 16.181641 C 206.30672 20.07923 204.28882 24.533736 202.54883 29.544922 C 200.80883 34.556108 199.31139 39.706509 198.05859 44.996094 C 196.8754 50.216079 195.9721 55.36648 195.3457 60.447266 C 195.08441 62.537597 194.89058 64.515152 194.73828 66.423828 C 192.15365 68.712412 189.79475 70.499781 187.69141 71.722656 C 184.76821 73.393051 182.61075 73.879592 181.21875 73.183594 C 180.31395 72.765995 179.82741 72.000316 179.75781 70.886719 C 179.75781 69.703522 179.79173 68.485218 179.86133 67.232422 C 180.00053 65.910026 180.03444 64.657806 179.96484 63.474609 C 179.89524 62.291413 179.4087 61.455949 178.50391 60.96875 C 180.5223 59.855153 181.53125 58.220094 181.53125 56.0625 C 181.53125 54.879303 181.14841 53.766653 180.38281 52.722656 C 179.61721 51.678659 178.365 50.946896 176.625 50.529297 C 175.581 50.320497 174.50227 50.216797 173.38867 50.216797 C 170.88308 50.216797 168.34277 50.842907 165.76758 52.095703 C 163.19239 53.2789 160.72186 54.844174 158.35547 56.792969 C 155.98908 58.741763 153.79574 60.969017 151.77734 63.474609 C 149.82855 65.910602 148.19349 68.381126 146.87109 70.886719 C 145.5487 73.392312 144.60953 75.828919 144.05273 78.195312 C 143.49594 80.492106 143.49594 82.476089 144.05273 84.146484 C 144.53993 85.329681 145.26974 86.23493 146.24414 86.861328 C 147.14894 87.487726 148.15789 87.800781 149.27148 87.800781 C 149.82828 87.800781 150.52418 87.661212 151.35938 87.382812 C 152.26417 87.104413 153.09964 86.755489 153.86523 86.337891 C 155.11803 85.641893 156.4759 84.632943 157.9375 83.310547 C 159.4687 81.988151 161.00005 80.562446 162.53125 79.03125 C 164.13205 77.430455 165.6634 75.793442 167.125 74.123047 C 168.5866 72.383052 169.9086 70.783861 171.0918 69.322266 C 171.3006 70.505462 171.57974 71.687897 171.92773 72.871094 C 172.34533 74.05429 172.90166 75.133025 173.59766 76.107422 C 174.29365 77.012219 175.16303 77.811814 176.20703 78.507812 C 177.25103 79.134211 178.53912 79.483135 180.07031 79.552734 C 181.74071 79.622334 183.41164 79.343195 185.08203 78.716797 C 186.75243 78.020799 188.4214 77.081634 190.0918 75.898438 C 191.56602 74.836996 193.01128 73.653867 194.43555 72.392578 C 194.42595 72.899753 194.40625 73.422891 194.40625 73.914062 C 194.40625 76.489255 194.57974 78.786293 194.92773 80.804688 C 195.20613 82.823082 195.65876 84.424225 196.28516 85.607422 L 196.17969 85.607422 C 196.52769 86.442619 196.9464 87.068729 197.43359 87.486328 C 197.92079 87.834327 198.4432 88.009766 199 88.009766 C 200.044 88.009766 200.98316 87.417572 201.81836 86.234375 L 203.5918 82.998047 L 203.5918 83.101562 L 205.36719 79.865234 C 206.20239 80.978831 207.38677 81.953865 208.91797 82.789062 C 210.44916 83.62426 212.01444 83.971231 213.61523 83.832031 C 215.42483 83.762431 217.37294 83.066537 219.46094 81.744141 C 221.61853 80.352145 223.74208 78.752954 225.83008 76.943359 C 227.89621 75.083844 229.85902 73.154017 231.7207 71.158203 C 231.54067 72.30371 231.43164 73.434087 231.43164 74.541016 C 231.43164 76.211411 231.64099 77.778639 232.05859 79.240234 C 232.47619 80.70183 233.1023 82.023835 233.9375 83.207031 C 234.7727 84.320628 235.81556 85.225877 237.06836 85.921875 C 238.32116 86.617873 239.78273 86.964844 241.45312 86.964844 C 244.09792 87.034444 246.88345 86.372465 249.80664 84.980469 C 252.72983 83.518873 255.54733 81.744244 258.26172 79.65625 C 261.04571 77.568256 263.62189 75.341003 265.98828 72.974609 C 268.42427 70.608216 270.47609 68.520532 272.14648 66.710938 C 272.84248 65.87574 273.26119 65.110061 273.40039 64.414062 C 273.53959 63.718064 273.43589 63.195655 273.08789 62.847656 C 272.80949 62.430057 272.35687 62.256572 271.73047 62.326172 C 271.17367 62.395772 270.54756 62.81448 269.85156 63.580078 C 269.01636 64.484876 267.58871 65.876665 265.57031 67.755859 C 263.55192 69.635054 261.25488 71.513383 258.67969 73.392578 C 256.17409 75.271773 253.53009 76.942701 250.74609 78.404297 C 248.0317 79.796293 245.56118 80.492188 243.33398 80.492188 C 242.28999 80.492188 241.48844 80.179133 240.93164 79.552734 C 240.37484 78.926336 239.95809 78.194573 239.67969 77.359375 C 239.47089 76.454578 239.36523 75.551282 239.36523 74.646484 C 239.43483 73.741687 239.5744 72.976008 239.7832 72.349609 C 242.77599 72.836808 245.42196 72.697238 247.71875 71.931641 C 250.08514 71.166043 252.03326 70.05144 253.56445 68.589844 C 255.16525 67.128248 256.38355 65.493189 257.21875 63.683594 C 258.05395 61.804399 258.4707 60.02977 258.4707 58.359375 C 258.4707 56.54978 257.94829 54.984506 256.9043 53.662109 C 255.8603 52.270113 254.22524 51.53835 251.99805 51.46875 C 248.79646 51.259951 245.90918 51.852145 243.33398 53.244141 C 240.82839 54.636137 238.66897 56.48055 236.85938 58.777344 C 235.79905 60.176977 234.91424 61.692427 234.16406 63.298828 C 234.13463 63.324925 234.10787 63.344051 234.07812 63.371094 C 232.96453 64.484691 231.57274 65.840611 229.90234 67.441406 C 228.23195 69.042202 226.45537 70.643345 224.57617 72.244141 C 222.76658 73.775336 220.92216 75.13321 219.04297 76.316406 C 217.23337 77.430003 215.63418 78.056113 214.24219 78.195312 C 212.91979 78.404112 211.77127 78.021272 210.79688 77.046875 C 209.89208 76.072478 209.3338 74.680689 209.125 72.871094 C 209.8906 71.409498 210.65628 70.017709 211.42188 68.695312 C 212.25707 67.303316 213.02275 66.051097 213.71875 64.9375 C 214.41475 63.823903 215.04281 62.95257 215.59961 62.326172 C 216.15641 61.630174 216.57316 61.283203 216.85156 61.283203 C 217.61716 61.144004 218.17349 60.725295 218.52148 60.029297 C 218.93908 59.263699 219.14844 58.49802 219.14844 57.732422 C 219.14844 56.897224 218.97495 56.20133 218.62695 55.644531 C 218.34855 55.018133 217.92985 54.774863 217.37305 54.914062 L 217.37305 55.019531 C 216.32905 55.089131 215.07683 55.922642 213.61523 57.523438 C 212.22324 59.124233 210.79558 61.038431 209.33398 63.265625 C 207.94199 65.492819 206.58607 67.755941 205.26367 70.052734 C 204.01088 72.349528 202.96606 74.193941 202.13086 75.585938 L 204.00977 65.5625 C 205.88896 63.613706 207.97664 61.143182 210.27344 58.150391 C 212.63983 55.157599 214.97274 51.921396 217.26953 48.441406 C 219.63592 44.961416 221.86318 41.376289 223.95117 37.6875 C 226.03917 33.929111 227.81379 30.379853 229.27539 27.039062 C 229.97139 25.368667 230.7012 23.177283 231.4668 20.462891 C 232.30199 17.678899 232.7207 14.963152 232.7207 12.318359 C 232.7207 9.8823663 232.19829 7.8644673 231.1543 6.2636719 C 230.1103 4.6628764 228.1961 3.7934965 225.41211 3.6542969 z M 618.33789 3.6542969 C 615.0667 3.5150973 612.00398 4.5938315 609.15039 6.890625 C 606.3664 9.1874185 603.82609 12.284052 601.5293 16.181641 C 599.2325 20.07923 597.2146 24.533736 595.47461 29.544922 C 593.73461 34.556108 592.23912 39.706509 590.98633 44.996094 C 589.80313 50.216079 588.89788 55.36648 588.27148 60.447266 C 587.64509 65.458451 587.33203 69.946874 587.33203 73.914062 C 587.33203 76.489255 587.50552 78.786293 587.85352 80.804688 C 588.13191 82.823082 588.58454 84.424225 589.21094 85.607422 C 589.48934 86.37302 589.83826 86.965214 590.25586 87.382812 C 590.74306 87.730812 591.26351 87.904297 591.82031 87.904297 C 592.37711 87.904297 593.00322 87.625158 593.69922 87.068359 C 594.39522 86.441961 595.23068 85.399096 596.20508 83.9375 L 597.66797 81.013672 C 598.36397 79.691276 599.12965 78.265571 599.96484 76.734375 C 600.86964 75.13358 601.84272 73.496567 602.88672 71.826172 C 604.00032 70.155777 605.11492 68.660287 606.22852 67.337891 C 607.41171 65.945895 608.63002 64.797376 609.88281 63.892578 C 611.13561 62.987781 612.38783 62.50124 613.64062 62.431641 C 614.82382 62.362041 615.6932 62.918366 616.25 64.101562 C 616.8068 65.215159 617.08594 66.780434 617.08594 68.798828 L 617.08594 70.15625 C 617.15554 70.643449 617.15554 71.096073 617.08594 71.513672 C 613.67555 72.905668 610.40348 74.646381 607.27148 76.734375 C 604.20909 78.752769 601.3916 81.013938 598.81641 83.519531 C 596.31081 86.025124 594.15334 88.705002 592.34375 91.558594 C 590.60375 94.342586 589.31567 97.195949 588.48047 100.11914 C 588.06287 101.58074 587.85352 103.04231 587.85352 104.50391 C 587.85352 107.2879 588.61919 109.58494 590.15039 111.39453 C 591.68159 113.20413 593.49208 114.17916 595.58008 114.31836 C 598.43367 114.52716 601.07768 114.03867 603.51367 112.85547 C 606.01926 111.74187 608.3163 110.1766 610.4043 108.1582 C 612.49229 106.13981 614.3367 103.77299 615.9375 101.05859 C 617.5383 98.344201 618.89617 95.490838 620.00977 92.498047 C 621.19296 89.435656 622.09626 86.372938 622.72266 83.310547 C 623.34905 80.178556 623.69798 77.221492 623.76758 74.4375 C 625.71637 73.811102 627.45513 73.358477 628.98633 73.080078 C 630.51752 72.732079 631.8754 72.45294 633.05859 72.244141 C 632.98899 72.59214 632.91921 72.974979 632.84961 73.392578 L 632.84961 74.4375 C 632.84961 76.177495 633.05896 77.812554 633.47656 79.34375 C 633.89416 80.805346 634.52027 82.12735 635.35547 83.310547 C 636.19067 84.424144 637.23548 85.329393 638.48828 86.025391 C 639.81068 86.651789 641.34204 86.964844 643.08203 86.964844 C 645.72682 87.034444 648.5104 86.338549 651.43359 84.876953 C 654.35679 83.415357 657.17428 81.640728 659.88867 79.552734 C 661.71603 78.136529 663.46124 76.670226 665.13867 75.164062 C 664.76807 76.185998 664.44948 77.198097 664.21484 78.195312 C 663.65805 80.492106 663.65805 82.476089 664.21484 84.146484 C 664.70204 85.329681 665.43381 86.23493 666.4082 86.861328 C 667.313 87.487726 668.32195 87.800781 669.43555 87.800781 C 669.99235 87.800781 670.68824 87.661212 671.52344 87.382812 C 672.42823 87.104413 673.2637 86.755489 674.0293 86.337891 C 675.28209 85.641893 676.63997 84.632943 678.10156 83.310547 C 679.63276 81.988151 681.16412 80.562446 682.69531 79.03125 C 684.29611 77.430455 685.82551 75.793442 687.28711 74.123047 C 688.74871 72.383052 690.07266 70.783861 691.25586 69.322266 C 691.46466 70.505462 691.74184 71.687897 692.08984 72.871094 C 692.50744 74.05429 693.06377 75.133025 693.75977 76.107422 C 694.45576 77.012219 695.3271 77.811814 696.37109 78.507812 C 697.41509 79.134211 698.70318 79.483135 700.23438 79.552734 C 701.90477 79.622334 703.57375 79.343195 705.24414 78.716797 C 706.91454 78.020799 708.58546 77.081634 710.25586 75.898438 C 711.99585 74.645641 713.7007 73.253852 715.37109 71.722656 C 715.96244 71.178614 716.54364 70.614808 717.12695 70.054688 C 717.03855 70.678583 716.94282 71.291527 716.86523 71.931641 C 716.58684 74.158834 716.44727 76.246518 716.44727 78.195312 C 716.44727 79.587309 716.55292 80.909313 716.76172 82.162109 C 716.90092 83.345306 717.1781 84.390124 717.5957 85.294922 C 718.0133 86.199719 718.57158 86.895614 719.26758 87.382812 C 719.96358 87.870011 720.83296 88.079365 721.87695 88.009766 C 723.12975 88.009766 724.41784 87.521272 725.74023 86.546875 C 727.06263 85.502878 728.34877 84.250658 729.60156 82.789062 C 730.85436 81.257867 732.03875 79.622808 733.15234 77.882812 C 734.33554 76.142817 735.37841 74.505805 736.2832 72.974609 C 736.84 74.784204 737.74525 76.315563 738.99805 77.568359 C 740.32044 78.751556 742.20073 79.413535 744.63672 79.552734 C 746.30711 79.622334 747.97609 79.343195 749.64648 78.716797 C 751.31688 78.020799 752.98781 77.081634 754.6582 75.898438 C 756.3982 74.645641 758.10304 73.253852 759.77344 71.722656 C 760.9025 70.683921 762.01157 69.605158 763.11133 68.507812 C 763.10821 68.809504 763.0918 69.128243 763.0918 69.425781 C 763.0918 72.140174 763.23137 74.646566 763.50977 76.943359 C 763.85776 79.240153 764.38017 81.222183 765.07617 82.892578 C 765.84177 84.562973 766.78093 85.851062 767.89453 86.755859 C 769.07773 87.660657 770.5393 88.079365 772.2793 88.009766 C 774.50649 87.940166 776.73374 87.244271 778.96094 85.921875 C 781.18813 84.529879 783.37952 82.789166 785.53711 80.701172 C 787.7643 78.613178 789.92177 76.31614 792.00977 73.810547 C 792.19688 73.58601 792.36674 73.370463 792.55273 73.146484 C 792.52249 73.319316 792.50182 73.422645 792.4707 73.601562 C 792.1227 75.132758 791.80965 76.803686 791.53125 78.613281 C 791.25285 80.353276 791.0435 82.161821 790.9043 84.041016 C 790.6955 85.85061 790.5918 87.557408 790.5918 89.158203 C 790.5918 91.872595 790.93877 94.133765 791.63477 95.943359 C 792.33076 97.752954 793.65472 98.658203 795.60352 98.658203 C 797.13471 98.658203 798.76977 97.649254 800.50977 95.630859 C 802.31936 93.542865 804.05812 91.002557 805.72852 88.009766 C 807.46851 84.947374 809.06965 81.745087 810.53125 78.404297 C 812.06245 74.993907 813.35053 71.931189 814.39453 69.216797 C 814.32493 70.817592 814.22123 72.315035 814.08203 73.707031 C 813.94283 75.029427 813.76739 76.385348 813.55859 77.777344 C 813.34979 79.16934 813.07261 80.700699 812.72461 82.371094 C 812.44621 83.971889 812.13316 85.816303 811.78516 87.904297 C 806.77397 92.497884 801.76314 97.508715 796.75195 102.9375 C 792.43677 107.53109 788.74794 111.91581 785.68555 116.0918 C 782.55356 120.26778 780.60349 124.13205 779.83789 127.68164 C 779.48989 129.49124 779.45598 131.16021 779.73438 132.69141 C 779.94317 134.2922 780.46558 135.65008 781.30078 136.76367 C 782.13598 137.94687 783.28254 138.81625 784.74414 139.37305 C 786.13614 139.92985 787.84293 140.06941 789.86133 139.79102 C 792.15812 139.37342 794.41929 138.26077 796.64648 136.45117 C 798.87368 134.64158 801.03115 132.34454 803.11914 129.56055 C 805.27673 126.77655 807.3305 123.61014 809.2793 120.06055 C 811.22809 116.58056 813.03664 112.89173 814.70703 108.99414 C 816.37743 105.09655 817.87487 101.12859 819.19727 97.091797 C 820.58926 92.985409 821.73778 89.053311 822.64258 85.294922 C 823.61698 84.390124 824.59006 83.45096 825.56445 82.476562 C 826.60845 81.432565 827.86262 80.214262 829.32422 78.822266 C 830.85541 77.36067 832.69983 75.655826 834.85742 73.707031 C 837.08462 71.688637 839.86819 69.252029 843.20898 66.398438 C 843.90498 65.63284 844.28782 64.936945 844.35742 64.310547 C 844.49662 63.614549 844.39292 63.09214 844.04492 62.744141 C 843.76652 62.396142 843.3139 62.256572 842.6875 62.326172 C 842.0611 62.326172 841.39912 62.675096 840.70312 63.371094 C 840.21593 63.788693 839.62373 64.311102 838.92773 64.9375 C 838.30134 65.494298 837.39804 66.258025 836.21484 67.232422 C 835.03165 68.206819 833.46442 69.494908 831.51562 71.095703 C 829.63643 72.626899 827.23569 74.576966 824.3125 76.943359 C 825.0781 71.862574 825.35724 67.477852 825.14844 63.789062 C 825.07884 62.745065 824.83361 61.666331 824.41602 60.552734 C 824.06802 59.369538 823.58148 58.28885 822.95508 57.314453 C 822.39828 56.270456 821.73825 55.436945 820.97266 54.810547 C 820.27666 54.184149 819.54489 53.871094 818.7793 53.871094 C 818.1529 53.871094 817.52679 54.114364 816.90039 54.601562 C 816.34359 55.088761 815.7514 55.714871 815.125 56.480469 C 814.5682 57.176467 814.04579 57.976062 813.55859 58.880859 C 813.0714 59.716057 812.68856 60.517605 812.41016 61.283203 L 812.09766 62.222656 C 811.61046 63.405853 810.94848 64.971127 810.11328 66.919922 C 809.34768 68.799117 808.4783 70.817016 807.50391 72.974609 C 806.52951 75.132203 805.48664 77.359457 804.37305 79.65625 C 803.32905 81.883444 802.28423 83.937212 801.24023 85.816406 C 800.26584 87.626001 799.32667 89.15736 798.42188 90.410156 C 797.58668 91.662953 796.89078 92.392763 796.33398 92.601562 C 795.98599 92.253563 795.95012 91.106998 796.22852 89.158203 C 796.57651 87.139809 797.06501 84.876687 797.69141 82.371094 C 798.3178 79.865501 799.0137 77.394977 799.7793 74.958984 C 800.54489 72.453392 801.13514 70.539193 801.55273 69.216797 L 801.9707 67.755859 L 801.9707 67.859375 C 802.5275 66.04978 802.45772 64.588206 801.76172 63.474609 C 801.06572 62.361013 800.12656 61.804688 798.94336 61.804688 C 798.34687 61.804688 797.75079 61.994919 797.1543 62.333984 C 796.81697 62.481784 796.45867 62.733769 796.07422 63.117188 C 796.07211 63.119288 796.07047 63.120939 796.06836 63.123047 C 796.0522 63.137799 796.03569 63.147108 796.01953 63.162109 C 795.703 63.433421 795.41262 63.789378 795.13281 64.185547 C 794.60386 64.828912 794.01629 65.529459 793.1582 66.501953 C 792.11421 67.68515 790.93177 68.939323 789.60938 70.261719 C 788.28698 71.584115 786.85932 72.940035 785.32812 74.332031 C 783.86653 75.654427 782.40496 76.872731 780.94336 77.986328 C 779.48176 79.030325 778.05606 79.899705 776.66406 80.595703 C 775.34167 81.222101 774.12336 81.50124 773.00977 81.431641 C 772.10497 81.362041 771.51277 80.387007 771.23438 78.507812 C 771.02558 76.628618 771.02558 74.227879 771.23438 71.304688 C 771.51277 68.381496 771.93148 65.145293 772.48828 61.595703 C 773.04508 58.046113 773.67119 54.600556 774.36719 51.259766 C 775.13279 47.849375 775.8626 44.752742 776.55859 41.96875 C 777.32419 39.184758 777.98617 37.061205 778.54297 35.599609 L 802.3457 34.347656 C 804.7817 35.043654 806.73176 35.07757 808.19336 34.451172 C 809.65496 33.755174 810.38477 32.921663 810.38477 31.947266 C 810.38477 31.181668 810.03779 30.553605 809.3418 30.066406 C 808.6458 29.509608 807.60098 29.162637 806.20898 29.023438 C 804.39939 28.814638 802.34562 28.708984 800.04883 28.708984 C 797.82163 28.708984 795.5246 28.778769 793.1582 28.917969 C 790.79181 29.057168 788.46086 29.232607 786.16406 29.441406 C 783.86727 29.650206 781.84937 29.857607 780.10938 30.066406 C 781.08377 26.795216 782.05881 23.802283 783.0332 21.087891 C 784.0772 18.303899 785.01636 15.90316 785.85156 13.884766 C 786.54756 12.28397 786.89453 10.78848 786.89453 9.3964844 C 786.89453 7.7956889 786.44191 6.6113009 785.53711 5.8457031 C 784.70191 5.0801053 783.58926 4.6972656 782.19727 4.6972656 C 780.45727 4.6972656 778.61286 5.462945 776.66406 6.9941406 C 774.71527 8.4557365 773.32348 10.54342 772.48828 13.257812 C 771.79228 15.415406 771.09639 17.957668 770.40039 20.880859 C 769.70439 23.804051 768.93871 27.143954 768.10352 30.902344 C 766.64192 31.180743 764.93708 31.459882 762.98828 31.738281 C 761.10909 31.947081 759.2288 32.190351 757.34961 32.46875 C 755.47041 32.677549 753.66187 32.92082 751.92188 33.199219 C 750.18188 33.477618 748.75422 33.824589 747.64062 34.242188 C 745.83103 34.868586 744.47316 35.600349 743.56836 36.435547 C 742.66356 37.201145 742.21289 37.897039 742.21289 38.523438 C 742.21289 39.080236 742.69943 39.463076 743.67383 39.671875 C 744.64823 39.880674 746.14372 39.741105 748.16211 39.253906 C 749.13651 38.975507 750.4246 38.698321 752.02539 38.419922 C 753.55659 38.141523 755.22751 37.896299 757.03711 37.6875 L 762.25586 37.0625 C 763.99585 36.784101 765.56308 36.504962 766.95508 36.226562 C 766.46788 38.940955 765.97939 41.760402 765.49219 44.683594 L 764.24023 53.244141 C 763.89224 56.097732 763.6131 58.91718 763.4043 61.701172 C 763.37721 62.053329 763.36732 62.382997 763.34375 62.730469 C 763.13491 62.874919 762.92042 63.042471 762.69727 63.265625 C 758.73008 67.163214 755.28452 69.912876 752.36133 71.513672 C 749.43814 73.044868 747.24675 73.601193 745.78516 73.183594 C 744.67156 72.835595 744.00958 72.069915 743.80078 70.886719 C 743.66158 69.633922 743.55788 68.347787 743.48828 67.025391 C 743.41868 65.702994 743.17346 64.518606 742.75586 63.474609 C 742.33826 62.430612 741.32931 61.908203 739.72852 61.908203 C 738.75412 61.908203 737.85082 62.360828 737.01562 63.265625 C 736.25003 64.100823 735.69175 64.902371 735.34375 65.667969 C 734.78695 66.851165 733.91757 68.41644 732.73438 70.365234 C 731.55118 72.244429 730.29896 74.088843 728.97656 75.898438 C 727.65417 77.708032 726.39999 79.239391 725.2168 80.492188 C 724.1032 81.675384 723.3036 82.161924 722.81641 81.953125 C 722.46841 81.813925 722.50232 80.978461 722.91992 79.447266 C 723.33752 77.91607 723.9995 76.003825 724.9043 73.707031 C 725.87869 71.340638 726.9933 68.730545 728.24609 65.876953 L 732.00391 57.107422 C 732.6303 55.158627 732.45682 53.627269 731.48242 52.513672 C 730.57762 51.330475 729.32345 50.738281 727.72266 50.738281 C 726.33066 50.738281 724.90496 51.224822 723.44336 52.199219 C 722.05136 53.173616 720.97263 54.531489 720.20703 56.271484 C 719.92863 57.037082 719.57971 58.219517 719.16211 59.820312 C 718.89675 60.837542 718.6306 61.989165 718.36523 63.203125 C 718.34126 63.226347 718.31907 63.241482 718.29492 63.265625 C 714.32773 67.163214 710.84826 69.982661 707.85547 71.722656 C 704.93228 73.393051 702.77481 73.879592 701.38281 73.183594 C 700.47802 72.765995 699.98952 72.000316 699.91992 70.886719 C 699.91992 69.703522 699.95579 68.485218 700.02539 67.232422 C 700.16459 65.910026 700.19851 64.657806 700.12891 63.474609 C 700.05931 62.291413 699.57277 61.455949 698.66797 60.96875 C 700.68636 59.855153 701.69531 58.220094 701.69531 56.0625 C 701.69531 54.879303 701.31247 53.766653 700.54688 52.722656 C 699.78128 51.678659 698.52906 50.946896 696.78906 50.529297 C 695.74507 50.320497 694.66633 50.216797 693.55273 50.216797 C 691.04714 50.216797 688.50683 50.842907 685.93164 52.095703 C 683.35645 53.2789 680.88397 54.844174 678.51758 56.792969 C 676.4578 58.489257 674.53831 60.409199 672.74219 62.527344 C 672.40938 62.720425 672.06023 62.998367 671.6875 63.371094 C 670.8523 64.275891 669.39073 65.66768 667.30273 67.546875 C 665.21474 69.42607 662.84792 71.340268 660.20312 73.289062 C 657.55833 75.168257 654.80867 76.837232 651.95508 78.298828 C 649.17109 79.690824 646.66469 80.388672 644.4375 80.388672 C 643.3935 80.388672 642.59391 80.073664 642.03711 79.447266 C 641.54991 78.820867 641.23686 78.091057 641.09766 77.255859 C 640.95846 76.420662 640.92454 75.551282 640.99414 74.646484 C 641.06374 73.741687 641.20136 72.976008 641.41016 72.349609 C 644.40295 72.836808 647.04891 72.697238 649.3457 71.931641 C 651.7121 71.166043 653.66021 70.05144 655.19141 68.589844 C 656.7922 67.128248 658.01051 65.493189 658.8457 63.683594 C 659.6809 61.804399 660.09766 60.02977 660.09766 58.359375 C 660.09766 56.54978 659.54133 54.984506 658.42773 53.662109 C 657.31414 52.339713 655.71299 51.60795 653.625 51.46875 C 651.18901 51.39915 648.89197 51.78199 646.73438 52.617188 C 644.64638 53.452385 642.76805 54.636773 641.09766 56.167969 C 639.42726 57.629565 637.9996 59.334409 636.81641 61.283203 C 635.63321 63.162398 634.69404 65.144428 633.99805 67.232422 C 632.67565 67.371621 631.11038 67.616845 629.30078 67.964844 C 627.49119 68.243243 625.57699 68.659998 623.55859 69.216797 C 623.0714 65.458408 622.02658 62.501344 620.42578 60.34375 C 618.82499 58.186156 616.56382 57.280907 613.64062 57.628906 C 611.76143 57.837706 609.91702 58.567516 608.10742 59.820312 C 606.36743 61.073109 604.6965 62.640337 603.0957 64.519531 C 601.49491 66.329126 599.99942 68.313109 598.60742 70.470703 C 597.21543 72.558697 595.99712 74.540727 594.95312 76.419922 C 595.02272 75.793524 595.09251 75.306983 595.16211 74.958984 C 595.30131 74.610985 595.40501 74.124445 595.47461 73.498047 C 595.61381 72.871649 595.78729 71.9664 595.99609 70.783203 C 596.20489 69.600006 596.5199 67.859293 596.9375 65.5625 C 598.81669 63.613706 600.90438 61.143182 603.20117 58.150391 C 605.56757 55.157599 607.89852 51.921396 610.19531 48.441406 C 612.56171 44.961416 614.78896 41.376289 616.87695 37.6875 C 618.96495 33.929111 620.73958 30.379853 622.20117 27.039062 C 622.89717 25.368667 623.62893 23.177283 624.39453 20.462891 C 625.22973 17.678899 625.64648 14.963152 625.64648 12.318359 C 625.64648 9.8823663 625.12408 7.8644673 624.08008 6.2636719 C 623.03608 4.6628764 621.12188 3.7934965 618.33789 3.6542969 z M 555.96094 3.7578125 C 553.10735 3.7578125 550.11441 4.766762 546.98242 6.7851562 C 543.92003 8.8035505 540.99688 11.832352 538.21289 15.869141 C 535.4289 19.836329 532.88859 24.777376 530.5918 30.693359 C 528.295 36.609343 526.48646 43.464588 525.16406 51.259766 C 524.95526 52.442962 524.77982 53.764967 524.64062 55.226562 C 524.57103 56.688158 524.50124 58.012116 524.43164 59.195312 L 523.38867 58.568359 L 523.17969 58.568359 C 521.43969 58.22036 519.69898 58.324061 517.95898 58.880859 C 516.28859 59.368058 514.65353 60.203522 513.05273 61.386719 C 512.64419 61.683839 512.2481 62.003086 511.85938 62.339844 C 511.38377 62.39758 510.86534 62.697162 510.29688 63.265625 C 506.32969 67.163214 502.81434 70.016577 499.75195 71.826172 C 496.75916 73.566167 494.63561 74.018791 493.38281 73.183594 C 492.26922 72.487596 491.57332 71.478646 491.29492 70.15625 C 491.01652 68.764254 490.73934 67.408334 490.46094 66.085938 C 490.25214 64.693941 489.79951 63.475638 489.10352 62.431641 C 488.40752 61.318044 487.08551 60.691934 485.13672 60.552734 C 483.60552 60.552734 482.24765 60.935574 481.06445 61.701172 C 479.88126 62.46677 478.80252 63.405934 477.82812 64.519531 C 476.92333 65.633128 476.12178 66.781647 475.42578 67.964844 C 474.79938 69.078441 474.27893 70.051521 473.86133 70.886719 C 474.20933 69.773122 474.4526 68.869826 474.5918 68.173828 C 474.8006 67.40823 474.97408 66.676467 475.11328 65.980469 C 475.32208 65.284471 475.49557 64.55466 475.63477 63.789062 C 475.77397 63.023465 475.98332 62.048431 476.26172 60.865234 C 476.54012 59.960437 476.67969 58.915619 476.67969 57.732422 C 476.67969 55.853227 476.22706 54.461438 475.32227 53.556641 C 474.48707 52.582243 473.44225 52.095703 472.18945 52.095703 C 470.72786 52.095703 469.23237 52.791598 467.70117 54.183594 C 466.23958 55.57559 465.33433 57.663274 464.98633 60.447266 L 464.98633 60.65625 C 464.94837 61.301619 464.91101 62.179817 464.87305 62.876953 C 464.72895 62.991715 464.58225 63.115011 464.43164 63.265625 C 460.46445 67.163214 456.98498 69.982661 453.99219 71.722656 C 451.069 73.393051 448.91153 73.879592 447.51953 73.183594 C 446.61473 72.765995 446.12819 72.000316 446.05859 70.886719 C 446.05859 69.703522 446.09251 68.485218 446.16211 67.232422 C 446.30131 65.910026 446.33522 64.657806 446.26562 63.474609 C 446.19603 62.291413 445.70948 61.455949 444.80469 60.96875 C 446.82308 59.855153 447.83203 58.220094 447.83203 56.0625 C 447.83203 54.879303 447.44919 53.766653 446.68359 52.722656 C 445.918 51.678659 444.66578 50.946896 442.92578 50.529297 C 441.88178 50.320497 440.80305 50.216797 439.68945 50.216797 C 437.18386 50.216797 434.64355 50.842907 432.06836 52.095703 C 429.49317 53.2789 427.02264 54.844174 424.65625 56.792969 C 422.28986 58.741763 420.09652 60.969017 418.07812 63.474609 C 416.12933 65.910602 414.49427 68.381126 413.17188 70.886719 C 411.84948 73.392312 410.91031 75.828919 410.35352 78.195312 C 409.79672 80.492106 409.79672 82.476089 410.35352 84.146484 C 410.84071 85.329681 411.57052 86.23493 412.54492 86.861328 C 413.44972 87.487726 414.45867 87.800781 415.57227 87.800781 C 416.12906 87.800781 416.82496 87.661212 417.66016 87.382812 C 418.56495 87.104413 419.40042 86.755489 420.16602 86.337891 C 421.41881 85.641893 422.77669 84.632943 424.23828 83.310547 C 425.76948 81.988151 427.30084 80.562446 428.83203 79.03125 C 430.43283 77.430455 431.96419 75.793442 433.42578 74.123047 C 434.88738 72.383052 436.20938 70.783861 437.39258 69.322266 C 437.60138 70.505462 437.88052 71.687897 438.22852 72.871094 C 438.64611 74.05429 439.20244 75.133025 439.89844 76.107422 C 440.59444 77.012219 441.46382 77.811814 442.50781 78.507812 C 443.55181 79.134211 444.8399 79.483135 446.37109 79.552734 C 448.04149 79.622334 449.71242 79.343195 451.38281 78.716797 C 453.05321 78.020799 454.72218 77.081634 456.39258 75.898438 C 458.13257 74.645641 459.83937 73.253852 461.50977 71.722656 C 462.54301 70.772068 463.55965 69.788736 464.56836 68.789062 C 464.56819 68.792725 464.56853 68.795165 464.56836 68.798828 C 464.42916 71.79162 464.35938 74.611067 464.35938 77.255859 C 464.35938 79.343853 464.42916 81.222183 464.56836 82.892578 C 464.70756 84.493374 464.9867 85.572108 465.4043 86.128906 C 466.10029 87.103303 466.83206 87.625713 467.59766 87.695312 C 468.36325 87.764912 469.05915 87.625343 469.68555 87.277344 C 470.31195 86.929345 470.86827 86.442804 471.35547 85.816406 C 471.84267 85.190008 472.18964 84.633683 472.39844 84.146484 C 472.74644 83.380887 473.40842 82.092798 474.38281 80.283203 C 475.35721 78.404008 476.36616 76.48981 477.41016 74.541016 C 478.52375 72.592221 479.56857 70.887377 480.54297 69.425781 C 481.51737 67.894586 482.21326 67.059121 482.63086 66.919922 C 482.83966 68.172718 483.08293 69.494723 483.36133 70.886719 C 483.63973 72.278715 484.09235 73.602672 484.71875 74.855469 C 485.34515 76.108265 486.2504 77.186999 487.43359 78.091797 C 488.61679 78.926994 490.21598 79.413535 492.23438 79.552734 C 493.90477 79.622334 495.5757 79.343195 497.24609 78.716797 C 498.91649 78.020799 500.58742 77.081634 502.25781 75.898438 C 502.70303 75.577878 503.13941 75.2216 503.58008 74.882812 C 503.45811 75.255041 503.34126 75.628685 503.24023 76.003906 C 502.68344 77.743901 502.4043 79.378961 502.4043 80.910156 C 502.4043 82.580551 502.75127 84.076041 503.44727 85.398438 C 504.07366 86.651234 505.15435 87.452782 506.68555 87.800781 C 508.00794 88.14878 509.46952 87.939426 511.07031 87.173828 C 512.74071 86.338631 514.40968 85.224027 516.08008 83.832031 C 517.82007 82.440035 519.52492 80.874761 521.19531 79.134766 C 522.86571 77.394771 524.39707 75.723842 525.78906 74.123047 C 526.83306 78.299035 528.50399 81.710676 530.80078 84.355469 C 533.16717 86.930661 535.98662 88.148965 539.25781 88.009766 C 541.9026 87.940166 544.5127 87.104702 547.08789 85.503906 C 549.73268 83.833511 552.23712 81.883444 554.60352 79.65625 C 556.96991 77.429056 559.12738 75.098102 561.07617 72.662109 C 563.02497 70.156517 564.62611 67.999048 565.87891 66.189453 C 566.3661 65.354256 566.57546 64.622492 566.50586 63.996094 C 566.43626 63.369696 566.19299 62.919024 565.77539 62.640625 C 565.42739 62.362226 564.90498 62.292441 564.20898 62.431641 C 563.58259 62.57084 562.95648 62.987596 562.33008 63.683594 C 561.28608 64.797191 559.85842 66.362465 558.04883 68.380859 C 556.30883 70.399254 554.39463 72.383237 552.30664 74.332031 C 550.21865 76.280826 548.13096 77.98567 546.04297 79.447266 C 543.95497 80.839262 542.11056 81.50124 540.50977 81.431641 C 539.25697 81.362041 538.2141 80.700062 537.37891 79.447266 C 536.54371 78.124869 535.88173 76.62938 535.39453 74.958984 C 534.97693 73.288589 534.69779 71.617661 534.55859 69.947266 C 534.48899 68.27687 534.52486 67.024651 534.66406 66.189453 C 536.40406 64.310258 538.35217 61.979305 540.50977 59.195312 C 542.66736 56.341721 544.82483 53.279003 546.98242 50.007812 C 549.20962 46.667022 551.33317 43.187549 553.35156 39.568359 C 555.43956 35.94917 557.2481 32.433828 558.7793 29.023438 C 560.38009 25.543447 561.63427 22.271376 562.53906 19.208984 C 563.44386 16.076993 563.8267 13.397116 563.6875 11.169922 L 563.6875 10.439453 C 563.6875 10.021854 563.65163 9.7087994 563.58203 9.5 L 563.47852 9.0820312 C 562.92172 7.1332368 561.91277 5.7414476 560.45117 4.90625 C 559.05918 4.0710524 557.56173 3.6882127 555.96094 3.7578125 z M 224.28711 9.5957031 C 224.41978 9.5848282 224.55114 9.5880688 224.68164 9.6054688 C 225.51684 9.7446684 226.07316 10.127508 226.35156 10.753906 C 226.69956 11.310705 226.87305 12.076384 226.87305 13.050781 C 226.87305 15.625974 226.42238 18.373683 225.51758 21.296875 C 224.68238 24.150467 223.60169 27.039699 222.2793 29.962891 C 220.9569 32.886082 219.46141 35.739445 217.79102 38.523438 C 216.12062 41.30743 214.51948 43.883607 212.98828 46.25 C 211.45709 48.546793 210.03138 50.564692 208.70898 52.304688 C 207.45619 54.044683 206.51507 55.332771 205.88867 56.167969 C 206.37587 53.940775 207.03785 51.225028 207.87305 48.023438 C 208.77784 44.821847 209.75288 41.481943 210.79688 38.001953 C 211.84087 34.521963 212.95352 31.076406 214.13672 27.666016 C 215.31992 24.186026 216.5043 21.123308 217.6875 18.478516 C 218.9403 15.764123 220.15665 13.572739 221.33984 11.902344 C 222.37514 10.440748 223.35839 9.6718279 224.28711 9.5957031 z M 617.21289 9.5957031 C 617.34557 9.5848282 617.47692 9.5880688 617.60742 9.6054688 C 618.44262 9.7446684 618.99894 10.127508 619.27734 10.753906 C 619.62534 11.310705 619.80078 12.076384 619.80078 13.050781 C 619.80078 15.625974 619.41794 18.303899 618.65234 21.087891 C 617.88675 23.871883 616.8778 26.657414 615.625 29.441406 C 614.3722 32.155799 612.97846 34.869592 611.44727 37.583984 C 609.91607 40.228777 608.3508 42.735169 606.75 45.101562 C 605.2188 47.398356 603.75723 49.519956 602.36523 51.46875 C 600.97324 53.347945 599.7908 54.915172 598.81641 56.167969 C 599.3036 53.940775 599.96363 51.225028 600.79883 48.023438 C 601.70363 44.821847 602.67866 41.481943 603.72266 38.001953 C 604.76665 34.521963 605.8793 31.076406 607.0625 27.666016 C 608.2457 24.186026 609.43008 21.123308 610.61328 18.478516 C 611.86608 15.764123 613.08438 13.572739 614.26758 11.902344 C 615.30288 10.440748 616.28417 9.6718279 617.21289 9.5957031 z M 555.43945 9.6054688 C 555.99625 9.6054688 556.48279 9.8128699 556.90039 10.230469 C 557.31799 10.648068 557.59713 11.240262 557.73633 12.005859 C 557.87553 12.423458 557.87553 12.806298 557.73633 13.154297 C 557.59713 15.799089 556.79558 19.071161 555.33398 22.96875 C 553.94199 26.796739 552.16736 30.832537 550.00977 35.078125 C 547.85217 39.254113 545.45143 43.395565 542.80664 47.501953 C 540.23145 51.608341 537.72701 55.193468 535.29102 58.255859 C 536.19581 51.713478 537.51782 45.205203 539.25781 38.732422 C 541.06741 32.190041 543.43423 25.960905 546.35742 20.044922 L 546.46094 20.044922 C 547.43533 18.026528 548.48015 16.146245 549.59375 14.40625 C 550.70735 12.666255 551.78608 11.380119 552.83008 10.544922 C 553.17808 10.336122 553.59483 10.126768 554.08203 9.9179688 C 554.63883 9.7091693 555.09145 9.6054688 555.43945 9.6054688 z M 349.62305 47.710938 C 348.78785 47.710937 347.8826 48.093777 346.9082 48.859375 C 346.00341 49.555373 345.30751 50.530407 344.82031 51.783203 C 343.91552 54.358396 343.082 57.385244 342.31641 60.865234 C 342.06845 62.080232 341.87678 63.068564 341.64648 64.212891 C 338.10921 67.586746 334.98417 70.052755 332.31641 71.513672 C 329.39321 73.044868 327.19988 73.601193 325.73828 73.183594 C 324.62468 72.835595 323.96466 72.069915 323.75586 70.886719 C 323.61666 69.633922 323.51101 68.347787 323.44141 67.025391 C 323.37181 65.702994 323.12854 64.518606 322.71094 63.474609 C 322.29334 62.430612 321.28439 61.908203 319.68359 61.908203 C 318.7092 61.908203 317.80395 62.360828 316.96875 63.265625 C 316.20315 64.100823 315.64683 64.902371 315.29883 65.667969 C 314.74203 66.851165 313.87265 68.41644 312.68945 70.365234 C 311.50626 72.244429 310.25208 74.088843 308.92969 75.898438 C 307.60729 77.708032 306.35507 79.239391 305.17188 80.492188 C 304.05828 81.675384 303.25868 82.161924 302.77148 81.953125 C 302.42349 81.813925 302.4574 80.978461 302.875 79.447266 C 303.2926 77.91607 303.95458 76.003825 304.85938 73.707031 C 305.83377 71.340638 306.94642 68.730545 308.19922 65.876953 L 311.95703 57.107422 C 312.58343 55.158627 312.40994 53.627269 311.43555 52.513672 C 310.53075 51.330475 309.27853 50.738281 307.67773 50.738281 C 306.28574 50.738281 304.85808 51.224822 303.39648 52.199219 C 302.00449 53.173616 300.92575 54.531489 300.16016 56.271484 C 299.88176 57.037082 299.53479 58.219517 299.11719 59.820312 C 298.69959 61.421108 298.28088 63.265522 297.86328 65.353516 C 297.44568 67.44151 297.09871 69.634847 296.82031 71.931641 C 296.54191 74.158834 296.40234 76.246518 296.40234 78.195312 C 296.40234 79.587309 296.50604 80.909313 296.71484 82.162109 C 296.85404 83.345306 297.13318 84.390124 297.55078 85.294922 C 297.96838 86.199719 298.52471 86.895614 299.2207 87.382812 C 299.9167 87.870011 300.78803 88.079365 301.83203 88.009766 C 303.08483 88.009766 304.37096 87.521272 305.69336 86.546875 C 307.01576 85.502878 308.30384 84.250658 309.55664 82.789062 C 310.80944 81.257867 311.99187 79.622808 313.10547 77.882812 C 314.28867 76.142817 315.33348 74.505805 316.23828 72.974609 C 316.79508 74.784204 317.70033 76.315563 318.95312 77.568359 C 320.27552 78.751556 322.15385 79.413535 324.58984 79.552734 C 326.26024 79.622334 327.93117 79.343195 329.60156 78.716797 C 331.27196 78.020799 332.94289 77.081634 334.61328 75.898438 C 336.35328 74.645641 338.05812 73.253852 339.72852 71.722656 C 339.89955 71.565309 340.06597 71.398926 340.23633 71.240234 L 339.39258 75.376953 C 338.34858 79.413742 337.23398 83.868248 336.05078 88.740234 C 334.86758 93.61222 333.75493 98.553267 332.71094 103.56445 C 331.59734 108.57564 330.62231 113.51669 329.78711 118.38867 C 328.95191 123.33026 328.35972 127.85455 328.01172 131.96094 L 328.01172 131.85742 C 327.73332 134.57181 328.01246 136.58971 328.84766 137.91211 C 329.61325 139.30411 330.6222 140 331.875 140 C 333.0582 140 334.31237 139.30411 335.63477 137.91211 C 336.88756 136.58971 337.86064 134.53595 338.55664 131.75195 C 338.97424 129.87276 339.46273 127.64551 340.01953 125.07031 C 340.50673 122.49512 341.02719 119.78133 341.58398 116.92773 C 342.07118 114.07414 342.55968 111.08121 343.04688 107.94922 C 343.60367 104.88683 344.12413 101.89389 344.61133 98.970703 C 344.82013 99.736301 345.13514 100.46806 345.55273 101.16406 C 346.10953 101.99926 346.87326 102.65929 347.84766 103.14648 C 348.89165 103.70328 350.07604 103.98242 351.39844 103.98242 C 354.18243 103.98242 356.86231 102.90369 359.4375 100.74609 C 361.38629 99.075699 363.19484 97.1615 364.86523 95.003906 C 366.60523 92.846312 368.13659 90.58319 369.45898 88.216797 C 370.78138 85.780804 371.86011 83.346149 372.69531 80.910156 C 373.53051 78.404563 374.1227 76.003825 374.4707 73.707031 C 377.60269 72.315035 380.59563 71.060862 383.44922 69.947266 C 386.30281 68.833669 389.05247 67.894504 391.69727 67.128906 C 392.25406 66.920107 392.6369 66.537267 392.8457 65.980469 C 393.0545 65.42367 393.08842 64.867345 392.94922 64.310547 C 392.81002 63.753748 392.49696 63.301124 392.00977 62.953125 C 391.52257 62.605126 390.93037 62.535341 390.23438 62.744141 C 387.31118 63.579338 384.59739 64.484587 382.0918 65.458984 C 379.5862 66.433382 377.11568 67.406462 374.67969 68.380859 C 374.47089 65.248868 373.53172 62.70856 371.86133 60.759766 C 370.19093 58.810971 367.54497 57.97746 363.92578 58.255859 C 362.46419 58.534259 361.00261 59.194284 359.54102 60.238281 C 358.14902 61.212678 356.7931 62.464898 355.4707 63.996094 C 354.21791 65.45769 352.9996 67.094702 351.81641 68.904297 C 350.63321 70.713892 349.55448 72.558305 348.58008 74.4375 L 348.99609 71.931641 L 349.9375 66.710938 C 350.4247 63.996545 350.87537 61.282752 351.29297 58.568359 C 351.71057 55.853967 352.02558 53.592798 352.23438 51.783203 C 352.37357 50.391207 352.16422 49.380304 351.60742 48.753906 C 351.12022 48.057908 350.45824 47.710938 349.62305 47.710938 z M 169.91406 60.880859 C 170.76884 60.887384 171.61402 61.022204 172.44922 61.283203 L 172.55273 61.283203 C 172.62233 61.352803 172.72799 61.386719 172.86719 61.386719 C 172.44959 61.804318 171.50847 62.849136 170.04688 64.519531 C 168.65488 66.120327 166.9859 67.96474 165.03711 70.052734 C 163.08831 72.140728 160.96476 74.262328 158.66797 76.419922 C 156.44078 78.507916 154.31918 80.178844 152.30078 81.431641 C 151.11758 82.197238 150.45561 82.300939 150.31641 81.744141 C 150.17721 81.187342 150.24699 80.457532 150.52539 79.552734 L 150.52539 79.65625 C 151.15179 77.846655 152.23052 75.758971 153.76172 73.392578 C 155.29291 70.956585 157.06754 68.729332 159.08594 66.710938 C 161.10433 64.622943 163.2618 63.0218 165.55859 61.908203 C 167.03759 61.212205 168.48944 60.869984 169.91406 60.880859 z M 436.21484 60.880859 C 437.06962 60.887384 437.9148 61.022204 438.75 61.283203 L 438.85352 61.283203 C 438.92312 61.352803 439.02877 61.386719 439.16797 61.386719 C 438.75037 61.804318 437.80925 62.849136 436.34766 64.519531 C 434.95566 66.120327 433.28669 67.96474 431.33789 70.052734 C 429.3891 72.140728 427.26554 74.262328 424.96875 76.419922 C 422.74156 78.507916 420.61996 80.178844 418.60156 81.431641 C 417.41837 82.197238 416.75639 82.300939 416.61719 81.744141 C 416.47799 81.187342 416.54777 80.457532 416.82617 79.552734 L 416.82617 79.65625 C 417.45257 77.846655 418.5313 75.758971 420.0625 73.392578 C 421.5937 70.956585 423.36832 68.729332 425.38672 66.710938 C 427.40511 64.622943 429.56258 63.0218 431.85938 61.908203 C 433.33837 61.212205 434.79022 60.869984 436.21484 60.880859 z M 690.07812 60.880859 C 690.9329 60.887384 691.77808 61.022204 692.61328 61.283203 L 692.7168 61.283203 C 692.7864 61.352803 692.8901 61.386719 693.0293 61.386719 C 692.6117 61.804318 691.67253 62.849136 690.21094 64.519531 C 688.81894 66.120327 687.14801 67.96474 685.19922 70.052734 C 683.25042 72.140728 681.12882 74.262328 678.83203 76.419922 C 676.60484 78.507916 674.48128 80.178844 672.46289 81.431641 C 671.27969 82.197238 670.61967 82.300939 670.48047 81.744141 C 670.34127 81.187342 670.4091 80.457532 670.6875 79.552734 L 670.6875 79.65625 C 671.3139 77.846655 672.39263 75.758971 673.92383 73.392578 C 675.45502 70.956585 677.23161 68.729332 679.25 66.710938 C 681.26839 64.622943 683.42586 63.0218 685.72266 61.908203 C 687.20165 61.212205 688.6535 60.869984 690.07812 60.880859 z M 249.59961 61.472656 C 249.80623 61.467219 250.01386 61.474788 250.22266 61.492188 C 251.12745 61.561787 251.58008 61.908758 251.58008 62.535156 C 251.58008 63.161554 251.33681 63.857449 250.84961 64.623047 C 250.36241 65.319045 249.70239 65.981024 248.86719 66.607422 C 248.03199 67.16422 246.98717 67.580976 245.73438 67.859375 C 244.55118 68.137774 243.22917 68.137774 241.76758 67.859375 C 242.74198 66.11938 243.96028 64.588021 245.42188 63.265625 C 246.76167 62.108528 248.15324 61.510719 249.59961 61.472656 z M 651.22852 61.472656 C 651.43514 61.467219 651.64276 61.474788 651.85156 61.492188 C 652.75636 61.561787 653.20703 61.908758 653.20703 62.535156 C 653.20703 63.161554 652.96376 63.857449 652.47656 64.623047 C 651.98936 65.319045 651.32934 65.981024 650.49414 66.607422 C 649.65894 67.16422 648.61412 67.580976 647.36133 67.859375 C 646.17813 68.137774 644.85613 68.137774 643.39453 67.859375 C 644.36893 66.11938 645.58723 64.588021 647.04883 63.265625 C 648.38862 62.108528 649.78214 61.510719 651.22852 61.472656 z M 364.24023 63.580078 C 365.14503 63.719278 365.80506 64.622574 366.22266 66.292969 C 366.70985 67.893764 366.81551 69.913616 366.53711 72.349609 C 364.44912 73.532806 362.49905 74.75111 360.68945 76.003906 C 358.87986 77.187103 357.17501 78.473238 355.57422 79.865234 C 353.97342 81.25723 352.19879 83.031859 350.25 85.189453 C 348.37081 87.347047 346.87336 89.610169 345.75977 91.976562 L 345.75977 91.349609 C 345.82937 91.14081 345.89915 90.89754 345.96875 90.619141 L 347.53516 87.173828 C 348.30075 85.573033 349.17013 83.83232 350.14453 81.953125 C 351.11893 80.07393 352.16375 78.125816 353.27734 76.107422 C 354.46054 74.089028 355.67884 72.210698 356.93164 70.470703 C 358.18444 68.730708 359.40274 67.233265 360.58594 65.980469 C 361.83873 64.727672 363.05704 63.928077 364.24023 63.580078 z M 524.43164 64.101562 L 524.43164 66.607422 C 524.50124 67.442619 524.60689 68.17243 524.74609 68.798828 C 523.4237 70.190824 521.96212 71.688267 520.36133 73.289062 C 518.83013 74.889858 517.33269 76.385348 515.87109 77.777344 C 514.4095 79.09974 513.12336 80.214343 512.00977 81.119141 C 510.89617 81.954338 510.13049 82.301309 509.71289 82.162109 C 509.15609 82.02291 508.94674 81.536369 509.08594 80.701172 C 509.15554 79.865974 509.43468 78.857025 509.92188 77.673828 C 510.47867 76.421032 511.20848 75.099027 512.11328 73.707031 C 513.08768 72.315035 514.1325 70.991078 515.24609 69.738281 C 516.42929 68.485485 517.61173 67.406751 518.79492 66.501953 C 520.04772 65.527556 521.26602 64.901446 522.44922 64.623047 C 523.35402 64.483847 524.01404 64.310362 524.43164 64.101562 z M 615.9375 77.568359 C 615.1023 80.90915 613.9877 84.424492 612.5957 88.113281 C 611.20371 91.732471 609.63843 95.038459 607.89844 98.03125 C 606.22804 101.02404 604.41754 103.46065 602.46875 105.33984 C 600.51996 107.28864 598.60771 108.2278 596.72852 108.1582 C 595.47572 108.1582 594.57047 107.39252 594.01367 105.86133 C 593.52647 104.33013 593.45669 102.41593 593.80469 100.11914 C 594.50069 98.031147 595.5455 95.943463 596.9375 93.855469 C 598.3295 91.697875 599.99847 89.644107 601.94727 87.695312 C 603.89606 85.676918 606.05353 83.798589 608.41992 82.058594 C 610.78632 80.318599 613.29271 78.821156 615.9375 77.568359 z M 365.70117 78.195312 C 365.35317 80.074507 364.86663 81.952837 364.24023 83.832031 C 363.61384 85.711226 362.84816 87.521724 361.94336 89.261719 C 361.10816 90.932114 360.13313 92.463473 359.01953 93.855469 C 357.97553 95.247465 356.7931 96.360115 355.4707 97.195312 C 354.9139 97.612911 354.32171 97.961835 353.69531 98.240234 C 353.06891 98.518634 352.47672 98.658203 351.91992 98.658203 C 351.57192 98.658203 351.18908 98.552549 350.77148 98.34375 C 350.42349 98.134951 350.18022 97.89168 350.04102 97.613281 L 350.14453 97.613281 C 349.79653 96.499684 349.8324 95.351165 350.25 94.167969 C 350.6676 92.915172 351.25979 91.696869 352.02539 90.513672 C 352.86059 89.260875 353.79975 88.112356 354.84375 87.068359 C 355.88775 86.024362 356.82691 85.121067 357.66211 84.355469 C 358.91491 83.172272 360.20299 82.093538 361.52539 81.119141 C 362.91739 80.075144 364.30918 79.10011 365.70117 78.195312 z M 809.80078 96.988281 C 808.82638 101.09467 807.71373 105.16438 806.46094 109.20117 C 805.20814 113.30756 803.74657 117.06617 802.07617 120.47656 C 800.40578 123.88695 798.49158 126.77618 796.33398 129.14258 C 794.17639 131.57857 791.73978 133.14385 789.02539 133.83984 C 787.84219 134.18784 787.00673 133.94457 786.51953 133.10938 C 785.96273 132.34378 785.68555 131.4744 785.68555 130.5 C 785.68555 129.5952 785.82316 128.68995 786.10156 127.78516 C 786.31036 126.88036 786.5895 126.04489 786.9375 125.2793 C 788.1207 122.6345 789.93119 119.67744 792.36719 116.40625 C 794.80318 113.13506 797.69046 109.6895 801.03125 106.07031 C 802.56245 104.46952 803.9901 102.93816 805.3125 101.47656 C 806.7045 100.01497 808.19999 98.519477 809.80078 96.988281 z "
       transform="matrix(0.26458333,0,0,0.26458333,-34.460532,109.12047)"
       id="text3719" />
  </g>
</svg>
