<?xml version="1.0" encoding="UTF-8" standalone="no"?>
<svg
   xmlns:dc="http://purl.org/dc/elements/1.1/"
   xmlns:cc="http://creativecommons.org/ns#"
   xmlns:rdf="http://www.w3.org/1999/02/22-rdf-syntax-ns#"
   xmlns:svg="http://www.w3.org/2000/svg"
   xmlns="http://www.w3.org/2000/svg"
   xmlns:sodipodi="http://sodipodi.sourceforge.net/DTD/sodipodi-0.dtd"
   xmlns:inkscape="http://www.inkscape.org/namespaces/inkscape"
   id="svg8"
   version="1.1"
   viewBox="0 0 92.331883 20.749078"
   height="20.749079mm"
   width="92.331879mm"
   sodipodi:docname="noscasamos-v.svg"
   inkscape:version="0.92.4 (5da689c313, 2019-01-14)">
  <sodipodi:namedview
     pagecolor="#ffffff"
     bordercolor="#666666"
     borderopacity="1"
     objecttolerance="10"
     gridtolerance="10"
     guidetolerance="10"
     inkscape:pageopacity="0"
     inkscape:pageshadow="2"
     inkscape:window-width="1440"
     inkscape:window-height="786"
     id="namedview821"
     showgrid="false"
     inkscape:zoom="2.6793067"
     inkscape:cx="174.48544"
     inkscape:cy="39.210857"
     inkscape:window-x="0"
     inkscape:window-y="27"
     inkscape:window-maximized="1"
     inkscape:current-layer="svg8" />
  <defs
     id="defs2" />
  <metadata
     id="metadata5">
    <rdf:RDF>
      <cc:Work
         rdf:about="">
        <dc:format>image/svg+xml</dc:format>
        <dc:type
           rdf:resource="http://purl.org/dc/dcmitype/StillImage" />
        <dc:title />
      </cc:Work>
    </rdf:RDF>
  </metadata>
  <g
     transform="translate(36.126915,-117.11302)"
     id="layer1">
    <path
       style="font-style:normal;font-variant:normal;font-weight:normal;font-stretch:normal;font-size:37.3244133px;line-height:1.25;font-family:'valentine vibes';-inkscape-font-specification:'valentine vibes';letter-spacing:0px;word-spacing:0px;fill:#0d002f;fill-opacity:1;stroke:none;stroke-width:3.52671576"
       d="M 59.126953 0.00390625 C 58.27362 0.046572915 57.227568 0.75185424 55.990234 2.1171875 C 54.795568 3.4398541 53.452318 5.2744272 51.958984 7.6210938 C 50.508318 9.9677603 48.951109 12.71962 47.287109 15.876953 C 45.623109 18.99162 43.915349 22.361615 42.166016 25.988281 C 40.416682 29.614948 38.645516 33.41286 36.853516 37.380859 C 35.061516 41.306193 33.292302 45.230917 31.542969 49.15625 C 29.836302 53.038916 28.193901 56.836828 26.615234 60.548828 C 25.036568 64.260828 23.564552 67.694229 22.199219 70.851562 L 22.199219 70.789062 C 21.900552 69.039729 21.942172 66.799026 22.326172 64.068359 C 22.752839 61.38036 23.329354 58.414542 24.054688 55.171875 C 24.822687 51.886542 25.676568 48.472974 26.615234 44.931641 C 27.553901 41.347641 28.405828 37.829047 29.173828 34.373047 C 29.941828 30.87438 30.54013 27.567792 30.966797 24.453125 C 31.43613 21.338458 31.543109 18.606432 31.287109 16.259766 C 31.073776 13.913099 30.433854 12.05674 29.367188 10.691406 C 28.300521 9.326073 26.636333 8.686151 24.375 8.7714844 C 22.839 8.7714844 21.260005 9.1340417 19.638672 9.859375 C 18.060005 10.542042 16.524583 11.481115 15.03125 12.675781 C 13.580583 13.870448 12.213594 15.215651 10.933594 16.708984 C 9.6962605 18.202318 8.630375 19.759526 7.734375 21.380859 C 6.8810417 23.002193 6.2411198 24.601021 5.8144531 26.179688 C 5.4304531 27.715687 5.3670469 29.124297 5.6230469 30.404297 C 5.8363802 31.51363 6.1771511 32.282318 6.6464844 32.708984 C 7.1158177 33.135651 7.5853542 33.347656 8.0546875 33.347656 C 8.3960208 33.347656 8.7150052 33.220844 9.0136719 32.964844 C 9.3550052 32.708844 9.6125365 32.387906 9.7832031 32.003906 C 9.9538698 31.57724 10.017276 31.107703 9.9746094 30.595703 C 9.9746094 30.083703 9.8260104 29.572547 9.5273438 29.060547 L 9.5273438 29.125 C 9.3566771 28.698333 9.2695312 28.20701 9.2695312 27.652344 C 9.2695312 26.244344 9.7192344 24.643562 10.615234 22.851562 C 11.553901 21.016896 12.704979 19.289302 14.070312 17.667969 C 15.478312 16.003969 16.972115 14.617146 18.550781 13.507812 C 20.172115 12.355813 21.68575 11.78125 23.09375 11.78125 C 23.819083 11.78125 24.332193 12.078448 24.630859 12.675781 C 24.929526 13.230448 25.078125 13.955563 25.078125 14.851562 C 25.078125 15.747562 24.971146 16.750042 24.757812 17.859375 C 24.587146 18.968708 24.353354 20.078167 24.054688 21.1875 C 23.798688 22.296833 23.521323 23.342885 23.222656 24.324219 C 22.92399 25.305552 22.710031 26.094073 22.582031 26.691406 C 21.814031 29.848739 21.02551 33.113709 20.214844 36.484375 C 19.446844 39.812375 18.741562 43.118964 18.101562 46.404297 C 17.461563 49.68963 16.92862 52.88924 16.501953 56.003906 C 16.117953 59.118573 15.925781 61.999198 15.925781 64.644531 C 15.925781 68.100531 16.417104 71.044563 17.398438 73.476562 C 18.422437 75.951229 20.001432 77.550057 22.134766 78.275391 C 22.390766 78.488724 22.689917 78.468891 23.03125 78.212891 C 23.372583 77.999557 23.649948 77.700406 23.863281 77.316406 C 24.119281 76.932406 24.26788 76.506443 24.310547 76.037109 C 24.39588 75.610443 24.288901 75.289505 23.990234 75.076172 C 25.142234 72.686839 26.422078 69.891406 27.830078 66.691406 C 29.280745 63.491406 30.816167 60.079791 32.4375 56.453125 C 34.058833 52.783792 35.723021 49.0275 37.429688 45.1875 C 39.179021 41.304834 40.908568 37.508875 42.615234 33.796875 C 44.364568 30.042209 46.048589 26.478088 47.669922 23.107422 C 49.333922 19.694089 50.89113 16.645031 52.341797 13.957031 C 53.83513 11.226365 55.180333 8.9638749 56.375 7.171875 C 57.569667 5.3798751 58.572146 4.2070104 59.382812 3.6523438 C 59.766812 3.7803437 59.958984 4.782823 59.958984 6.6601562 C 59.958984 8.5801562 59.72324 11.225037 59.253906 14.595703 C 58.784573 17.923703 58.25163 21.573016 57.654297 25.541016 C 57.270297 28.143682 56.844333 30.937162 56.375 33.923828 C 55.948333 36.867828 55.56399 39.855432 55.222656 42.884766 C 54.881323 45.871432 54.582172 48.793677 54.326172 51.652344 C 54.112839 54.51101 54.005859 57.134104 54.005859 59.523438 C 54.005859 62.296771 54.156411 64.836625 54.455078 67.140625 C 54.796411 69.444625 55.351141 71.386177 56.119141 72.964844 C 56.887141 74.586177 57.909453 75.780828 59.189453 76.548828 C 60.51212 77.359495 62.134688 77.615073 64.054688 77.316406 C 64.652021 77.103073 65.099771 76.782135 65.398438 76.355469 C 65.697104 75.928802 65.82587 75.502839 65.783203 75.076172 C 65.783203 74.692172 65.632651 74.351401 65.333984 74.052734 C 65.035318 73.754068 64.565781 73.625302 63.925781 73.667969 C 62.133781 73.881302 60.89751 73.263167 60.214844 71.8125 C 59.532177 70.4045 59.189453 68.399542 59.189453 65.796875 C 59.189453 62.639542 59.553964 58.863416 60.279297 54.46875 C 61.047297 50.074084 61.92101 45.487651 62.902344 40.708984 C 63.414344 38.191651 63.905667 35.673583 64.375 33.15625 C 64.887 30.59625 65.33475 28.121755 65.71875 25.732422 C 66.10275 23.300422 66.401901 20.974526 66.615234 18.755859 C 66.871234 16.494526 66.998047 14.382588 66.998047 12.419922 C 66.998047 10.542589 66.849448 8.8367812 66.550781 7.3007812 C 66.294781 5.7221147 65.866865 4.3986979 65.269531 3.3320312 C 64.672198 2.222698 63.861891 1.3906041 62.837891 0.8359375 C 61.813891 0.2386042 60.57762 -0.038760415 59.126953 0.00390625 z M 248.88477 2.1171875 C 246.87943 2.0318542 245.00324 2.6916094 243.25391 4.0996094 C 241.54724 5.5076093 239.99003 7.4075418 238.58203 9.796875 C 237.17403 12.186208 235.93581 14.916281 234.86914 17.988281 C 233.80247 21.060281 232.88519 24.218271 232.11719 27.460938 C 231.39185 30.660937 230.83712 33.816974 230.45312 36.931641 C 230.06913 40.00364 229.87695 42.7555 229.87695 45.1875 C 229.87695 46.766167 229.98393 48.174776 230.19727 49.412109 C 230.36793 50.649443 230.6453 51.630135 231.0293 52.355469 L 230.96484 52.355469 C 231.47684 53.464802 232.09693 53.914505 232.82227 53.701172 C 233.59027 53.445172 234.46398 52.613078 235.44531 51.205078 C 235.87198 50.309078 236.49011 49.070854 237.30078 47.492188 C 238.11145 45.870854 239.02873 44.270073 240.05273 42.691406 C 241.07673 41.070073 242.14457 39.685203 243.25391 38.533203 C 244.40591 37.338537 245.5352 36.718448 246.64453 36.675781 C 247.3272 36.675781 247.7769 36.931359 247.99023 37.443359 C 248.24623 37.912693 248.37305 38.489208 248.37305 39.171875 C 248.41571 39.854542 248.35231 40.559823 248.18164 41.285156 C 248.05364 42.01049 247.94666 42.565219 247.86133 42.949219 C 245.51466 44.015885 243.46613 45.23037 241.7168 46.595703 C 239.96746 47.91837 238.49545 49.283406 237.30078 50.691406 C 236.14878 52.05674 235.27507 53.423729 234.67773 54.789062 C 234.12307 56.111729 233.8457 57.284594 233.8457 58.308594 C 233.8457 59.161927 234.03788 59.928661 234.42188 60.611328 C 234.84854 61.251328 235.48846 61.657458 236.3418 61.828125 C 238.2618 62.084125 240.0528 61.699781 241.7168 60.675781 C 243.42346 59.651781 244.93905 58.286745 246.26172 56.580078 C 247.58439 54.830745 248.69384 52.867406 249.58984 50.691406 C 250.48584 48.47274 251.12577 46.319182 251.50977 44.228516 C 253.98443 43.247182 255.94582 42.478495 257.39648 41.923828 C 257.80873 41.766205 258.12485 41.653496 258.47852 41.523438 C 258.04539 42.956393 257.82227 44.370091 257.82227 45.763672 C 257.82227 46.830338 257.95103 47.854604 258.20703 48.835938 C 258.46303 49.774604 258.82559 50.606698 259.29492 51.332031 C 259.76426 52.014698 260.3606 52.547641 261.08594 52.931641 C 261.81127 53.315641 262.66515 53.466193 263.64648 53.380859 C 265.43848 53.167526 266.93229 52.18488 268.12695 50.435547 C 268.72429 49.454214 269.19382 48.366542 269.53516 47.171875 C 269.87649 45.934542 270.04688 44.783463 270.04688 43.716797 L 270.04688 42.949219 C 270.04688 42.735885 270.02509 42.521927 269.98242 42.308594 C 271.30509 42.777927 272.49974 43.140484 273.56641 43.396484 C 274.63307 43.609818 275.63555 43.673224 276.57422 43.587891 C 276.90537 43.557786 277.23276 43.495865 277.55859 43.417969 C 277.01935 44.41656 276.60504 45.432962 276.32617 46.46875 C 275.98484 47.535417 275.81445 48.537896 275.81445 49.476562 C 275.81445 50.500562 276.02841 51.417849 276.45508 52.228516 C 276.83908 52.996516 277.49883 53.487839 278.4375 53.701172 C 279.24817 53.914505 280.14562 53.78574 281.12695 53.316406 C 282.15095 52.804406 283.17522 52.120911 284.19922 51.267578 C 285.26589 50.414245 286.30998 49.455338 287.33398 48.388672 C 288.35798 47.322005 289.29706 46.29774 290.15039 45.316406 C 290.79039 47.876406 291.81466 49.966557 293.22266 51.587891 C 294.67332 53.166557 296.40092 53.913458 298.40625 53.828125 C 300.02758 53.785458 301.62836 53.274302 303.20703 52.292969 C 304.82836 51.268969 306.36379 50.074318 307.81445 48.708984 C 307.93006 48.600174 308.04031 48.488529 308.1543 48.378906 C 307.94198 49.54549 307.96583 50.57912 308.25977 51.460938 C 308.55843 52.186271 309.00618 52.741 309.60352 53.125 C 310.15818 53.509 310.77632 53.701172 311.45898 53.701172 C 311.80032 53.701172 312.22823 53.614026 312.74023 53.443359 C 313.2949 53.272693 313.80606 53.060687 314.27539 52.804688 C 315.04339 52.378021 315.87548 51.759885 316.77148 50.949219 C 317.71015 50.138552 318.64922 49.262885 319.58789 48.324219 C 320.56922 47.342885 321.5083 46.340406 322.4043 45.316406 C 323.3003 44.24974 324.1106 43.269047 324.83594 42.373047 C 324.96394 43.09838 325.13432 43.823495 325.34766 44.548828 C 325.60366 45.274161 325.94443 45.93587 326.37109 46.533203 C 326.79776 47.08787 327.3307 47.57724 327.9707 48.003906 C 328.6107 48.387906 329.40118 48.601865 330.33984 48.644531 C 331.36384 48.687198 332.38811 48.516812 333.41211 48.132812 C 334.43611 47.706146 335.45842 47.12963 336.48242 46.404297 C 337.54909 45.636297 338.59514 44.782417 339.61914 43.84375 C 340.68581 42.862417 341.73186 41.838151 342.75586 40.771484 C 343.18253 40.344818 343.41632 39.918854 343.45898 39.492188 C 343.54432 39.065521 343.5027 38.72475 343.33203 38.46875 C 343.20403 38.21275 342.9465 38.083984 342.5625 38.083984 C 342.22117 38.041318 341.83878 38.23349 341.41211 38.660156 C 338.98011 41.049489 336.84639 42.777083 335.01172 43.84375 C 333.21972 44.86775 331.8963 45.166901 331.04297 44.740234 C 330.4883 44.484234 330.18915 44.014698 330.14648 43.332031 C 330.14648 42.606698 330.16827 41.859797 330.21094 41.091797 C 330.29627 40.28113 330.31806 39.514396 330.27539 38.789062 C 330.23272 38.063729 329.93357 37.55062 329.37891 37.251953 C 330.61624 36.569286 331.23633 35.566807 331.23633 34.244141 C 331.23633 33.518807 331.00058 32.835312 330.53125 32.195312 C 330.06192 31.555313 329.29323 31.107562 328.22656 30.851562 C 327.58656 30.723563 326.92681 30.660156 326.24414 30.660156 C 324.70814 30.660156 323.15093 31.0445 321.57227 31.8125 C 319.9936 32.537833 318.47801 33.49674 317.02734 34.691406 C 315.75921 35.735748 314.57776 36.91943 313.47266 38.224609 C 313.16518 38.347404 312.85825 38.574379 312.55078 38.916016 C 311.91078 39.598682 311.03511 40.559542 309.92578 41.796875 C 308.85911 43.034208 307.68625 44.248693 306.40625 45.443359 C 305.12625 46.638026 303.84641 47.684078 302.56641 48.580078 C 301.28641 49.433411 300.15516 49.839542 299.17383 49.796875 C 298.40583 49.754208 297.76591 49.348078 297.25391 48.580078 C 296.74191 47.769411 296.33773 46.852125 296.03906 45.828125 C 295.78306 44.804125 295.61268 43.779859 295.52734 42.755859 C 295.48468 41.731859 295.50451 40.965125 295.58984 40.453125 C 296.65651 39.301125 297.85116 37.870729 299.17383 36.164062 C 300.49649 34.414729 301.81991 32.538536 303.14258 30.533203 C 304.50791 28.485203 305.80954 26.351479 307.04688 24.132812 C 308.32687 21.914146 309.43633 19.758635 310.375 17.667969 C 311.35633 15.534636 312.12307 13.529677 312.67773 11.652344 C 313.2324 9.7323438 313.46815 8.0899426 313.38281 6.7246094 L 313.38281 6.2753906 C 313.38281 6.0193906 313.36103 5.8291719 313.31836 5.7011719 L 313.25391 5.4433594 C 312.91257 4.2486928 312.29444 3.3967656 311.39844 2.8847656 C 310.5451 2.3727657 309.62782 2.1370208 308.64648 2.1796875 C 306.89715 2.1796875 305.06258 2.7997761 303.14258 4.0371094 C 301.26524 5.2744426 299.47229 7.1288491 297.76562 9.6035156 C 296.05896 12.035516 294.50175 15.06474 293.09375 18.691406 C 291.68575 22.318073 290.57629 26.522115 289.76562 31.300781 C 289.63763 32.026115 289.5326 32.836422 289.44727 33.732422 C 289.4046 34.628422 289.36103 35.438729 289.31836 36.164062 L 288.67773 35.78125 L 288.55078 35.78125 C 287.48411 35.567917 286.41628 35.631323 285.34961 35.972656 C 284.32561 36.271323 283.32313 36.782479 282.3418 37.507812 C 281.96966 37.778456 281.61484 38.083911 281.26953 38.408203 C 280.99646 38.560089 280.7117 38.770178 280.41406 39.044922 C 279.56073 39.770255 278.72864 40.239792 277.91797 40.453125 C 277.1073 40.666458 276.29699 40.729865 275.48633 40.644531 C 274.67566 40.516531 273.84357 40.280786 272.99023 39.939453 C 272.17957 39.555453 271.34747 39.173062 270.49414 38.789062 C 270.23814 38.703729 270.04597 38.618536 269.91797 38.533203 C 270.3873 38.31987 270.79343 38.020719 271.13477 37.636719 C 271.4761 37.210052 271.64648 36.782135 271.64648 36.355469 C 271.64648 35.672802 271.34733 35.054667 270.75 34.5 C 270.15267 33.945333 269.34236 33.626349 268.31836 33.541016 C 266.56903 33.413016 265.0336 33.710214 263.71094 34.435547 C 262.43094 35.118214 261.34327 36.079073 260.44727 37.316406 C 260.08141 37.828605 259.76204 38.374307 259.47461 38.941406 C 258.90977 39.07266 258.19053 39.256669 257.14062 39.556641 C 255.64729 39.983307 253.94148 40.559823 252.02148 41.285156 C 252.06415 40.175823 252.00074 39.107984 251.83008 38.083984 C 251.65941 37.017318 251.36026 36.100031 250.93359 35.332031 C 250.50693 34.564031 249.93041 33.967682 249.20508 33.541016 C 248.47974 33.114349 247.60603 32.963797 246.58203 33.091797 C 245.4727 33.219797 244.34145 33.774526 243.18945 34.755859 C 242.08012 35.694526 240.99245 36.847557 239.92578 38.212891 C 238.85911 39.535557 237.85664 40.964 236.91797 42.5 C 235.9793 43.993333 235.16899 45.380156 234.48633 46.660156 L 234.48633 46.46875 C 234.52899 46.383417 234.5924 46.127839 234.67773 45.701172 L 235.06055 43.78125 C 235.23121 42.927917 235.46696 41.689693 235.76562 40.068359 C 236.91762 38.873693 238.19747 37.358104 239.60547 35.523438 C 241.05614 33.688771 242.48458 31.705599 243.89258 29.572266 C 245.34324 27.438932 246.71023 25.241802 247.99023 22.980469 C 249.27023 20.676469 250.35791 18.501125 251.25391 16.453125 C 251.68057 15.429125 252.12832 14.083922 252.59766 12.419922 C 253.10966 10.713255 253.36523 9.0490676 253.36523 7.4277344 C 253.36523 5.9344011 253.04625 4.6981302 252.40625 3.7167969 C 251.76625 2.7354636 250.59143 2.2025208 248.88477 2.1171875 z M 158.21094 2.7558594 C 157.14427 2.7558594 156.01303 3.2253959 154.81836 4.1640625 C 153.62369 5.0600625 152.76981 6.3399063 152.25781 8.0039062 C 151.83115 9.3265729 151.40518 10.883781 150.97852 12.675781 C 150.55185 14.467781 150.08231 16.516313 149.57031 18.820312 C 148.67431 18.990979 147.62826 19.161365 146.43359 19.332031 C 145.28159 19.460031 144.13052 19.610583 142.97852 19.78125 C 141.82652 19.90925 140.71706 20.057849 139.65039 20.228516 C 138.58372 20.399182 137.71001 20.613141 137.02734 20.869141 C 135.91801 21.253141 135.08592 21.700891 134.53125 22.212891 C 133.97658 22.682224 133.69922 23.108188 133.69922 23.492188 C 133.69922 23.833521 133.99642 24.067313 134.59375 24.195312 C 135.19108 24.323312 136.10837 24.23812 137.3457 23.939453 C 137.94304 23.768786 138.73351 23.598401 139.71484 23.427734 C 140.65351 23.257068 141.67778 23.108469 142.78711 22.980469 L 145.98633 22.595703 C 147.05299 22.425036 148.01385 22.254651 148.86719 22.083984 C 148.56852 23.747984 148.26937 25.475578 147.9707 27.267578 L 147.20312 32.515625 C 146.98979 34.264958 146.81745 35.994505 146.68945 37.701172 C 146.67367 37.906332 146.66813 38.098216 146.6543 38.300781 C 146.56182 38.350774 146.46993 38.402857 146.37109 38.46875 C 144.45109 39.578083 142.72155 40.558776 141.18555 41.412109 C 139.64955 42.265443 138.2211 43.055917 136.89844 43.78125 C 135.61844 44.506583 134.402 45.209911 133.25 45.892578 C 132.098 46.532578 130.94692 47.194286 129.79492 47.876953 C 129.58159 47.450286 129.30422 47.065943 128.96289 46.724609 C 128.62156 46.383276 128.27883 46.062339 127.9375 45.763672 C 127.46817 45.294339 127.00058 44.69799 126.53125 43.972656 C 126.06192 43.247323 125.78455 42.563828 125.69922 41.923828 C 125.82722 41.369161 126.10458 40.858005 126.53125 40.388672 C 127.00058 39.876672 127.51174 39.448755 128.06641 39.107422 C 128.66374 38.723422 129.26204 38.426224 129.85938 38.212891 C 130.49937 37.999557 131.07394 37.892578 131.58594 37.892578 C 132.31127 37.892578 132.7174 38.106536 132.80273 38.533203 C 132.88807 39.173203 133.22884 39.513974 133.82617 39.556641 C 134.46617 39.556641 135.12788 39.342682 135.81055 38.916016 C 136.49321 38.489349 137.08956 37.93462 137.60156 37.251953 C 138.11356 36.52662 138.2859 35.738099 138.11523 34.884766 C 137.9019 33.860766 137.41058 33.135651 136.64258 32.708984 C 135.87458 32.239651 134.93551 32.003906 133.82617 32.003906 C 132.58884 32.003906 131.2238 32.259484 129.73047 32.771484 C 128.2798 33.283484 126.89298 33.988766 125.57031 34.884766 C 124.29031 35.780766 123.18085 36.824865 122.24219 38.019531 C 121.82605 38.574375 121.5069 39.144109 121.26562 39.726562 C 120.78972 40.196396 120.22867 40.737334 119.50391 41.412109 C 118.26657 42.564109 116.85796 43.717141 115.2793 44.869141 C 113.7433 46.021141 112.12268 47.043453 110.41602 47.939453 C 108.75202 48.792786 107.23643 49.220703 105.87109 49.220703 C 105.23109 49.220703 104.73977 49.028531 104.39844 48.644531 C 104.0571 48.260531 103.80153 47.812781 103.63086 47.300781 C 103.50286 46.746115 103.43945 46.191385 103.43945 45.636719 C 103.48212 45.082052 103.56731 44.612516 103.69531 44.228516 C 105.52998 44.527182 107.15059 44.44199 108.55859 43.972656 C 110.00926 43.503323 111.20391 42.819828 112.14258 41.923828 C 113.12391 41.027828 113.87081 40.025349 114.38281 38.916016 C 114.89481 37.764016 115.15234 36.676344 115.15234 35.652344 C 115.15234 34.54301 114.83141 33.582151 114.19141 32.771484 C 113.55141 31.918151 112.54893 31.470401 111.18359 31.427734 C 109.22093 31.299734 107.44976 31.662292 105.87109 32.515625 C 104.33509 33.368958 103.01363 34.500203 101.9043 35.908203 C 101.21475 36.8184 100.64355 37.808491 100.16797 38.861328 C 97.828257 41.137147 95.782746 42.765131 94.044922 43.716797 C 92.252922 44.655463 90.909672 44.996234 90.013672 44.740234 C 89.331005 44.526901 88.924875 44.057365 88.796875 43.332031 C 88.711542 42.564031 88.648135 41.77551 88.605469 40.964844 C 88.562802 40.154177 88.414203 39.429062 88.158203 38.789062 C 87.902203 38.149063 87.282115 37.828125 86.300781 37.828125 C 85.703448 37.828125 85.148719 38.10549 84.636719 38.660156 C 84.167385 39.172156 83.826615 39.663479 83.613281 40.132812 C 83.271948 40.858146 82.739005 41.817052 82.013672 43.011719 C 81.288339 44.163719 80.519651 45.294964 79.708984 46.404297 C 78.898318 47.51363 78.131583 48.452703 77.40625 49.220703 C 76.723583 49.946036 76.23226 50.245187 75.933594 50.117188 C 75.72026 50.031854 75.742047 49.518745 75.998047 48.580078 C 76.254047 47.641412 76.658224 46.468547 77.212891 45.060547 C 77.810224 43.60988 78.493719 42.009099 79.261719 40.259766 L 81.564453 34.884766 C 81.948453 33.690099 81.843427 32.751026 81.246094 32.068359 C 80.691427 31.343026 79.92274 30.980469 78.941406 30.980469 C 78.088073 30.980469 77.214359 31.27962 76.318359 31.876953 C 75.465026 32.474286 74.803318 33.30638 74.333984 34.373047 C 74.163318 34.84238 73.949359 35.567495 73.693359 36.548828 C 73.437359 37.530161 73.181781 38.659453 72.925781 39.939453 C 72.669781 41.219453 72.455823 42.564656 72.285156 43.972656 C 72.11449 45.33799 72.029297 46.617833 72.029297 47.8125 C 72.029297 48.665833 72.092703 49.476141 72.220703 50.244141 C 72.306036 50.969474 72.478375 51.609396 72.734375 52.164062 C 72.990375 52.718729 73.331146 53.144693 73.757812 53.443359 C 74.184479 53.742026 74.717422 53.870792 75.357422 53.828125 C 76.125422 53.828125 76.913943 53.528974 77.724609 52.931641 C 78.535276 52.291641 79.32575 51.524906 80.09375 50.628906 C 80.86175 49.69024 81.586865 48.68776 82.269531 47.621094 C 82.994865 46.554427 83.634786 45.549995 84.189453 44.611328 C 84.530786 45.720661 85.085516 46.659734 85.853516 47.427734 C 86.664182 48.153068 87.81526 48.559198 89.308594 48.644531 C 90.332594 48.687198 91.356859 48.516812 92.380859 48.132812 C 93.404859 47.706146 94.429125 47.12963 95.453125 46.404297 C 96.519792 45.636297 97.565844 44.782417 98.589844 43.84375 C 98.634032 43.803097 98.676588 43.759549 98.720703 43.71875 C 98.632265 44.34514 98.576172 44.964826 98.576172 45.572266 C 98.576172 46.596266 98.702984 47.557125 98.958984 48.453125 C 99.214984 49.349125 99.599328 50.159432 100.11133 50.884766 C 100.62333 51.567432 101.26325 52.122161 102.03125 52.548828 C 102.79925 52.975495 103.69475 53.1875 104.71875 53.1875 C 106.34008 53.230167 108.04784 52.82599 109.83984 51.972656 C 111.63184 51.076656 113.35944 49.988984 115.02344 48.708984 C 116.7301 47.428984 118.3091 46.061995 119.75977 44.611328 C 120.17229 44.210586 120.52368 43.855163 120.90039 43.480469 C 121.05641 44.227711 121.34163 44.88934 121.79492 45.443359 C 122.60559 46.382026 123.50109 47.257693 124.48242 48.068359 C 125.25042 48.580359 125.93392 49.198495 126.53125 49.923828 C 125.25125 50.777161 123.96945 51.652828 122.68945 52.548828 C 121.40945 53.444828 120.34357 54.318542 119.49023 55.171875 C 118.08223 56.579875 117.37891 58.030104 117.37891 59.523438 C 117.37891 60.376771 117.65627 61.060266 118.21094 61.572266 C 118.72294 62.084266 119.61844 62.339844 120.89844 62.339844 C 122.13577 62.339844 123.37399 61.935667 124.61133 61.125 C 125.89133 60.314333 127.02062 59.331687 128.00195 58.179688 C 129.02595 56.985021 129.81643 55.705177 130.37109 54.339844 C 130.92576 52.931844 131.09615 51.652 130.88281 50.5 C 133.44281 48.878667 136.19467 47.236266 139.13867 45.572266 C 141.75765 44.075706 144.20168 42.618444 146.52539 41.1875 C 146.51599 41.604722 146.49805 42.030859 146.49805 42.435547 C 146.49805 44.099547 146.58324 45.636922 146.75391 47.044922 C 146.96724 48.452922 147.28818 49.667406 147.71484 50.691406 C 148.18418 51.715406 148.76069 52.50588 149.44336 53.060547 C 150.16869 53.615214 151.06419 53.870792 152.13086 53.828125 C 153.49619 53.785458 154.86123 53.359495 156.22656 52.548828 C 157.5919 51.695495 158.93515 50.627656 160.25781 49.347656 C 161.62315 48.067656 162.94656 46.661 164.22656 45.125 C 165.30852 43.826647 166.34229 42.551071 167.36328 41.283203 C 167.75564 41.358758 168.15548 41.437622 168.60352 41.541016 C 169.20085 41.626349 169.5 41.753161 169.5 41.923828 C 169.58533 42.563828 169.41495 43.524688 168.98828 44.804688 C 168.56161 46.084687 168.07029 47.47151 167.51562 48.964844 C 166.91829 50.54351 166.38535 52.100719 165.91602 53.636719 C 165.44668 55.130052 165.25451 56.431682 165.33984 57.541016 C 165.46784 58.778349 165.91559 59.630276 166.68359 60.099609 C 167.45159 60.568943 168.32726 60.804688 169.30859 60.804688 C 169.90593 60.804687 170.46066 60.761115 170.97266 60.675781 C 171.52732 60.547781 172.03848 60.399182 172.50781 60.228516 C 173.48915 59.844516 174.51341 59.182807 175.58008 58.244141 C 176.68941 57.262807 177.75725 56.131562 178.78125 54.851562 C 179.79422 53.635994 180.74504 52.338236 181.64258 50.96875 C 181.67881 51.13432 181.70757 51.304347 181.75977 51.460938 C 182.05843 52.186271 182.50618 52.741 183.10352 53.125 C 183.65818 53.509 184.27632 53.701172 184.95898 53.701172 C 185.30032 53.701172 185.72823 53.614026 186.24023 53.443359 C 186.7949 53.272693 187.30606 53.060687 187.77539 52.804688 C 188.54339 52.378021 189.37548 51.759885 190.27148 50.949219 C 191.21015 50.138552 192.14922 49.262885 193.08789 48.324219 C 194.06922 47.342885 195.0083 46.340406 195.9043 45.316406 C 196.8003 44.24974 197.6106 43.269047 198.33594 42.373047 C 198.46394 43.09838 198.63432 43.823495 198.84766 44.548828 C 199.10366 45.274161 199.44443 45.93587 199.87109 46.533203 C 200.29776 47.08787 200.8307 47.57724 201.4707 48.003906 C 202.1107 48.387906 202.90118 48.601865 203.83984 48.644531 C 204.86384 48.687198 205.88811 48.516812 206.91211 48.132812 C 207.93611 47.706146 208.95842 47.12963 209.98242 46.404297 C 211.04909 45.636297 212.09514 44.782417 213.11914 43.84375 C 214.18581 42.862417 215.23186 41.838151 216.25586 40.771484 C 216.68253 40.344818 216.91632 39.918854 216.95898 39.492188 C 217.04432 39.065521 217.0027 38.72475 216.83203 38.46875 C 216.70403 38.21275 216.4465 38.083984 216.0625 38.083984 C 215.72117 38.041318 215.33878 38.23349 214.91211 38.660156 C 212.48011 41.049489 210.34639 42.777083 208.51172 43.84375 C 206.71972 44.86775 205.3963 45.166901 204.54297 44.740234 C 203.9883 44.484234 203.68915 44.014698 203.64648 43.332031 C 203.64648 42.606698 203.66827 41.859797 203.71094 41.091797 C 203.79627 40.28113 203.81806 39.514396 203.77539 38.789062 C 203.73272 38.063729 203.43357 37.55062 202.87891 37.251953 C 204.11624 36.569286 204.73633 35.566807 204.73633 34.244141 C 204.73633 33.518807 204.50058 32.835312 204.03125 32.195312 C 203.56192 31.555313 202.79323 31.107562 201.72656 30.851562 C 201.08656 30.723563 200.42681 30.660156 199.74414 30.660156 C 198.20814 30.660156 196.65093 31.0445 195.07227 31.8125 C 193.4936 32.537833 191.97801 33.49674 190.52734 34.691406 C 189.07668 35.886073 187.73343 37.253063 186.49609 38.789062 C 185.30143 40.282396 184.29895 41.796031 183.48828 43.332031 C 183.42017 43.461083 183.36363 43.588347 183.29883 43.716797 C 182.99934 44.1757 182.75946 44.562957 182.42773 45.060547 C 181.5744 46.29788 180.65711 47.577724 179.67578 48.900391 C 178.69445 50.180391 177.73554 51.353255 176.79688 52.419922 C 175.90088 53.486588 175.04699 54.340469 174.23633 54.980469 C 173.46833 55.577802 172.85019 55.811594 172.38086 55.683594 C 172.03953 55.555594 171.91076 55.107844 171.99609 54.339844 C 172.08143 53.529177 172.25181 52.570271 172.50781 51.460938 C 172.76381 50.308938 173.02134 49.114286 173.27734 47.876953 C 173.57601 46.63962 173.72461 45.508375 173.72461 44.484375 C 173.72461 42.991042 173.42546 41.711198 172.82812 40.644531 C 172.23079 39.577865 171.16491 38.937943 169.62891 38.724609 C 170.01291 38.041943 170.43887 37.251469 170.9082 36.355469 C 171.4202 35.416802 171.82633 34.521302 172.125 33.667969 C 172.46633 32.814635 172.65851 32.047901 172.70117 31.365234 C 172.74384 30.682568 172.52988 30.232865 172.06055 30.019531 C 171.20721 29.720865 170.35333 29.827844 169.5 30.339844 C 168.68933 30.809177 167.96422 31.492672 167.32422 32.388672 C 166.68422 33.284672 166.17306 34.287151 165.78906 35.396484 C 165.40506 36.505818 165.21289 37.508297 165.21289 38.404297 C 165.21289 39.010688 165.3099 39.533674 165.49609 39.980469 C 165.29422 40.215137 165.17568 40.36574 164.92969 40.644531 C 164.28969 41.369865 163.56457 42.138552 162.75391 42.949219 C 161.94324 43.759885 161.06953 44.590026 160.13086 45.443359 C 159.23486 46.254026 158.33936 47.000927 157.44336 47.683594 C 156.54736 48.323594 155.67169 48.85849 154.81836 49.285156 C 154.00769 49.669156 153.26079 49.839542 152.57812 49.796875 C 152.02346 49.754208 151.6609 49.155906 151.49023 48.003906 C 151.36223 46.851906 151.36223 45.379891 151.49023 43.587891 C 151.6609 41.795891 151.91648 39.812719 152.25781 37.636719 C 152.59915 35.460719 152.98349 33.348781 153.41016 31.300781 C 153.87949 29.210115 154.32724 27.310182 154.75391 25.603516 C 155.22324 23.896849 155.62937 22.597172 155.9707 21.701172 L 170.5625 20.931641 C 172.05583 21.358307 173.25048 21.380094 174.14648 20.996094 C 175.04248 20.569427 175.49023 20.058271 175.49023 19.460938 C 175.49023 18.991604 175.27628 18.60726 174.84961 18.308594 C 174.42294 17.96726 173.78302 17.753302 172.92969 17.667969 C 171.82035 17.539969 170.5623 17.476562 169.1543 17.476562 C 167.78896 17.476562 166.38035 17.518182 164.92969 17.603516 C 163.47902 17.688849 162.05058 17.795828 160.64258 17.923828 C 159.23458 18.051828 157.99635 18.180594 156.92969 18.308594 C 157.52702 16.303261 158.12532 14.468687 158.72266 12.804688 C 159.36266 11.098021 159.93917 9.6260051 160.45117 8.3886719 C 160.87784 7.4073386 161.08984 6.490052 161.08984 5.6367188 C 161.08984 4.6553855 160.81248 3.9302708 160.25781 3.4609375 C 159.74581 2.9916042 159.06427 2.7558594 158.21094 2.7558594 z M 248.19531 5.7578125 C 248.27665 5.7511458 248.3575 5.7530052 248.4375 5.7636719 C 248.9495 5.8490052 249.29027 6.08475 249.46094 6.46875 C 249.67427 6.8100833 249.78125 7.2796198 249.78125 7.8769531 C 249.78125 10.266286 249.28993 12.762568 248.30859 15.365234 C 247.36993 17.925234 246.21885 20.419563 244.85352 22.851562 C 243.48818 25.240896 242.05779 27.459813 240.56445 29.507812 C 239.11379 31.513146 237.8993 33.113927 236.91797 34.308594 C 237.21664 32.94326 237.62081 31.279073 238.13281 29.316406 C 238.68748 27.35374 239.28578 25.305208 239.92578 23.171875 C 240.56578 21.038542 241.24732 18.926604 241.97266 16.835938 C 242.69799 14.702604 243.4231 12.826411 244.14844 11.205078 C 244.91644 9.5410782 245.66334 8.1958749 246.38867 7.171875 C 247.02334 6.275875 247.62598 5.8044792 248.19531 5.7578125 z M 308.32617 5.7636719 C 308.66751 5.7636719 308.96666 5.8924375 309.22266 6.1484375 C 309.47866 6.4044375 309.64904 6.7669948 309.73438 7.2363281 C 309.81971 7.4923281 309.81971 7.7261198 309.73438 7.9394531 C 309.64904 9.5607864 309.15772 11.567698 308.26172 13.957031 C 307.40839 16.303698 306.32071 18.778193 304.99805 21.380859 C 303.67538 23.940859 302.20336 26.478761 300.58203 28.996094 C 299.00336 31.513427 297.46794 33.710557 295.97461 35.587891 C 296.52928 31.577224 297.33958 27.589094 298.40625 23.621094 C 299.51558 19.610427 300.96581 15.790729 302.75781 12.164062 L 302.82227 12.164062 C 303.4196 10.926729 304.05952 9.775651 304.74219 8.7089844 C 305.42485 7.6423178 306.08656 6.8518437 306.72656 6.3398438 C 306.9399 6.2118438 307.19547 6.0850312 307.49414 5.9570312 C 307.83547 5.8290313 308.11284 5.7636719 308.32617 5.7636719 z M 197.61328 37.199219 C 198.13728 37.203219 198.65597 37.283359 199.16797 37.443359 L 199.23047 37.443359 C 199.27314 37.486026 199.33849 37.507812 199.42383 37.507812 C 199.16783 37.763812 198.59131 38.403734 197.69531 39.427734 C 196.84198 40.409068 195.81771 41.540313 194.62305 42.820312 C 193.42838 44.100312 192.12675 45.401943 190.71875 46.724609 C 189.35342 48.004609 188.05179 49.028875 186.81445 49.796875 C 186.08912 50.266208 185.68494 50.329615 185.59961 49.988281 C 185.51428 49.646948 185.5559 49.199198 185.72656 48.644531 L 185.72656 48.708984 C 186.11056 47.599651 186.77227 46.319807 187.71094 44.869141 C 188.6496 43.375807 189.73728 42.008818 190.97461 40.771484 C 192.21194 39.491484 193.53536 38.510792 194.94336 37.828125 C 195.85003 37.401458 196.73995 37.192552 197.61328 37.199219 z M 324.11328 37.199219 C 324.63728 37.203219 325.15597 37.283359 325.66797 37.443359 L 325.73047 37.443359 C 325.77314 37.486026 325.83849 37.507812 325.92383 37.507812 C 325.66783 37.763812 325.09131 38.403734 324.19531 39.427734 C 323.34198 40.409068 322.31771 41.540313 321.12305 42.820312 C 319.92838 44.100312 318.62675 45.401943 317.21875 46.724609 C 315.85342 48.004609 314.55179 49.028875 313.31445 49.796875 C 312.58912 50.266208 312.18494 50.329615 312.09961 49.988281 C 312.01428 49.646948 312.0559 49.199198 312.22656 48.644531 L 312.22656 48.708984 C 312.61056 47.599651 313.27227 46.319807 314.21094 44.869141 C 315.1496 43.375807 316.23728 42.008818 317.47461 40.771484 C 318.71194 39.491484 320.03536 38.510792 321.44336 37.828125 C 322.35003 37.401458 323.23995 37.192552 324.11328 37.199219 z M 110.0957 37.572266 C 110.65037 37.614932 110.92773 37.828891 110.92773 38.212891 C 110.92773 38.596891 110.77718 39.022854 110.47852 39.492188 C 110.17985 39.918854 109.77567 40.324984 109.26367 40.708984 C 108.75167 41.050318 108.11175 41.305896 107.34375 41.476562 C 106.61842 41.647229 105.80811 41.647229 104.91211 41.476562 C 105.50944 40.409896 106.25634 39.470823 107.15234 38.660156 C 108.09101 37.84949 109.0717 37.486932 110.0957 37.572266 z M 289.31836 39.171875 L 289.31836 40.708984 C 289.36103 41.220984 289.42443 41.668734 289.50977 42.052734 C 288.6991 42.906068 287.8036 43.823354 286.82227 44.804688 C 285.8836 45.786021 284.96631 46.703307 284.07031 47.556641 C 283.17431 48.367307 282.38579 49.048849 281.70312 49.603516 C 281.02046 50.115516 280.55092 50.329474 280.29492 50.244141 C 279.95359 50.158807 279.82482 49.859656 279.91016 49.347656 C 279.95282 48.835656 280.12321 48.217521 280.42188 47.492188 C 280.76321 46.724188 281.21096 45.91388 281.76562 45.060547 C 282.36296 44.207214 283.00288 43.396906 283.68555 42.628906 C 284.41088 41.860906 285.13795 41.199198 285.86328 40.644531 C 286.63128 40.047198 287.37623 39.662854 288.10156 39.492188 C 288.65623 39.406854 289.06236 39.299875 289.31836 39.171875 z M 265.82227 39.621094 C 266.20627 40.261094 266.46184 41.134807 266.58984 42.244141 C 266.71784 43.353474 266.69801 44.462932 266.52734 45.572266 C 266.35668 46.638932 266.05753 47.578005 265.63086 48.388672 C 265.20419 49.199339 264.62768 49.625302 263.90234 49.667969 C 263.30501 49.710635 262.87905 49.496677 262.62305 49.027344 C 262.40971 48.55801 262.30273 47.961661 262.30273 47.236328 C 262.30273 46.596328 262.38793 45.912833 262.55859 45.1875 C 262.72926 44.462167 262.96305 43.758839 263.26172 43.076172 C 263.56039 42.350839 263.92294 41.68913 264.34961 41.091797 C 264.77628 40.494464 265.2676 40.005094 265.82227 39.621094 z M 247.60547 45.572266 C 246.70947 48.174932 245.79218 50.350276 244.85352 52.099609 C 243.91485 53.806276 243.01935 55.151479 242.16602 56.132812 C 241.31268 57.071479 240.54399 57.689615 239.86133 57.988281 C 239.17866 58.244281 238.64572 58.244281 238.26172 57.988281 C 237.83505 57.689615 237.62109 57.134885 237.62109 56.324219 C 237.62109 55.470885 237.94203 54.468406 238.58203 53.316406 C 239.2647 52.164406 240.33058 50.926182 241.78125 49.603516 C 243.23192 48.238182 245.17347 46.894932 247.60547 45.572266 z M 126.6582 53.572266 C 126.35954 54.169599 126.01877 54.894714 125.63477 55.748047 C 125.25077 56.558714 124.75944 57.198635 124.16211 57.667969 C 123.47944 58.265302 122.7979 58.693219 122.11523 58.949219 C 121.43257 59.205219 121.08984 59.225052 121.08984 59.011719 C 121.08984 58.755719 121.28202 58.393161 121.66602 57.923828 C 122.05002 57.454495 122.51955 56.965125 123.07422 56.453125 C 123.62889 55.941125 124.22719 55.428016 124.86719 54.916016 C 125.50719 54.404016 126.10354 53.956266 126.6582 53.572266 z "
       transform="matrix(0.26458333,0,0,0.26458333,-36.126915,117.11302)"
       id="text3719" />
  </g>
</svg>
