<?xml version="1.0" encoding="UTF-8" standalone="no"?>
<svg
   xmlns:dc="http://purl.org/dc/elements/1.1/"
   xmlns:cc="http://creativecommons.org/ns#"
   xmlns:rdf="http://www.w3.org/1999/02/22-rdf-syntax-ns#"
   xmlns:svg="http://www.w3.org/2000/svg"
   xmlns="http://www.w3.org/2000/svg"
   id="svg8"
   version="1.1"
   viewBox="0 0 92.331883 20.749078"
   height="20.749079mm"
   width="92.331879mm">
  <defs
     id="defs2" />
  <metadata
     id="metadata5">
    <rdf:RDF>
      <cc:Work
         rdf:about="">
        <dc:format>image/svg+xml</dc:format>
        <dc:type
           rdf:resource="http://purl.org/dc/dcmitype/StillImage" />
        <dc:title></dc:title>
      </cc:Work>
    </rdf:RDF>
  </metadata>
  <g
     transform="translate(36.126915,-117.11302)"
     id="layer1">
    <path
       id="text3719"
       transform="matrix(0.26458333,0,0,0.26458333,-36.126915,117.11302)"
       d="M 53.658203 0.00390625 C 52.80487 0.046572914 51.758818 0.75185424 50.521484 2.1171875 C 49.326818 3.4398541 47.983568 5.2744272 46.490234 7.6210938 C 45.039568 9.9677603 43.482359 12.71962 41.818359 15.876953 C 40.154359 18.99162 38.446599 22.361615 36.697266 25.988281 C 34.947932 29.614948 33.176766 33.41286 31.384766 37.380859 C 29.592766 41.306193 27.823552 45.230917 26.074219 49.15625 C 24.367552 53.038916 22.725151 56.836828 21.146484 60.548828 C 19.567818 64.260828 18.095802 67.694229 16.730469 70.851562 L 16.730469 70.789062 C 16.431802 69.039729 16.473422 66.799026 16.857422 64.068359 C 17.284089 61.38036 17.860604 58.414541 18.585938 55.171875 C 19.353937 51.886542 20.207818 48.472974 21.146484 44.931641 C 22.085151 41.347641 22.937078 37.829047 23.705078 34.373047 C 24.473078 30.87438 25.07138 27.567792 25.498047 24.453125 C 25.96738 21.338458 26.074359 18.606432 25.818359 16.259766 C 25.605026 13.913099 24.965104 12.05674 23.898438 10.691406 C 22.831771 9.326073 21.167583 8.686151 18.90625 8.7714844 C 17.37025 8.7714844 15.791255 9.1340417 14.169922 9.859375 C 12.591255 10.542042 11.055833 11.481115 9.5625 12.675781 C 8.1118334 13.870448 6.7448437 15.215651 5.4648438 16.708984 C 4.2275105 18.202318 3.161625 19.759526 2.265625 21.380859 C 1.4122917 23.002193 0.77236977 24.601021 0.34570312 26.179688 C -0.038296855 27.715687 -0.10170311 29.124297 0.15429688 30.404297 C 0.3676302 31.51363 0.70840107 32.282318 1.1777344 32.708984 C 1.6470677 33.135651 2.1166042 33.347656 2.5859375 33.347656 C 2.9272708 33.347656 3.2462552 33.220844 3.5449219 32.964844 C 3.8862552 32.708844 4.1437865 32.387906 4.3144531 32.003906 C 4.4851198 31.57724 4.548526 31.107703 4.5058594 30.595703 C 4.5058594 30.083703 4.3553073 29.572547 4.0566406 29.060547 L 4.0566406 29.125 C 3.885974 28.698333 3.8007812 28.20701 3.8007812 27.652344 C 3.8007812 26.244344 4.2504844 24.643562 5.1464844 22.851562 C 6.085151 21.016896 7.2362292 19.289302 8.6015625 17.667969 C 10.009562 16.003969 11.503365 14.617146 13.082031 13.507812 C 14.703364 12.355813 16.217 11.78125 17.625 11.78125 C 18.350333 11.78125 18.863443 12.078448 19.162109 12.675781 C 19.460776 13.230448 19.609375 13.955563 19.609375 14.851562 C 19.609375 15.747562 19.502396 16.750042 19.289062 17.859375 C 19.118396 18.968708 18.884604 20.078167 18.585938 21.1875 C 18.329938 22.296833 18.052573 23.342885 17.753906 24.324219 C 17.45524 25.305552 17.241281 26.094073 17.113281 26.691406 C 16.345281 29.848739 15.55676 33.113709 14.746094 36.484375 C 13.978094 39.812375 13.272812 43.118964 12.632812 46.404297 C 11.992813 49.68963 11.45987 52.88924 11.033203 56.003906 C 10.649203 59.118573 10.457031 61.999198 10.457031 64.644531 C 10.457031 68.100531 10.948354 71.044563 11.929688 73.476562 C 12.953687 75.951229 14.532682 77.550057 16.666016 78.275391 C 16.922016 78.488724 17.221167 78.468891 17.5625 78.212891 C 17.903833 77.999557 18.181198 77.700406 18.394531 77.316406 C 18.650531 76.932406 18.79913 76.506443 18.841797 76.037109 C 18.92713 75.610443 18.820151 75.289505 18.521484 75.076172 C 19.673484 72.686839 20.953328 69.891406 22.361328 66.691406 C 23.811995 63.491406 25.347417 60.079791 26.96875 56.453125 C 28.590083 52.783792 30.254271 49.0275 31.960938 45.1875 C 33.710271 41.304834 35.439818 37.508875 37.146484 33.796875 C 38.895818 30.042209 40.579839 26.478088 42.201172 23.107422 C 43.865172 19.694089 45.42238 16.645031 46.873047 13.957031 C 48.36638 11.226365 49.711583 8.9638749 50.90625 7.171875 C 52.100917 5.3798751 53.103396 4.2070104 53.914062 3.6523438 C 54.298062 3.7803437 54.490234 4.782823 54.490234 6.6601562 C 54.490234 8.5801561 54.25449 11.225037 53.785156 14.595703 C 53.315823 17.923703 52.78288 21.573016 52.185547 25.541016 C 51.801547 28.143682 51.375583 30.937162 50.90625 33.923828 C 50.479583 36.867828 50.09524 39.855432 49.753906 42.884766 C 49.412573 45.871432 49.113422 48.793677 48.857422 51.652344 C 48.644089 54.51101 48.537109 57.134104 48.537109 59.523438 C 48.537109 62.296771 48.687661 64.836625 48.986328 67.140625 C 49.327661 69.444625 49.882391 71.386177 50.650391 72.964844 C 51.418391 74.586177 52.440703 75.780828 53.720703 76.548828 C 55.04337 77.359495 56.665938 77.615073 58.585938 77.316406 C 59.183271 77.103073 59.631021 76.782135 59.929688 76.355469 C 60.228354 75.928802 60.35712 75.502839 60.314453 75.076172 C 60.314453 74.692172 60.163901 74.351401 59.865234 74.052734 C 59.566568 73.754068 59.097031 73.625302 58.457031 73.667969 C 56.665031 73.881302 55.42876 73.263167 54.746094 71.8125 C 54.063427 70.4045 53.720703 68.399542 53.720703 65.796875 C 53.720703 62.639542 54.085214 58.863416 54.810547 54.46875 C 55.578547 50.074084 56.45226 45.487651 57.433594 40.708984 C 57.945594 38.191651 58.436917 35.673583 58.90625 33.15625 C 59.41825 30.59625 59.866 28.121755 60.25 25.732422 C 60.634 23.300422 60.933151 20.974526 61.146484 18.755859 C 61.402484 16.494526 61.529297 14.382588 61.529297 12.419922 C 61.529297 10.542589 61.380698 8.8367812 61.082031 7.3007812 C 60.826031 5.7221147 60.398115 4.3986979 59.800781 3.3320312 C 59.203448 2.222698 58.393141 1.3906041 57.369141 0.8359375 C 56.345141 0.2386042 55.10887 -0.038760414 53.658203 0.00390625 z M 166.71484 1.9238281 C 166.04284 1.9451615 165.37618 1.9887344 164.71484 2.0527344 C 161.25884 2.4367344 158.03745 3.5026199 155.05078 5.2519531 C 152.06411 6.9586197 149.33404 9.1359168 146.85938 11.78125 C 144.38471 14.383917 142.18562 17.369568 140.26562 20.740234 C 138.34563 24.068234 136.70322 27.566995 135.33789 31.236328 C 134.01522 34.862995 133.01274 38.553927 132.33008 42.308594 C 131.64741 46.06326 131.30664 49.669 131.30664 53.125 C 131.30664 56.367666 131.62563 59.396891 132.26562 62.212891 C 132.90562 65.02889 133.86648 67.459813 135.14648 69.507812 C 136.46915 71.555812 138.11155 73.134807 140.07422 74.244141 C 142.07955 75.396141 144.44707 75.929083 147.17773 75.84375 C 149.3964 75.758417 151.7223 75.096708 154.1543 73.859375 C 156.5863 72.664708 158.99739 71.1075 161.38672 69.1875 C 163.81872 67.2675 166.18623 65.07037 168.49023 62.595703 C 170.8369 60.163703 173.0142 57.667422 175.01953 55.107422 C 176.10042 53.756311 177.11608 52.419138 178.07812 51.091797 C 178.10828 51.214221 178.12689 51.343559 178.16602 51.460938 C 178.46468 52.186271 178.91243 52.741 179.50977 53.125 C 180.06443 53.509 180.68257 53.701172 181.36523 53.701172 C 181.70657 53.701172 182.13448 53.614026 182.64648 53.443359 C 183.20115 53.272693 183.71231 53.060687 184.18164 52.804688 C 184.94964 52.378021 185.78173 51.759885 186.67773 50.949219 C 187.6164 50.138552 188.55547 49.262885 189.49414 48.324219 C 190.47547 47.342885 191.41455 46.340406 192.31055 45.316406 C 193.20655 44.24974 194.01685 43.269047 194.74219 42.373047 C 194.87019 43.09838 195.04057 43.823495 195.25391 44.548828 C 195.50991 45.274161 195.85068 45.93587 196.27734 46.533203 C 196.70401 47.08787 197.23695 47.57724 197.87695 48.003906 C 198.51695 48.387906 199.30743 48.601865 200.24609 48.644531 C 201.27009 48.687198 202.29436 48.516812 203.31836 48.132812 C 204.34236 47.706146 205.36467 47.12963 206.38867 46.404297 C 207.45534 45.636297 208.50139 44.782417 209.52539 43.84375 C 209.66067 43.719294 209.79314 43.588719 209.92773 43.462891 C 210.08264 44.217468 210.36935 44.885026 210.82617 45.443359 C 211.63684 46.382026 212.53234 47.257693 213.51367 48.068359 C 214.28167 48.580359 214.96517 49.198495 215.5625 49.923828 C 214.2825 50.777161 213.0007 51.652828 211.7207 52.548828 C 210.4407 53.444828 209.37482 54.318542 208.52148 55.171875 C 207.11348 56.579875 206.41016 58.030104 206.41016 59.523438 C 206.41016 60.376771 206.68752 61.060266 207.24219 61.572266 C 207.75419 62.084266 208.64969 62.339844 209.92969 62.339844 C 211.16702 62.339844 212.40329 61.935667 213.64062 61.125 C 214.92062 60.314333 216.05187 59.331687 217.0332 58.179688 C 218.0572 56.985021 218.84768 55.705177 219.40234 54.339844 C 219.95701 52.931844 220.1274 51.652 219.91406 50.5 C 222.47406 48.878667 225.22592 47.236266 228.16992 45.572266 C 229.6906 44.703309 231.15895 43.846835 232.58008 43 C 232.5195 43.110765 232.45311 43.221044 232.39453 43.332031 C 231.58386 44.868031 231.00735 46.361833 230.66602 47.8125 C 230.32468 49.2205 230.32468 50.436938 230.66602 51.460938 C 230.96468 52.186271 231.41243 52.741 232.00977 53.125 C 232.56443 53.509 233.18257 53.701172 233.86523 53.701172 C 234.20657 53.701172 234.63448 53.614026 235.14648 53.443359 C 235.70115 53.272693 236.21231 53.060687 236.68164 52.804688 C 237.44964 52.378021 238.28173 51.759885 239.17773 50.949219 C 240.1164 50.138552 241.05547 49.262885 241.99414 48.324219 C 242.97547 47.342885 243.91455 46.340406 244.81055 45.316406 C 245.70655 44.24974 246.51685 43.269047 247.24219 42.373047 C 247.37019 43.09838 247.54057 43.823495 247.75391 44.548828 C 248.00991 45.274161 248.35068 45.93587 248.77734 46.533203 C 249.20401 47.08787 249.73695 47.57724 250.37695 48.003906 C 251.01695 48.387906 251.80743 48.601865 252.74609 48.644531 C 253.77009 48.687198 254.79436 48.516812 255.81836 48.132812 C 256.84236 47.706146 257.86467 47.12963 258.88867 46.404297 C 259.95534 45.636297 261.00139 44.782417 262.02539 43.84375 C 262.68121 43.240397 263.32711 42.616079 263.9668 41.980469 C 263.96745 43.197935 263.98729 44.396151 264.0293 45.572266 C 264.11463 46.724266 264.17804 47.790151 264.2207 48.771484 C 264.30604 49.710151 264.39318 50.522411 264.47852 51.205078 C 264.56385 51.845078 264.64904 52.249255 264.73438 52.419922 C 265.07571 53.273255 265.65027 53.701172 266.46094 53.701172 C 267.2716 53.658505 267.89169 53.252375 268.31836 52.484375 C 268.57436 52.057708 268.93692 51.118635 269.40625 49.667969 C 269.87558 48.174635 270.43031 46.403469 271.07031 44.355469 L 271.07031 44.419922 C 271.53965 42.969255 272.02902 41.45562 272.54102 39.876953 C 273.05302 38.298287 273.54434 36.782698 274.01367 35.332031 C 274.48301 33.881365 274.93076 32.579734 275.35742 31.427734 C 275.82676 30.233068 276.23289 29.315781 276.57422 28.675781 C 276.65955 29.059781 276.63777 29.806682 276.50977 30.916016 C 276.38177 32.025349 276.23317 33.326979 276.0625 34.820312 C 275.89183 36.270979 275.71949 37.806401 275.54883 39.427734 C 275.42083 41.049068 275.35742 42.54287 275.35742 43.908203 C 275.40009 45.23087 275.54869 46.340328 275.80469 47.236328 C 276.06069 48.132328 276.51039 48.601865 277.15039 48.644531 C 277.74772 48.687198 278.40748 48.281068 279.13281 47.427734 C 279.90081 46.574401 280.71307 45.615495 281.56641 44.548828 L 281.56641 44.611328 L 281.69336 44.419922 C 282.37603 43.566589 282.99416 42.799854 283.54883 42.117188 C 284.14616 41.391854 284.53051 40.985724 284.70117 40.900391 C 284.61584 41.071057 284.6812 41.518807 284.89453 42.244141 C 285.02253 42.884141 285.17113 43.567635 285.3418 44.292969 C 285.55513 45.018302 285.85428 45.699844 286.23828 46.339844 C 286.66495 46.979844 287.19789 47.512786 287.83789 47.939453 C 288.52056 48.36612 289.41606 48.601865 290.52539 48.644531 C 291.54939 48.687198 292.57366 48.516812 293.59766 48.132812 C 294.62166 47.706146 295.64592 47.12963 296.66992 46.404297 C 297.73659 45.636297 298.78069 44.782417 299.80469 43.84375 C 299.83033 43.820163 299.85525 43.795121 299.88086 43.771484 C 299.78382 44.439945 299.72852 45.104033 299.72852 45.763672 C 299.72852 46.830338 299.85728 47.854604 300.11328 48.835938 C 300.36928 49.774604 300.73184 50.606698 301.20117 51.332031 C 301.67051 52.014698 302.26685 52.547641 302.99219 52.931641 C 303.71752 53.315641 304.5714 53.466193 305.55273 53.380859 C 307.34473 53.167526 308.83854 52.18488 310.0332 50.435547 C 310.63054 49.454214 311.10007 48.366542 311.44141 47.171875 C 311.78274 45.934542 311.95312 44.783463 311.95312 43.716797 L 311.95312 42.949219 C 311.95312 42.735885 311.93134 42.521927 311.88867 42.308594 C 313.21134 42.777927 314.40599 43.140484 315.47266 43.396484 C 316.53932 43.609818 317.5418 43.673224 318.48047 43.587891 C 319.40485 43.503856 320.3084 43.231825 321.19141 42.775391 C 321.27626 43.828865 321.60902 44.719623 322.20117 45.443359 C 323.01184 46.382026 323.90734 47.257693 324.88867 48.068359 C 325.65667 48.580359 326.34017 49.198495 326.9375 49.923828 C 325.6575 50.777161 324.3757 51.652828 323.0957 52.548828 C 321.8157 53.444828 320.74982 54.318542 319.89648 55.171875 C 318.48848 56.579875 317.78516 58.030104 317.78516 59.523438 C 317.78516 60.376771 318.06252 61.060266 318.61719 61.572266 C 319.12919 62.084266 320.02469 62.339844 321.30469 62.339844 C 322.54202 62.339844 323.77829 61.935667 325.01562 61.125 C 326.29562 60.314333 327.42687 59.331687 328.4082 58.179688 C 329.4322 56.985021 330.22268 55.705177 330.77734 54.339844 C 331.33201 52.931844 331.5024 51.652 331.28906 50.5 C 333.84906 48.878667 336.60092 47.236266 339.54492 45.572266 C 342.53159 43.865599 345.32507 42.201411 347.92773 40.580078 C 348.43973 40.281411 348.76067 39.940641 348.88867 39.556641 C 349.01667 39.172641 348.99489 38.851703 348.82422 38.595703 C 348.69622 38.297036 348.44064 38.126651 348.05664 38.083984 C 347.71531 37.998651 347.28934 38.127417 346.77734 38.46875 C 344.85734 39.578083 343.1278 40.558776 341.5918 41.412109 C 340.0558 42.265443 338.62735 43.055917 337.30469 43.78125 C 336.02469 44.506583 334.80825 45.209911 333.65625 45.892578 C 332.50425 46.532578 331.35317 47.194286 330.20117 47.876953 C 329.98784 47.450286 329.71047 47.065943 329.36914 46.724609 C 329.02781 46.383276 328.68508 46.062339 328.34375 45.763672 C 327.87442 45.294339 327.40683 44.69799 326.9375 43.972656 C 326.46817 43.247323 326.1908 42.563828 326.10547 41.923828 C 326.23347 41.369161 326.51083 40.858005 326.9375 40.388672 C 327.40683 39.876672 327.91799 39.448755 328.47266 39.107422 C 329.06999 38.723422 329.66634 38.426224 330.26367 38.212891 C 330.90367 37.999557 331.48019 37.892578 331.99219 37.892578 C 332.71752 37.892578 333.12365 38.106536 333.20898 38.533203 C 333.29432 39.173203 333.63509 39.513974 334.23242 39.556641 C 334.87242 39.556641 335.53413 39.342682 336.2168 38.916016 C 336.89946 38.489349 337.49581 37.93462 338.00781 37.251953 C 338.51981 36.52662 338.69215 35.738099 338.52148 34.884766 C 338.30815 33.860766 337.81683 33.135651 337.04883 32.708984 C 336.28083 32.239651 335.34176 32.003906 334.23242 32.003906 C 332.99509 32.003906 331.63005 32.259484 330.13672 32.771484 C 328.68605 33.283484 327.29923 33.988766 325.97656 34.884766 C 324.69656 35.780766 323.5871 36.824865 322.64844 38.019531 C 322.29945 38.48485 322.03069 38.962528 321.80469 39.447266 C 321.13144 39.942565 320.47036 40.283089 319.82422 40.453125 C 319.01355 40.666458 318.20324 40.729865 317.39258 40.644531 C 316.58191 40.516531 315.74982 40.280786 314.89648 39.939453 C 314.08582 39.555453 313.25372 39.173062 312.40039 38.789062 C 312.14439 38.703729 311.95222 38.618536 311.82422 38.533203 C 312.29355 38.31987 312.69968 38.020719 313.04102 37.636719 C 313.38235 37.210052 313.55273 36.782135 313.55273 36.355469 C 313.55273 35.672802 313.25358 35.054667 312.65625 34.5 C 312.05892 33.945333 311.24861 33.626349 310.22461 33.541016 C 308.47528 33.413016 306.93985 33.710214 305.61719 34.435547 C 304.33719 35.118214 303.24952 36.079073 302.35352 37.316406 C 302.02075 37.78228 301.72882 38.27777 301.46094 38.789062 C 299.08727 41.107139 296.99647 42.797701 295.19727 43.84375 C 293.40527 44.86775 292.0838 45.166901 291.23047 44.740234 C 290.84647 44.356234 290.63251 43.738099 290.58984 42.884766 C 290.54718 42.031432 290.46198 41.177552 290.33398 40.324219 C 290.20598 39.428219 289.88505 38.639698 289.37305 37.957031 C 288.90371 37.274365 288.03 36.931641 286.75 36.931641 C 285.89667 36.931641 285.10619 37.145599 284.38086 37.572266 C 283.65553 37.998932 282.97398 38.531875 282.33398 39.171875 C 281.73665 39.811875 281.18192 40.49537 280.66992 41.220703 C 280.15792 41.946036 279.68839 42.585958 279.26172 43.140625 L 279.32617 43.011719 C 279.58217 42.073052 279.85954 41.028953 280.1582 39.876953 C 280.45687 38.682287 280.73423 37.444062 280.99023 36.164062 C 281.24623 34.884063 281.45824 33.626005 281.62891 32.388672 C 281.79957 31.151339 281.88477 29.998307 281.88477 28.931641 C 281.88477 27.224974 281.58757 25.818318 280.99023 24.708984 C 280.43557 23.599651 279.43309 23.086542 277.98242 23.171875 C 276.95842 23.171875 276.06097 23.704818 275.29297 24.771484 C 274.52497 25.795484 273.84343 26.990135 273.24609 28.355469 C 272.69143 29.720802 272.22189 31.087792 271.83789 32.453125 C 271.45389 33.775792 271.17653 34.756484 271.00586 35.396484 C 270.92053 34.372484 270.62137 33.58201 270.10938 33.027344 C 269.59738 32.472677 268.97924 32.195312 268.25391 32.195312 C 267.40057 32.195312 266.54669 32.579656 265.69336 33.347656 C 264.88269 34.115656 264.39137 35.268688 264.2207 36.804688 C 264.16416 37.313606 264.13156 37.869626 264.09375 38.416016 C 264.00336 38.487533 263.91294 38.565578 263.81836 38.660156 C 261.38636 41.049489 259.25264 42.777083 257.41797 43.84375 C 255.62597 44.86775 254.30255 45.166901 253.44922 44.740234 C 252.89455 44.484234 252.5954 44.014698 252.55273 43.332031 C 252.55273 42.606698 252.57452 41.859797 252.61719 41.091797 C 252.70252 40.28113 252.72431 39.514396 252.68164 38.789062 C 252.63897 38.063729 252.33982 37.55062 251.78516 37.251953 C 253.02249 36.569286 253.64062 35.566807 253.64062 34.244141 C 253.64062 33.518807 253.40683 32.835312 252.9375 32.195312 C 252.46817 31.555313 251.69948 31.107562 250.63281 30.851562 C 249.99281 30.723563 249.33306 30.660156 248.65039 30.660156 C 247.11439 30.660156 245.55718 31.0445 243.97852 31.8125 C 242.39985 32.537833 240.88426 33.49674 239.43359 34.691406 C 238.17368 35.728979 236.99938 36.904178 235.90039 38.199219 C 235.7431 38.266307 235.58024 38.350155 235.40234 38.46875 C 233.48234 39.578083 231.7528 40.558776 230.2168 41.412109 C 228.6808 42.265443 227.25235 43.055917 225.92969 43.78125 C 224.64969 44.506583 223.43325 45.209911 222.28125 45.892578 C 221.12925 46.532578 219.97817 47.194286 218.82617 47.876953 C 218.61284 47.450286 218.33547 47.065943 217.99414 46.724609 C 217.65281 46.383276 217.31008 46.062339 216.96875 45.763672 C 216.49942 45.294339 216.03183 44.69799 215.5625 43.972656 C 215.09317 43.247323 214.8158 42.563828 214.73047 41.923828 C 214.85847 41.369161 215.13583 40.858005 215.5625 40.388672 C 216.03183 39.876672 216.54299 39.448755 217.09766 39.107422 C 217.69499 38.723422 218.29134 38.426224 218.88867 38.212891 C 219.52867 37.999557 220.10519 37.892578 220.61719 37.892578 C 221.34252 37.892578 221.74865 38.106536 221.83398 38.533203 C 221.91932 39.173203 222.26009 39.513974 222.85742 39.556641 C 223.49742 39.556641 224.15913 39.342682 224.8418 38.916016 C 225.52446 38.489349 226.12081 37.93462 226.63281 37.251953 C 227.14481 36.52662 227.31715 35.738099 227.14648 34.884766 C 226.93315 33.860766 226.44183 33.135651 225.67383 32.708984 C 224.90583 32.239651 223.96676 32.003906 222.85742 32.003906 C 221.62009 32.003906 220.25505 32.259484 218.76172 32.771484 C 217.31105 33.283484 215.92423 33.988766 214.60156 34.884766 C 213.32156 35.780766 212.2121 36.824865 211.27344 38.019531 C 210.90283 38.513679 210.61863 39.021062 210.38672 39.537109 C 208.34285 41.461063 206.51131 42.917389 204.91797 43.84375 C 203.12597 44.86775 201.80255 45.166901 200.94922 44.740234 C 200.39455 44.484234 200.0954 44.014698 200.05273 43.332031 C 200.05273 42.606698 200.07452 41.859797 200.11719 41.091797 C 200.20252 40.28113 200.22431 39.514396 200.18164 38.789062 C 200.13897 38.063729 199.83982 37.55062 199.28516 37.251953 C 200.52249 36.569286 201.14062 35.566807 201.14062 34.244141 C 201.14062 33.518807 200.90683 32.835312 200.4375 32.195312 C 199.96817 31.555313 199.19948 31.107562 198.13281 30.851562 C 197.49281 30.723563 196.83306 30.660156 196.15039 30.660156 C 194.61439 30.660156 193.05718 31.0445 191.47852 31.8125 C 189.89985 32.537833 188.38426 33.49674 186.93359 34.691406 C 185.48293 35.886073 184.13968 37.253063 182.90234 38.789062 C 181.84739 40.107757 180.95083 41.442956 180.19531 42.794922 C 179.85844 43.270485 179.56672 43.695055 179.17773 44.228516 C 177.72707 46.276516 176.02126 48.473646 174.05859 50.820312 C 172.13859 53.166979 170.02666 55.556281 167.72266 57.988281 C 165.41866 60.420281 163.07097 62.617412 160.68164 64.580078 C 158.33497 66.585411 156.03282 68.227813 153.77148 69.507812 C 151.51015 70.787812 149.43983 71.471307 147.5625 71.556641 C 146.36783 71.599307 145.34357 71.258536 144.49023 70.533203 C 143.6369 69.80787 142.91179 68.761818 142.31445 67.396484 C 141.75979 66.031151 141.33382 64.366963 141.03516 62.404297 C 140.77916 60.44163 140.65039 58.266286 140.65039 55.876953 C 140.65039 52.804953 140.90597 49.518198 141.41797 46.019531 C 141.92997 42.520865 142.67687 39.022104 143.6582 35.523438 C 144.63954 31.982104 145.83419 28.570489 147.24219 25.285156 C 148.65019 21.957156 150.25097 18.947765 152.04297 16.259766 C 153.83497 13.529099 155.79635 11.224989 157.92969 9.3476562 C 160.10569 7.4276564 162.4098 6.126026 164.8418 5.4433594 C 165.56713 5.3153594 166.39922 5.2301667 167.33789 5.1875 C 168.27656 5.1448333 169.15222 5.2101927 169.96289 5.3808594 C 170.81622 5.551526 171.51955 5.9140834 172.07422 6.46875 C 172.67155 6.98075 172.9707 7.7474844 172.9707 8.7714844 C 172.9707 10.136818 172.52295 11.674193 171.62695 13.380859 C 170.73095 15.087526 169.77009 16.793333 168.74609 18.5 C 168.14876 19.481333 167.59403 20.420406 167.08203 21.316406 C 166.57003 22.212406 166.12228 23.08612 165.73828 23.939453 C 165.39695 24.75012 165.16316 25.518807 165.03516 26.244141 C 164.90716 26.926807 164.97056 27.525109 165.22656 28.037109 C 165.61056 28.890443 166.14351 29.29462 166.82617 29.251953 C 167.55151 29.16662 168.21321 28.71887 168.81055 27.908203 C 169.49321 26.884203 170.2619 25.604359 171.11523 24.068359 C 172.01123 22.532359 172.84333 20.911745 173.61133 19.205078 C 174.42199 17.455745 175.10354 15.684578 175.6582 13.892578 C 176.21287 12.100578 176.49023 10.436391 176.49023 8.9003906 C 176.49023 7.1510574 176.12768 5.7860208 175.40234 4.8046875 C 174.67701 3.8233542 173.73794 3.1180729 172.58594 2.6914062 C 171.43394 2.2220729 170.15409 1.9664948 168.74609 1.9238281 C 168.06343 1.9024948 167.38684 1.9024948 166.71484 1.9238281 z M 100.23242 32.003906 C 98.995089 32.003906 97.630052 32.259484 96.136719 32.771484 C 94.686052 33.283484 93.299229 33.988766 91.976562 34.884766 C 90.696563 35.780766 89.587104 36.824865 88.648438 38.019531 C 88.299448 38.48485 88.030692 38.962528 87.804688 39.447266 C 87.131445 39.942565 86.470356 40.283089 85.824219 40.453125 C 85.013552 40.666458 84.203245 40.729865 83.392578 40.644531 C 82.581912 40.516531 81.749818 40.280786 80.896484 39.939453 C 80.085818 39.555453 79.253724 39.173062 78.400391 38.789062 C 78.144391 38.703729 77.952219 38.618536 77.824219 38.533203 C 78.293552 38.31987 78.699682 38.020719 79.041016 37.636719 C 79.382349 37.210052 79.552734 36.782135 79.552734 36.355469 C 79.552734 35.672802 79.253583 35.054667 78.65625 34.5 C 78.058917 33.945333 77.248609 33.626349 76.224609 33.541016 C 74.475276 33.413016 72.939854 33.710214 71.617188 34.435547 C 70.337188 35.118214 69.249516 36.079073 68.353516 37.316406 C 67.500182 38.511073 66.858307 39.854323 66.431641 41.347656 C 65.962307 42.84099 65.728516 44.313005 65.728516 45.763672 C 65.728516 46.830338 65.857281 47.854604 66.113281 48.835938 C 66.369281 49.774604 66.731839 50.606698 67.201172 51.332031 C 67.670505 52.014698 68.266854 52.547641 68.992188 52.931641 C 69.717521 53.315641 70.571401 53.466193 71.552734 53.380859 C 73.344734 53.167526 74.838537 52.18488 76.033203 50.435547 C 76.630536 49.454214 77.100073 48.366542 77.441406 47.171875 C 77.78274 45.934542 77.953125 44.783463 77.953125 43.716797 L 77.953125 42.949219 C 77.953125 42.735885 77.931339 42.521927 77.888672 42.308594 C 79.211338 42.777927 80.40599 43.140484 81.472656 43.396484 C 82.539323 43.609818 83.541802 43.673224 84.480469 43.587891 C 85.404849 43.503856 86.308404 43.231825 87.191406 42.775391 C 87.276264 43.828865 87.609024 44.719623 88.201172 45.443359 C 89.011838 46.382026 89.907339 47.257693 90.888672 48.068359 C 91.656672 48.580359 92.340167 49.198495 92.9375 49.923828 C 91.6575 50.777161 90.375703 51.652828 89.095703 52.548828 C 87.815703 53.444828 86.749818 54.318542 85.896484 55.171875 C 84.488484 56.579875 83.785156 58.030104 83.785156 59.523438 C 83.785156 60.376771 84.062521 61.060266 84.617188 61.572266 C 85.129187 62.084266 86.024688 62.339844 87.304688 62.339844 C 88.542021 62.339844 89.778292 61.935667 91.015625 61.125 C 92.295625 60.314333 93.42687 59.331687 94.408203 58.179688 C 95.432203 56.985021 96.222677 55.705177 96.777344 54.339844 C 97.33201 52.931844 97.502396 51.652 97.289062 50.5 C 99.849062 48.878667 102.60092 47.236266 105.54492 45.572266 C 108.53159 43.865599 111.32507 42.201411 113.92773 40.580078 C 114.43973 40.281411 114.76067 39.940641 114.88867 39.556641 C 115.01667 39.172641 114.99489 38.851703 114.82422 38.595703 C 114.69622 38.297036 114.44064 38.126651 114.05664 38.083984 C 113.71531 37.998651 113.28934 38.127417 112.77734 38.46875 C 110.85734 39.578083 109.1278 40.558776 107.5918 41.412109 C 106.0558 42.265443 104.62735 43.055917 103.30469 43.78125 C 102.02469 44.506583 100.80825 45.209911 99.65625 45.892578 C 98.50425 46.532578 97.353172 47.194286 96.201172 47.876953 C 95.987839 47.450286 95.710474 47.065943 95.369141 46.724609 C 95.027807 46.383276 94.685083 46.062339 94.34375 45.763672 C 93.874417 45.294339 93.406833 44.69799 92.9375 43.972656 C 92.468167 43.247323 92.190802 42.563828 92.105469 41.923828 C 92.233469 41.369161 92.510833 40.858005 92.9375 40.388672 C 93.406833 39.876672 93.91799 39.448755 94.472656 39.107422 C 95.06999 38.723422 95.666339 38.426224 96.263672 38.212891 C 96.903672 37.999557 97.480188 37.892578 97.992188 37.892578 C 98.717521 37.892578 99.123651 38.106536 99.208984 38.533203 C 99.294318 39.173203 99.635089 39.513974 100.23242 39.556641 C 100.87242 39.556641 101.53413 39.342682 102.2168 38.916016 C 102.89946 38.489349 103.49581 37.93462 104.00781 37.251953 C 104.51981 36.52662 104.69215 35.738099 104.52148 34.884766 C 104.30815 33.860766 103.81683 33.135651 103.04883 32.708984 C 102.28083 32.239651 101.34176 32.003906 100.23242 32.003906 z M 194.01953 37.199219 C 194.54353 37.203219 195.06222 37.283359 195.57422 37.443359 L 195.63672 37.443359 C 195.67939 37.486026 195.74474 37.507812 195.83008 37.507812 C 195.57408 37.763812 194.99756 38.403734 194.10156 39.427734 C 193.24823 40.409068 192.22396 41.540313 191.0293 42.820312 C 189.83463 44.100312 188.533 45.401943 187.125 46.724609 C 185.75967 48.004609 184.45804 49.028875 183.2207 49.796875 C 182.49537 50.266208 182.09119 50.329615 182.00586 49.988281 C 181.92053 49.646948 181.96215 49.199198 182.13281 48.644531 L 182.13281 48.708984 C 182.51681 47.599651 183.17852 46.319807 184.11719 44.869141 C 185.05585 43.375807 186.14353 42.008818 187.38086 40.771484 C 188.61819 39.491484 189.94161 38.510792 191.34961 37.828125 C 192.25628 37.401458 193.1462 37.192552 194.01953 37.199219 z M 246.51953 37.199219 C 247.04353 37.203219 247.56222 37.283359 248.07422 37.443359 L 248.13672 37.443359 C 248.17939 37.486026 248.24474 37.507812 248.33008 37.507812 C 248.07408 37.763812 247.49756 38.403734 246.60156 39.427734 C 245.74823 40.409068 244.72396 41.540313 243.5293 42.820312 C 242.33463 44.100312 241.033 45.401943 239.625 46.724609 C 238.25967 48.004609 236.95804 49.028875 235.7207 49.796875 C 234.99537 50.266208 234.59119 50.329615 234.50586 49.988281 C 234.42053 49.646948 234.46215 49.199198 234.63281 48.644531 L 234.63281 48.708984 C 235.01681 47.599651 235.67852 46.319807 236.61719 44.869141 C 237.55585 43.375807 238.64353 42.008818 239.88086 40.771484 C 241.11819 39.491484 242.44161 38.510792 243.84961 37.828125 C 244.75628 37.401458 245.6462 37.192552 246.51953 37.199219 z M 73.728516 39.621094 C 74.112516 40.261094 74.368094 41.134807 74.496094 42.244141 C 74.624094 43.353474 74.602307 44.462932 74.431641 45.572266 C 74.260974 46.638932 73.963776 47.578005 73.537109 48.388672 C 73.110443 49.199338 72.533927 49.625302 71.808594 49.667969 C 71.21126 49.710635 70.785297 49.496677 70.529297 49.027344 C 70.315964 48.55801 70.208984 47.961661 70.208984 47.236328 C 70.208984 46.596328 70.294177 45.912833 70.464844 45.1875 C 70.63551 44.462167 70.869302 43.758839 71.167969 43.076172 C 71.466635 42.350839 71.829193 41.68913 72.255859 41.091797 C 72.682526 40.494464 73.173849 40.005094 73.728516 39.621094 z M 307.72852 39.621094 C 308.11252 40.261094 308.36809 41.134807 308.49609 42.244141 C 308.62409 43.353474 308.60231 44.462932 308.43164 45.572266 C 308.26097 46.638932 307.96378 47.578005 307.53711 48.388672 C 307.11044 49.199338 306.53393 49.625302 305.80859 49.667969 C 305.21126 49.710635 304.7853 49.496677 304.5293 49.027344 C 304.31596 48.55801 304.20898 47.961661 304.20898 47.236328 C 304.20898 46.596328 304.29418 45.912833 304.46484 45.1875 C 304.63551 44.462167 304.8693 43.758839 305.16797 43.076172 C 305.46664 42.350839 305.82919 41.68913 306.25586 41.091797 C 306.68253 40.494464 307.17385 40.005094 307.72852 39.621094 z M 93.064453 53.572266 C 92.765786 54.169599 92.425016 54.894714 92.041016 55.748047 C 91.657016 56.558713 91.165693 57.198635 90.568359 57.667969 C 89.885693 58.265302 89.204151 58.693219 88.521484 58.949219 C 87.838818 59.205219 87.496094 59.225052 87.496094 59.011719 C 87.496094 58.755719 87.688266 58.393161 88.072266 57.923828 C 88.456266 57.454495 88.925802 56.965125 89.480469 56.453125 C 90.035135 55.941125 90.633438 55.428016 91.273438 54.916016 C 91.913437 54.404016 92.509786 53.956266 93.064453 53.572266 z M 215.68945 53.572266 C 215.39079 54.169599 215.05002 54.894714 214.66602 55.748047 C 214.28202 56.558713 213.79069 57.198635 213.19336 57.667969 C 212.51069 58.265302 211.82915 58.693219 211.14648 58.949219 C 210.46382 59.205219 210.12109 59.225052 210.12109 59.011719 C 210.12109 58.755719 210.31327 58.393161 210.69727 57.923828 C 211.08127 57.454495 211.5508 56.965125 212.10547 56.453125 C 212.66014 55.941125 213.25844 55.428016 213.89844 54.916016 C 214.53844 54.404016 215.13479 53.956266 215.68945 53.572266 z M 327.06445 53.572266 C 326.76579 54.169599 326.42502 54.894714 326.04102 55.748047 C 325.65702 56.558713 325.16569 57.198635 324.56836 57.667969 C 323.88569 58.265302 323.20415 58.693219 322.52148 58.949219 C 321.83882 59.205219 321.49609 59.225052 321.49609 59.011719 C 321.49609 58.755719 321.68827 58.393161 322.07227 57.923828 C 322.45627 57.454495 322.9258 56.965125 323.48047 56.453125 C 324.03514 55.941125 324.63344 55.428016 325.27344 54.916016 C 325.91344 54.404016 326.50979 53.956266 327.06445 53.572266 z "
       style="font-style:normal;font-variant:normal;font-weight:normal;font-stretch:normal;font-size:37.3244133px;line-height:1.25;font-family:'valentine vibes';-inkscape-font-specification:'valentine vibes';letter-spacing:0px;word-spacing:0px;fill:#0d002f;fill-opacity:1;stroke:none;stroke-width:3.52671576" />
  </g>
</svg>
