<?xml version="1.0" encoding="UTF-8" standalone="no"?>
<svg
   xmlns:dc="http://purl.org/dc/elements/1.1/"
   xmlns:cc="http://creativecommons.org/ns#"
   xmlns:rdf="http://www.w3.org/1999/02/22-rdf-syntax-ns#"
   xmlns:svg="http://www.w3.org/2000/svg"
   xmlns="http://www.w3.org/2000/svg"
   id="svg8"
   version="1.1"
   viewBox="0 0 182.35209 30.000001"
   height="30mm"
   width="182.3521mm">
  <defs
     id="defs2" />
  <metadata
     id="metadata5">
    <rdf:RDF>
      <cc:Work
         rdf:about="">
        <dc:format>image/svg+xml</dc:format>
        <dc:type
           rdf:resource="http://purl.org/dc/dcmitype/StillImage" />
        <dc:title></dc:title>
      </cc:Work>
    </rdf:RDF>
  </metadata>
  <g
     transform="translate(34.530902,-103.19553)"
     id="layer1">
    <path
       id="text3719"
       transform="matrix(0.26458333,0,0,0.26458333,-34.530902,103.19553)"
       d="M 70.560547 9.3378906 C 70.187065 9.3308732 69.806659 9.3367557 69.419922 9.3554688 C 67.274154 9.4552719 65.427809 10.153731 63.880859 11.451172 C 62.383812 12.748613 60.986894 14.394561 59.689453 16.390625 C 57.294177 17.388657 55.022721 18.911066 52.876953 20.957031 C 50.781086 23.002996 48.859837 25.422308 47.113281 28.216797 C 45.366726 30.961384 43.771365 34.03052 42.324219 37.423828 C 40.926974 40.767235 39.752818 44.261481 38.804688 47.904297 C 37.856557 51.547113 37.109464 55.26412 36.560547 59.056641 C 36.061531 62.79926 35.810547 66.441362 35.810547 69.984375 C 35.810547 74.176108 36.136436 78.119782 36.785156 81.8125 C 37.433877 85.505218 38.431954 88.724163 39.779297 91.46875 C 41.176541 94.263239 42.921711 96.457837 45.017578 98.054688 C 47.163346 99.70144 49.683833 100.52539 52.578125 100.52539 C 55.272811 100.52539 57.817614 99.901837 60.212891 98.654297 C 62.658068 97.456659 64.828349 96.059741 66.724609 94.462891 C 68.870378 95.510824 71.091246 96.433996 73.386719 97.232422 C 75.732093 98.030847 78.003549 98.429688 80.199219 98.429688 C 81.646365 98.429688 82.968377 98.180657 84.166016 97.681641 C 85.413555 97.232526 86.486537 96.432893 87.384766 95.285156 C 88.133289 94.087518 88.358003 93.140028 88.058594 92.441406 C 87.809086 91.742784 87.335341 91.392578 86.636719 91.392578 C 86.237506 91.392578 85.812396 91.568658 85.363281 91.917969 C 84.914167 92.26728 84.49101 92.690437 84.091797 93.189453 C 83.193568 94.187485 81.92019 94.6875 80.273438 94.6875 C 78.77639 94.6875 77.104171 94.361611 75.257812 93.712891 C 73.411454 93.06417 71.540792 92.317077 69.644531 91.46875 C 72.339217 88.424753 74.784799 84.806968 76.980469 80.615234 C 79.176139 76.423501 81.022484 71.981765 82.519531 67.291016 C 84.066481 62.550365 85.238684 57.709789 86.037109 52.769531 C 86.885436 47.829274 87.310547 43.063602 87.310547 38.472656 C 87.310547 34.330824 86.960341 30.464008 86.261719 26.871094 C 85.563097 23.278179 84.465798 20.158456 82.96875 17.513672 C 81.521604 14.868888 79.675259 12.822146 77.429688 11.375 C 75.464812 10.065083 73.174922 9.3870125 70.560547 9.3378906 z M 433.85742 9.3554688 C 432.11087 9.3554687 430.31511 9.7786261 428.46875 10.626953 C 426.67229 11.425379 424.92517 12.522677 423.22852 13.919922 C 421.53186 15.267265 419.93455 16.840262 418.4375 18.636719 C 416.99035 20.383274 415.74325 22.205302 414.69531 24.101562 C 413.64738 25.947921 412.87402 27.794266 412.375 29.640625 C 411.87598 31.437082 411.72617 33.107348 411.92578 34.654297 C 412.17529 35.802033 412.54981 36.676572 413.04883 37.275391 C 413.59775 37.824308 414.1464 38.097656 414.69531 38.097656 C 415.09453 38.097656 415.46905 37.947847 415.81836 37.648438 C 416.21757 37.349028 416.51719 36.974505 416.7168 36.525391 C 416.9164 36.026375 416.99131 35.477725 416.94141 34.878906 C 416.94141 34.280087 416.76533 33.682803 416.41602 33.083984 L 416.41602 33.158203 C 416.21641 32.659187 416.11719 32.084268 416.11719 31.435547 C 416.11719 29.788794 416.64152 27.918132 417.68945 25.822266 C 418.78729 23.676497 420.13557 21.656026 421.73242 19.759766 C 423.37917 17.813604 425.12434 16.191973 426.9707 14.894531 C 428.86696 13.547188 430.6384 12.873047 432.28516 12.873047 C 433.03368 12.873047 433.6086 13.022856 434.00781 13.322266 C 434.40703 13.621675 434.65606 14.020515 434.75586 14.519531 C 434.85566 15.018547 434.87998 15.567197 434.83008 16.166016 C 434.78018 16.714933 434.68095 17.263583 434.53125 17.8125 C 434.23184 19.259646 433.80673 21.057357 433.25781 23.203125 C 432.7588 25.298992 432.21015 27.544177 431.61133 29.939453 L 431.16211 31.660156 C 430.16408 35.55248 429.0911 39.795773 427.94336 44.386719 C 426.84552 48.977665 425.79881 53.642162 424.80078 58.382812 C 423.85265 63.073562 423.05302 67.665107 422.4043 72.15625 C 421.80548 76.647393 421.50781 80.714606 421.50781 84.357422 C 421.50781 88.748762 422.08078 92.441452 423.22852 95.435547 C 424.42615 98.479544 426.3474 100.42511 428.99219 101.27344 L 428.99219 101.19922 C 429.4413 101.44873 429.89073 101.44873 430.33984 101.19922 C 430.78896 100.94971 431.16348 100.5995 431.46289 100.15039 C 431.7623 99.701276 431.91211 99.203214 431.91211 98.654297 C 431.96201 98.155281 431.76161 97.756441 431.3125 97.457031 C 430.56398 97.457031 430.01533 97.031921 429.66602 96.183594 C 430.96346 92.93999 432.28547 89.222983 433.63281 85.03125 C 435.03006 80.839517 436.52815 76.322876 438.125 71.482422 C 439.67195 66.791672 441.29358 61.900509 442.99023 56.810547 C 444.73679 51.720585 446.50823 46.805104 448.30469 42.064453 C 450.15105 37.323802 451.99739 32.932654 453.84375 28.890625 C 455.69011 24.798695 457.48587 21.405623 459.23242 18.710938 C 460.08075 17.563201 460.92902 16.565124 461.77734 15.716797 C 462.62567 14.818568 463.24922 14.344823 463.64844 14.294922 C 464.09755 14.843839 464.44776 16.291344 464.69727 18.636719 C 464.99668 20.982093 465.14648 23.802198 465.14648 27.095703 C 465.14648 29.989995 465.07158 33.132083 464.92188 36.525391 C 464.82207 39.918699 464.64599 43.388628 464.39648 46.931641 C 464.19688 50.424752 463.97412 53.866458 463.72461 57.259766 C 463.4751 60.603172 463.22412 63.698578 462.97461 66.542969 C 462.7251 69.337458 462.47607 71.756769 462.22656 73.802734 C 462.02696 75.8487 461.87715 77.296204 461.77734 78.144531 C 461.37813 81.138627 461.95305 82.634766 463.5 82.634766 C 464.09882 82.634766 464.79728 82.31083 465.5957 81.662109 C 466.44403 81.06329 467.26603 80.364832 468.06445 79.566406 C 468.91278 78.718079 469.68614 77.894129 470.38477 77.095703 C 471.08339 76.247376 471.5834 75.599505 471.88281 75.150391 C 472.88084 73.803048 474.02873 72.304956 475.32617 70.658203 C 476.67351 69.011451 478.07043 67.341185 479.51758 65.644531 C 480.96472 63.897976 482.41223 62.20144 483.85938 60.554688 C 485.35642 58.907935 486.75334 57.43416 488.05078 56.136719 C 489.34822 54.839277 490.52043 53.792566 491.56836 52.994141 C 492.66619 52.195715 493.51446 51.746288 494.11328 51.646484 C 494.46259 51.846091 494.71162 52.344153 494.86133 53.142578 C 495.06093 53.891102 495.16211 54.840545 495.16211 55.988281 C 495.16211 56.986313 495.11152 58.158516 495.01172 59.505859 C 494.91192 60.853202 494.81269 62.175215 494.71289 63.472656 C 494.56319 65.069507 494.41338 66.792313 494.26367 68.638672 C 494.16387 70.485031 494.11328 72.256471 494.11328 73.953125 C 494.11328 76.198697 494.31368 78.368977 494.71289 80.464844 C 495.162 82.56071 495.86046 84.382738 496.80859 85.929688 C 497.80663 87.526538 499.07805 88.723059 500.625 89.521484 C 502.17195 90.31991 504.0932 90.520306 506.38867 90.121094 C 506.98749 90.021291 507.48751 89.721672 507.88672 89.222656 C 508.28593 88.773542 508.53496 88.273527 508.63477 87.724609 C 508.73457 87.225593 508.65966 86.778119 508.41016 86.378906 C 508.21055 85.979694 507.78739 85.803614 507.13867 85.853516 C 506.63966 85.903417 506.19023 85.954005 505.79102 86.003906 C 505.3918 86.103709 504.99296 86.154297 504.59375 86.154297 C 502.9969 86.154297 501.89765 85.603694 501.29883 84.505859 C 500.74991 83.457926 500.47656 82.061009 500.47656 80.314453 C 500.47656 78.368291 500.62637 76.447042 500.92578 74.550781 C 501.22519 72.604619 501.54913 70.68337 501.89844 68.787109 C 502.29765 66.890849 502.64786 64.99587 502.94727 63.099609 C 503.24668 61.203349 503.39453 59.306417 503.39453 57.410156 C 503.39453 55.913109 503.24668 54.564826 502.94727 53.367188 C 502.69776 52.119648 502.24833 51.046666 501.59961 50.148438 C 500.95089 49.250209 500.07635 48.55175 498.97852 48.052734 C 497.88068 47.553718 496.48376 47.329005 494.78711 47.378906 C 493.43977 47.329005 491.76755 48.003146 489.77148 49.400391 C 487.77542 50.797635 485.63141 52.619663 483.33594 54.865234 C 481.09037 57.110806 478.79459 59.631292 476.44922 62.425781 C 474.10384 65.170369 471.88298 67.889299 469.78711 70.583984 L 469.78711 70.134766 C 469.83701 69.985061 469.86133 69.835252 469.86133 69.685547 C 469.91123 69.535842 469.96182 69.337399 470.01172 69.087891 C 470.11152 68.788481 470.21074 68.387688 470.31055 67.888672 L 470.60938 66.242188 C 470.70918 65.643368 470.81035 65.070402 470.91016 64.521484 C 471.30937 62.275913 471.73253 59.731109 472.18164 56.886719 C 472.68066 54.042328 473.13008 51.096731 473.5293 48.052734 C 473.97841 44.958836 474.32862 41.865383 474.57812 38.771484 C 474.87753 35.677586 475.02734 32.709625 475.02734 29.865234 C 475.02734 26.970942 474.85126 24.276329 474.50195 21.78125 C 474.15264 19.236269 473.55341 17.064035 472.70508 15.267578 C 471.85675 13.471121 470.71082 12.098521 469.26367 11.150391 C 467.86643 10.152359 466.1193 9.7292015 464.02344 9.8789062 C 463.32482 9.9288078 462.62636 10.153522 461.92773 10.552734 C 461.27901 10.902045 460.60487 11.351473 459.90625 11.900391 C 459.25753 12.449308 458.63398 13.072862 458.03516 13.771484 C 457.43634 14.420205 456.88769 15.043759 456.38867 15.642578 C 455.04133 17.439035 453.64441 19.783442 452.19727 22.677734 C 450.80002 25.522125 449.35252 28.74107 447.85547 32.333984 C 446.40832 35.876997 444.9365 39.670862 443.43945 43.712891 C 441.99231 47.754919 440.56912 51.846449 439.17188 55.988281 C 437.77463 60.080212 436.4283 64.121154 435.13086 68.113281 C 433.88332 72.055507 432.73543 75.748197 431.6875 79.191406 L 431.6875 79.117188 C 431.43799 79.865711 431.18701 80.639075 430.9375 81.4375 L 430.18945 83.832031 C 430.33916 82.53459 430.51328 81.238848 430.71289 79.941406 C 430.9624 78.643965 431.2377 77.319999 431.53711 75.972656 C 431.88642 74.625313 432.23663 73.204079 432.58594 71.707031 C 432.98515 70.160082 433.40831 68.514134 433.85742 66.767578 L 435.05469 61.900391 C 435.90301 58.307476 436.75128 54.665374 437.59961 50.972656 C 438.49784 47.230037 439.29747 43.612252 439.99609 40.119141 C 440.69472 36.576128 441.24337 33.207374 441.64258 30.013672 C 442.09169 26.81997 442.31641 23.951231 442.31641 21.40625 C 442.31641 20.607825 442.29014 19.834461 442.24023 19.085938 C 442.19033 18.287512 442.11543 17.589053 442.01562 16.990234 C 441.61641 15.044072 440.94422 13.446758 439.99609 12.199219 C 439.09787 10.901777 437.87507 10.05351 436.32812 9.6542969 C 435.92891 9.5544937 435.53007 9.4795891 435.13086 9.4296875 C 434.73165 9.3797859 434.30654 9.3554688 433.85742 9.3554688 z M 191.5918 11.974609 C 189.24642 11.874806 187.05182 12.648169 185.00586 14.294922 C 183.0098 15.941674 181.18777 18.162542 179.54102 20.957031 C 177.89426 23.75152 176.44676 26.944195 175.19922 30.537109 C 173.95168 34.130024 172.8787 37.824667 171.98047 41.617188 C 171.13214 45.359807 170.48427 49.052496 170.03516 52.695312 C 169.58604 56.288227 169.36133 59.505219 169.36133 62.349609 C 169.36133 64.195968 169.48487 65.84387 169.73438 67.291016 C 169.93398 68.738162 170.25987 69.886048 170.70898 70.734375 L 170.63281 70.734375 C 170.88232 71.333194 171.18194 71.782622 171.53125 72.082031 C 171.88056 72.331539 172.25508 72.455078 172.6543 72.455078 C 173.40282 72.455078 174.1256 71.957016 174.82422 70.958984 L 174.82422 70.882812 C 175.22343 70.084387 175.67286 69.26239 176.17188 68.414062 C 176.72079 67.515834 177.19454 66.667566 177.59375 65.869141 C 178.24247 64.621601 178.9672 63.297635 179.76562 61.900391 C 180.56405 60.453245 181.3131 59.131232 182.01172 57.933594 C 182.76024 56.686054 183.40811 55.639343 183.95703 54.791016 C 184.50595 53.942689 184.90479 53.466991 185.1543 53.367188 C 184.90479 54.415121 184.73066 55.664182 184.63086 57.111328 C 184.58096 58.558474 184.70645 59.979709 185.00586 61.376953 C 185.30527 62.724296 185.80333 63.896499 186.50195 64.894531 C 187.25048 65.842661 188.29914 66.342677 189.64648 66.392578 C 190.84412 66.44248 191.96574 66.217766 193.01367 65.71875 C 194.11151 65.169833 195.18449 64.447057 196.23242 63.548828 C 196.30603 63.488607 196.37952 63.416812 196.45312 63.355469 C 196.20552 64.050295 195.98981 64.741073 195.83008 65.419922 C 195.43087 67.066674 195.43087 68.487909 195.83008 69.685547 C 196.17939 70.533874 196.70372 71.183698 197.40234 71.632812 C 198.05106 72.081927 198.77384 72.306641 199.57227 72.306641 C 199.97148 72.306641 200.47149 72.205466 201.07031 72.005859 C 201.71903 71.806253 202.31827 71.557222 202.86719 71.257812 C 203.76542 70.758797 204.73722 70.036021 205.78516 69.087891 C 206.88299 68.13976 207.98224 67.115413 209.08008 66.017578 C 210.22781 64.869842 211.32511 63.697638 212.37305 62.5 C 213.42098 61.25246 214.36847 60.104574 215.2168 59.056641 C 215.3665 59.904968 215.5669 60.753235 215.81641 61.601562 C 216.11582 62.44989 216.51466 63.223253 217.01367 63.921875 C 217.51269 64.570596 218.13624 65.145515 218.88477 65.644531 C 219.63329 66.093646 220.55646 66.342677 221.6543 66.392578 C 222.85194 66.44248 224.05041 66.242083 225.24805 65.792969 C 226.44569 65.293953 227.64221 64.621765 228.83984 63.773438 C 230.08738 62.875209 231.31017 61.877132 232.50781 60.779297 C 232.53748 60.752002 232.56606 60.722664 232.5957 60.695312 C 232.51295 61.376922 232.45703 62.054821 232.45703 62.724609 C 232.45703 63.972149 232.60684 65.144353 232.90625 66.242188 C 233.20566 67.290121 233.65509 68.239564 234.25391 69.087891 C 234.85273 69.886316 235.59982 70.534187 236.49805 71.033203 C 237.39628 71.482317 238.44494 71.707031 239.64258 71.707031 C 241.48894 71.756933 243.33528 71.307505 245.18164 70.359375 C 247.0779 69.411245 248.94856 68.214724 250.79492 66.767578 C 252.64128 65.320432 254.41272 63.747435 256.10938 62.050781 C 256.59359 61.55232 257.0086 61.140248 257.47656 60.662109 C 257.37598 61.384242 257.31055 62.098249 257.31055 62.798828 C 257.31055 63.996466 257.46036 65.120035 257.75977 66.167969 C 258.05918 67.215902 258.5086 68.163392 259.10742 69.011719 C 259.70624 69.810144 260.45333 70.459968 261.35156 70.958984 C 262.24979 71.458 263.29846 71.707031 264.49609 71.707031 C 266.39235 71.756933 268.38851 71.283188 270.48438 70.285156 C 272.58024 69.237223 274.60071 67.963845 276.54688 66.466797 C 278.54294 64.969749 280.38928 63.372435 282.08594 61.675781 C 283.58983 60.21486 284.8484 58.932513 285.94531 57.767578 C 286.42149 57.858349 286.91375 57.95771 287.46094 58.083984 C 288.15956 58.183788 288.50781 58.333597 288.50781 58.533203 C 288.60762 59.281727 288.40917 60.403343 287.91016 61.900391 C 287.41114 63.397438 286.83622 65.021023 286.1875 66.767578 C 285.48888 68.613937 284.86532 70.434012 284.31641 72.230469 C 283.76749 73.977024 283.54277 75.499434 283.64258 76.796875 C 283.79228 78.244021 284.31662 79.242098 285.21484 79.791016 C 286.11307 80.339933 287.13547 80.615234 288.2832 80.615234 C 288.98183 80.615234 289.63165 80.564647 290.23047 80.464844 C 290.87919 80.315139 291.47647 80.141013 292.02539 79.941406 C 293.17313 79.492292 294.3716 78.718929 295.61914 77.621094 C 296.91658 76.473357 298.16369 75.149391 299.36133 73.652344 C 300.60887 72.155296 301.78302 70.559935 302.88086 68.863281 C 304.0286 67.166627 305.07531 65.544996 306.02344 63.998047 C 307.02147 62.401196 307.86974 60.978008 308.56836 59.730469 C 309.31688 58.433027 309.86553 57.485538 310.21484 56.886719 C 310.51425 56.387703 310.66406 55.887688 310.66406 55.388672 C 310.66406 54.839754 310.54052 54.440914 310.29102 54.191406 C 310.09141 53.941898 309.76552 53.891311 309.31641 54.041016 C 308.91719 54.19072 308.46972 54.690735 307.9707 55.539062 C 307.62139 56.08798 307.04647 56.960565 306.24805 58.158203 C 305.49952 59.355841 304.62694 60.704124 303.62891 62.201172 C 302.63087 63.648318 301.55789 65.144457 300.41016 66.691406 C 299.26242 68.188454 298.13885 69.561054 297.04102 70.808594 C 295.99308 72.056133 294.99501 73.054211 294.04688 73.802734 C 293.14865 74.501357 292.42587 74.776658 291.87695 74.626953 C 291.47774 74.477248 291.32793 73.952916 291.42773 73.054688 C 291.52754 72.106557 291.72598 70.982988 292.02539 69.685547 C 292.3248 68.338204 292.62442 66.941287 292.92383 65.494141 C 293.27314 64.046995 293.44922 62.724982 293.44922 61.527344 C 293.44922 59.780788 293.09901 58.282696 292.40039 57.035156 C 291.70177 55.787617 290.45466 55.040524 288.6582 54.791016 C 289.10732 53.99259 289.60538 53.069418 290.1543 52.021484 C 290.75312 50.923649 291.22881 49.874985 291.57812 48.876953 C 291.97734 47.878921 292.2001 46.980066 292.25 46.181641 C 292.2999 45.383215 292.05087 44.858883 291.50195 44.609375 C 290.50392 44.260064 289.50584 44.385556 288.50781 44.984375 C 287.55968 45.533292 286.71141 46.330973 285.96289 47.378906 C 285.21437 48.42684 284.61513 49.600996 284.16602 50.898438 C 283.7169 52.195879 283.49414 53.368082 283.49414 54.416016 C 283.49414 55.038654 283.58215 55.583729 283.75 56.0625 C 283.21287 56.58975 282.57693 57.19824 281.78711 57.933594 C 280.33996 59.280937 278.69206 60.62922 276.8457 61.976562 C 275.04925 63.323905 273.15427 64.520426 271.1582 65.568359 C 269.21204 66.566391 267.4406 67.066406 265.84375 67.066406 C 265.09523 67.066406 264.52031 66.841692 264.12109 66.392578 C 263.72188 65.943464 263.42226 65.419132 263.22266 64.820312 C 263.07295 64.171592 262.99805 63.523721 262.99805 62.875 C 263.04795 62.226279 263.14912 61.67763 263.29883 61.228516 C 265.4446 61.577827 267.33958 61.476652 268.98633 60.927734 C 270.68298 60.378817 272.08185 59.581136 273.17969 58.533203 C 274.32742 57.48527 275.20001 56.313066 275.79883 55.015625 C 276.39765 53.668282 276.69727 52.394904 276.69727 51.197266 C 276.69727 49.899824 276.32274 48.776255 275.57422 47.828125 C 274.82569 46.830093 273.65349 46.307714 272.05664 46.257812 C 269.76117 46.108108 267.69011 46.531265 265.84375 47.529297 C 264.04729 48.527329 262.50057 49.849341 261.20312 51.496094 C 260.42768 52.519681 259.78041 53.630767 259.23633 54.808594 L 257.30859 56.736328 C 256.46027 57.534754 255.46219 58.433609 254.31445 59.431641 C 253.21662 60.379771 252.01814 61.351578 250.7207 62.349609 C 249.42326 63.29774 248.12557 64.146007 246.82812 64.894531 C 245.58059 65.643055 244.38406 66.242292 243.23633 66.691406 C 242.08859 67.090619 241.09051 67.189841 240.24219 66.990234 C 239.49366 66.940333 238.94306 66.616397 238.59375 66.017578 C 238.24444 65.368857 238.07031 64.595494 238.07031 63.697266 C 238.07031 62.599431 238.27071 61.451544 238.66992 60.253906 C 239.06913 59.006367 239.61778 57.884751 240.31641 56.886719 C 241.06493 55.838785 241.9132 54.990518 242.86133 54.341797 C 243.80946 53.693076 244.83185 53.393458 245.92969 53.443359 C 248.07546 53.543163 249.72336 53.16864 250.87109 52.320312 C 252.01883 51.471985 252.5918 50.548813 252.5918 49.550781 C 252.5918 48.602651 252.14237 47.7787 251.24414 47.080078 C 250.39581 46.331554 249.0738 45.882127 247.27734 45.732422 C 244.98187 45.582717 242.91081 46.007828 241.06445 47.005859 C 239.21809 48.003891 237.64705 49.350221 236.34961 51.046875 C 235.402 52.335621 234.6275 53.740689 234.02539 55.259766 C 231.42519 57.758408 229.11495 59.618942 227.11914 60.779297 C 225.02327 61.976935 223.47655 62.325188 222.47852 61.826172 C 221.82979 61.526762 221.47959 60.978113 221.42969 60.179688 C 221.42969 59.33136 221.454 58.458775 221.50391 57.560547 C 221.60371 56.612417 221.62998 55.713561 221.58008 54.865234 C 221.53018 54.016907 221.17997 53.41767 220.53125 53.068359 C 221.9784 52.269934 222.70312 51.097731 222.70312 49.550781 C 222.70312 48.702454 222.42782 47.904774 221.87891 47.15625 C 221.32999 46.407726 220.43113 45.883394 219.18359 45.583984 C 218.43507 45.43428 217.66171 45.359375 216.86328 45.359375 C 215.06682 45.359375 213.24675 45.808803 211.40039 46.707031 C 209.55403 47.555358 207.78259 48.676974 206.08594 50.074219 C 204.66419 51.245068 203.33443 52.564451 202.08789 54.015625 C 201.80769 54.00684 201.52825 54.135811 201.24805 54.416016 C 198.40366 57.260406 196.1322 59.331465 194.43555 60.628906 C 192.73889 61.876446 191.44315 62.275286 190.54492 61.826172 C 189.8463 61.476861 189.42119 60.928211 189.27148 60.179688 C 189.17168 59.381262 189.17168 58.508677 189.27148 57.560547 C 189.37129 56.562515 189.47051 55.538168 189.57031 54.490234 C 189.72002 53.442301 189.74629 52.494811 189.64648 51.646484 C 189.54668 50.798157 189.22079 50.099699 188.67188 49.550781 C 188.12296 49.001864 187.22606 48.726562 185.97852 48.726562 C 185.22999 48.776464 184.35545 49.325114 183.35742 50.373047 C 182.40929 51.42098 181.41121 52.718676 180.36328 54.265625 C 179.36525 55.812574 178.36717 57.460476 177.36914 59.207031 C 176.42101 60.953587 175.57274 62.524631 174.82422 63.921875 L 174.82422 63.773438 C 174.87412 63.623733 174.94902 63.324114 175.04883 62.875 C 175.14863 62.375984 175.27412 61.626938 175.42383 60.628906 C 175.62343 59.580973 175.89874 58.157785 176.24805 56.361328 C 177.59539 54.964084 179.09153 53.192643 180.73828 51.046875 C 182.43494 48.901107 184.10715 46.581017 185.75391 44.085938 C 187.45056 41.590858 189.04787 39.021737 190.54492 36.376953 C 192.04197 33.682267 193.31339 31.137464 194.36133 28.742188 C 194.86034 27.544549 195.38468 25.971553 195.93359 24.025391 C 196.53241 22.029327 196.83203 20.08376 196.83203 18.1875 C 196.83203 16.440944 196.45751 14.99344 195.70898 13.845703 C 194.96046 12.697967 193.58786 12.074413 191.5918 11.974609 z M 617.18164 12.048828 C 615.13568 12.048828 612.98971 12.773557 610.74414 14.220703 C 608.54847 15.667849 606.45309 17.83813 604.45703 20.732422 C 602.46097 23.576812 600.63894 27.119693 598.99219 31.361328 C 597.34544 35.602963 596.04774 40.518444 595.09961 46.107422 C 594.9499 46.955749 594.82637 47.903239 594.72656 48.951172 C 594.67666 49.999105 594.62607 50.948548 594.57617 51.796875 L 593.82812 51.347656 L 593.67773 51.347656 C 592.43019 51.098148 591.18309 51.173053 589.93555 51.572266 C 588.73791 51.921577 587.56571 52.51886 586.41797 53.367188 C 585.98724 53.680445 585.57578 54.033493 585.17578 54.408203 C 584.95696 54.5441 584.73835 54.720636 584.51953 54.939453 C 584.02052 55.488371 583.37264 56.186829 582.57422 57.035156 C 581.82569 57.883483 580.97743 58.782339 580.0293 59.730469 C 579.08117 60.678599 578.08309 61.652359 577.03516 62.650391 C 575.98722 63.598521 574.93856 64.471106 573.89062 65.269531 C 572.84269 66.018055 571.84461 66.641609 570.89648 67.140625 C 569.94835 67.589739 569.10009 67.790136 568.35156 67.740234 C 567.75274 67.740234 567.4794 67.365711 567.5293 66.617188 C 567.5792 65.868664 567.77764 64.996079 568.12695 63.998047 C 568.47626 62.950114 568.8751 61.952036 569.32422 61.003906 C 569.82323 60.005874 570.19776 59.281146 570.44727 58.832031 C 570.74668 58.283114 570.97139 57.734464 571.12109 57.185547 C 571.3207 56.586728 571.42188 56.088666 571.42188 55.689453 C 571.42188 54.691421 571.09599 53.942375 570.44727 53.443359 C 569.84845 52.944343 569.10135 52.695312 568.20312 52.695312 C 567.05539 52.695313 565.88123 53.169057 564.68359 54.117188 C 564.64806 54.143841 564.62077 54.175989 564.58594 54.203125 C 564.53376 54.241324 564.47948 54.294869 564.42578 54.34375 C 563.51575 55.098314 562.86562 56.031305 562.46875 57.138672 C 562.22606 57.506491 562.10953 57.692143 561.79883 58.158203 C 561.0503 59.355841 560.17772 60.704124 559.17969 62.201172 C 558.18166 63.648318 557.10867 65.144457 555.96094 66.691406 C 554.8132 68.188454 553.68963 69.561054 552.5918 70.808594 C 551.54386 72.056133 550.54579 73.054211 549.59766 73.802734 C 548.69943 74.501357 547.97665 74.776658 547.42773 74.626953 C 547.02852 74.477248 546.87871 73.952916 546.97852 73.054688 C 547.07832 72.106557 547.27676 70.982988 547.57617 69.685547 C 547.87558 68.338204 548.1752 66.941287 548.47461 65.494141 C 548.82392 64.046995 549 62.724982 549 61.527344 C 549 59.780788 548.64979 58.282696 547.95117 57.035156 C 547.25255 55.787617 546.00544 55.040524 544.20898 54.791016 C 544.6581 53.99259 545.15616 53.069418 545.70508 52.021484 C 546.3039 50.923649 546.7796 49.874985 547.12891 48.876953 C 547.52812 47.878921 547.75088 46.980066 547.80078 46.181641 C 547.85068 45.383215 547.60165 44.858883 547.05273 44.609375 C 546.0547 44.260064 545.05663 44.385556 544.05859 44.984375 C 543.11046 45.533292 542.2622 46.330973 541.51367 47.378906 C 540.76515 48.42684 540.16591 49.600996 539.7168 50.898438 C 539.26768 52.195879 539.04297 53.368082 539.04297 54.416016 C 539.04297 55.038654 539.13294 55.583729 539.30078 56.0625 C 538.76365 56.58975 538.12771 57.19824 537.33789 57.933594 C 535.89074 59.280937 534.24284 60.62922 532.39648 61.976562 C 530.60003 63.323905 528.70505 64.520426 526.70898 65.568359 C 524.76282 66.566391 522.99138 67.066406 521.39453 67.066406 C 520.64601 67.066406 520.07109 66.841692 519.67188 66.392578 C 519.27266 65.943464 518.97304 65.419132 518.77344 64.820312 C 518.62373 64.171592 518.54883 63.523721 518.54883 62.875 C 518.59873 62.226279 518.6999 61.67763 518.84961 61.228516 C 520.99538 61.577827 522.89036 61.476652 524.53711 60.927734 C 526.23376 60.378817 527.63068 59.581136 528.72852 58.533203 C 529.87625 57.48527 530.75079 56.313066 531.34961 55.015625 C 531.94843 53.668282 532.24805 52.394904 532.24805 51.197266 C 532.24805 49.899824 531.87352 48.776255 531.125 47.828125 C 530.37648 46.830093 529.20427 46.307714 527.60742 46.257812 C 525.31195 46.108108 523.24089 46.531265 521.39453 47.529297 C 519.59807 48.527329 518.05135 49.849341 516.75391 51.496094 C 515.50637 53.142846 514.55692 54.989191 513.9082 57.035156 C 513.20958 59.03122 512.86133 60.952469 512.86133 62.798828 C 512.86133 63.996466 513.01114 65.120035 513.31055 66.167969 C 513.60996 67.215902 514.05938 68.163392 514.6582 69.011719 C 515.25702 69.810144 516.00412 70.459968 516.90234 70.958984 C 517.80057 71.458 518.84924 71.707031 520.04688 71.707031 C 521.94314 71.756933 523.93929 71.283188 526.03516 70.285156 C 528.13102 69.237223 530.15149 67.963845 532.09766 66.466797 C 534.09372 64.969749 535.94006 63.372435 537.63672 61.675781 C 539.14061 60.21486 540.39919 58.932513 541.49609 57.767578 C 541.97228 57.858349 542.46453 57.95771 543.01172 58.083984 C 543.71034 58.183788 544.05859 58.333597 544.05859 58.533203 C 544.1584 59.281727 543.95995 60.403343 543.46094 61.900391 C 542.96192 63.397438 542.387 65.021023 541.73828 66.767578 C 541.03966 68.613937 540.4161 70.434012 539.86719 72.230469 C 539.31827 73.977024 539.09356 75.499434 539.19336 76.796875 C 539.34306 78.244021 539.8674 79.242098 540.76562 79.791016 C 541.66385 80.339933 542.68625 80.615234 543.83398 80.615234 C 544.53261 80.615234 545.18243 80.564647 545.78125 80.464844 C 546.42997 80.315139 547.02725 80.141013 547.57617 79.941406 C 548.72391 79.492292 549.92238 78.718929 551.16992 77.621094 C 552.46736 76.473357 553.71447 75.149391 554.91211 73.652344 C 556.15965 72.155296 557.33381 70.559935 558.43164 68.863281 C 559.53917 67.22607 560.54709 65.661875 561.46875 64.164062 C 561.47404 65.277867 561.57146 66.345866 561.76562 67.365234 C 561.96523 68.363266 562.31348 69.262121 562.8125 70.060547 C 563.26161 70.809071 563.86085 71.408308 564.60938 71.857422 C 565.4078 72.306536 566.40588 72.50498 567.60352 72.455078 C 569.20037 72.405177 570.822 71.856527 572.46875 70.808594 C 574.1654 69.76066 575.83762 68.462965 577.48438 66.916016 C 577.98693 66.443915 578.48135 65.953111 578.97461 65.453125 C 578.85009 66.112939 578.7832 66.752114 578.7832 67.365234 C 578.7832 68.562873 579.03223 69.635854 579.53125 70.583984 C 579.98036 71.482213 580.75373 72.057133 581.85156 72.306641 C 582.79969 72.556149 583.8464 72.406339 584.99414 71.857422 C 586.19178 71.258603 587.39025 70.458969 588.58789 69.460938 C 589.83543 68.462906 591.05822 67.34129 592.25586 66.09375 C 593.4535 64.84621 594.5508 63.647737 595.54883 62.5 C 596.29735 65.494095 597.49583 67.939677 599.14258 69.835938 C 600.83923 71.682296 602.8597 72.554881 605.20508 72.455078 C 607.10134 72.405177 608.972 71.80594 610.81836 70.658203 C 612.71462 69.460565 614.51233 68.063648 616.20898 66.466797 C 616.34362 66.34008 616.47076 66.209691 616.60352 66.082031 C 616.35529 67.446252 616.38477 68.65431 616.72852 69.685547 C 617.07783 70.533874 617.60216 71.183698 618.30078 71.632812 C 618.9495 72.081927 619.67228 72.306641 620.4707 72.306641 C 620.86992 72.306641 621.36993 72.205466 621.96875 72.005859 C 622.61747 71.806253 623.21671 71.557222 623.76562 71.257812 C 624.66385 70.758797 625.63566 70.036021 626.68359 69.087891 C 627.78143 68.13976 628.88068 67.115413 629.97852 66.017578 C 631.12625 64.869842 632.22355 63.697638 633.27148 62.5 C 634.31942 61.25246 635.26691 60.104574 636.11523 59.056641 C 636.26494 59.904968 636.46534 60.753235 636.71484 61.601562 C 637.01425 62.44989 637.41309 63.223253 637.91211 63.921875 C 638.41113 64.570596 639.03468 65.145515 639.7832 65.644531 C 640.53173 66.093646 641.4549 66.342677 642.55273 66.392578 C 643.75037 66.44248 644.94885 66.242083 646.14648 65.792969 C 647.34412 65.293953 648.54064 64.621765 649.73828 63.773438 C 650.98582 62.875209 652.20861 61.877132 653.40625 60.779297 C 654.65379 59.63156 655.87658 58.433087 657.07422 57.185547 C 657.57323 56.686531 657.84854 56.188469 657.89844 55.689453 C 657.99824 55.190437 657.94765 54.789644 657.74805 54.490234 C 657.59834 54.190825 657.29872 54.041016 656.84961 54.041016 C 656.4504 53.991114 656.00097 54.215828 655.50195 54.714844 C 652.65756 57.509333 650.16335 59.531757 648.01758 60.779297 C 645.92171 61.976935 644.37498 62.325188 643.37695 61.826172 C 642.72823 61.526762 642.37803 60.978113 642.32812 60.179688 C 642.32812 59.33136 642.3544 58.458775 642.4043 57.560547 C 642.5041 56.612417 642.52842 55.713561 642.47852 54.865234 C 642.42861 54.016907 642.07841 53.41767 641.42969 53.068359 C 642.87683 52.269934 643.60156 51.097731 643.60156 49.550781 C 643.60156 48.702454 643.32626 47.904774 642.77734 47.15625 C 642.22843 46.407726 641.32957 45.883394 640.08203 45.583984 C 639.33351 45.43428 638.56014 45.359375 637.76172 45.359375 C 635.96526 45.359375 634.14519 45.808803 632.29883 46.707031 C 630.45247 47.555358 628.68103 48.676974 626.98438 50.074219 C 625.50098 51.295839 624.11884 52.680247 622.82617 54.207031 C 622.46672 54.350699 622.1075 54.616238 621.74805 55.015625 C 620.99952 55.81405 619.97518 56.935666 618.67773 58.382812 C 617.43019 59.829959 616.05955 61.253146 614.5625 62.650391 C 613.06545 64.047635 611.56736 65.270426 610.07031 66.318359 C 608.57326 67.316391 607.25125 67.790136 606.10352 67.740234 C 605.20529 67.690333 604.45624 67.216588 603.85742 66.318359 C 603.2586 65.370229 602.78486 64.297248 602.43555 63.099609 C 602.13614 61.901971 601.93574 60.703498 601.83594 59.505859 C 601.78604 58.308221 601.81231 57.409366 601.91211 56.810547 C 603.15965 55.463204 604.55657 53.792939 606.10352 51.796875 C 607.65046 49.75091 609.19719 47.554359 610.74414 45.208984 C 612.34099 42.813708 613.8634 40.319492 615.31055 37.724609 C 616.80759 35.129727 618.10529 32.60924 619.20312 30.164062 C 620.35086 27.668983 621.24776 25.322623 621.89648 23.126953 C 622.54521 20.881382 622.82051 18.960132 622.7207 17.363281 L 622.7207 16.839844 C 622.7207 16.540434 622.69639 16.31572 622.64648 16.166016 L 622.57031 15.867188 C 622.1711 14.469943 621.44832 13.471866 620.40039 12.873047 C 619.40236 12.274228 618.32938 11.998927 617.18164 12.048828 z M 68.658203 13.697266 C 68.854691 13.68479 69.057449 13.68479 69.269531 13.697266 C 70.517071 13.747167 71.590053 14.320134 72.488281 15.417969 C 73.436411 16.515804 74.209775 18.011943 74.808594 19.908203 C 75.407413 21.804464 75.832523 24.051602 76.082031 26.646484 C 76.381441 29.241367 76.53125 32.059519 76.53125 35.103516 C 76.53125 39.544757 76.231632 44.286111 75.632812 49.326172 C 75.033993 54.366232 74.161408 59.330347 73.013672 64.220703 C 71.915837 69.061157 70.543237 73.628385 68.896484 77.919922 C 67.299634 82.211459 65.501923 85.829244 63.505859 88.773438 L 62.533203 88.324219 C 61.18586 87.825203 60.214053 87.699711 59.615234 87.949219 C 59.066317 88.198727 58.791016 88.59952 58.791016 89.148438 C 58.791016 89.54765 59.015729 89.995125 59.464844 90.494141 C 59.96386 90.993157 60.587414 91.36768 61.335938 91.617188 C 60.138299 92.914629 58.840604 93.98761 57.443359 94.835938 C 56.096016 95.734166 54.54929 96.183594 52.802734 96.183594 C 50.607064 96.183594 48.736402 95.509452 47.189453 94.162109 C 45.642504 92.814766 44.344808 90.968422 43.296875 88.623047 C 42.298843 86.277672 41.549797 83.558742 41.050781 80.464844 C 40.601667 77.321044 40.376953 73.976607 40.376953 70.433594 C 40.376953 65.992352 40.751476 61.40276 41.5 56.662109 C 42.248524 51.871557 43.321506 47.280012 44.71875 42.888672 C 46.165896 38.497332 47.886749 34.505024 49.882812 30.912109 C 51.928778 27.269293 54.25082 24.374284 56.845703 22.228516 C 56.496392 23.076843 56.221091 23.825889 56.021484 24.474609 C 55.87178 25.073428 55.622749 25.996601 55.273438 27.244141 C 54.874225 28.741188 54.79932 29.889075 55.048828 30.6875 C 55.348238 31.436024 55.771395 31.810547 56.320312 31.810547 C 56.86923 31.810547 57.44415 31.411707 58.042969 30.613281 C 58.691689 29.764954 59.290926 28.491576 59.839844 26.794922 C 60.33886 25.198071 60.812604 23.726249 61.261719 22.378906 C 61.760735 21.031563 62.258797 19.934265 62.757812 19.085938 C 63.656041 18.83643 64.729023 18.83643 65.976562 19.085938 C 66.82489 19.185741 67.448444 19.086519 67.847656 18.787109 C 68.296771 18.437798 68.521484 18.037005 68.521484 17.587891 C 68.521484 16.789465 68.146961 16.267086 67.398438 16.017578 C 66.649914 15.718169 65.977725 15.568359 65.378906 15.568359 C 65.927824 14.919639 66.50079 14.443941 67.099609 14.144531 C 67.548724 13.882548 68.068741 13.734692 68.658203 13.697266 z M 190.78516 16.234375 C 190.88028 16.226578 190.97479 16.229712 191.06836 16.242188 C 191.66718 16.341991 192.06602 16.615339 192.26562 17.064453 C 192.51513 17.463666 192.64062 18.012315 192.64062 18.710938 C 192.64062 20.557296 192.34101 22.478546 191.74219 24.474609 C 191.19327 26.470673 190.44422 28.491144 189.49609 30.537109 C 188.59787 32.533173 187.57547 34.50501 186.42773 36.451172 C 185.28 38.347432 184.15643 40.14319 183.05859 41.839844 C 181.96076 43.486596 180.91209 44.984688 179.91406 46.332031 C 178.96593 47.679374 178.19257 48.776673 177.59375 49.625 C 177.94306 48.028149 178.41876 46.082582 179.01758 43.787109 C 179.6663 41.491636 180.36476 39.096642 181.11328 36.601562 C 181.86181 34.106483 182.65949 31.636584 183.50781 29.191406 C 184.35614 26.696327 185.20441 24.499776 186.05273 22.603516 C 186.95096 20.657354 187.82355 19.08631 188.67188 17.888672 C 189.41416 16.840739 190.11928 16.288955 190.78516 16.234375 z M 616.80664 16.242188 C 617.20585 16.242188 617.55606 16.390044 617.85547 16.689453 C 618.15488 16.988863 618.35332 17.413973 618.45312 17.962891 C 618.55293 18.2623 618.55293 18.537601 618.45312 18.787109 C 618.35332 20.68337 617.78036 23.027777 616.73242 25.822266 C 615.73439 28.566853 614.46101 31.461862 612.91406 34.505859 C 611.36711 37.499955 609.64626 40.467916 607.75 43.412109 C 605.90364 46.356303 604.10788 48.927377 602.36133 51.123047 C 603.01005 46.432297 603.95754 41.765848 605.20508 37.125 C 606.50252 32.434251 608.19906 27.968198 610.29492 23.726562 L 610.36914 23.726562 C 611.06776 22.279416 611.81681 20.931133 612.61523 19.683594 C 613.41366 18.436054 614.18702 17.512882 614.93555 16.914062 C 615.18505 16.764358 615.48467 16.616502 615.83398 16.466797 C 616.2332 16.317092 616.55713 16.242188 616.80664 16.242188 z M 674.33008 25.285156 C 671.82038 25.285156 669.38303 25.626345 667.01953 26.308594 C 664.68039 26.990842 662.36658 28.0252 660.07617 29.414062 L 660.07617 36.285156 C 662.43967 34.652634 664.70447 33.411404 666.87305 32.558594 C 669.06599 31.705783 671.12587 31.279297 673.05078 31.279297 C 675.68231 31.279297 677.78926 31.948932 679.37305 33.289062 C 680.9812 34.629193 681.78516 36.382206 681.78516 38.550781 C 681.78516 39.744716 681.46945 40.915344 680.83594 42.060547 C 680.22679 43.205749 679.22675 44.423445 677.83789 45.714844 L 674.54883 48.96875 C 672.35589 51.064227 670.91858 52.902537 670.23633 54.486328 C 669.55408 56.070119 669.21289 58.09372 669.21289 60.554688 L 669.21289 66.183594 L 676.19336 66.183594 L 676.19336 61.6875 C 676.19336 60.420467 676.22964 59.420433 676.30273 58.689453 C 676.37583 57.958473 676.48662 57.337858 676.63281 56.826172 C 676.82774 56.217022 677.15619 55.596407 677.61914 54.962891 C 678.10646 54.305008 678.92316 53.403015 680.06836 52.257812 L 683.2832 49.115234 C 685.47614 47.019757 687.0115 45.143217 687.88867 43.486328 C 688.76585 41.805073 689.20508 40.037364 689.20508 38.185547 C 689.20508 34.311351 687.84032 31.193581 685.11133 28.830078 C 682.4067 26.466575 678.81342 25.285156 674.33008 25.285156 z M 142.33789 28.8125 C 142.18507 28.803143 142.02741 28.803931 141.86523 28.816406 C 141.26642 28.816406 140.66718 29.065437 140.06836 29.564453 L 140.14453 29.564453 C 139.74532 29.813961 139.29589 30.188484 138.79688 30.6875 C 138.29786 31.186516 137.79784 31.710848 137.29883 32.259766 L 136.02734 33.607422 C 135.47843 34.106438 135.25371 34.804896 135.35352 35.703125 C 135.50322 36.551452 135.80284 37.349132 136.25195 38.097656 C 136.75097 38.84618 137.35021 39.39483 138.04883 39.744141 C 138.74745 40.093452 139.39532 39.99423 139.99414 39.445312 C 140.14385 39.345509 140.39288 39.096478 140.74219 38.697266 C 141.1414 38.248151 141.56651 37.798724 142.01562 37.349609 C 142.46474 36.850593 142.8879 36.376849 143.28711 35.927734 C 143.68632 35.47862 143.93731 35.179002 144.03711 35.029297 C 144.83553 33.981364 145.23438 33.033874 145.23438 32.185547 C 145.23438 31.536826 145.08457 30.937589 144.78516 30.388672 C 144.48575 29.839754 144.08691 29.440914 143.58789 29.191406 C 143.21363 28.966849 142.79636 28.84057 142.33789 28.8125 z M 531.07422 28.8125 C 530.9214 28.803143 530.76374 28.803931 530.60156 28.816406 C 530.00274 28.816406 529.40351 29.065437 528.80469 29.564453 L 528.87891 29.564453 C 528.47969 29.813961 528.03027 30.188484 527.53125 30.6875 C 527.03223 31.186516 526.53417 31.710848 526.03516 32.259766 L 524.76172 33.607422 C 524.2128 34.106438 523.98809 34.804896 524.08789 35.703125 C 524.2376 36.551452 524.53721 37.349132 524.98633 38.097656 C 525.48534 38.84618 526.08458 39.39483 526.7832 39.744141 C 527.48183 40.093452 528.1297 39.99423 528.72852 39.445312 C 528.87822 39.345509 529.1292 39.096478 529.47852 38.697266 C 529.87773 38.248151 530.30089 37.798724 530.75 37.349609 C 531.19911 36.850593 531.62422 36.376849 532.02344 35.927734 C 532.42265 35.47862 532.67168 35.179002 532.77148 35.029297 C 533.56991 33.981364 533.96875 33.033874 533.96875 32.185547 C 533.96875 31.536826 533.81894 30.937589 533.51953 30.388672 C 533.22012 29.839754 532.82128 29.440914 532.32227 29.191406 C 531.948 28.966849 531.53269 28.84057 531.07422 28.8125 z M 570.44727 35.927734 C 569.69874 36.027538 569.07519 36.351473 568.57617 36.900391 C 568.07716 37.399407 567.62773 38.022961 567.22852 38.771484 C 566.8792 39.520008 566.55527 40.343959 566.25586 41.242188 C 566.00635 42.140416 565.78164 42.988684 565.58203 43.787109 C 565.18282 44.835043 565.20909 45.658993 565.6582 46.257812 C 566.15722 46.80673 566.82941 47.080078 567.67773 47.080078 C 568.47616 47.080078 569.27579 46.881635 570.07422 46.482422 C 570.87264 46.083209 571.42129 45.583194 571.7207 44.984375 C 572.07001 44.435458 572.36963 43.637777 572.61914 42.589844 C 572.86865 41.54191 572.99219 40.517563 572.99219 39.519531 C 572.99219 38.621303 572.79374 37.823622 572.39453 37.125 C 571.99532 36.376476 571.34549 35.977636 570.44727 35.927734 z M 12.828125 39.904297 L 12.828125 49.1875 L 20.210938 49.1875 L 20.210938 39.904297 L 12.828125 39.904297 z M 101.16211 45.732422 C 100.16408 45.732422 99.141683 46.082628 98.09375 46.78125 C 97.095718 47.479872 96.322355 48.453632 95.773438 49.701172 C 95.573831 50.250089 95.322847 51.098357 95.023438 52.246094 C 94.724028 53.39383 94.426363 54.715843 94.126953 56.212891 C 93.827544 57.709938 93.576559 59.280982 93.376953 60.927734 C 93.177347 62.524585 93.078125 64.022677 93.078125 65.419922 C 93.078125 66.417954 93.15303 67.365443 93.302734 68.263672 C 93.402538 69.111999 93.602934 69.861045 93.902344 70.509766 C 94.201753 71.158486 94.600593 71.656548 95.099609 72.005859 C 95.598625 72.35517 96.222179 72.50498 96.970703 72.455078 C 97.868932 72.455078 98.792104 72.106825 99.740234 71.408203 C 100.68836 70.659679 101.61154 69.760824 102.50977 68.712891 C 103.40799 67.615056 104.25626 66.442852 105.05469 65.195312 C 105.90301 63.947773 106.65206 62.773616 107.30078 61.675781 C 107.69999 62.973223 108.34787 64.072475 109.24609 64.970703 C 110.19422 65.81903 111.54251 66.292775 113.28906 66.392578 C 114.4867 66.44248 115.68322 66.242083 116.88086 65.792969 C 118.0785 65.293953 119.27697 64.621765 120.47461 63.773438 C 121.72215 62.875209 122.94494 61.877132 124.14258 60.779297 C 124.19453 60.7315 124.24501 60.680783 124.29688 60.632812 C 124.19354 61.365059 124.125 62.088725 124.125 62.798828 C 124.125 63.996466 124.27481 65.120035 124.57422 66.167969 C 124.87363 67.215902 125.32306 68.163392 125.92188 69.011719 C 126.52069 69.810144 127.26974 70.459968 128.16797 70.958984 C 129.0662 71.458 130.11291 71.707031 131.31055 71.707031 C 133.20681 71.756933 135.20296 71.283188 137.29883 70.285156 C 139.39469 69.237223 141.41712 67.963845 143.36328 66.466797 C 145.35934 64.969749 147.20569 63.372435 148.90234 61.675781 C 150.6489 59.979127 152.12072 58.482988 153.31836 57.185547 C 153.81738 56.586728 154.11699 56.038078 154.2168 55.539062 C 154.3166 55.040047 154.2417 54.665524 153.99219 54.416016 C 153.79258 54.116606 153.46669 53.991114 153.01758 54.041016 C 152.61837 54.090917 152.17089 54.390536 151.67188 54.939453 C 151.07306 55.588174 150.04871 56.586251 148.60156 57.933594 C 147.15442 59.280937 145.50847 60.62922 143.66211 61.976562 C 141.86565 63.323905 139.96872 64.520426 137.97266 65.568359 C 136.02649 66.566391 134.25505 67.066406 132.6582 67.066406 C 131.90968 67.066406 131.33671 66.841692 130.9375 66.392578 C 130.53829 65.943464 130.23867 65.419132 130.03906 64.820312 C 129.88936 64.171592 129.81445 63.523721 129.81445 62.875 C 129.86435 62.226279 129.96358 61.67763 130.11328 61.228516 C 132.25905 61.577827 134.15598 61.476652 135.80273 60.927734 C 137.49939 60.378817 138.89631 59.581136 139.99414 58.533203 C 141.14188 57.48527 142.01446 56.313066 142.61328 55.015625 C 143.2121 53.668282 143.51172 52.394904 143.51172 51.197266 C 143.51172 49.899824 143.1372 48.776255 142.38867 47.828125 C 141.64015 46.830093 140.46794 46.307714 138.87109 46.257812 C 136.57562 46.108108 134.50456 46.531265 132.6582 47.529297 C 130.86175 48.527329 129.31502 49.849341 128.01758 51.496094 C 127.21096 52.560836 126.54457 53.719538 125.98828 54.951172 C 123.25224 57.612392 120.86039 59.516002 118.82812 60.628906 C 116.73226 61.726741 115.15926 62.125581 114.11133 61.826172 C 113.3129 61.576664 112.83916 61.028015 112.68945 60.179688 C 112.58965 59.281459 112.51475 58.358286 112.46484 57.410156 C 112.41494 56.462026 112.24082 55.613758 111.94141 54.865234 C 111.642 54.116711 110.91727 53.742188 109.76953 53.742188 C 109.07091 53.742188 108.42304 54.066123 107.82422 54.714844 C 107.2753 55.313663 106.87646 55.888583 106.62695 56.4375 C 106.22774 57.285827 105.60419 58.407443 104.75586 59.804688 C 103.90753 61.15203 103.00868 62.475996 102.06055 63.773438 C 101.11242 65.070879 100.21356 66.168178 99.365234 67.066406 C 98.566809 67.914733 97.993842 68.262986 97.644531 68.113281 C 97.395023 68.013478 97.41934 67.416194 97.71875 66.318359 C 98.01816 65.220524 98.491904 63.847924 99.140625 62.201172 C 99.839247 60.504518 100.63888 58.631903 101.53711 56.585938 L 104.23047 50.298828 C 104.67958 48.901584 104.55604 47.804285 103.85742 47.005859 C 103.2087 46.157532 102.30985 45.732422 101.16211 45.732422 z M 340.21094 46.228516 C 338.25152 46.223058 336.46322 46.656019 334.84766 47.529297 C 333.0512 48.527329 331.50447 49.849341 330.20703 51.496094 C 328.95949 53.142846 328.012 54.989191 327.36328 57.035156 C 326.66466 59.03122 326.31445 60.952469 326.31445 62.798828 C 326.31445 63.996466 326.46426 65.120035 326.76367 66.167969 C 327.06308 67.215902 327.51251 68.163392 328.11133 69.011719 C 328.71015 69.810144 329.45919 70.459968 330.35742 70.958984 C 331.25565 71.458 332.30236 71.707031 333.5 71.707031 C 335.39626 71.756933 337.39241 71.283188 339.48828 70.285156 C 341.58415 69.237223 343.60462 67.963845 345.55078 66.466797 C 347.54684 64.969749 349.39319 63.372435 351.08984 61.675781 C 352.24395 60.554649 353.23401 59.554241 354.14844 58.607422 C 354.14717 58.635257 354.1458 58.653724 354.14453 58.681641 C 354.04473 60.827409 353.99414 62.849833 353.99414 64.746094 C 353.99414 66.243141 354.04473 67.589471 354.14453 68.787109 C 354.24433 69.934846 354.44473 70.708209 354.74414 71.107422 C 355.24316 71.806044 355.76554 72.180567 356.31445 72.230469 C 356.86337 72.28037 357.36339 72.181149 357.8125 71.931641 C 358.26161 71.682133 358.66045 71.331927 359.00977 70.882812 C 359.35908 70.433698 359.60811 70.034858 359.75781 69.685547 C 360.00732 69.136629 360.48107 68.213457 361.17969 66.916016 C 361.87831 65.568673 362.60304 64.196073 363.35156 62.798828 C 364.14999 61.401584 364.89903 60.178793 365.59766 59.130859 C 366.29628 58.033024 366.79434 57.435741 367.09375 57.335938 C 367.24345 58.234166 367.41758 59.181656 367.61719 60.179688 C 367.81679 61.177719 368.14268 62.125209 368.5918 63.023438 C 369.04091 63.921666 369.68878 64.695029 370.53711 65.34375 C 371.38544 65.942569 372.53332 66.292775 373.98047 66.392578 C 375.17811 66.44248 376.37658 66.242083 377.57422 65.792969 C 378.77186 65.293953 379.96838 64.621765 381.16602 63.773438 C 382.41356 62.875209 383.63635 61.877132 384.83398 60.779297 C 386.08152 59.63156 387.30431 58.433087 388.50195 57.185547 C 389.00097 56.686531 389.27432 56.188469 389.32422 55.689453 C 389.42402 55.190437 389.37539 54.789644 389.17578 54.490234 C 389.02608 54.190825 388.72646 54.041016 388.27734 54.041016 C 387.87813 53.991114 387.4287 54.215828 386.92969 54.714844 C 384.0853 57.509333 381.56481 59.556074 379.36914 60.853516 C 377.22337 62.101055 375.70292 62.424991 374.80469 61.826172 C 374.00626 61.327156 373.50625 60.60438 373.30664 59.65625 C 373.10703 58.658218 372.90664 57.684458 372.70703 56.736328 C 372.55733 55.738296 372.23339 54.865711 371.73438 54.117188 C 371.23536 53.318762 370.28787 52.869334 368.89062 52.769531 C 367.79279 52.769531 366.81903 53.042879 365.9707 53.591797 C 365.12238 54.140714 364.34901 54.814856 363.65039 55.613281 C 363.00167 56.411707 362.4287 57.235657 361.92969 58.083984 C 361.48057 58.88241 361.10605 59.580868 360.80664 60.179688 C 361.05615 59.381262 361.23027 58.733391 361.33008 58.234375 C 361.47978 57.685458 361.60527 57.161125 361.70508 56.662109 C 361.85478 56.163093 361.97832 55.638761 362.07812 55.089844 C 362.17793 54.540926 362.32774 53.842468 362.52734 52.994141 C 362.72695 52.34542 362.82812 51.596374 362.82812 50.748047 C 362.82813 49.400704 362.50224 48.402627 361.85352 47.753906 C 361.2547 47.055284 360.5076 46.707031 359.60938 46.707031 C 358.56144 46.707031 357.48846 47.205093 356.39062 48.203125 C 355.34269 49.201157 354.69287 50.699249 354.44336 52.695312 L 354.44336 52.84375 C 354.41558 53.316032 354.38716 53.957802 354.35938 54.46875 C 354.19812 54.59919 354.03266 54.748839 353.85938 54.939453 C 353.26056 55.588174 352.23816 56.586251 350.79102 57.933594 C 349.34387 59.280937 347.69792 60.62922 345.85156 61.976562 C 344.05511 63.323905 342.15817 64.520426 340.16211 65.568359 C 338.21595 66.566391 336.44451 67.066406 334.84766 67.066406 C 334.09913 67.066406 333.52617 66.841692 333.12695 66.392578 C 332.72774 65.943464 332.42812 65.419132 332.22852 64.820312 C 332.07881 64.171592 332.00391 63.523721 332.00391 62.875 C 332.05381 62.226279 332.15303 61.67763 332.30273 61.228516 C 334.4485 61.577827 336.34544 61.476652 337.99219 60.927734 C 339.68884 60.378817 341.08576 59.581136 342.18359 58.533203 C 343.33133 57.48527 344.20392 56.313066 344.80273 55.015625 C 345.40155 53.668282 345.70117 52.394904 345.70117 51.197266 C 345.70117 49.899824 345.32665 48.776255 344.57812 47.828125 C 343.8296 46.830093 342.6574 46.307714 341.06055 46.257812 C 340.77361 46.239099 340.49085 46.229295 340.21094 46.228516 z M 214.37305 53.005859 C 214.9859 53.010538 215.59063 53.105838 216.18945 53.292969 L 216.26562 53.292969 C 216.31553 53.34287 216.39043 53.367188 216.49023 53.367188 C 216.19082 53.666597 215.51668 54.415643 214.46875 55.613281 C 213.47072 56.761018 212.27224 58.08303 210.875 59.580078 C 209.47776 61.077126 207.9573 62.599535 206.31055 64.146484 C 204.7137 65.643532 203.19129 66.842006 201.74414 67.740234 C 200.89581 68.289152 200.42207 68.364056 200.32227 67.964844 C 200.22246 67.565631 200.2711 67.041299 200.4707 66.392578 L 200.4707 66.466797 C 200.91982 65.169356 201.69318 63.673217 202.79102 61.976562 C 203.88885 60.230007 205.16223 58.632693 206.60938 57.185547 C 208.05652 55.688499 209.60325 54.540613 211.25 53.742188 C 212.31041 53.243172 213.35162 52.998062 214.37305 53.005859 z M 635.27148 53.005859 C 635.88434 53.010538 636.48907 53.105838 637.08789 53.292969 L 637.16406 53.292969 C 637.21396 53.34287 637.28887 53.367188 637.38867 53.367188 C 637.08926 53.666597 636.41512 54.415643 635.36719 55.613281 C 634.36916 56.761018 633.17068 58.08303 631.77344 59.580078 C 630.37619 61.077126 628.85574 62.599535 627.20898 64.146484 C 625.61213 65.643532 624.08972 66.842006 622.64258 67.740234 C 621.79425 68.289152 621.32051 68.364056 621.2207 67.964844 C 621.1209 67.565631 621.16953 67.041299 621.36914 66.392578 L 621.36914 66.466797 C 621.81825 65.169356 622.59162 63.673217 623.68945 61.976562 C 624.78729 60.230007 626.06067 58.632693 627.50781 57.185547 C 628.95496 55.688499 630.50169 54.540613 632.14844 53.742188 C 633.20885 53.243172 634.25006 52.998062 635.27148 53.005859 z M 137.59961 53.443359 C 138.24833 53.493261 138.57227 53.742292 138.57227 54.191406 C 138.57227 54.640521 138.39814 55.140536 138.04883 55.689453 C 137.69952 56.188469 137.22382 56.662214 136.625 57.111328 C 136.02618 57.510541 135.27909 57.810159 134.38086 58.009766 C 133.53253 58.209372 132.58309 58.209372 131.53516 58.009766 C 132.23378 56.762226 133.10832 55.662974 134.15625 54.714844 C 135.25408 53.766714 136.40197 53.343556 137.59961 53.443359 z M 270.7832 53.443359 C 271.43192 53.493261 271.75586 53.742292 271.75586 54.191406 C 271.75586 54.640521 271.58173 55.140536 271.23242 55.689453 C 270.88311 56.188469 270.40937 56.662214 269.81055 57.111328 C 269.21173 57.510541 268.46268 57.810159 267.56445 58.009766 C 266.71613 58.209372 265.76864 58.209372 264.7207 58.009766 C 265.41933 56.762226 266.29191 55.662974 267.33984 54.714844 C 268.43768 53.766714 269.58556 53.343556 270.7832 53.443359 z M 339.78711 53.443359 C 340.43583 53.493261 340.76172 53.742292 340.76172 54.191406 C 340.76172 54.640521 340.58564 55.140536 340.23633 55.689453 C 339.88702 56.188469 339.41327 56.662214 338.81445 57.111328 C 338.21563 57.510541 337.46854 57.810159 336.57031 58.009766 C 335.72199 58.209372 334.77254 58.209372 333.72461 58.009766 C 334.42323 56.762226 335.29777 55.662974 336.3457 54.714844 C 337.44354 53.766714 338.58947 53.343556 339.78711 53.443359 z M 526.33398 53.443359 C 526.98271 53.493261 527.30664 53.742292 527.30664 54.191406 C 527.30664 54.640521 527.13251 55.140536 526.7832 55.689453 C 526.43389 56.188469 525.96015 56.662214 525.36133 57.111328 C 524.76251 57.510541 524.01346 57.810159 523.11523 58.009766 C 522.26691 58.209372 521.31942 58.209372 520.27148 58.009766 C 520.97011 56.762226 521.84269 55.662974 522.89062 54.714844 C 523.98846 53.766714 525.13635 53.343556 526.33398 53.443359 z M 13.048828 54.560547 L 13.048828 59.056641 C 13.048828 60.372405 13.010598 61.39402 12.9375 62.125 C 12.864402 62.85598 12.742828 63.478548 12.572266 63.990234 C 12.377338 64.599385 12.048892 65.232743 11.585938 65.890625 C 11.122983 66.524141 10.306287 67.413391 9.1367188 68.558594 L 5.921875 71.701172 C 3.7533001 73.796649 2.2179486 75.685933 1.3164062 77.367188 C 0.43922988 79.024076 0 80.777089 0 82.628906 C 0 86.503102 1.3647568 89.622825 4.09375 91.986328 C 6.8227432 94.349831 10.428763 95.53125 14.912109 95.53125 C 17.421808 95.53125 19.84641 95.190061 22.185547 94.507812 C 24.524684 93.825564 26.838501 92.791206 29.128906 91.402344 L 29.128906 84.53125 C 26.789769 86.163773 24.524972 87.405002 22.332031 88.257812 C 20.13909 89.110623 18.091955 89.537109 16.191406 89.537109 C 13.535511 89.537109 11.403079 88.867474 9.7949219 87.527344 C 8.2111312 86.187213 7.4199219 84.432247 7.4199219 82.263672 C 7.4199219 81.069737 7.7248341 79.901062 8.3339844 78.755859 C 8.9675006 77.610657 9.9891151 76.392961 11.402344 75.101562 L 14.693359 71.884766 C 16.8863 69.764923 18.310868 67.911916 18.96875 66.328125 C 19.650998 64.744334 19.992188 62.722686 19.992188 60.261719 L 19.992188 54.560547 L 13.048828 54.560547 z M 594.57617 55.314453 L 594.57617 57.111328 C 594.62607 57.710147 594.70098 58.232526 594.80078 58.681641 C 593.85265 59.679672 592.80399 60.752654 591.65625 61.900391 C 590.55842 63.048127 589.48543 64.121109 588.4375 65.119141 C 587.38957 66.067271 586.46639 66.866904 585.66797 67.515625 C 584.86954 68.114444 584.32089 68.363475 584.02148 68.263672 C 583.62227 68.163869 583.47246 67.813663 583.57227 67.214844 C 583.62217 66.616025 583.82256 65.893249 584.17188 65.044922 C 584.57109 64.146693 585.09542 63.199204 585.74414 62.201172 C 586.44276 61.20314 587.18986 60.253697 587.98828 59.355469 C 588.83661 58.45724 589.68488 57.683877 590.5332 57.035156 C 591.43143 56.336534 592.30597 55.889059 593.1543 55.689453 C 593.80302 55.58965 594.27676 55.464158 594.57617 55.314453 z M 668.99219 71.554688 L 668.99219 80.839844 L 676.41211 80.839844 L 676.41211 71.554688 L 668.99219 71.554688 z "
       style="font-style:normal;font-variant:normal;font-weight:normal;font-stretch:normal;font-size:19.80469322px;line-height:1.25;font-family:'valentine vibes';-inkscape-font-specification:'valentine vibes';letter-spacing:0px;word-spacing:0px;fill:#0d002f;fill-opacity:1;stroke:none;stroke-width:1.87130952" />
  </g>
</svg>
