<?xml version="1.0" encoding="UTF-8" standalone="no"?>
<svg
   xmlns:dc="http://purl.org/dc/elements/1.1/"
   xmlns:cc="http://creativecommons.org/ns#"
   xmlns:rdf="http://www.w3.org/1999/02/22-rdf-syntax-ns#"
   xmlns:svg="http://www.w3.org/2000/svg"
   xmlns="http://www.w3.org/2000/svg"
   id="svg8"
   version="1.1"
   viewBox="0 0 71.855773 36.000001"
   height="36mm"
   width="71.855774mm">
  <defs
     id="defs2" />
  <metadata
     id="metadata5">
    <rdf:RDF>
      <cc:Work
         rdf:about="">
        <dc:format>image/svg+xml</dc:format>
        <dc:type
           rdf:resource="http://purl.org/dc/dcmitype/StillImage" />
        <dc:title></dc:title>
      </cc:Work>
    </rdf:RDF>
  </metadata>
  <g
     transform="translate(8.0653186,-88.332666)"
     id="layer1">
    <path
       id="text3719"
       transform="matrix(0.26458333,0,0,0.26458333,-8.0653186,88.332666)"
       d="M 22.183594 21.496094 C 20.423776 21.496094 18.614285 21.924528 16.753906 22.779297 C 14.943808 23.583785 13.184146 24.689802 11.474609 26.097656 C 9.7650723 27.45523 8.1568526 29.039511 6.6484375 30.849609 C 5.1903029 32.609427 3.9328437 34.44481 2.8769531 36.355469 C 1.8210626 38.215847 1.0418675 40.075168 0.5390625 41.935547 C 0.036257478 43.795925 -0.11518451 45.479866 0.0859375 46.988281 C 0.33734001 48.144733 0.71399185 49.02554 1.2167969 49.628906 C 1.7698824 50.181992 2.3238676 50.458984 2.8769531 50.458984 C 3.2791971 50.458984 3.655849 50.307542 4.0078125 50.005859 C 4.4100565 49.704176 4.7129405 49.327525 4.9140625 48.875 C 5.1151845 48.372195 5.1889524 47.81821 5.1386719 47.214844 C 5.1386719 46.611478 4.9632916 46.007663 4.6113281 45.404297 L 4.6113281 45.480469 C 4.4102061 44.977664 4.3105469 44.39974 4.3105469 43.746094 C 4.3105469 42.086837 4.8386407 40.201625 5.8945312 38.089844 C 7.0007023 35.927782 8.3578208 33.891128 9.9667969 31.980469 C 11.626053 30.019529 13.409653 28.385418 15.320312 27.078125 C 17.230972 25.720551 19.016525 25.041016 20.675781 25.041016 C 21.429989 25.041016 21.983974 25.218349 22.335938 25.570312 C 22.687901 25.871996 22.913111 26.272586 23.013672 26.775391 C 23.164513 27.227915 23.190405 27.756009 23.089844 28.359375 C 23.039563 28.962741 22.963842 29.516726 22.863281 30.019531 C 21.70683 35.399545 20.373649 40.905693 18.865234 46.537109 C 17.356819 52.118245 15.92398 57.749944 14.566406 63.431641 C 13.208833 69.113337 12.052986 74.794866 11.097656 80.476562 C 10.192607 86.107979 9.7402344 91.638065 9.7402344 97.068359 C 9.7402344 99.280701 9.8916764 101.31736 10.193359 103.17773 C 10.495042 105.08839 10.947415 106.77233 11.550781 108.23047 C 12.204428 109.6886 13.007561 110.92017 13.962891 111.92578 C 14.91822 112.93139 16.050129 113.66076 17.357422 114.11328 L 17.28125 114.03906 C 17.633214 114.29047 18.011818 114.26457 18.414062 113.96289 C 18.866587 113.71149 19.217347 113.33484 19.46875 112.83203 C 19.770433 112.37951 19.947766 111.90124 19.998047 111.39844 C 20.048327 110.89563 19.870994 110.51898 19.46875 110.26758 C 18.161457 110.31786 17.507812 108.83324 17.507812 105.81641 C 17.507812 103.2521 17.886417 99.884219 18.640625 95.710938 C 19.445113 91.537656 20.399688 86.988036 21.505859 82.060547 C 22.159506 83.066157 23.215694 84.222004 24.673828 85.529297 C 26.131963 86.786309 27.790012 88.093598 29.650391 89.451172 C 31.510769 90.808745 33.471703 92.165864 35.533203 93.523438 C 37.594704 94.830731 39.581528 96.03836 41.492188 97.144531 C 43.402847 98.250702 45.136617 99.179386 46.695312 99.933594 C 48.254008 100.73808 49.461638 101.26618 50.316406 101.51758 C 51.472858 101.81926 52.301882 101.81926 52.804688 101.51758 C 53.357773 101.2159 53.634766 100.78941 53.634766 100.23633 C 53.634766 99.683243 53.409556 99.105319 52.957031 98.501953 C 52.554787 97.898587 51.974911 97.470153 51.220703 97.21875 C 50.164813 96.866786 48.757864 96.239033 46.998047 95.333984 C 45.28851 94.428935 43.427236 93.398639 41.416016 92.242188 C 39.404796 91.085736 37.370094 89.854168 35.308594 88.546875 C 33.297374 87.239582 31.461991 86.006061 29.802734 84.849609 C 28.193758 83.693158 26.886469 82.662862 25.880859 81.757812 C 24.92553 80.852763 24.497095 80.22501 24.597656 79.873047 C 24.647937 79.722205 25.277643 79.21805 26.484375 78.363281 C 27.691107 77.458232 29.273435 76.328277 31.234375 74.970703 C 33.547278 73.361727 36.187747 71.476515 39.154297 69.314453 C 42.171127 67.102111 45.212186 64.738634 48.279297 62.224609 C 51.346408 59.710584 54.287808 57.096006 57.103516 54.380859 C 59.919224 51.615432 62.308592 48.823521 64.269531 46.007812 C 65.677385 43.946312 66.757511 41.710339 67.511719 39.296875 C 68.265926 36.883411 68.644531 34.543873 68.644531 32.28125 C 68.644531 30.722554 68.44326 29.265777 68.041016 27.908203 C 67.638772 26.55063 66.985127 25.39283 66.080078 24.4375 C 65.22531 23.48217 64.093401 22.778696 62.685547 22.326172 C 61.327973 21.823367 59.667971 21.647987 57.707031 21.798828 C 54.991884 22.100511 52.251756 23.282249 49.486328 25.34375 C 46.771181 27.405251 44.132665 29.969999 41.568359 33.037109 C 39.004054 36.10422 36.564856 39.472101 34.251953 43.142578 C 31.989331 46.813055 29.952676 50.382208 28.142578 53.851562 C 28.896786 50.080525 29.5006 46.461542 29.953125 42.992188 C 30.40565 39.522833 30.630859 36.404099 30.630859 33.638672 C 30.630859 31.979415 30.557092 30.496746 30.40625 29.189453 C 30.104567 27.027392 29.474861 25.369342 28.519531 24.212891 C 27.564202 23.006159 26.282804 22.201072 24.673828 21.798828 C 24.271584 21.698267 23.869041 21.622546 23.466797 21.572266 C 23.064553 21.521985 22.636118 21.496094 22.183594 21.496094 z M 233.56836 21.496094 C 231.80854 21.496094 229.99905 21.924528 228.13867 22.779297 C 226.32857 23.583785 224.56891 24.689802 222.85938 26.097656 C 221.14984 27.45523 219.53967 29.039511 218.03125 30.849609 C 216.57312 32.609427 215.31761 34.44481 214.26172 36.355469 C 213.20583 38.215847 212.42663 40.075168 211.92383 41.935547 C 211.42102 43.795925 211.26958 45.479866 211.4707 46.988281 C 211.72211 48.144733 212.09876 49.02554 212.60156 49.628906 C 213.15465 50.181992 213.70863 50.458984 214.26172 50.458984 C 214.66396 50.458984 215.04061 50.307542 215.39258 50.005859 C 215.79482 49.704176 216.09575 49.327525 216.29688 48.875 C 216.498 48.372195 216.57372 47.81821 216.52344 47.214844 C 216.52344 46.611478 216.34806 46.007663 215.99609 45.404297 L 215.99609 45.480469 C 215.79497 44.977664 215.69336 44.39974 215.69336 43.746094 C 215.69336 42.086837 216.22145 40.201625 217.27734 38.089844 C 218.38351 35.927782 219.74259 33.891128 221.35156 31.980469 C 223.01082 30.019529 224.79442 28.385418 226.70508 27.078125 C 228.61574 25.720551 230.40129 25.041016 232.06055 25.041016 C 232.81475 25.041016 233.36679 25.218349 233.71875 25.570312 C 234.07071 25.871996 234.29788 26.272586 234.39844 26.775391 C 234.54928 27.227915 234.57517 27.756009 234.47461 28.359375 C 234.42433 28.962741 234.34861 29.516726 234.24805 30.019531 C 233.0916 35.449825 231.75842 40.955974 230.25 46.537109 C 228.74158 52.118245 227.30875 57.749944 225.95117 63.431641 C 224.5936 69.063057 223.43775 74.692803 222.48242 80.324219 C 221.57737 85.955635 221.125 91.537504 221.125 97.068359 C 221.125 99.280701 221.27449 101.31736 221.57617 103.17773 C 221.87785 105.08839 222.33023 106.77233 222.93359 108.23047 C 223.58724 109.6886 224.39233 110.92017 225.34766 111.92578 C 226.30299 112.93139 227.43489 113.66076 228.74219 114.11328 L 228.66602 114.03906 C 229.57106 114.29047 230.35026 114.26457 231.00391 113.96289 C 231.65755 113.71149 232.08599 113.33484 232.28711 112.83203 C 232.53851 112.37951 232.56245 111.90124 232.36133 111.39844 C 232.16021 110.89563 231.658 110.51898 230.85352 110.26758 C 229.49594 110.31786 228.81641 108.85913 228.81641 105.89258 C 228.81641 104.38416 228.96785 102.57467 229.26953 100.46289 C 229.57121 98.35111 229.97376 96.037463 230.47656 93.523438 C 230.97937 90.959132 231.55729 88.244895 232.21094 85.378906 C 232.91486 82.512918 233.61834 79.571518 234.32227 76.554688 C 234.87535 74.292065 235.40344 72.054139 235.90625 69.841797 C 236.40906 67.629455 236.91321 65.391529 237.41602 63.128906 L 237.41602 63.205078 C 238.92443 59.031796 240.58248 54.858829 242.39258 50.685547 C 244.25296 46.461985 246.13817 42.613886 248.04883 39.144531 C 250.00977 35.675177 251.9707 32.759668 253.93164 30.396484 C 255.94286 28.033301 257.87986 26.626353 259.74023 26.173828 C 260.89669 26.274389 261.77554 27.228964 262.37891 29.039062 C 263.03255 30.849161 263.35938 33.212637 263.35938 36.128906 C 263.35938 38.54237 263.13417 41.180886 262.68164 44.046875 C 262.2794 46.862583 261.64969 49.704324 260.79492 52.570312 C 259.99043 55.386021 258.96014 58.126149 257.70312 60.791016 C 256.44611 63.455882 254.96344 65.819359 253.25391 67.880859 C 251.59465 69.94236 249.70944 71.602362 247.59766 72.859375 C 245.48588 74.066107 243.17223 74.667969 240.6582 74.667969 C 240.1554 74.667969 239.60337 74.644031 239 74.59375 C 238.44691 74.543469 237.86704 74.441857 237.26367 74.291016 C 236.81115 74.190455 236.41056 74.292067 236.05859 74.59375 C 235.70663 74.895433 235.45358 75.246193 235.30273 75.648438 C 235.15189 76.050682 235.10206 76.453225 235.15234 76.855469 C 235.2529 77.257713 235.5299 77.508814 235.98242 77.609375 C 236.88747 77.860778 237.76633 78.038111 238.62109 78.138672 C 239.52614 78.188952 240.43284 78.212891 241.33789 78.212891 C 244.45528 78.212891 247.3449 77.609076 250.00977 76.402344 C 252.72491 75.145331 255.19 73.487282 257.40234 71.425781 C 259.66497 69.314 261.67573 66.874803 263.43555 64.109375 C 265.19536 61.343947 266.67803 58.478268 267.88477 55.511719 C 269.0915 52.494889 269.99624 49.451876 270.59961 46.384766 C 271.25326 43.267374 271.58008 40.325974 271.58008 37.560547 C 271.58008 35.247644 271.32898 33.087392 270.82617 31.076172 C 270.32337 29.064952 269.54417 27.35512 268.48828 25.947266 C 267.48267 24.489131 266.20127 23.407052 264.64258 22.703125 C 263.13416 21.948917 261.3745 21.671925 259.36328 21.873047 C 257.90515 22.124449 256.37069 22.905598 254.76172 24.212891 C 253.20302 25.520184 251.64463 27.204124 250.08594 29.265625 C 248.52724 31.276845 246.99279 33.588539 245.48438 36.203125 C 243.97596 38.767431 242.54312 41.433791 241.18555 44.199219 C 241.43695 42.28856 241.63822 40.427286 241.78906 38.617188 C 241.99018 36.807089 242.0918 35.147087 242.0918 33.638672 C 242.0918 32.834184 242.06591 32.054989 242.01562 31.300781 C 241.96534 30.496293 241.88962 29.792819 241.78906 29.189453 C 241.38682 27.228514 240.70924 25.620294 239.75391 24.363281 C 238.84886 23.055988 237.61729 22.201072 236.05859 21.798828 C 235.65635 21.698267 235.25381 21.622546 234.85156 21.572266 C 234.44932 21.521985 234.02088 21.496094 233.56836 21.496094 z M 113.79102 21.648438 C 110.57306 21.598157 107.43039 22.150189 104.36328 23.306641 C 101.29617 24.463092 98.378709 26.021482 95.613281 27.982422 C 92.898134 29.943361 90.385169 32.231117 88.072266 34.845703 C 85.759363 37.410009 83.746646 40.126199 82.037109 42.992188 C 80.327572 45.858176 78.970454 48.749746 77.964844 51.666016 C 77.009514 54.582285 76.48142 57.322413 76.380859 59.886719 C 76.380859 61.596256 76.532301 63.280197 76.833984 64.939453 C 77.135667 66.59871 77.76342 68.258712 78.71875 69.917969 L 78.644531 69.917969 C 79.197617 71.124701 79.976812 72.304486 80.982422 73.460938 C 81.988032 74.567109 83.117987 75.675079 84.375 76.78125 C 85.682293 77.837141 87.065303 78.891375 88.523438 79.947266 C 90.031853 80.952876 91.540413 81.985125 93.048828 83.041016 L 94.179688 83.794922 C 95.738383 84.850812 97.246944 85.907 98.705078 86.962891 C 100.21349 88.018781 101.54667 89.073016 102.70312 90.128906 C 103.90986 91.184797 104.86443 92.217046 105.56836 93.222656 C 106.27229 94.228266 106.67483 95.182842 106.77539 96.087891 C 106.57427 97.244342 105.97241 98.326421 104.9668 99.332031 C 104.01147 100.38792 102.80384 101.3425 101.3457 102.19727 C 99.937849 103.05203 98.353568 103.80534 96.59375 104.45898 C 94.833932 105.16291 93.074271 105.74279 91.314453 106.19531 C 89.554636 106.69812 87.844803 107.07477 86.185547 107.32617 C 84.576571 107.57757 83.193561 107.70312 82.037109 107.70312 C 80.679536 107.70313 79.900341 107.47596 79.699219 107.02344 C 79.548377 106.57091 79.699819 105.96905 80.152344 105.21484 C 80.604868 104.51092 81.232621 103.72977 82.037109 102.875 C 82.891878 102.02023 83.621243 101.19121 84.224609 100.38672 C 84.878256 99.582231 85.230969 98.852865 85.28125 98.199219 C 85.381811 97.595853 85.25626 97.14348 84.904297 96.841797 C 84.552333 96.590394 84.048178 96.514673 83.394531 96.615234 C 82.791165 96.766076 82.137521 97.19451 81.433594 97.898438 C 80.830228 98.501804 80.202475 99.205278 79.548828 100.00977 C 78.895182 100.81425 78.291367 101.64328 77.738281 102.49805 C 77.185196 103.4031 76.708885 104.30979 76.306641 105.21484 C 75.904397 106.17017 75.677234 107.09886 75.626953 108.00391 C 75.526392 110.01513 76.205928 111.59941 77.664062 112.75586 C 79.122197 113.96259 81.258511 114.56641 84.074219 114.56641 C 85.431792 114.56641 86.914461 114.41496 88.523438 114.11328 C 89.679889 113.86188 91.013069 113.45934 92.521484 112.90625 C 94.08018 112.35316 95.664461 111.67558 97.273438 110.87109 C 98.932694 110.06661 100.54091 109.13597 102.09961 108.08008 C 103.70859 107.02419 105.14142 105.86834 106.39844 104.61133 C 107.65545 103.35432 108.71164 101.99524 109.56641 100.53711 C 110.42117 99.129255 110.92338 97.646586 111.07422 96.087891 C 111.17478 94.629756 110.89974 93.171025 110.24609 91.712891 C 109.59245 90.204476 108.71164 88.747698 107.60547 87.339844 C 106.54958 85.93199 105.3439 84.572918 103.98633 83.265625 C 102.62875 81.958332 101.26968 80.726764 99.912109 79.570312 C 97.900889 77.810495 95.890126 76.001004 93.878906 74.140625 C 91.917967 72.229966 90.435298 70.318862 89.429688 68.408203 C 88.826321 67.352313 88.373949 66.021085 88.072266 64.412109 C 87.820863 62.752853 87.669421 61.244292 87.619141 59.886719 C 87.870543 57.674377 88.398637 55.26107 89.203125 52.646484 C 90.007613 50.031898 91.012018 47.441259 92.21875 44.876953 C 93.475763 42.312648 94.910555 39.849512 96.519531 37.486328 C 98.178788 35.072864 99.93845 32.98638 101.79883 31.226562 C 103.65921 29.466745 105.59425 28.109626 107.60547 27.154297 C 109.66697 26.148687 111.75345 25.746144 113.86523 25.947266 L 113.79102 25.947266 C 114.89719 26.098107 115.82587 26.424929 116.58008 26.927734 C 117.33429 27.430539 117.9381 28.084184 118.39062 28.888672 C 118.84315 29.642879 119.14408 30.497795 119.29492 31.453125 C 119.49604 32.408455 119.59766 33.412859 119.59766 34.46875 C 119.59766 35.524641 119.52194 36.580828 119.37109 37.636719 C 119.22025 38.692609 119.04487 39.722906 118.84375 40.728516 C 118.69291 41.683845 118.49164 42.588591 118.24023 43.443359 C 118.03911 44.247847 117.86373 44.927383 117.71289 45.480469 C 117.36093 46.63692 117.05804 47.541666 116.80664 48.195312 C 116.55524 48.848959 116.42969 49.528495 116.42969 50.232422 C 116.42969 50.785507 116.55524 51.23788 116.80664 51.589844 C 117.05804 51.941807 117.53631 52.167017 118.24023 52.267578 C 118.8436 52.368139 119.39563 52.168821 119.89844 51.666016 C 120.40124 51.163211 120.85362 50.533504 121.25586 49.779297 C 121.70838 49.025089 122.11093 48.196065 122.46289 47.291016 C 122.86513 46.335686 123.21785 45.43094 123.51953 44.576172 C 124.52514 41.659903 125.02734 38.692611 125.02734 35.675781 C 125.02734 33.815403 124.80213 32.055741 124.34961 30.396484 C 123.89708 28.686947 123.19166 27.204278 122.23633 25.947266 C 121.33128 24.690253 120.17543 23.683895 118.76758 22.929688 C 117.35972 22.17548 115.70167 21.748999 113.79102 21.648438 z M 198.99219 21.648438 C 198.28826 21.648438 197.71034 21.849709 197.25781 22.251953 C 196.85557 22.654197 196.60447 23.130508 196.50391 23.683594 C 196.40335 24.236679 196.503 24.740835 196.80469 25.193359 C 197.15665 25.645884 197.60902 25.920923 198.16211 26.021484 C 198.9666 26.976814 199.36914 28.712537 199.36914 31.226562 C 199.36914 33.589746 199.04232 36.455425 198.38867 39.824219 C 197.73503 43.142732 196.85422 46.737776 195.74805 50.609375 C 194.64188 54.480974 193.33459 58.5025 191.82617 62.675781 C 190.36804 66.849063 188.78571 70.972201 187.07617 75.044922 C 185.36663 79.067362 183.60697 82.939399 181.79688 86.660156 C 179.98678 90.330633 178.20122 93.598855 176.44141 96.464844 C 174.73187 99.381113 173.07187 101.77048 171.46289 103.63086 C 169.9042 105.54152 168.49725 106.72326 167.24023 107.17578 C 166.88827 107.07522 166.61128 106.49534 166.41016 105.43945 C 166.25931 104.38356 166.10787 102.92678 165.95703 101.06641 C 165.85647 99.206028 165.78075 97.017931 165.73047 94.503906 C 165.73047 92.040162 165.70653 89.325925 165.65625 86.359375 C 165.60597 82.83974 165.53025 79.168974 165.42969 75.347656 C 165.37941 71.526338 165.22797 67.755913 164.97656 64.035156 C 164.72516 60.264119 164.34851 56.643183 163.8457 53.173828 C 163.3429 49.704473 162.68925 46.611631 161.88477 43.896484 C 161.08028 41.131057 160.04998 38.819363 158.79297 36.958984 C 157.58624 35.098606 156.10357 33.916868 154.34375 33.414062 C 153.6901 33.21294 152.83519 33.111328 151.7793 33.111328 C 149.9692 33.111328 148.15775 33.539763 146.34766 34.394531 C 144.53756 35.199019 142.7779 36.305037 141.06836 37.712891 C 139.4091 39.070464 137.85071 40.652793 136.39258 42.462891 C 134.93444 44.222708 133.67698 46.058091 132.62109 47.96875 C 131.61548 49.829129 130.83629 51.690403 130.2832 53.550781 C 129.7804 55.41116 129.60502 57.095101 129.75586 58.603516 C 130.00726 59.810248 130.38391 60.691055 130.88672 61.244141 C 131.4398 61.797226 131.99379 62.074219 132.54688 62.074219 C 132.94912 62.074219 133.32577 61.922777 133.67773 61.621094 C 134.07998 61.319411 134.38091 60.942759 134.58203 60.490234 C 134.78315 59.987429 134.85887 59.433444 134.80859 58.830078 C 134.80859 58.226712 134.63321 57.622897 134.28125 57.019531 L 134.28125 57.095703 C 134.08013 56.592898 133.97852 56.014975 133.97852 55.361328 C 133.97852 53.702072 134.50661 51.816859 135.5625 49.705078 C 136.66867 47.543017 138.02774 45.506362 139.63672 43.595703 C 141.29598 41.634764 143.07958 40.000652 144.99023 38.693359 C 146.90089 37.335786 148.68645 36.65625 150.3457 36.65625 C 151.50215 36.65625 152.38101 37.108623 152.98438 38.013672 C 153.63802 38.918721 154.11629 40.150289 154.41797 41.708984 C 154.71965 43.26768 154.89503 45.103063 154.94531 47.214844 C 154.99559 49.326625 155.02148 51.590442 155.02148 54.003906 C 155.02148 58.780554 154.94576 63.356065 154.79492 67.730469 C 154.64408 72.054592 154.56836 76.379002 154.56836 80.703125 C 154.56836 85.22837 154.7198 89.526889 155.02148 93.599609 C 155.32317 97.722611 155.92698 101.29176 156.83203 104.30859 C 157.73708 107.3757 158.99454 109.73918 160.60352 111.39844 C 162.26277 113.10797 164.44892 113.76162 167.16406 113.35938 L 167.16406 113.2832 C 168.72276 113.18264 170.4067 112.22807 172.2168 110.41797 C 174.07718 108.60787 176.01417 106.19456 178.02539 103.17773 C 180.03661 100.21118 182.04737 96.741691 184.05859 92.769531 C 186.12009 88.797372 188.08103 84.624404 189.94141 80.25 C 191.85207 75.825316 193.61173 71.299634 195.2207 66.673828 C 196.87996 62.048022 198.3128 57.548232 199.51953 53.173828 C 200.77654 48.799424 201.75701 44.702178 202.46094 40.880859 C 203.16486 37.059541 203.51758 33.739536 203.51758 30.923828 C 203.51758 28.208681 203.16486 26.046476 202.46094 24.4375 C 201.75701 22.828524 200.60116 21.89984 198.99219 21.648438 z M 58.160156 26.097656 C 59.769132 25.997095 60.87515 26.323917 61.478516 27.078125 C 62.132162 27.832333 62.458984 28.812799 62.458984 30.019531 C 62.458984 31.175983 62.283604 32.433442 61.931641 33.791016 C 61.579677 35.098309 61.127304 36.405598 60.574219 37.712891 C 60.021133 38.969903 59.417318 40.17558 58.763672 41.332031 C 58.160306 42.438202 57.606321 43.368839 57.103516 44.123047 C 55.293418 46.838194 53.131213 49.528493 50.617188 52.193359 C 48.153443 54.858226 45.564756 57.446912 42.849609 59.960938 C 40.134462 62.424682 37.420225 64.788159 34.705078 67.050781 C 31.989931 69.263123 29.500904 71.249948 27.238281 73.009766 C 26.484074 73.562851 25.704879 74.114883 24.900391 74.667969 C 24.146183 75.221054 23.466647 75.798978 22.863281 76.402344 L 25.050781 67.578125 L 25.050781 67.654297 C 25.95583 65.793918 27.111677 63.480271 28.519531 60.714844 C 29.927385 57.949416 31.511667 55.059799 33.271484 52.042969 C 35.081582 48.975858 36.992686 45.932846 39.003906 42.916016 C 41.065407 39.848905 43.175829 37.082885 45.337891 34.619141 C 47.499952 32.155396 49.662157 30.144633 51.824219 28.585938 C 53.98628 27.027242 56.098656 26.198217 58.160156 26.097656 z "
       style="font-style:normal;font-variant:normal;font-weight:normal;font-stretch:normal;font-size:19.95507431px;line-height:1.25;font-family:'valentine vibes';-inkscape-font-specification:'valentine vibes';letter-spacing:0px;word-spacing:0px;fill:#f2f0ee;fill-opacity:1;stroke:none;stroke-width:1.88551879" />
  </g>
</svg>
