<?xml version="1.0" encoding="UTF-8" standalone="no"?>
<svg
   xmlns:dc="http://purl.org/dc/elements/1.1/"
   xmlns:cc="http://creativecommons.org/ns#"
   xmlns:rdf="http://www.w3.org/1999/02/22-rdf-syntax-ns#"
   xmlns:svg="http://www.w3.org/2000/svg"
   xmlns="http://www.w3.org/2000/svg"
   id="svg8"
   version="1.1"
   viewBox="0 0 209.8405 34.395832"
   height="34.395832mm"
   width="209.8405mm">
  <defs
     id="defs2" />
  <metadata
     id="metadata5">
    <rdf:RDF>
      <cc:Work
         rdf:about="">
        <dc:format>image/svg+xml</dc:format>
        <dc:type
           rdf:resource="http://purl.org/dc/dcmitype/StillImage" />
        <dc:title></dc:title>
      </cc:Work>
    </rdf:RDF>
  </metadata>
  <g
     transform="translate(35.017422,-107.99419)"
     id="layer1">
    <g
       transform="translate(75.632959,-115.50387)"
       id="g113">
      <path
         id="text69"
         transform="matrix(0.26458333,0,0,0.26458333,-35.017422,107.99419)"
         d="m -199.08008,437.51367 c -0.14948,0.009 -0.30461,0.039 -0.46289,0.0918 h 0.10547 c -1.75862,0.28138 -3.44653,1.01898 -5.06445,2.21484 -1.61793,1.12552 -3.16534,2.56756 -4.64258,4.32617 -1.47724,1.68828 -2.88416,3.62401 -4.2207,5.80469 -1.26621,2.11034 -2.42726,4.32511 -3.48243,6.64649 -1.61792,3.58758 -3.37608,7.42196 -5.27539,11.50195 -1.8993,4.07999 -3.8682,8.16024 -5.9082,12.24023 -2.04,4.08 -4.11622,8.05487 -6.22656,11.92383 -2.04,3.86896 -4.04402,7.4204 -6.01367,10.65625 -1.96966,3.16551 -3.86831,5.9091 -5.69727,8.23047 -1.82896,2.25103 -3.4837,3.83357 -4.96094,4.74805 -0.91448,-0.28138 -1.44134,-1.22973 -1.58203,-2.84766 -0.14069,-1.61793 -0.0704,-3.58878 0.21094,-5.91016 0.35172,-2.39171 0.80833,-4.95968 1.37109,-7.70312 0.56276,-2.81379 1.05645,-5.48517 1.47852,-8.01758 0.42207,-2.25103 0.80843,-4.57312 1.16015,-6.96484 0.42207,-2.46207 0.77331,-4.88953 1.05469,-7.28125 0.35173,-2.39172 0.63272,-4.71186 0.84375,-6.96289 0.21104,-2.25103 0.31836,-4.32726 0.31836,-6.22656 0,-3.58758 -0.42344,-6.57704 -1.26758,-8.96876 -0.84413,-2.39171 -2.39154,-3.86888 -4.64258,-4.43164 -0.56275,-0.14069 -1.12474,-0.24606 -1.6875,-0.3164 -0.56275,-0.0704 -1.16181,-0.10547 -1.79492,-0.10547 -2.46206,0 -4.95782,0.59711 -7.49023,1.79297 -2.53241,1.12551 -4.95988,2.67292 -7.28125,4.64258 -2.32138,1.8993 -4.50297,4.11602 -6.54297,6.64843 -1.96965,2.46207 -3.69268,5.03003 -5.16992,7.70313 -1.4069,2.60275 -2.46257,5.20584 -3.16602,7.80859 -0.6331,2.60276 -0.80872,4.95802 -0.52734,7.06836 0.35172,1.61793 0.88054,2.84922 1.58398,3.69336 0.77379,0.77379 1.54652,1.16016 2.32032,1.16016 0.56275,0 1.09157,-0.21075 1.58398,-0.63281 0.56276,-0.42207 0.98425,-0.94893 1.26563,-1.58204 0.28137,-0.70344 0.38675,-1.47813 0.3164,-2.32226 0,-0.84414 -0.24587,-1.68712 -0.73828,-2.53125 v 0.10547 c -0.28138,-0.70345 -0.42187,-1.54838 -0.42188,-2.53321 0,-1.68827 0.38637,-3.58692 1.16016,-5.69726 0.84414,-2.11034 1.93494,-4.22169 3.27149,-6.33203 1.33654,-2.18069 2.84883,-4.21984 4.53711,-6.11914 1.75861,-1.89931 3.55189,-3.51697 5.38085,-4.85352 1.82897,-1.33655 3.62225,-2.25173 5.38086,-2.74414 1.82897,-0.49241 3.48175,-0.38704 4.95899,0.31641 0.56276,0.21103 0.95107,0.73984 1.16211,1.58398 0.28138,0.77379 0.42187,1.75727 0.42187,2.95313 0,2.39172 -0.38636,5.55679 -1.16015,9.49609 -0.7738,3.86896 -1.65385,7.84384 -2.63868,11.92383 -0.56275,2.25103 -1.12474,4.64337 -1.6875,7.17578 l -1.47851,7.59766 c -0.42207,2.46206 -0.77331,4.85245 -1.05469,7.17382 -0.28138,2.25103 -0.42187,4.25701 -0.42187,6.01563 0,3.79861 0.59711,6.85831 1.79296,9.17969 1.26621,2.32137 3.51806,3.48242 6.75391,3.48242 0.91448,0 1.97016,-0.10537 3.16602,-0.31641 1.8993,-0.49241 3.90333,-1.72371 6.01367,-3.69336 2.11034,-2.03999 4.25681,-4.60796 6.4375,-7.70312 2.18068,-3.09517 4.36033,-6.61148 6.54101,-10.55078 2.25103,-3.93931 4.39751,-8.01956 6.4375,-12.24024 -0.70344,3.44689 -1.3025,6.78758 -1.79492,10.02344 -0.42207,3.23585 -0.80843,6.43605 -1.16015,9.60156 -3.16551,1.89931 -6.33059,4.04578 -9.4961,6.4375 -3.16551,2.39172 -6.19008,4.92456 -9.07422,7.59766 -2.81378,2.6731 -5.41687,5.41668 -7.80859,8.23047 -2.39172,2.81378 -4.46795,5.59054 -6.22656,8.33398 -1.82896,3.02482 -3.16563,5.87378 -4.00977,8.54688 -0.84413,2.74344 -1.26562,5.1709 -1.26562,7.28125 0,3.72826 1.02055,6.78796 3.06054,9.17968 2.04,2.39172 4.64309,3.55277 7.8086,3.48243 4.92413,-0.0703 9.21512,-1.05578 12.87304,-2.95508 3.72827,-1.89931 6.96359,-4.39507 9.70704,-7.49024 2.74344,-3.09516 5.06358,-6.7188 6.96289,-10.86914 1.96965,-4.07999 3.69463,-8.37098 5.17187,-12.87304 1.47724,-4.50207 2.74366,-9.07405 3.79883,-13.7168 1.12551,-4.7131 2.24948,-9.17971 3.375,-13.40039 3.37654,-1.89931 6.96506,-3.4116 10.76367,-4.53711 3.60729,-1.13563 7.21498,-1.87952 10.82227,-2.25391 -1.34719,1.92706 -2.36938,4.08287 -3.05274,6.47461 -0.77379,2.46207 -1.16015,4.88758 -1.16015,7.2793 0,1.75862 0.21074,3.44848 0.63281,5.0664 0.42207,1.54759 1.02113,2.91938 1.79492,4.11524 0.77379,1.12551 1.75727,2.00362 2.95313,2.63672 1.19586,0.6331 2.60277,0.87897 4.2207,0.73828 2.95448,-0.35172 5.41707,-1.96938 7.38672,-4.85352 0.98482,-1.61792 1.75951,-3.4112 2.32226,-5.38086 0.56276,-2.03999 0.84375,-3.93864 0.84375,-5.69726 v -1.26758 c 0,-0.35172 -0.0351,-0.70296 -0.10547,-1.05469 2.18069,0.77379 4.14959,1.37286 5.90821,1.79492 1.75861,0.35173 3.4114,0.4571 4.95898,0.31641 1.54759,-0.14069 3.05987,-0.59925 4.53711,-1.37305 0.44484,-0.23301 0.89788,-0.51323 1.35547,-0.8164 -0.1408,0.92594 -0.27595,1.86006 -0.39258,2.82226 -0.28138,2.25103 -0.42187,4.36043 -0.42187,6.33008 0,1.4069 0.10537,2.74356 0.3164,4.00977 0.14069,1.19586 0.42168,2.25153 0.84375,3.16601 0.42207,0.91448 0.98601,1.61696 1.68946,2.10938 0.70344,0.49241 1.58154,0.70511 2.63671,0.63476 1.26621,0 2.56775,-0.49369 3.9043,-1.47851 1.33655,-1.05517 2.63809,-2.32159 3.9043,-3.79883 1.2662,-1.54758 2.46237,-3.20037 3.58789,-4.95899 1.19586,-1.75861 2.25153,-3.4114 3.16601,-4.95898 0.56276,1.82896 1.47794,3.37637 2.74415,4.64258 1.33654,1.19586 3.2352,1.86517 5.69726,2.00586 1.68827,0.0703 3.37618,-0.2126 5.06445,-0.8457 1.68828,-0.70345 3.37618,-1.6518 5.06446,-2.84766 1.75861,-1.26621 3.48165,-2.67312 5.16992,-4.2207 1.75862,-1.61793 3.4836,-3.30584 5.17187,-5.06446 0.70345,-0.70344 1.08982,-1.40788 1.16016,-2.11133 0.14069,-0.70344 0.0704,-1.26543 -0.21094,-1.6875 -0.21103,-0.42206 -0.63252,-0.63476 -1.26562,-0.63476 -0.56276,-0.0704 -1.19695,0.24772 -1.90039,0.95117 -4.00965,3.9393 -7.49084,6.71801 -10.44532,8.33594 -2.95447,1.54758 -5.17119,2.10957 -6.64843,1.6875 -1.12552,-0.35173 -1.79287,-1.12641 -2.00391,-2.32227 -0.14069,-1.2662 -0.24606,-2.56579 -0.3164,-3.90234 -0.0703,-1.33655 -0.31817,-2.53272 -0.74024,-3.58789 -0.42207,-1.05517 -1.44067,-1.58399 -3.05859,-1.58399 -0.98483,0 -1.90001,0.45857 -2.74414,1.37305 -0.7738,0.84414 -1.33578,1.65199 -1.6875,2.42578 -0.56276,1.19586 -1.44282,2.7784 -2.63868,4.74805 -1.19586,1.89931 -2.46227,3.76479 -3.79882,5.59375 -1.33655,1.82896 -2.60297,3.37637 -3.79883,4.64258 -1.12552,1.19586 -1.93337,1.68759 -2.42578,1.47656 -0.35173,-0.14069 -0.3166,-0.98367 0.10547,-2.53125 0.42206,-1.54758 1.08942,-3.48331 2.0039,-5.80469 0.98483,-2.39172 2.11075,-5.02993 3.37695,-7.91406 l 3.79883,-8.86328 c 0.63311,-1.96965 0.45749,-3.51706 -0.52734,-4.64258 -0.91448,-1.19586 -2.1809,-1.79297 -3.79883,-1.79297 -1.40689,0 -2.84893,0.49174 -4.32617,1.47656 -1.40689,0.98483 -2.49769,2.35662 -3.27149,4.11524 -0.28137,0.77379 -0.63261,1.96996 -1.05468,3.58789 -0.27824,1.06658 -0.55575,2.27997 -0.83399,3.56055 -0.21484,0.16414 -0.43302,0.34863 -0.65625,0.55468 -1.40689,1.19586 -2.77868,1.96859 -4.11523,2.32032 -1.33655,0.35172 -2.67322,0.45709 -4.00977,0.3164 -1.33655,-0.21103 -2.70834,-0.5974 -4.11523,-1.16015 -1.33655,-0.63311 -2.70834,-1.26534 -4.11524,-1.89844 -0.42206,-0.14069 -0.73818,-0.28119 -0.94921,-0.42188 0.77379,-0.35172 1.44114,-0.84541 2.0039,-1.47851 0.56276,-0.70345 0.84375,-1.40593 0.84375,-2.10938 0,-1.12551 -0.49173,-2.14606 -1.47656,-3.06054 -0.98483,-0.91449 -2.32149,-1.44135 -4.00977,-1.58204 -2.88413,-0.21103 -5.41697,0.28071 -7.59765,1.47657 -0.59744,0.31863 -1.1662,0.67839 -1.71289,1.07031 -0.0801,-0.0767 -0.15723,-0.15405 -0.25391,-0.22656 -0.49241,-0.42207 -1.19489,-0.63282 -2.10937,-0.63282 -1.61793,0.14069 -3.48341,0.38656 -5.59375,0.73829 -2.11035,0.28137 -4.21974,0.63457 -6.33008,1.05664 -2.04,0.42206 -3.97377,0.94893 -5.80274,1.58203 -1.75861,0.56276 -3.13041,1.15986 -4.11523,1.79297 0.21103,-1.75862 0.63252,-4.39683 1.26562,-7.91407 0.63311,-3.58758 1.33559,-7.49025 2.10938,-11.71093 0.84414,-4.29103 1.72419,-8.65227 2.63867,-13.08399 0.98483,-4.50206 1.93513,-8.51206 2.84961,-12.02929 0.98483,-3.58758 1.89805,-6.40142 2.74219,-8.44141 0.91448,-2.11034 1.68916,-2.95527 2.32226,-2.5332 0.63311,-0.21104 1.01947,-0.66765 1.16016,-1.3711 0.14069,-0.70345 0.10556,-1.37276 -0.10547,-2.00586 -0.21103,-0.70344 -0.5974,-1.30055 -1.16016,-1.79297 -0.36931,-0.36931 -0.77811,-0.54005 -1.22656,-0.51367 z m 16.80469,64.5625 c 0.6331,1.05517 1.05459,2.49721 1.26562,4.32617 0.21104,1.82897 0.17591,3.65737 -0.10546,5.48633 -0.28138,1.75862 -0.77312,3.30603 -1.47657,4.64258 -0.70344,1.33655 -1.65375,2.04098 -2.84961,2.11133 -0.98482,0.0703 -1.6873,-0.2809 -2.10937,-1.05469 -0.35172,-0.77379 -0.52734,-1.75922 -0.52734,-2.95508 0,-1.05517 0.14049,-2.18109 0.42187,-3.37695 0.28138,-1.19586 0.66774,-2.35691 1.16016,-3.48242 0.49241,-1.19586 1.09147,-2.28471 1.79492,-3.26953 0.70345,-0.98483 1.5113,-1.79464 2.42578,-2.42774 z m -46.81055,12.97852 c -2.39172,9.21515 -4.46794,16.74147 -6.22656,22.58008 -1.68827,5.8386 -3.37618,10.44767 -5.06445,13.82421 -1.68828,3.37655 -3.5518,5.73181 -5.5918,7.06836 -1.96965,1.33655 -4.36199,2.11124 -7.17578,2.32227 -1.96965,0.14069 -3.58731,-0.353 -4.85352,-1.47852 -1.19586,-1.12551 -1.79492,-2.84854 -1.79492,-5.16992 0,-1.68827 0.38832,-3.6923 1.16211,-6.01367 0.84414,-2.25103 2.00323,-4.71362 3.48047,-7.38672 v 0.10547 c 1.33655,-2.18069 2.95616,-4.39545 4.85547,-6.64648 1.8993,-2.25103 3.97358,-4.46776 6.22461,-6.64844 2.32137,-2.18069 4.74884,-4.32521 7.28125,-6.43555 2.53241,-2.11034 5.10037,-4.15144 7.70312,-6.12109 z"
         style="font-style:normal;font-variant:normal;font-weight:normal;font-stretch:normal;font-size:27.91804886px;line-height:1.25;font-family:'valentine vibes';-inkscape-font-specification:'valentine vibes';letter-spacing:0px;word-spacing:0px;fill:#0d002f;fill-opacity:1;stroke:none;stroke-width:2.63792586" />
      <path
         id="text77"
         transform="matrix(0.26458333,0,0,0.26458333,-110.65038,223.49806)"
         d="M 240.70703 39.884766 C 239.79255 39.884766 238.87737 40.378456 237.96289 41.363281 C 237.11875 42.348107 236.62702 43.790146 236.48633 45.689453 L 235.74805 52.546875 C 235.60736 53.67239 235.50003 54.763189 235.42969 55.818359 C 235.35934 56.803185 235.25397 57.823736 235.11328 58.878906 C 233.91742 58.738217 232.61588 58.667969 231.20898 58.667969 C 229.87244 58.597624 228.60797 58.5625 227.41211 58.5625 C 225.37211 58.5625 223.47151 58.702996 221.71289 58.984375 C 220.02462 59.195409 218.54745 59.616898 217.28125 60.25 C 216.01505 60.883102 215.03157 61.728033 214.32812 62.783203 C 213.69502 63.768029 213.4472 65.034448 213.58789 66.582031 L 213.79883 67.003906 C 214.15055 67.637008 214.60912 68.163869 215.17188 68.585938 C 215.80498 69.008006 216.50746 69.078254 217.28125 68.796875 C 217.70332 68.585841 218.12676 68.199476 218.54883 67.636719 C 219.04124 67.073961 219.32223 66.511976 219.39258 65.949219 C 219.67396 65.66784 220.30619 65.525391 221.29102 65.525391 C 222.27584 65.525391 223.54226 65.632716 225.08984 65.84375 C 226.63743 65.984439 228.32533 66.195184 230.1543 66.476562 C 230.71705 66.546907 231.31612 66.652279 231.94922 66.792969 C 232.65267 66.863313 233.32002 66.933562 233.95312 67.003906 L 230.78711 83.359375 C 230.43539 85.117992 230.61296 86.524908 231.31641 87.580078 C 232.01985 88.564904 232.86283 89.056641 233.84766 89.056641 C 234.76214 89.056641 235.67732 88.635152 236.5918 87.791016 C 237.50628 86.876535 238.06826 85.469619 238.2793 83.570312 C 238.49033 80.967559 238.7362 78.364472 239.01758 75.761719 C 239.29896 73.088621 239.54483 70.45041 239.75586 67.847656 C 241.30344 67.988346 242.95818 68.128842 244.7168 68.269531 C 246.47541 68.410221 248.05795 68.480469 249.46484 68.480469 C 251.36415 68.480469 253.08718 68.339973 254.63477 68.058594 C 256.25269 67.777215 257.62448 67.320602 258.75 66.6875 C 259.87552 65.984053 260.72045 65.068874 261.2832 63.943359 C 261.91631 62.817844 262.1973 61.375805 262.12695 59.617188 C 261.98626 58.843396 261.56282 58.211163 260.85938 57.71875 C 260.15593 57.226337 259.41832 57.120965 258.64453 57.402344 L 258.75 57.402344 C 257.97621 57.543033 257.41422 57.929398 257.0625 58.5625 C 256.71078 59.125258 256.49808 59.792615 256.42773 60.566406 L 256.63867 61.09375 L 254.8457 61.09375 C 253.86088 61.09375 252.62958 61.023502 251.15234 60.882812 C 249.74545 60.671778 248.16291 60.461034 246.4043 60.25 L 244.29492 60.039062 L 243.34375 60.039062 C 243.06237 59.968718 242.74625 59.89847 242.39453 59.828125 L 241.02344 59.617188 L 243.76562 45.689453 C 244.047 43.719802 243.83626 42.277762 243.13281 41.363281 C 242.49971 40.378456 241.69186 39.884766 240.70703 39.884766 z "
         style="font-style:normal;font-variant:normal;font-weight:normal;font-stretch:normal;font-size:27.91804886px;line-height:1.25;font-family:'valentine vibes';-inkscape-font-specification:'valentine vibes';letter-spacing:0px;word-spacing:0px;fill:#d59a00;fill-opacity:1;stroke:none;stroke-width:2.63792586" />
      <path
         id="text85"
         transform="matrix(0.26458333,0,0,0.26458333,-110.65038,223.49806)"
         d="M 329.10742 0 C 326.64536 0 324.11447 0.59906214 321.51172 1.7949219 C 318.97931 2.9204369 316.51672 4.4678487 314.125 6.4375 C 311.73328 8.3368066 309.48143 10.551576 307.37109 13.083984 C 305.3311 15.546049 303.57294 18.114011 302.0957 20.787109 C 300.61846 23.389863 299.52767 25.99295 298.82422 28.595703 C 298.12077 31.128112 297.91003 33.483377 298.19141 35.664062 C 298.54313 37.28199 299.07194 38.513286 299.77539 39.357422 C 300.54918 40.131213 301.32191 40.519531 302.0957 40.519531 C 302.65846 40.519531 303.18532 40.306834 303.67773 39.884766 C 304.24049 39.462697 304.66393 38.935837 304.94531 38.302734 C 305.22669 37.599287 305.33206 36.826558 305.26172 35.982422 C 305.26172 35.138286 305.01585 34.293355 304.52344 33.449219 L 304.52344 33.554688 C 304.24206 32.851241 304.10156 32.041434 304.10156 31.126953 C 304.10156 28.805578 304.83917 26.169321 306.31641 23.214844 C 307.86399 20.190022 309.76264 17.341067 312.01367 14.667969 C 314.33505 11.924526 316.79764 9.6375557 319.40039 7.8085938 C 322.07349 5.9092871 324.5712 4.9589844 326.89258 4.9589844 C 327.94775 4.9589844 328.7556 5.1697287 329.31836 5.5917969 C 329.88112 6.013865 330.23431 6.5778031 330.375 7.28125 C 330.51569 7.9846969 330.55081 8.7574262 330.48047 9.6015625 C 330.41012 10.375354 330.26963 11.150037 330.05859 11.923828 C 329.63653 13.963824 329.03746 16.496663 328.26367 19.521484 C 327.56022 22.475961 326.7875 25.641033 325.94336 29.017578 L 325.30859 31.443359 C 323.9017 36.930245 322.38941 42.911101 320.77148 49.382812 C 319.2239 55.854524 317.74674 62.430536 316.33984 69.113281 C 315.00329 75.725682 313.87932 82.198275 312.96484 88.529297 C 312.12071 94.860319 311.69727 100.59335 311.69727 105.72852 C 311.69727 111.91885 312.50707 117.12502 314.125 121.3457 C 315.81327 125.63673 318.52173 128.37836 322.25 129.57422 L 322.25 129.46875 C 322.8831 129.82047 323.51534 129.82047 324.14844 129.46875 C 324.78154 129.11703 325.31035 128.62529 325.73242 127.99219 C 326.15449 127.35909 326.36523 126.6566 326.36523 125.88281 C 326.43558 125.17937 326.15459 124.61543 325.52148 124.19336 C 324.46631 124.19336 323.69163 123.59625 323.19922 122.40039 C 325.02818 117.82799 326.89171 112.58669 328.79102 106.67773 C 330.76067 100.76878 332.87202 94.403513 335.12305 87.580078 C 337.30373 80.967677 339.58875 74.073596 341.98047 66.898438 C 344.44253 59.723279 346.94025 52.794074 349.47266 46.111328 C 352.07541 39.428583 354.6785 33.238936 357.28125 27.541016 C 359.884 21.772751 362.41684 16.988066 364.87891 13.189453 C 366.07477 11.571525 367.27094 10.16461 368.4668 8.96875 C 369.66266 7.7025456 370.54076 7.0351884 371.10352 6.9648438 C 371.73662 7.7386353 372.23031 9.7777839 372.58203 13.083984 C 373.0041 16.390185 373.21484 20.365063 373.21484 25.007812 C 373.21484 29.087805 373.10947 33.519295 372.89844 38.302734 C 372.75775 43.086173 372.50993 47.97623 372.1582 52.970703 C 371.87682 57.894831 371.56071 62.747811 371.20898 67.53125 C 370.85726 72.244344 370.50602 76.605587 370.1543 80.615234 C 369.80257 84.554537 369.45133 87.965477 369.09961 90.849609 C 368.81823 93.733742 368.60749 95.774843 368.4668 96.970703 C 367.90404 101.19138 368.71189 103.30078 370.89258 103.30078 C 371.73671 103.30078 372.72214 102.84417 373.84766 101.92969 C 375.04352 101.08555 376.20456 100.10012 377.33008 98.974609 C 378.52594 97.77875 379.61478 96.617703 380.59961 95.492188 C 381.58444 94.296328 382.28887 93.383102 382.71094 92.75 C 384.11783 90.850693 385.73549 88.739344 387.56445 86.417969 C 389.46376 84.096594 391.43266 81.741329 393.47266 79.349609 C 395.51265 76.887545 397.55375 74.495203 399.59375 72.173828 C 401.70409 69.852453 403.67299 67.778181 405.50195 65.949219 C 407.33092 64.120257 408.9837 62.643093 410.46094 61.517578 C 412.00852 60.392063 413.20469 59.757877 414.04883 59.617188 C 414.54124 59.898566 414.89443 60.603001 415.10547 61.728516 C 415.38685 62.783686 415.52734 64.120353 415.52734 65.738281 C 415.52734 67.145175 415.4571 68.797959 415.31641 70.697266 C 415.17572 72.596572 415.03327 74.460101 414.89258 76.289062 C 414.68154 78.540093 414.4708 80.967559 414.25977 83.570312 C 414.11908 86.173066 414.04883 88.668827 414.04883 91.060547 C 414.04883 94.226058 414.32982 97.287711 414.89258 100.24219 C 415.52568 103.19666 416.51111 105.76267 417.84766 107.94336 C 419.25455 110.19439 421.04783 111.88425 423.22852 113.00977 C 425.4092 114.13528 428.11766 114.41627 431.35352 113.85352 C 432.19765 113.71283 432.90209 113.28938 433.46484 112.58594 C 434.0276 111.95284 434.37884 111.25035 434.51953 110.47656 C 434.66022 109.77312 434.55485 109.14088 434.20312 108.57812 C 433.92175 108.01537 433.32464 107.76755 432.41016 107.83789 C 431.70671 107.90824 431.07252 107.97848 430.50977 108.04883 C 429.94701 108.18952 429.38502 108.25977 428.82227 108.25977 C 426.57124 108.25977 425.02382 107.48704 424.17969 105.93945 C 423.4059 104.46221 423.01758 102.49331 423.01758 100.03125 C 423.01758 97.287807 423.23028 94.579348 423.65234 91.90625 C 424.07441 89.162807 424.53102 86.454348 425.02344 83.78125 C 425.5862 81.108152 426.07793 78.434817 426.5 75.761719 C 426.92207 73.088621 427.13281 70.415286 427.13281 67.742188 C 427.13281 65.631847 426.92207 63.733194 426.5 62.044922 C 426.14828 60.286305 425.51604 58.774017 424.60156 57.507812 C 423.68708 56.241608 422.45579 55.256181 420.9082 54.552734 C 419.36062 53.849287 417.39172 53.533171 415 53.603516 C 413.10069 53.533171 410.74348 54.481521 407.92969 56.451172 C 405.1159 58.420823 402.09132 60.988786 398.85547 64.154297 C 395.68996 67.319808 392.45268 70.873197 389.14648 74.8125 C 385.84028 78.681458 382.71034 82.513887 379.75586 86.3125 L 379.75586 85.679688 C 379.8262 85.468653 379.86133 85.257909 379.86133 85.046875 C 379.93167 84.835841 380.00192 84.554848 380.07227 84.203125 C 380.21296 83.781057 380.35345 83.217119 380.49414 82.513672 L 380.91797 80.193359 C 381.05866 79.349223 381.19915 78.539417 381.33984 77.765625 C 381.9026 74.600114 382.49971 71.013554 383.13281 67.003906 C 383.83626 62.994259 384.46849 58.84376 385.03125 54.552734 C 385.66435 50.191364 386.15804 45.830121 386.50977 41.46875 C 386.93183 37.107379 387.14258 32.921757 387.14258 28.912109 C 387.14258 24.832117 386.89671 21.03286 386.4043 17.515625 C 385.91188 13.928046 385.06695 10.868346 383.87109 8.3359375 C 382.67523 5.8035287 381.05757 3.8697522 379.01758 2.5332031 C 377.04793 1.1263093 374.58534 0.52724718 371.63086 0.73828125 C 370.64603 0.80862594 369.66256 1.1266956 368.67773 1.6894531 C 367.76325 2.181866 366.81295 2.814099 365.82812 3.5878906 C 364.91364 4.3616822 364.03359 5.2417368 363.18945 6.2265625 C 362.34532 7.1410435 361.57259 8.019145 360.86914 8.8632812 C 358.96983 11.39569 356.99898 14.703211 354.95898 18.783203 C 352.98933 22.79285 350.95018 27.329714 348.83984 32.394531 C 346.79985 37.389004 344.72558 42.733721 342.61523 48.431641 C 340.57524 54.129561 338.56926 59.899672 336.59961 65.738281 C 334.62996 71.506546 332.73131 77.204456 330.90234 82.832031 C 329.14373 88.389262 327.52607 93.593482 326.04883 98.447266 L 326.04883 98.341797 C 325.6971 99.396967 325.34391 100.48777 324.99219 101.61328 L 323.9375 104.99023 C 324.14853 103.16127 324.3944 101.33092 324.67578 99.501953 C 325.0275 97.672991 325.41582 95.809463 325.83789 93.910156 C 326.3303 92.01085 326.82204 90.006825 327.31445 87.896484 C 327.87721 85.715799 328.47432 83.393705 329.10742 80.931641 L 330.79688 74.072266 C 331.99273 69.007448 333.18891 63.873476 334.38477 58.667969 C 335.65097 53.392117 336.77494 48.291316 337.75977 43.367188 C 338.74459 38.372715 339.51927 33.625107 340.08203 29.123047 C 340.71513 24.620987 341.03125 20.57586 341.03125 16.988281 C 341.03125 15.862766 340.99613 14.771967 340.92578 13.716797 C 340.85544 12.591282 340.75006 11.607808 340.60938 10.763672 C 340.04662 8.020229 339.09631 5.7683829 337.75977 4.0097656 C 336.49356 2.1808037 334.77053 0.98463252 332.58984 0.421875 C 332.02709 0.28118562 331.4651 0.17581344 330.90234 0.10546875 C 330.33959 0.03512406 329.74052 0 329.10742 0 z M 460.06445 51.978516 C 457.30232 51.970822 454.78327 52.583421 452.50586 53.814453 C 449.97345 55.221347 447.79185 57.084875 445.96289 59.40625 C 444.20427 61.727625 442.86761 64.330711 441.95312 67.214844 C 440.9683 70.028631 440.47656 72.73709 440.47656 75.339844 C 440.47656 77.028116 440.68731 78.610652 441.10938 80.087891 C 441.53144 81.565129 442.16563 82.901797 443.00977 84.097656 C 443.8539 85.223171 444.90762 86.136397 446.17383 86.839844 C 447.44003 87.543291 448.9172 87.896484 450.60547 87.896484 C 453.27857 87.966829 456.0924 87.297519 459.04688 85.890625 C 462.00135 84.413387 464.85031 82.620106 467.59375 80.509766 C 470.40754 78.399425 473.01062 76.147579 475.40234 73.755859 C 477.86441 71.36414 479.94063 69.254743 481.62891 67.425781 C 482.33235 66.581645 482.75384 65.806963 482.89453 65.103516 C 483.03522 64.400069 482.92985 63.873208 482.57812 63.521484 C 482.29675 63.099416 481.83818 62.923796 481.20508 62.994141 C 480.64232 63.064485 480.01009 63.485974 479.30664 64.259766 C 478.4625 65.174247 477.02046 66.581162 474.98047 68.480469 C 472.94047 70.379775 470.61838 72.278428 468.01562 74.177734 C 465.48322 76.077041 462.81183 77.766902 459.99805 79.244141 C 457.2546 80.651034 454.75689 81.353516 452.50586 81.353516 C 451.45069 81.353516 450.64088 81.037399 450.07812 80.404297 C 449.51537 79.771195 449.09388 79.031636 448.8125 78.1875 C 448.60147 77.273019 448.49609 76.359793 448.49609 75.445312 C 448.56644 74.530832 448.70693 73.756149 448.91797 73.123047 C 451.94279 73.61546 454.61613 73.474963 456.9375 72.701172 C 459.32922 71.92738 461.29812 70.801457 462.8457 69.324219 C 464.46363 67.84698 465.69493 66.194196 466.53906 64.365234 C 467.3832 62.465928 467.80469 60.672648 467.80469 58.984375 C 467.80469 57.155413 467.27783 55.572877 466.22266 54.236328 C 465.16749 52.829434 463.5147 52.089876 461.26367 52.019531 C 460.85919 51.993152 460.45904 51.979615 460.06445 51.978516 z M 458.83984 62.130859 C 459.04868 62.125364 459.25772 62.132804 459.46875 62.150391 C 460.38323 62.220735 460.8418 62.571976 460.8418 63.205078 C 460.8418 63.83818 460.59593 64.540662 460.10352 65.314453 C 459.6111 66.0179 458.94179 66.68721 458.09766 67.320312 C 457.25352 67.88307 456.19785 68.304559 454.93164 68.585938 C 453.73578 68.867316 452.39911 68.867316 450.92188 68.585938 C 451.9067 66.82732 453.138 65.279908 454.61523 63.943359 C 455.96937 62.773879 457.37799 62.169329 458.83984 62.130859 z "
         style="font-style:normal;font-variant:normal;font-weight:normal;font-stretch:normal;font-size:27.91804886px;line-height:1.25;font-family:'valentine vibes';-inkscape-font-specification:'valentine vibes';letter-spacing:0px;word-spacing:0px;fill:#0d002f;fill-opacity:1;stroke:none;stroke-width:2.63792586" />
      <path
         id="text93"
         transform="matrix(0.26458333,0,0,0.26458333,-110.65038,223.49806)"
         d="M 517.99805 52.853516 L 517.99805 61.509766 L 584.04883 61.509766 L 584.04883 52.853516 L 517.99805 52.853516 z M 517.99805 73.875 L 517.99805 82.632812 L 584.04883 82.632812 L 584.04883 73.875 L 517.99805 73.875 z "
         style="font-style:normal;font-variant:normal;font-weight:normal;font-stretch:normal;font-size:27.91804886px;line-height:1.25;font-family:'valentine vibes';-inkscape-font-specification:'valentine vibes';letter-spacing:0px;word-spacing:0px;fill:#d59a00;fill-opacity:1;stroke:none;stroke-width:2.63792586" />
      <path
         id="text101"
         transform="matrix(0.26458333,0,0,0.26458333,-110.65038,223.49806)"
         d="M 743.07617 0.52148438 C 742.75962 0.5038982 742.40838 0.56438874 742.02148 0.70507812 C 741.31804 0.98645689 740.6858 1.4079456 740.12305 1.9707031 C 739.56029 2.5334606 739.17197 3.1676468 738.96094 3.8710938 C 738.7499 4.504196 738.92748 4.9959328 739.49023 5.3476562 C 740.68609 5.9807585 741.49395 7.2120537 741.91602 9.0410156 C 742.40843 10.869978 742.6543 13.156948 742.6543 15.900391 C 742.6543 19.628659 742.33818 24.025026 741.70508 29.089844 C 741.07198 34.154661 740.19192 39.571579 739.06641 45.339844 C 738.01124 51.037764 736.74677 56.946418 735.26953 63.066406 C 733.79229 69.11605 732.2078 75.024704 730.51953 80.792969 C 728.9016 86.490889 727.17857 91.872682 725.34961 96.9375 C 723.59099 102.00232 721.83284 106.36356 720.07422 110.02148 C 718.38595 113.74975 716.76829 116.59871 715.2207 118.56836 C 713.67312 120.60836 712.2662 121.45133 711 121.09961 C 709.94483 120.74789 709.06478 119.83466 708.36133 118.35742 C 707.65788 116.88018 707.0959 115.0147 706.67383 112.76367 C 706.25176 110.51264 705.97077 107.90956 705.83008 104.95508 C 705.68939 102.0006 705.61914 98.835529 705.61914 95.458984 C 705.61914 88.424515 705.79476 81.778256 706.14648 75.517578 C 706.56855 69.256901 706.84954 62.819432 706.99023 56.207031 C 706.99023 53.885656 706.56875 52.162624 705.72461 51.037109 C 704.95082 49.84125 703.96539 49.242188 702.76953 49.242188 C 701.78471 49.242188 700.69391 49.735877 699.49805 50.720703 C 698.37253 51.635184 697.31686 53.006976 696.33203 54.835938 L 696.33203 54.730469 C 695.48789 56.067018 694.50442 57.825174 693.37891 60.005859 C 692.25339 62.186545 691.05722 64.614011 689.79102 67.287109 C 688.10274 70.945033 686.16897 74.917958 683.98828 79.208984 C 681.87794 83.429666 679.76659 87.404544 677.65625 91.132812 C 675.54591 94.861081 673.54188 98.06323 671.64258 100.73633 C 669.74327 103.40943 668.16074 104.99196 666.89453 105.48438 C 666.19108 105.27334 665.83789 104.28791 665.83789 102.5293 C 665.83789 100.4893 666.19108 97.605222 666.89453 93.876953 C 667.59798 90.07834 668.44096 85.927841 669.42578 81.425781 C 670.05888 78.40096 670.69307 75.200764 671.32617 71.824219 C 672.02962 68.447674 672.66185 65.03478 673.22461 61.587891 C 673.78737 58.141001 674.24398 54.765185 674.5957 51.458984 C 674.94743 48.082439 675.125 44.952492 675.125 42.068359 C 675.125 39.254572 674.87718 36.510989 674.38477 33.837891 C 673.89235 31.094448 673.04938 28.631857 671.85352 26.451172 C 670.728 24.270486 669.18059 22.51233 667.21094 21.175781 C 665.31163 19.839232 662.95441 19.169922 660.14062 19.169922 C 657.53787 19.169922 654.89966 19.768984 652.22656 20.964844 C 649.62381 22.090359 647.09097 23.637771 644.62891 25.607422 C 642.23719 27.577073 639.98729 29.826966 637.87695 32.359375 C 635.76661 34.821439 633.97333 37.389402 632.49609 40.0625 C 631.0892 42.665254 630.03353 45.303464 629.33008 47.976562 C 628.69698 50.579316 628.55648 52.936534 628.9082 55.046875 C 629.25993 56.875837 629.82191 58.142256 630.5957 58.845703 C 631.36949 59.54915 632.14418 59.900391 632.91797 59.900391 C 633.48073 59.900391 634.00759 59.689646 634.5 59.267578 C 635.06276 58.84551 635.48425 58.316696 635.76562 57.683594 C 636.047 56.980147 636.15238 56.207418 636.08203 55.363281 C 636.08203 54.519145 635.83616 53.674214 635.34375 52.830078 L 635.34375 52.935547 C 635.20306 52.654168 635.09769 52.338052 635.02734 51.986328 C 634.957 51.56426 634.92188 51.072523 634.92188 50.509766 C 634.92188 48.188391 635.66143 45.55018 637.13867 42.595703 C 638.68626 39.570881 640.58491 36.721926 642.83594 34.048828 C 645.15731 31.305385 647.6199 29.018415 650.22266 27.189453 C 652.89575 25.290146 655.39152 24.341797 657.71289 24.341797 C 658.83841 24.341797 659.71846 24.622789 660.35156 25.185547 C 661.05501 25.748304 661.58187 26.48591 661.93359 27.400391 C 662.28532 28.314872 662.49801 29.370547 662.56836 30.566406 C 662.70905 31.762266 662.7793 32.993561 662.7793 34.259766 C 662.7793 39.324583 662.49635 44.353183 661.93359 49.347656 C 661.37084 54.271785 660.7386 59.196965 660.03516 64.121094 C 659.40205 69.045222 658.80495 73.96845 658.24219 78.892578 C 657.67943 83.816706 657.39648 88.741887 657.39648 93.666016 C 657.39648 96.479803 657.53698 99.047766 657.81836 101.36914 C 658.09974 103.69052 658.59343 105.65942 659.29688 107.27734 C 660.00032 108.96562 660.94867 110.19691 662.14453 110.9707 C 663.34039 111.81484 664.81951 112.16608 666.57812 112.02539 C 668.75881 111.74401 671.1492 110.0561 673.75195 106.96094 C 676.35471 103.86577 678.99292 100.10164 681.66602 95.669922 C 684.33911 91.167862 686.9422 86.420254 689.47461 81.425781 C 692.00702 76.360964 694.29204 71.753852 696.33203 67.603516 C 694.99548 72.668333 693.73102 78.331119 692.53516 84.591797 C 691.40964 90.852474 690.8457 97.077245 690.8457 103.26758 C 690.8457 108.26205 691.47989 112.79891 692.74609 116.87891 C 694.08264 121.02924 696.26229 124.12407 699.28711 126.16406 C 700.76435 127.14889 702.31176 127.8182 703.92969 128.16992 C 705.61796 128.59199 707.27074 128.73249 708.88867 128.5918 C 710.57694 128.52145 712.16143 128.13509 713.63867 127.43164 C 715.18626 126.79854 716.55609 125.88336 717.75195 124.6875 C 720.21402 122.08475 722.67661 118.28549 725.13867 113.29102 C 727.60074 108.29654 729.95795 102.63376 732.20898 96.302734 C 734.46001 89.901368 736.53429 83.079487 738.43359 75.833984 C 740.40325 68.518137 742.09311 61.307939 743.5 54.203125 C 744.90689 47.027967 745.99574 40.169009 746.76953 33.626953 C 747.61367 27.084897 748.03711 21.386987 748.03711 16.533203 C 748.03711 12.523556 747.64879 9.1457867 746.875 6.4023438 C 746.17155 3.6589008 745.18808 1.7953725 743.92188 0.81054688 C 743.67567 0.63468515 743.39272 0.53907055 743.07617 0.52148438 z M 770.125 52.050781 C 767.36287 52.043087 764.84382 52.655687 762.56641 53.886719 C 760.034 55.293613 757.8524 57.157141 756.02344 59.478516 C 754.26482 61.79989 752.92815 64.402977 752.01367 67.287109 C 751.02885 70.100897 750.53711 72.809356 750.53711 75.412109 C 750.53711 77.100382 750.74785 78.682918 751.16992 80.160156 C 751.59199 81.637395 752.22618 82.974062 753.07031 84.169922 C 753.91445 85.295437 754.96817 86.208662 756.23438 86.912109 C 757.50058 87.615556 758.9797 87.96875 760.66797 87.96875 C 763.34107 88.039095 766.1549 87.369784 769.10938 85.962891 C 772.06385 84.485652 774.91281 82.692372 777.65625 80.582031 C 780.47004 78.471691 783.07117 76.219844 785.46289 73.828125 C 787.92495 71.436406 790.00118 69.327009 791.68945 67.498047 C 792.3929 66.653911 792.81439 65.879228 792.95508 65.175781 C 793.09577 64.472334 792.9904 63.945473 792.63867 63.59375 C 792.35729 63.171682 791.90068 62.996062 791.26758 63.066406 C 790.70482 63.136751 790.07063 63.55824 789.36719 64.332031 C 788.52305 65.246512 787.08101 66.653428 785.04102 68.552734 C 783.00102 70.452041 780.68088 72.350693 778.07812 74.25 C 775.54572 76.149307 772.87238 77.837215 770.05859 79.314453 C 767.31515 80.721347 764.81744 81.425781 762.56641 81.425781 C 761.51124 81.425781 760.70143 81.109665 760.13867 80.476562 C 759.57591 79.84346 759.15443 79.103902 758.87305 78.259766 C 758.66201 77.345285 758.55664 76.432059 758.55664 75.517578 C 758.62699 74.603097 758.76748 73.828415 758.97852 73.195312 C 762.00334 73.687725 764.67667 73.547229 766.99805 72.773438 C 769.38977 71.999646 771.35867 70.873723 772.90625 69.396484 C 774.52418 67.919246 775.75547 66.266462 776.59961 64.4375 C 777.44375 62.538193 777.86719 60.744913 777.86719 59.056641 C 777.86719 57.227679 777.33837 55.645143 776.2832 54.308594 C 775.22803 52.9017 773.57525 52.162142 771.32422 52.091797 C 770.91974 52.065418 770.51959 52.05188 770.125 52.050781 z M 768.90039 62.203125 C 769.10923 62.197629 769.32022 62.203117 769.53125 62.220703 C 770.44573 62.291048 770.90234 62.644242 770.90234 63.277344 C 770.90234 63.910446 770.65648 64.612927 770.16406 65.386719 C 769.67165 66.090166 769.00234 66.759476 768.1582 67.392578 C 767.31407 67.955336 766.26035 68.376824 764.99414 68.658203 C 763.79828 68.939582 762.46161 68.939582 760.98438 68.658203 C 761.9692 66.899586 763.19854 65.352174 764.67578 64.015625 C 766.02992 62.846145 767.43854 62.241595 768.90039 62.203125 z "
         style="font-style:normal;font-variant:normal;font-weight:normal;font-stretch:normal;font-size:27.91804886px;line-height:1.25;font-family:'valentine vibes';-inkscape-font-specification:'valentine vibes';letter-spacing:0px;word-spacing:0px;fill:#0d002f;fill-opacity:1;stroke:none;stroke-width:2.63792586" />
    </g>
  </g>
</svg>
