<?xml version="1.0" encoding="UTF-8" standalone="no"?>
<!-- Created with Inkscape (http://www.inkscape.org/) -->

<svg
   xmlns:dc="http://purl.org/dc/elements/1.1/"
   xmlns:cc="http://creativecommons.org/ns#"
   xmlns:rdf="http://www.w3.org/1999/02/22-rdf-syntax-ns#"
   xmlns:svg="http://www.w3.org/2000/svg"
   xmlns="http://www.w3.org/2000/svg"
   xmlns:sodipodi="http://sodipodi.sourceforge.net/DTD/sodipodi-0.dtd"
   xmlns:inkscape="http://www.inkscape.org/namespaces/inkscape"
   width="100mm"
   height="100mm"
   viewBox="0 0 100 100"
   version="1.1"
   id="svg8"
   inkscape:version="0.92.4 (5da689c313, 2019-01-14)"
   sodipodi:docname="images.svg">
  <defs
     id="defs2" />
  <sodipodi:namedview
     id="base"
     pagecolor="#ffffff"
     bordercolor="#666666"
     borderopacity="1.0"
     inkscape:pageopacity="0.0"
     inkscape:pageshadow="2"
     inkscape:zoom="0.63735762"
     inkscape:cx="196.01201"
     inkscape:cy="143.33692"
     inkscape:document-units="mm"
     inkscape:current-layer="layer1"
     showgrid="false"
     fit-margin-top="0"
     fit-margin-left="0"
     fit-margin-right="0"
     fit-margin-bottom="0"
     inkscape:window-width="1440"
     inkscape:window-height="786"
     inkscape:window-x="0"
     inkscape:window-y="27"
     inkscape:window-maximized="1" />
  <metadata
     id="metadata5">
    <rdf:RDF>
      <cc:Work
         rdf:about="">
        <dc:format>image/svg+xml</dc:format>
        <dc:type
           rdf:resource="http://purl.org/dc/dcmitype/StillImage" />
        <dc:title />
      </cc:Work>
    </rdf:RDF>
  </metadata>
  <g
     inkscape:label="Capa 1"
     inkscape:groupmode="layer"
     id="layer1"
     transform="translate(-55,-98.5)">
    <g
       id="g283">
      <path
         style="fill:#140049;fill-opacity:0.19323671;stroke-width:0.18554686"
         inkscape:connector-curvature="0"
         d="M 143.59375,184.125 H 66.406249 C 61.487402,184.125 57.5,180.1376 57.5,175.21875 v -53.4375 c 0,-4.91884 3.987402,-8.90625 8.906249,-8.90625 h 77.187501 c 4.91884,0 8.90625,3.98741 8.90625,8.90625 v 53.4375 c 0,4.91885 -3.98741,8.90625 -8.90625,8.90625 z M 78.281249,123.26562 c -5.738593,0 -10.390624,4.65204 -10.390624,10.39064 0,5.73859 4.652031,10.39061 10.390624,10.39061 5.738594,0 10.390625,-4.65202 10.390625,-10.39061 0,-5.7386 -4.652031,-10.39064 -10.390625,-10.39064 z M 69.374999,172.25 H 140.625 v -20.78124 l -16.23814,-16.23814 c -0.86947,-0.86947 -2.27925,-0.86947 -3.14891,0 L 96.093748,160.37501 85.793115,150.07437 c -0.869474,-0.86947 -2.279258,-0.86947 -3.148917,0 l -13.269199,13.26938 z"
         id="path268" />
      <rect
         y="98.5"
         x="55"
         height="100"
         width="100"
         id="rect279"
         style="fill:none;fill-opacity:1;stroke:none;stroke-width:1.2116127;stroke-miterlimit:4;stroke-dasharray:none;stroke-opacity:1" />
    </g>
  </g>
</svg>
